<svg width="13" height="16" viewBox="0 0 13 16" fill="none" xmlns="http://www.w3.org/2000/svg">
<path d="M11.6338 5.35757C11.4326 4.65973 10.7576 4.27447 10.1249 4.4964C9.71823 4.63907 9.42379 4.9985 9.31829 5.43801L9.30871 5.40478C9.10752 4.70694 8.42771 4.30506 7.78 4.53227C7.3733 4.67494 7.07886 5.03437 6.97336 5.47388L6.96378 5.44065C6.76259 4.74281 6.08278 4.34093 5.43507 4.56815C5.02837 4.71082 4.73392 5.07025 4.62843 5.50976L3.30639 0.924289C3.21058 0.591983 2.99427 0.301949 2.71632 0.143311C2.43838 -0.0153263 2.09879 -0.0425679 1.79753 0.0631126C1.16489 0.285042 0.815618 1.02962 1.0216 1.74408L3.56514 10.5663C3.5843 10.6327 3.57333 10.7098 3.5076 10.7694C3.45693 10.8238 3.39189 10.8283 3.31726 10.7996L1.77897 9.89385C1.26279 9.59924 0.626041 9.74942 0.259686 10.2622C0.046036 10.5566 -0.0389127 10.9524 0.0164959 11.3171C0.076695 11.6985 0.272461 12.0324 0.564779 12.2408L4.58809 15.0924C5.73272 15.8984 7.1198 16.107 8.41521 15.6526L10.2228 15.0185C11.232 14.6645 12.0715 13.8943 12.5495 12.8484C13.0426 11.7973 13.1324 10.6131 12.8115 9.49989L11.6338 5.35757Z" fill="#162736"/>
</svg>
