<svg width="235" height="99" viewBox="0 0 235 99" fill="none" xmlns="http://www.w3.org/2000/svg">
<path d="M126.98 4.98177C123.16 7.74356 116.423 12.6477 112.035 15.8483L104.085 21.6816L100.033 20.7266C97.8133 20.2103 95.8517 19.7974 95.671 19.7974C95.3096 19.7974 88.5987 23.8497 68.2596 36.3423C61.4196 40.5495 60.6711 40.9367 57.3673 42.0724C51.8179 43.9566 38.1638 49.4027 38.3961 49.635C38.4477 49.6867 39.1188 49.5576 39.8931 49.3253C46.2943 47.4153 60.7227 44.3179 68.7758 43.1564C70.2728 42.9241 71.6666 42.6918 71.8731 42.6402C73.1121 42.2789 85.1659 40.8851 95.2322 39.93C115.184 38.0716 145.667 37.891 164.019 39.5429C164.948 39.6461 167.09 39.8526 168.794 40.0591C170.497 40.2656 173.053 40.5495 174.472 40.7044C179.48 41.2464 194.295 43.8017 194.683 44.1889C195.173 44.6535 193.779 44.6019 189.52 44.0082C184.152 43.2597 173.13 42.124 168.536 41.8659C166.987 41.7884 162.677 41.5303 158.986 41.3238C140.221 40.214 115.855 40.7818 96.1356 42.7693C77.4741 44.6277 56.5413 48.6542 41.2869 53.2744L36.3828 54.7715L44.6682 54.8489L52.9536 54.9005L56.2832 54.1262C79.4616 48.68 99.1039 45.6859 120.656 44.3179C138.93 43.1306 154.443 43.0532 171.891 44.0856C184.771 44.8342 197.47 46.4345 206.736 48.4735C214.041 50.0738 224.21 52.9647 230.276 55.1328C232.238 55.8297 233.864 56.3717 233.89 56.3459C234.019 56.2169 227.85 53.4809 224.34 52.0871C222.61 51.3902 219.281 50.1771 216.932 49.3769C214.583 48.6026 211.227 47.3637 209.472 46.6409C206.143 45.273 198.141 42.3821 195.173 41.4787C193.779 41.0399 192.618 40.343 189.365 37.9426C187.146 36.2907 184.565 34.4065 183.661 33.7612C182.758 33.1159 181.132 31.9286 180.048 31.1284C167.968 22.2494 164.2 19.5392 163.941 19.5392C163.761 19.5392 162.599 19.9522 161.335 20.4426C160.07 20.933 158.882 21.346 158.728 21.346C158.573 21.346 155.527 18.7649 151.991 15.6418C143.783 8.33721 134.31 0.077652 134.104 0.000217438C134.026 -0.0255928 130.826 2.21997 126.98 4.98177ZM141.512 10.8151C151.707 20.4943 160.302 29.0119 160.096 29.2184C159.941 29.3733 157.282 27.6439 147.061 20.7266C144.454 18.9714 142.338 17.5518 142.338 17.6034C142.338 17.7067 143.525 21.3976 144.428 24.1336C144.867 25.45 145.177 26.6115 145.074 26.6889C144.996 26.7664 142.854 25.9404 140.298 24.8305L135.678 22.8173L132.658 25.3726C128.735 28.6764 128.4 28.9345 128.219 28.728C128.141 28.6506 128.193 27.9795 128.348 27.231C128.503 26.4824 128.993 24.1853 129.432 22.1204C129.871 20.0813 130.18 18.3003 130.155 18.1971C130.103 18.0938 126.102 21.3202 121.224 25.3468C116.372 29.3991 112.268 32.7029 112.139 32.7029C111.777 32.7029 111.777 32.6513 112.939 29.0119C113.507 27.1793 113.945 25.6049 113.894 25.4758C113.842 25.3468 110.796 27.2052 107.105 29.6314C103.414 32.0318 100.317 33.9935 100.214 33.9935C99.5685 33.9935 100.498 32.9352 104.085 29.554C112.035 22.1204 117.094 17.7067 117.533 17.8357C117.765 17.9131 118.901 17.9906 120.037 18.0422L122.153 18.1196L126.722 12.4412C131.471 6.55624 133.794 3.79445 134.001 3.79445C134.052 3.79445 137.433 6.96922 141.512 10.8151ZM98.9232 24.7015C98.949 24.7015 98.9748 24.9596 98.9748 25.2951C98.9748 25.9146 98.1489 27.6439 97.4778 28.3925C97.1164 28.8054 97.039 28.8054 96.626 28.4441C96.2388 28.0569 95.4645 28.3925 87.1017 32.5481C75.4093 38.3814 74.893 38.4846 81.9911 33.4515C84.4173 31.7221 88.5987 28.8313 91.2831 26.9987L96.1872 23.6948L97.5294 24.1853C98.2521 24.4692 98.8716 24.7015 98.9232 24.7015ZM169.259 27.36C176.382 32.5481 176.382 32.5481 176.408 32.8836C176.408 33.0643 176.331 33.2192 176.253 33.2192C176.176 33.2192 174.55 32.419 172.64 31.4124C170.73 30.4315 169.181 29.683 169.181 29.8121C169.181 29.9153 169.646 30.8703 170.214 31.9286C171.504 34.3548 171.53 34.9743 170.265 33.5805C166.626 29.5282 162.986 25.1403 162.986 24.8563C162.986 24.5466 163.838 23.9788 164.354 23.953C164.458 23.9271 166.677 25.4758 169.259 27.36Z" fill="white"/>
<path d="M4.29993 54.6928C1.97693 69.5342 0.118526 81.1492 0.0152819 81.5622C-0.0879627 81.9751 0.221771 82.0009 4.4548 81.9493L9.02337 81.8719L9.17823 80.7104C9.28148 80.0651 9.72027 77.3291 10.1591 74.6448C10.5978 71.9346 11.4238 66.824 11.9916 63.2879C12.5595 59.7259 13.0757 56.577 13.1531 56.2414C13.2822 55.6736 13.3338 55.6736 18.0831 55.6736H22.8839L22.7549 56.2414C22.6 56.7835 21.9806 60.5519 19.5801 75.5482C19.0897 78.5939 18.6509 81.304 18.5993 81.5622C18.4961 81.9751 18.78 82.0009 22.7807 81.9493L27.0912 81.8719L27.4009 79.9361C27.5558 78.8778 27.9946 76.2451 28.3817 74.1285C28.7431 71.9862 29.2851 68.9663 29.5432 67.4177C29.8013 65.8432 30.3434 62.9523 30.7047 60.9649C31.0661 58.9774 31.6081 55.9059 31.8662 54.1249C32.1501 52.3439 32.4599 50.5888 32.5373 50.1758L32.6922 49.4789H18.909H5.12589L4.29993 54.6928Z" fill="white"/>
<path d="M136.659 51.2333L133.407 51.3107L133.097 53.6853C132.761 56.0858 130.903 68.2944 129.948 74.2568C129.664 76.0378 129.303 78.2833 129.148 79.29C128.993 80.2708 128.812 81.3032 128.761 81.5355C128.632 81.9743 128.941 82.0001 132.891 82.0001C137.124 82.0001 137.175 82.0001 137.278 81.4065C137.356 81.0967 137.588 79.5481 137.82 77.9994C138.053 76.4249 138.569 73.1727 138.982 70.7723C139.395 68.346 139.963 64.6551 140.272 62.5385C140.556 60.422 140.866 58.6152 140.944 58.4862C141.021 58.3571 143.809 58.2539 147.164 58.2797C150.494 58.2797 153.281 58.2539 153.333 58.2023C153.462 58.0474 154.52 51.5172 154.417 51.4139C154.288 51.2849 140.763 51.13 136.659 51.2333Z" fill="white"/>
<path d="M39.9963 59.9833C38.8607 60.1382 36.5377 60.8093 35.1697 61.4029L33.9565 61.9192L33.8017 63.6227C33.7242 64.5777 33.5952 65.7908 33.5177 66.307C33.4403 66.8491 33.4145 67.2879 33.4919 67.2879C33.5436 67.2879 34.2405 67.0039 35.0406 66.6426C38.4477 65.1455 42.2935 64.7584 43.5841 65.765C44.1777 66.2296 44.281 66.4877 44.2036 67.3911L44.1261 68.4494L42.3193 68.6559C39.2994 68.9914 36.1763 69.6109 35.0148 70.1271C32.253 71.366 30.6011 73.6116 30.3946 76.4508C30.1623 79.2126 31.0399 80.8645 33.2596 81.897C35.6343 83.0069 39.5317 82.4648 41.6999 80.7355C42.2419 80.2967 42.7323 79.9353 42.7839 79.9353C42.8614 79.9353 43.0421 80.2967 43.2485 80.7355C43.6873 81.8454 45.2102 82.5164 47.2235 82.4906C50.3724 82.439 50.4499 82.3616 50.8112 79.3675C50.9919 78.0769 50.9403 77.9221 50.4757 77.793C49.8046 77.6381 49.8046 77.5091 50.6047 72.9663C52.0243 64.7068 51.6372 62.3579 48.6431 60.8351C46.9912 59.9833 42.9646 59.5962 39.9963 59.9833ZM43.3776 73.8955C43.3002 74.6957 43.0937 75.5732 42.9388 75.8314C42.6033 76.5024 40.8481 77.3542 39.8673 77.3542C37.5959 77.3542 36.8216 75.6249 38.3186 73.8955C39.1704 72.9405 40.3319 72.5275 42.2935 72.4759L43.5583 72.4501L43.3776 73.8955Z" fill="white"/>
<path d="M119.03 60.086C117.739 60.3957 116.035 61.2733 115.184 62.0735C114.409 62.7962 114.383 62.7704 114.461 61.2733L114.513 60.3183H111.131C107.853 60.3183 107.75 60.3441 107.621 60.8861C107.544 61.2217 107.079 64.3706 106.589 67.9326C106.072 71.4687 105.453 75.7792 105.169 77.4827C104.472 81.7157 103.336 89.2526 103.285 89.8204C103.233 90.2592 103.491 90.3108 106.718 90.2592C108.628 90.2592 110.228 90.2076 110.254 90.156C110.305 90.1302 110.589 88.2201 110.951 85.8971C111.286 83.5999 111.622 81.6641 111.699 81.5867C111.777 81.5092 112.396 81.6125 113.093 81.819C115.08 82.4642 116.345 82.5675 118.1 82.2578C123.417 81.2769 126.773 76.9665 127.625 69.8942C128.27 64.6288 126.695 61.2475 123.133 60.1892C121.714 59.7763 120.527 59.7246 119.03 60.086ZM119.365 66.4613C120.346 67.468 120.578 69.3522 120.01 71.8301C119.288 75.0565 117.662 76.8116 115.235 77.0439C114.487 77.1213 113.609 77.0181 113.145 76.8374C112.37 76.5019 112.37 76.4761 112.525 75.1855C113.067 70.9783 113.764 67.3647 114.1 66.9776C114.771 66.2549 116.087 65.7386 117.378 65.7386C118.41 65.7386 118.746 65.8677 119.365 66.4613Z" fill="white"/>
<path d="M159.71 60.0611C158.419 60.3193 156.87 61.0936 155.812 61.997C155.399 62.3583 154.96 62.6423 154.857 62.6423C154.754 62.6423 154.754 62.126 154.857 61.4808L155.012 60.2934L151.45 60.3709L147.888 60.4483L147.578 62.5132C147.398 63.6489 146.907 66.9011 146.468 69.7403C146.03 72.5795 145.436 76.348 145.178 78.1289C143.862 86.724 143.629 88.2727 143.707 88.3501C143.887 88.5566 150.366 89.5375 150.521 89.4084C150.598 89.3052 150.908 87.6274 151.218 85.6916C151.76 82.1813 151.76 82.1297 152.405 82.1813C156.767 82.6201 157.257 82.5943 159.451 81.9232C163.039 80.7875 165.388 78.5419 166.808 74.8509C168.743 69.8177 168.46 64.2167 166.137 61.7905C164.691 60.2676 162.084 59.5707 159.71 60.0611ZM159.684 66.4881L160.535 67.2366V69.7919C160.535 72.1408 160.458 72.5021 159.761 73.8701C158.651 76.0382 157.128 76.9674 154.702 76.9674C153.747 76.9674 152.895 76.9158 152.818 76.8384C152.766 76.7609 152.999 74.6702 153.36 72.1924C154.057 67.3399 154.212 66.9527 155.864 66.1526C157.206 65.4815 158.703 65.6105 159.684 66.4881Z" fill="white"/>
<path d="M55.7673 61.0159C55.4834 62.4871 55.0962 64.965 54.4509 69.2238C54.1154 71.6242 53.5217 75.4701 53.1604 77.7157C52.799 79.9871 52.5409 81.8713 52.5925 81.8971C52.7216 82.0261 54.0121 82.0778 56.5674 82.0519L59.1744 82.0003L59.3292 81.2776C59.4583 80.6581 61.0328 70.2304 61.0328 69.9723C61.0328 69.9207 61.136 69.8691 61.2651 69.8691C61.3941 69.8691 61.9103 71.6501 62.4266 73.7924C63.7429 79.2385 63.5364 78.903 65.5239 78.903H67.2016L69.8344 74.257C71.2798 71.7017 72.5187 69.6626 72.5961 69.7142C72.6736 69.7917 72.4671 71.5726 72.1315 73.6633C71.8218 75.7798 71.4088 78.4642 71.2282 79.6773C71.0475 80.8904 70.97 81.9487 71.0733 82.0519C71.1507 82.1552 72.6994 82.1552 74.5062 82.0778L77.7584 81.9229L77.9391 80.7356C78.636 75.8573 80.675 63.0291 81.0622 61.0159L81.2171 60.319H77.1131H73.0091L70.5571 64.3713C69.1891 66.6169 67.8469 68.8366 67.5888 69.2754C67.3307 69.74 67.0209 70.1272 66.9435 70.1272C66.8403 70.1272 66.3757 68.5269 65.9369 66.5653C65.4723 64.6294 64.9561 62.4355 64.8012 61.7386L64.4915 60.448L60.2068 60.3706L55.9222 60.319L55.7673 61.0159Z" fill="white"/>
<path d="M84.1326 60.6285C84.081 60.8092 83.7197 63.0031 83.3583 65.481C82.997 67.9589 82.2742 72.6565 81.7838 75.9345C81.3192 79.1867 80.9062 81.8969 80.9062 81.9227C80.9062 81.9743 82.4549 82.0001 84.3391 82.0001C87.5655 81.9743 87.772 81.9485 88.1592 81.4065C92.5729 75.2634 94.0957 73.1211 94.8443 72.0112C95.7477 70.6432 96.1348 70.3593 96.1348 70.9788C96.1348 71.1595 95.7993 73.6373 95.3605 76.4507C94.9475 79.2642 94.5862 81.6904 94.5862 81.7936C94.5862 81.8969 96.0832 82.0001 97.9416 82.0001C101.194 82.0001 101.297 81.9743 101.426 81.4065C101.504 81.0967 101.787 79.2642 102.071 77.3541C103.052 70.4367 104.394 61.4803 104.549 60.8866L104.704 60.3188H101.22H97.7093L93.657 65.9972C91.4372 69.1204 89.5272 71.6757 89.3981 71.6757C89.2691 71.6757 89.2174 71.4176 89.2691 71.082C89.3465 70.7723 89.5272 69.9205 89.6562 69.2236C89.9143 68.0621 90.9726 60.9899 90.9726 60.4995C90.9726 60.3962 89.4497 60.3188 87.6171 60.3188C85.1393 60.3188 84.2101 60.3962 84.1326 60.6285Z" fill="white"/>
<path d="M169.001 61.1448C169.13 61.8933 170.807 69.3527 173.027 79.0319C173.75 82.2583 173.776 82.4131 173.363 83.1617C172.743 84.2457 170.936 85.0975 169.284 85.0975H167.942L167.633 87.3431C167.478 88.6078 167.323 89.8468 167.297 90.1049C167.245 90.5695 167.4 90.5953 169.155 90.5437C171.298 90.4662 173.517 89.8726 175.195 88.8659C177.725 87.3947 178.396 86.3106 184.952 73.0953C188.359 66.2812 191.121 60.6285 191.121 60.4995C191.121 60.3962 189.572 60.3188 187.688 60.3188H184.229L181.441 66.9007C179.893 70.54 178.551 73.5599 178.422 73.6374C178.112 73.818 178.086 73.6116 177.441 68.7074C177.131 66.2812 176.77 63.4162 176.615 62.3063L176.357 60.3188H172.614H168.846L169.001 61.1448Z" fill="white"/>
<path d="M192.307 60.7576C192.256 61.0157 191.92 62.8999 191.611 64.9648C191.301 67.0297 190.552 71.6757 189.984 75.2892L188.9 81.8711L192.256 81.9485C194.166 81.9743 195.663 81.9227 195.74 81.7678C195.844 81.6388 196.463 78.051 197.16 73.818C197.883 69.585 198.554 66.0489 198.709 65.9456C198.863 65.8424 200.077 65.7391 201.393 65.7391C203.251 65.7391 203.819 65.8166 203.922 66.1263C204 66.3328 203.845 67.9847 203.535 69.7915C202.606 75.4957 201.703 81.4065 201.703 81.7162C201.703 81.9227 202.787 82.0001 205.161 82.0001H208.646L208.801 80.7612C208.904 80.0901 209.394 77.1735 209.885 74.2568C210.814 68.7332 212.027 60.9382 212.027 60.5511C212.027 60.422 207.82 60.3188 202.245 60.3188C193.133 60.3188 192.437 60.3446 192.307 60.7576Z" fill="white"/>
<path d="M214.893 62.1772C214.712 63.2096 214.299 65.7907 213.964 67.9331C213.628 70.0496 213.035 73.7148 212.673 76.0636C212.312 78.4124 211.951 80.7096 211.873 81.1484L211.744 82.0001H215.384H218.997L219.023 81.1484C219.023 80.7096 219.565 77.0702 220.236 73.0953L221.449 65.8682L224.004 65.7907C225.424 65.7649 226.663 65.8166 226.792 65.9456C226.999 66.1521 225.631 75.8571 224.701 80.7612L224.495 82.0001H228.057C230.044 82.0001 231.645 81.9485 231.645 81.8711C231.645 81.8195 231.98 79.5223 232.419 76.7863C232.832 74.0503 233.529 69.4817 233.968 66.6425C234.381 63.8033 234.793 61.2222 234.871 60.8866L235 60.3188H225.088H215.177L214.893 62.1772Z" fill="white"/>
<path d="M77.8622 84.8658C54.8903 85.6402 33.9316 88.7375 17.4125 93.8481C14.47 94.7773 14.6249 94.8031 18.3417 94.132C19.8904 93.8481 21.9036 93.4868 22.8328 93.3577C23.762 93.2287 26.0334 92.8931 27.866 92.6092C33.1315 91.809 40.9781 90.8282 44.5142 90.5185C46.2951 90.3636 48.8505 90.1313 50.1926 90.0023C59.4846 89.0473 76.7007 88.402 89.2965 88.5052L100.369 88.5827L100.653 86.6984C100.808 85.666 100.886 84.7626 100.808 84.711C100.628 84.5303 84.8054 84.6335 77.8622 84.8658Z" fill="white"/>
<path d="M231.258 87.7047C228.883 88.479 221.837 90.1567 217.965 90.8794C211.564 92.0667 205.756 92.8153 197.961 93.4089C191.896 93.8735 166.214 93.8735 161.439 93.4089C156.612 92.9443 149.643 92.1442 147.707 91.8344C146.804 91.7054 144.352 91.3182 142.209 91.0343C140.093 90.7246 136.944 90.26 135.24 89.976C130.646 89.2791 119.624 88.1693 116.527 88.1176L113.817 88.066L113.74 88.9952L113.662 89.9502L115.675 90.1051C124.296 90.8536 131.575 91.8861 139.112 93.4863C160.148 97.9517 165.93 98.6228 182.087 98.6486C193.625 98.6486 197.368 98.3905 205.679 96.945C215.306 95.2931 225.244 91.9377 231.516 88.2467C233.529 87.0594 233.503 86.9819 231.258 87.7047Z" fill="white"/>
</svg>
