<svg width="120" height="51" viewBox="0 0 120 51" fill="none" xmlns="http://www.w3.org/2000/svg">
<path d="M64.7772 2.54137C62.8285 3.95026 59.3919 6.45201 57.1535 8.08474L53.098 11.0605L51.0307 10.5733C49.8984 10.31 48.8977 10.0993 48.8055 10.0993C48.6212 10.0993 45.1977 12.1666 34.822 18.5395C31.3327 20.6857 30.9508 20.8832 29.2654 21.4626C26.4345 22.4238 19.4691 25.202 19.5876 25.3205C19.6139 25.3469 19.9563 25.281 20.3513 25.1625C23.6167 24.1882 30.9772 22.6081 35.0853 22.0156C35.849 21.8971 36.56 21.7786 36.6654 21.7522C37.2974 21.5679 43.4465 20.8569 48.5817 20.3697C58.7599 19.4217 74.3103 19.3295 83.6721 20.1722C84.1461 20.2249 85.239 20.3302 86.108 20.4355C86.9771 20.5409 88.2806 20.6857 89.0048 20.7647C91.5592 21.0412 99.1172 22.3448 99.3147 22.5423C99.5649 22.7793 98.8538 22.7529 96.6813 22.4501C93.9425 22.0683 88.3201 21.4889 85.9764 21.3572C85.1863 21.3177 82.9874 21.1861 81.1045 21.0807C71.532 20.5145 59.1022 20.8042 49.0425 21.8181C39.5227 22.7661 28.8441 24.8202 21.0623 27.1771L18.5605 27.9408L22.7872 27.9803L27.0139 28.0066L28.7124 27.6116C40.5365 24.8334 50.5567 23.306 61.5513 22.6081C70.8736 22.0024 78.7871 21.9629 87.6881 22.4896C94.2585 22.8715 100.737 23.6878 105.464 24.728C109.19 25.5444 114.378 27.0191 117.472 28.1251C118.473 28.4807 119.302 28.7572 119.316 28.744C119.381 28.6782 116.234 27.2824 114.444 26.5714C113.562 26.2159 111.863 25.5971 110.665 25.1889C109.467 24.7939 107.755 24.1618 106.859 23.7932C105.161 23.0953 101.079 21.6206 99.5649 21.1597C98.8538 20.9359 98.2613 20.5804 96.6022 19.3558C95.4699 18.5131 94.1532 17.5519 93.6923 17.2227C93.2315 16.8936 92.4019 16.2879 91.8489 15.8797C85.6867 11.3502 83.7643 9.96764 83.6326 9.96764C83.5404 9.96764 82.9479 10.1783 82.3027 10.4285C81.6575 10.6787 81.0518 10.8893 80.9728 10.8893C80.8938 10.8893 79.3401 9.57263 77.5362 7.9794C73.3491 4.2531 68.5167 0.0396137 68.4114 0.000112534C68.3719 -0.0130558 66.7392 1.13249 64.7772 2.54137ZM72.1904 5.51715C77.3914 10.4548 81.776 14.8 81.6707 14.9053C81.5917 14.9843 80.2355 14.1021 75.0213 10.5733C73.6914 9.67797 72.6117 8.95377 72.6117 8.98011C72.6117 9.03278 73.2174 10.9157 73.6782 12.3114C73.9021 12.9829 74.0601 13.5754 74.0074 13.6149C73.9679 13.6544 72.875 13.2331 71.5715 12.6669L69.2146 11.6399L67.674 12.9434C65.6726 14.6288 65.5014 14.7605 65.4093 14.6551C65.3698 14.6156 65.3961 14.2733 65.4751 13.8915C65.5541 13.5096 65.8043 12.3377 66.0281 11.2844C66.252 10.2442 66.41 9.33562 66.3968 9.28295C66.3705 9.23028 64.3296 10.8762 61.841 12.9303C59.3655 14.9975 57.272 16.6829 57.2061 16.6829C57.0218 16.6829 57.0218 16.6566 57.6143 14.8C57.904 13.8651 58.1278 13.0619 58.1015 12.9961C58.0752 12.9303 56.5214 13.8783 54.6385 15.116C52.7556 16.3405 51.1756 17.3412 51.1229 17.3412C50.7937 17.3412 51.2677 16.8014 53.098 15.0765C57.1535 11.2844 59.7342 9.03278 59.9581 9.09861C60.0766 9.13811 60.6559 9.17761 61.2353 9.20395L62.315 9.24345L64.6456 6.34668C67.0683 3.34457 68.2534 1.93568 68.3587 1.93568C68.385 1.93568 70.1099 3.55524 72.1904 5.51715ZM50.4646 12.6011C50.4777 12.6011 50.4909 12.7327 50.4909 12.9039C50.4909 13.2199 50.0695 14.1021 49.7272 14.484C49.5429 14.6947 49.5034 14.6947 49.2927 14.5103C49.0952 14.3128 48.7002 14.484 44.434 16.6039C38.4693 19.5797 38.2059 19.6323 41.8269 17.0647C43.0646 16.1825 45.1977 14.7078 46.5671 13.773L49.0688 12.0876L49.7535 12.3377C50.1222 12.4826 50.4382 12.6011 50.4646 12.6011ZM86.345 13.9573C89.9792 16.6039 89.9792 16.6039 89.9923 16.7751C89.9923 16.8672 89.9528 16.9462 89.9133 16.9462C89.8738 16.9462 89.0443 16.5381 88.0699 16.0245C87.0956 15.5242 86.3055 15.1423 86.3055 15.2082C86.3055 15.2608 86.5425 15.748 86.8322 16.2879C87.4906 17.5256 87.5038 17.8416 86.8586 17.1306C85.002 15.0633 83.1454 12.8249 83.1454 12.6801C83.1454 12.5221 83.5799 12.2324 83.8433 12.2192C83.896 12.2061 85.0283 12.9961 86.345 13.9573Z" fill="#3F89E5"/>
<path d="M2.19354 27.9013C1.0085 35.4724 0.0604644 41.3976 0.00779581 41.6083C-0.0448728 41.819 0.113133 41.8321 2.27255 41.8058L4.60313 41.7663L4.68213 41.1738C4.7348 40.8446 4.95864 39.4489 5.18249 38.0795C5.40633 36.697 5.82768 34.0899 6.11735 32.286C6.40703 30.4689 6.67037 28.8625 6.70988 28.6913C6.77571 28.4016 6.80204 28.4016 9.2248 28.4016H11.6739L11.6081 28.6913C11.5291 28.9678 11.213 30.8902 9.98849 38.5404C9.73832 40.0941 9.51448 41.4766 9.48814 41.6083C9.43547 41.819 9.58031 41.8321 11.6212 41.8058L13.8201 41.7663L13.9781 40.7788C14.0571 40.2389 14.281 38.8959 14.4785 37.8162C14.6628 36.7233 14.9393 35.1827 15.071 34.3927C15.2027 33.5895 15.4792 32.1148 15.6635 31.1009C15.8479 30.087 16.1244 28.5202 16.2561 27.6116C16.4009 26.7031 16.5589 25.8077 16.5984 25.597L16.6774 25.2415H9.64615H2.61489L2.19354 27.9013Z" fill="#3F89E5"/>
<path d="M69.7144 26.1369L68.0554 26.1764L67.8974 27.3878C67.7262 28.6123 66.7781 34.8404 66.291 37.882C66.1461 38.7905 65.9618 39.9361 65.8828 40.4496C65.8038 40.95 65.7116 41.4766 65.6853 41.5952C65.6194 41.819 65.7774 41.8322 67.792 41.8322C69.9514 41.8322 69.9778 41.8322 70.0304 41.5293C70.0699 41.3713 70.1884 40.5813 70.3069 39.7913C70.4254 38.9881 70.6888 37.329 70.8995 36.1045C71.1101 34.8667 71.3998 32.9838 71.5578 31.9041C71.7027 30.8244 71.8607 29.9027 71.9002 29.8369C71.9397 29.7711 73.3617 29.7184 75.0735 29.7316C76.772 29.7316 78.1941 29.7184 78.2204 29.692C78.2862 29.613 78.8261 26.2818 78.7734 26.2291C78.7076 26.1633 71.808 26.0842 69.7144 26.1369Z" fill="#3F89E5"/>
<path d="M20.404 30.6006C19.8246 30.6796 18.6396 31.0219 17.9417 31.3248L17.3228 31.5881L17.2438 32.4572C17.2043 32.9443 17.1385 33.5632 17.099 33.8265C17.0595 34.1031 17.0463 34.3269 17.0858 34.3269C17.1122 34.3269 17.4677 34.1821 17.8759 33.9977C19.6139 33.234 21.5758 33.0365 22.2342 33.55C22.537 33.787 22.5897 33.9187 22.5502 34.3796L22.5107 34.9194L21.589 35.0248C20.0484 35.1959 18.4552 35.5119 17.8627 35.7753C16.4538 36.4073 15.6111 37.5528 15.5058 39.0012C15.3873 40.4101 15.835 41.2528 16.9673 41.7795C18.1787 42.3457 20.1669 42.0692 21.273 41.187C21.5495 40.9631 21.7997 40.7788 21.826 40.7788C21.8655 40.7788 21.9577 40.9631 22.063 41.187C22.2869 41.7532 23.0637 42.0955 24.0908 42.0823C25.6971 42.056 25.7366 42.0165 25.921 40.4891C26.0132 39.8308 25.9868 39.7518 25.7498 39.6859C25.4075 39.6069 25.4075 39.5411 25.8157 37.2237C26.5398 33.0102 26.3423 31.812 24.8149 31.0351C23.9723 30.6006 21.9182 30.4031 20.404 30.6006ZM22.1288 37.6977C22.0893 38.1059 21.984 38.5535 21.905 38.6852C21.7338 39.0276 20.8385 39.4621 20.3381 39.4621C19.1794 39.4621 18.7844 38.5799 19.5481 37.6977C19.9826 37.2105 20.5751 36.9998 21.5758 36.9735L22.221 36.9603L22.1288 37.6977Z" fill="#3F89E5"/>
<path d="M60.7212 30.6532C60.0629 30.8112 59.1939 31.2589 58.7593 31.6671C58.3643 32.0358 58.3512 32.0226 58.3907 31.2589L58.417 30.7717H56.6921C55.0199 30.7717 54.9672 30.7849 54.9014 31.0614C54.8619 31.2326 54.6249 32.839 54.3747 34.6561C54.1113 36.46 53.7953 38.6589 53.6505 39.5279C53.295 41.6873 52.7156 45.5321 52.6893 45.8218C52.6629 46.0456 52.7946 46.072 54.4405 46.0456C55.4149 46.0456 56.2312 46.0193 56.2444 45.993C56.2707 45.9798 56.4156 45.0054 56.5999 43.8204C56.7711 42.6485 56.9423 41.661 56.9818 41.6215C57.0213 41.582 57.3373 41.6346 57.6928 41.74C58.7067 42.0692 59.3519 42.1218 60.2472 41.9638C62.9597 41.4635 64.6714 39.2646 65.1059 35.6568C65.4351 32.9707 64.6319 31.2458 62.8148 30.7059C62.0906 30.4952 61.4849 30.4689 60.7212 30.6532ZM60.8924 33.9055C61.3928 34.419 61.5113 35.3802 61.2216 36.6443C60.8529 38.2902 60.0234 39.1856 58.7857 39.3041C58.4038 39.3436 57.9561 39.2909 57.7191 39.1987C57.3241 39.0275 57.3241 39.0144 57.4031 38.356C57.6796 36.2098 58.0351 34.3664 58.2063 34.1689C58.5487 33.8002 59.2202 33.5368 59.8785 33.5368C60.4052 33.5368 60.5764 33.6027 60.8924 33.9055Z" fill="#3F89E5"/>
<path d="M81.4729 30.6401C80.8145 30.7717 80.0245 31.1668 79.4847 31.6276C79.274 31.8119 79.0501 31.9568 78.9975 31.9568C78.9448 31.9568 78.9448 31.6934 78.9975 31.3643L79.0765 30.7586L77.2594 30.7981L75.4423 30.8376L75.2843 31.8909C75.1922 32.4703 74.942 34.1294 74.7181 35.5778C74.4943 37.0261 74.1915 38.9485 74.0598 39.8571C73.3883 44.2417 73.2698 45.0318 73.3093 45.0713C73.4014 45.1766 76.7064 45.677 76.7854 45.6111C76.8249 45.5585 76.9829 44.7026 77.1409 43.715C77.4174 41.9243 77.4174 41.898 77.7466 41.9243C79.9718 42.1482 80.222 42.135 81.3412 41.7926C83.1715 41.2133 84.3697 40.0677 85.0939 38.1848C86.0814 35.6173 85.9366 32.76 84.7515 31.5223C84.0142 30.7454 82.6843 30.3899 81.4729 30.6401ZM81.4597 33.9187L81.8942 34.3005V35.6041C81.8942 36.8023 81.8547 36.9866 81.4992 37.6845C80.933 38.7905 80.1562 39.2646 78.9185 39.2646C78.4313 39.2646 77.9968 39.2382 77.9573 39.1987C77.9309 39.1592 78.0494 38.0927 78.2338 36.8286C78.5893 34.3532 78.6683 34.1557 79.511 33.7475C80.1957 33.4052 80.9594 33.471 81.4597 33.9187Z" fill="#3F89E5"/>
<path d="M28.4491 31.1272C28.3042 31.8778 28.1067 33.1418 27.7776 35.3144C27.6064 36.5389 27.3035 38.5008 27.1192 39.6464C26.9349 40.8051 26.8032 41.7663 26.8295 41.7795C26.8954 41.8453 27.5537 41.8716 28.8573 41.8585L30.1872 41.8321L30.2662 41.4634C30.332 41.1474 31.1352 35.8279 31.1352 35.6962C31.1352 35.6699 31.1879 35.6436 31.2537 35.6436C31.3195 35.6436 31.5829 36.5521 31.8462 37.645C32.5177 40.4232 32.4124 40.2521 33.4263 40.2521H34.2821L35.6252 37.882C36.3625 36.5784 36.9946 35.5382 37.0341 35.5646C37.0736 35.6041 36.9682 36.5126 36.7971 37.5791C36.6391 38.6588 36.4284 40.0282 36.3362 40.6471C36.244 41.2659 36.2045 41.8058 36.2572 41.8585C36.2967 41.9111 37.0867 41.9111 38.0084 41.8716L39.6675 41.7926L39.7597 41.1869C40.1152 38.6983 41.1554 32.1543 41.3529 31.1272L41.4319 30.7717H39.3383H37.2447L35.9939 32.839C35.296 33.9845 34.6113 35.1169 34.4796 35.3407C34.348 35.5777 34.19 35.7752 34.1505 35.7752C34.0978 35.7752 33.8608 34.9589 33.6369 33.9582C33.3999 32.9706 33.1366 31.8514 33.0576 31.4959L32.8996 30.8376L30.7138 30.7981L28.5281 30.7717L28.4491 31.1272Z" fill="#3F89E5"/>
<path d="M42.9196 30.9297C42.8932 31.0219 42.7089 32.1411 42.5246 33.4052C42.3402 34.6692 41.9715 37.0656 41.7214 38.7379C41.4844 40.3969 41.2737 41.7795 41.2737 41.7926C41.2737 41.819 42.0637 41.8321 43.0249 41.8321C44.6708 41.819 44.7761 41.8058 44.9737 41.5293C47.2252 38.3955 48.0021 37.3026 48.3839 36.7365C48.8448 36.0386 49.0423 35.8938 49.0423 36.2098C49.0423 36.3019 48.8711 37.566 48.6473 39.0012C48.4366 40.4364 48.2523 41.6741 48.2523 41.7268C48.2523 41.7795 49.016 41.8321 49.964 41.8321C51.6231 41.8321 51.6757 41.819 51.7416 41.5293C51.7811 41.3713 51.9259 40.4364 52.0707 39.4621C52.5711 35.9333 53.2558 31.3643 53.3348 31.0614L53.4138 30.7717H51.6362H49.8455L47.7783 33.6685C46.6459 35.2617 45.6715 36.5653 45.6057 36.5653C45.5398 36.5653 45.5135 36.4336 45.5398 36.2624C45.5793 36.1044 45.6715 35.6699 45.7373 35.3144C45.869 34.7219 46.4089 31.1141 46.4089 30.8639C46.4089 30.8112 45.632 30.7717 44.6971 30.7717C43.4331 30.7717 42.9591 30.8112 42.9196 30.9297Z" fill="#3F89E5"/>
<path d="M86.2132 31.1931C86.279 31.5749 87.1349 35.3802 88.2672 40.3179C88.6359 41.9638 88.6491 42.0428 88.4384 42.4247C88.1224 42.9777 87.2007 43.4122 86.358 43.4122H85.6733L85.5153 44.5577C85.4363 45.2029 85.3573 45.835 85.3441 45.9666C85.3178 46.2036 85.3968 46.2168 86.2922 46.1905C87.385 46.151 88.5174 45.8481 89.3733 45.3346C90.6637 44.5841 91.006 44.0311 94.3505 37.2895C96.0885 33.8133 97.4974 30.9297 97.4974 30.8639C97.4974 30.8112 96.7074 30.7717 95.7462 30.7717H93.9818L92.5597 34.1294C91.7697 35.9859 91.085 37.5265 91.0192 37.566C90.8612 37.6582 90.848 37.5528 90.5188 35.0511C90.3608 33.8133 90.1765 32.3518 90.0975 31.7856L89.9658 30.7717H88.0566H86.1342L86.2132 31.1931Z" fill="#3F89E5"/>
<path d="M98.1033 30.9956C98.077 31.1273 97.9058 32.0885 97.7478 33.1418C97.5898 34.1952 97.2079 36.5653 96.9183 38.4087L96.3652 41.7663L98.077 41.8058C99.0513 41.819 99.815 41.7927 99.8545 41.7137C99.9072 41.6478 100.223 39.8176 100.579 37.6582C100.947 35.4988 101.29 33.6949 101.369 33.6422C101.448 33.5895 102.067 33.5369 102.738 33.5369C103.686 33.5369 103.976 33.5764 104.029 33.7344C104.068 33.8397 103.989 34.6824 103.831 35.6041C103.357 38.514 102.896 41.5293 102.896 41.6873C102.896 41.7927 103.449 41.8322 104.661 41.8322H106.438L106.517 41.2001C106.57 40.8578 106.82 39.3699 107.07 37.882C107.544 35.0642 108.163 31.0878 108.163 30.8903C108.163 30.8244 106.017 30.7718 103.173 30.7718C98.5246 30.7718 98.1691 30.7849 98.1033 30.9956Z" fill="#3F89E5"/>
<path d="M109.624 31.7198C109.532 32.2465 109.321 33.5632 109.15 34.6561C108.979 35.7358 108.676 37.6055 108.492 38.8037C108.307 40.0019 108.123 41.1738 108.083 41.3976L108.018 41.8322H109.874H111.718L111.731 41.3976C111.731 41.1738 112.007 39.3172 112.35 37.2895L112.968 33.6027L114.272 33.5632C114.996 33.55 115.628 33.5764 115.694 33.6422C115.799 33.7475 115.102 38.6984 114.627 41.2001L114.522 41.8322H116.339C117.353 41.8322 118.169 41.8058 118.169 41.7663C118.169 41.74 118.341 40.5681 118.564 39.1724C118.775 37.7767 119.131 35.4461 119.354 33.9977C119.565 32.5493 119.776 31.2326 119.815 31.0614L119.881 30.7718H114.825H109.769L109.624 31.7198Z" fill="#3F89E5"/>
<path d="M39.72 43.2937C28.0012 43.6887 17.3095 45.2688 8.88253 47.8759C7.38147 48.3499 7.46048 48.3631 9.35654 48.0207C10.1466 47.8759 11.1736 47.6915 11.6476 47.6257C12.1216 47.5599 13.2804 47.3887 14.2152 47.2438C16.9013 46.8357 20.9041 46.3353 22.708 46.1773C23.6166 46.0983 24.9201 45.9798 25.6048 45.914C30.345 45.4268 39.1275 45.0976 45.553 45.1503L51.2018 45.1898L51.3466 44.2286C51.4256 43.7019 51.4651 43.241 51.4256 43.2147C51.3334 43.1225 43.262 43.1752 39.72 43.2937Z" fill="#3F89E5"/>
<path d="M117.972 44.7421C116.761 45.1371 113.166 45.993 111.191 46.3616C107.925 46.9673 104.963 47.3492 100.986 47.652C97.8921 47.889 84.7907 47.889 82.3548 47.652C79.8926 47.415 76.3374 47.0068 75.3499 46.8488C74.889 46.783 73.6382 46.5855 72.5453 46.4406C71.4656 46.2826 69.8592 46.0456 68.9902 45.9008C66.6464 45.5453 61.024 44.9791 59.444 44.9528L58.0614 44.9264L58.0219 45.4004L57.9824 45.8876L59.0095 45.9666C63.4073 46.3485 67.1204 46.8752 70.9652 47.6915C81.6965 49.9694 84.6459 50.3118 92.8885 50.325C98.7743 50.325 100.683 50.1933 104.923 49.4559C109.835 48.6132 114.904 46.9015 118.104 45.0186C119.131 44.4129 119.118 44.3734 117.972 44.7421Z" fill="#3F89E5"/>
</svg>
