<svg width="27" height="27" viewBox="0 0 27 27" fill="none" xmlns="http://www.w3.org/2000/svg">
<path fill-rule="evenodd" clip-rule="evenodd" d="M13.7244 26.7948C11.0873 26.7948 9.86182 26.4081 7.73161 24.8615C6.3842 26.6014 2.11737 27.9612 1.9313 25.6348C1.9313 23.8885 1.54632 22.4127 1.11002 20.8017C0.590297 18.8169 0 16.6066 0 13.4038C0 5.75462 6.24945 0 13.6538 0C21.0646 0 26.8714 6.03817 26.8714 13.4747C26.8833 16.991 25.5057 20.3684 23.0409 22.8657C20.5761 25.3629 17.2255 26.776 13.7244 26.7948ZM13.8335 6.61169C10.2275 6.42481 7.41722 8.93159 6.79484 12.8625C6.28154 16.1168 7.19265 20.08 7.96902 20.2862C8.34116 20.3764 9.27794 19.616 9.86182 19.0296C10.8273 19.6994 11.9516 20.1018 13.1213 20.196C14.9174 20.2827 16.6757 19.6583 18.0182 18.4569C19.3608 17.2555 20.1805 15.5731 20.3011 13.7711C20.3713 11.9655 19.733 10.2043 18.5234 8.8666C17.3138 7.52886 15.6297 6.72147 13.8335 6.61814V6.61169Z" fill="white"/>
</svg>
