<svg width="39" height="22" viewBox="0 0 39 22" fill="none" xmlns="http://www.w3.org/2000/svg">
<path d="M6.50478 8.53826C6.99233 7.03397 8.3016 5.93365 9.87552 5.69689L13.8312 5.12578L12.313 4.90296L10.2794 0.780111C10.0427 0.306592 9.55511 0.00012207 9.02582 0.00012207C8.49654 0.00012207 8.00908 0.306592 7.77232 0.780111L5.73873 4.90296L1.19805 5.5715C0.668759 5.64112 0.236981 6.01722 0.0698459 6.51862C-0.0972886 7.02011 0.0420468 7.5772 0.418057 7.93935L3.71909 11.1568L2.9391 15.6836C2.84159 16.1989 3.0645 16.7282 3.48233 17.0485C3.93495 17.3522 4.48059 17.4051 4.95874 17.146L9.02582 15.015L10.4884 15.7811L10.5022 15.6975L7.56335 12.8282C6.42121 11.714 6.01732 10.0565 6.50478 8.53826Z" fill="#162736"/>
<path d="M38.9293 6.51868C38.7621 6.01728 38.3304 5.64118 37.8011 5.57156L33.2604 4.90302L31.2268 0.780167C30.7533 -0.166957 29.1933 -0.166957 28.7197 0.780167L26.6861 4.90302L25.168 5.12583L29.1236 5.69695C30.6975 5.93371 32.0068 7.03402 32.4943 8.53832C32.9818 10.0566 32.5779 11.714 31.4358 12.8283L28.4969 15.6976L28.5107 15.7811L29.9733 15.0151L34.0404 17.1461C34.5185 17.4052 35.0642 17.3522 35.5168 17.0486C35.9346 16.7283 36.1575 16.199 36.06 15.6836L35.28 11.1569L38.5811 7.93941C38.9571 7.57725 39.0964 7.02017 38.9293 6.51868Z" fill="#162736"/>
<path d="M25.5062 14.7192L29.493 10.8331C29.8724 10.4631 30.0085 9.90952 29.8452 9.40556C29.6807 8.90161 29.2454 8.53367 28.7204 8.4575L23.2116 7.65771L20.7482 2.66645C20.2803 1.71567 18.7188 1.71567 18.2509 2.66645L15.7876 7.65771L10.2788 8.4575C9.75374 8.53367 9.31847 8.90161 9.15389 9.40556C8.99066 9.90952 9.12668 10.4631 9.50618 10.8331L13.4929 14.7192L12.5517 20.2055C12.4619 20.7279 12.6768 21.2563 13.1053 21.5678C13.5365 21.88 14.1037 21.9208 14.5729 21.6739L19.4996 19.0834L24.4262 21.6739C24.8944 21.9193 25.464 21.8803 25.8939 21.5678C26.3223 21.2563 26.5372 20.7279 26.4475 20.2055L25.5062 14.7192Z" fill="#162736"/>
</svg>
