<svg width="35" height="23" viewBox="0 0 35 23" fill="none" xmlns="http://www.w3.org/2000/svg">
<path d="M17.9442 7.39786C16.2605 7.63585 14.79 9.2165 14.7758 9.23071C14.7546 9.25262 14.7307 9.27172 14.7047 9.28755C12.4172 10.7723 11.1278 9.64275 11.0745 9.57526C9.6111 8.25745 10.9538 6.04808 11.0106 5.95573C11.6101 4.95938 12.336 4.04482 13.1702 3.23486H6.95772L4.26172 12.1292C4.29068 12.1452 4.31702 12.1656 4.33986 12.1896C8.52417 16.9209 14.0796 21.1194 16.2712 22.7036C16.4993 22.8723 16.7829 22.948 17.0647 22.9155C17.3465 22.883 17.6054 22.7446 17.7891 22.5285C17.9728 22.3123 18.0675 22.0344 18.0541 21.7511C18.0407 21.4677 17.9201 21.2 17.7169 21.0022L14.7012 17.9865C14.635 17.9199 14.5979 17.8299 14.5979 17.7361C14.5979 17.6422 14.635 17.5522 14.7012 17.4857C14.7342 17.4524 14.7735 17.4259 14.8168 17.4079C14.8601 17.3899 14.9065 17.3806 14.9534 17.3806C15.0003 17.3806 15.0467 17.3899 15.09 17.4079C15.1333 17.4259 15.1725 17.4524 15.2056 17.4857L16.8111 19.0912L18.2319 20.512L18.9423 21.2402C19.1972 21.4884 19.5391 21.6269 19.8948 21.626C20.2506 21.6252 20.5918 21.485 20.8455 21.2355C21.0991 20.9861 21.2449 20.6472 21.2517 20.2915C21.2585 19.9358 21.1257 19.5917 20.8817 19.3327L18.1147 16.4449L17.589 15.9014C17.5557 15.8684 17.5293 15.8291 17.5112 15.7859C17.4932 15.7426 17.4839 15.6961 17.4839 15.6493C17.4839 15.6024 17.4932 15.5559 17.5112 15.5127C17.5293 15.4694 17.5557 15.4301 17.589 15.3971C17.622 15.3638 17.6613 15.3373 17.7046 15.3193C17.7479 15.3013 17.7943 15.292 17.8412 15.292C17.8881 15.292 17.9345 15.3013 17.9778 15.3193C18.0211 15.3373 18.0604 15.3638 18.0934 15.3971L22.132 19.5885C22.3276 19.782 22.5752 19.9146 22.8447 19.9702C23.1141 20.0257 23.394 20.0018 23.6501 19.9014C23.9063 19.801 24.1278 19.6283 24.2877 19.4044C24.4476 19.1805 24.5391 18.915 24.551 18.6401C24.5569 18.4464 24.522 18.2537 24.4485 18.0744C24.3751 17.8951 24.2648 17.7332 24.1247 17.5993L21.7023 15.255L20.015 13.6175C19.9775 13.5861 19.9468 13.5474 19.9249 13.5036C19.903 13.4599 19.8904 13.4121 19.8879 13.3633C19.8853 13.3144 19.8929 13.2656 19.9101 13.2198C19.9273 13.174 19.9538 13.1322 19.9879 13.0972C20.022 13.0621 20.0629 13.0344 20.1082 13.0159C20.1535 12.9974 20.2021 12.9885 20.251 12.9896C20.2999 12.9908 20.3481 13.002 20.3924 13.0227C20.4368 13.0433 20.4764 13.0729 20.5088 13.1095L25.304 17.7521C25.4298 17.8812 25.5804 17.9836 25.7468 18.053C25.9132 18.1224 26.0919 18.1574 26.2721 18.1559C26.4524 18.1544 26.6305 18.1164 26.7957 18.0442C26.9609 17.9721 27.1098 17.8672 27.2334 17.7359C27.357 17.6047 27.4527 17.4497 27.5148 17.2805C27.5769 17.1113 27.6041 16.9312 27.5947 16.7511C27.5854 16.5711 27.5397 16.3948 27.4604 16.2329C27.3811 16.071 27.2698 15.9269 27.1333 15.8091L17.9442 7.39786Z" fill="#162736"/>
<path d="M5.87508 1.1532C4.03107 0.32417 2.02034 -0.0672764 0 0.00944691V13.9406H2.1703C2.40193 13.9411 2.62743 13.8662 2.81266 13.7271C2.99789 13.588 3.13275 13.3924 3.19684 13.1698L6.45761 2.43194C6.53215 2.1844 6.51415 1.91821 6.40698 1.68295C6.29981 1.4477 6.11077 1.25942 5.87508 1.1532Z" fill="#162736"/>
<path d="M19.095 1.8424C18.329 1.52708 17.4731 1.50809 16.6939 1.78912C15.3334 2.28641 13.3478 3.47989 11.6038 6.32863C11.6038 6.34995 10.5133 8.10465 11.5398 9.0495C11.5754 9.08147 12.4918 9.84871 14.2678 8.71561C14.5236 8.4492 16.1255 6.84368 18.0188 6.66963C18.0677 6.66552 18.117 6.67161 18.1634 6.68751C18.2099 6.7034 18.2526 6.72876 18.2887 6.76198L27.5986 15.2869C27.6413 15.326 27.6803 15.3686 27.7194 15.4112C28.785 15.2478 29.4954 14.2746 29.7014 13.9193L26.327 4.72311L19.095 1.8424Z" fill="#162736"/>
<path d="M33.3897 1.70396C31.3637 1.6905 29.3542 2.06925 27.472 2.8193C27.2189 2.92777 27.0176 3.13002 26.9104 3.38364C26.8031 3.63726 26.7982 3.92256 26.8966 4.17973L30.85 14.9389C30.9272 15.1464 31.0657 15.3256 31.2472 15.4525C31.4287 15.5794 31.6445 15.648 31.8659 15.6493H34.1001V1.72172C33.9225 1.71106 33.6775 1.70396 33.3897 1.70396Z" fill="#162736"/>
</svg>
