<?xml version="1.0" encoding="UTF-8"?> <svg xmlns="http://www.w3.org/2000/svg" width="23" height="23" viewBox="0 0 23 23" fill="none"><mask id="path-2-inside-1_358_18" fill="white"><path fill-rule="evenodd" clip-rule="evenodd" d="M20.0078 7.87807C19.9464 7.69925 19.8762 7.5548 19.7963 7.44029C18.3253 5.33195 16.0904 5.2752 15.4683 5.2752C14.5167 5.2752 13.6649 5.6127 12.949 5.89633C12.4302 6.1019 11.9828 6.27917 11.6205 6.27917C11.2201 6.27917 10.7617 6.09406 10.2502 5.88749C9.60458 5.6268 8.87441 5.33195 8.06952 5.33195C5.35444 5.33195 2.5957 7.58215 2.5957 11.825C2.5957 14.4703 3.61495 17.2574 4.87646 19.0514C5.96555 20.5792 6.91277 21.8232 8.27031 21.8232C8.914 21.8232 9.38595 21.623 9.88229 21.4125C10.4327 21.179 11.0132 20.9328 11.8912 20.9328C12.7785 20.9328 13.3088 21.164 13.82 21.387C14.2958 21.5945 14.7551 21.7949 15.4705 21.7949C16.9547 21.7949 17.9302 20.4526 18.8644 19.1082C19.0196 18.8817 19.1615 18.656 19.2906 18.4353L18.8776 18.1883L18.3826 18.0603L17.6126 18.1883L17.1635 18.0603L16.7693 17.8227L16.6226 17.4571V17.183L16.696 16.8814L16.6226 16.6621L16.4943 16.5158V16.2782L16.5585 16.0863L16.7235 15.9218L16.5585 15.8578L16.4393 15.7207L16.3568 15.5014V15.2364L16.3293 15.0627L16.0543 15.017L15.871 14.9439C15.7427 14.88 15.5245 14.657 15.6785 14.2768L15.8343 13.8838L16.1054 13.4064C16.0938 13.4026 16.084 13.3931 16.0812 13.379L15.9443 12.7049C15.9199 12.5861 15.8948 12.3393 15.9902 12.3028C16.0846 12.2666 16.1868 12.4127 16.2273 12.4924C16.2281 12.494 16.2288 12.4955 16.2293 12.4971L16.256 12.5769L16.3932 12.8962L16.4393 12.8145L16.5585 12.5769L16.4943 12.4033L16.3293 12.1291L16.2927 11.8458L16.3293 11.5899L16.4393 11.3249L16.5952 10.9593L16.6593 10.4658L16.7693 9.97232L17.0168 9.4514L17.4018 8.9579L17.9151 8.51923L18.6118 8.13539L19.4642 7.96175L20.0078 7.87807ZM15.8481 0.438691C15.8481 1.55615 15.3679 2.67361 14.6892 3.47897C13.9689 4.37163 12.7227 5.03513 11.7318 5.03513C11.6183 5.03513 11.5048 5.01985 11.435 5.00675C11.4219 4.95219 11.3935 4.78195 11.3935 4.61171C11.3935 3.47897 11.9741 2.36151 12.5961 1.65437C13.3884 0.735517 14.7023 0.0414683 15.8066 0C15.835 0.126587 15.8481 0.283731 15.8481 0.438691ZM16.3223 13.022L16.1928 12.6346C16.1921 12.6327 16.1914 12.6309 16.1905 12.6292L16.0922 12.4422C16.0914 12.4406 16.0905 12.4391 16.0894 12.4377L16.0426 12.3735C16.0308 12.3573 16.0062 12.3584 15.9959 12.3756C15.9922 12.3816 15.991 12.3889 15.9925 12.3958L16.0727 12.7689L16.1818 13.271L16.3223 13.022Z"></path></mask><path d="M19.7963 7.44029L18.9762 8.01249L18.9762 8.0125L19.7963 7.44029ZM20.0078 7.87807L20.1599 8.86643L21.3414 8.68454L20.9537 7.55375L20.0078 7.87807ZM12.949 5.89633L12.5807 4.96665L12.5807 4.96665L12.949 5.89633ZM10.2502 5.88749L10.6246 4.96024L10.6246 4.96024L10.2502 5.88749ZM4.87646 19.0514L4.05843 19.6266L4.06218 19.6319L4.87646 19.0514ZM9.88229 21.4125L10.2728 22.3331L10.2728 22.3331L9.88229 21.4125ZM13.82 21.387L14.2198 20.4704L14.2198 20.4704L13.82 21.387ZM18.8644 19.1082L19.6856 19.6788L19.6891 19.6737L18.8644 19.1082ZM19.2906 18.4353L20.1537 18.9404L20.6539 18.0856L19.804 17.5772L19.2906 18.4353ZM18.8776 18.1883L19.391 17.3301L19.2673 17.2561L19.1278 17.2201L18.8776 18.1883ZM18.3826 18.0603L18.6329 17.0921L18.4277 17.0391L18.2187 17.0738L18.3826 18.0603ZM17.6126 18.1883L17.3387 19.15L17.5548 19.2116L17.7765 19.1747L17.6126 18.1883ZM17.1635 18.0603L16.6472 18.9167L16.7613 18.9855L16.8895 19.0221L17.1635 18.0603ZM16.7693 17.8227L15.8412 18.1951L15.966 18.5061L16.253 18.6791L16.7693 17.8227ZM16.6226 17.4571H15.6226V17.6503L15.6946 17.8295L16.6226 17.4571ZM16.6226 17.183L15.651 16.9467L15.6226 17.0631V17.183H16.6226ZM16.696 16.8814L17.6677 17.1177L17.7358 16.8376L17.6444 16.5643L16.696 16.8814ZM16.6226 16.6621L17.571 16.345L17.5072 16.1539L17.3743 16.0024L16.6226 16.6621ZM16.4943 16.5158H15.4943V16.8924L15.7427 17.1754L16.4943 16.5158ZM16.4943 16.2782L15.5459 15.9611L15.4943 16.1155V16.2782H16.4943ZM16.5585 16.0863L15.8524 15.3781L15.685 15.545L15.6101 15.7692L16.5585 16.0863ZM16.7235 15.9218L17.4295 16.63L18.5178 15.545L17.085 14.9894L16.7235 15.9218ZM16.5585 15.8578L15.8038 16.5139L15.9662 16.7007L16.197 16.7902L16.5585 15.8578ZM16.4393 15.7207L15.5033 16.0728L15.5666 16.2411L15.6846 16.3768L16.4393 15.7207ZM16.3568 15.5014H15.3568V15.6832L15.4208 15.8535L16.3568 15.5014ZM16.3568 15.2364H17.3568V15.1577L17.3445 15.08L16.3568 15.2364ZM16.3293 15.0627L17.317 14.9063L17.2043 14.1944L16.4932 14.0763L16.3293 15.0627ZM16.0543 15.017L15.6839 15.9459L15.7841 15.9858L15.8904 16.0035L16.0543 15.017ZM15.871 14.9439L15.4249 15.8389L15.462 15.8574L15.5006 15.8728L15.871 14.9439ZM15.6785 14.2768L16.6054 14.6522L16.6081 14.6454L15.6785 14.2768ZM15.8343 13.8838L14.9647 13.3901L14.9304 13.4506L14.9048 13.5152L15.8343 13.8838ZM16.1054 13.4064L16.975 13.9001L17.5773 12.8393L16.4189 12.4568L16.1054 13.4064ZM16.0812 13.379L17.0612 13.1801L17.0612 13.18L16.0812 13.379ZM15.9443 12.7049L16.9243 12.5059L16.9238 12.5033L15.9443 12.7049ZM15.9902 12.3028L15.6321 11.3691L15.6321 11.3691L15.9902 12.3028ZM16.2273 12.4924L17.1189 12.0395L17.1188 12.0393L16.2273 12.4924ZM16.2293 12.4971L17.1777 12.1801L17.1776 12.1798L16.2293 12.4971ZM16.256 12.5769L15.3076 12.894L15.3208 12.9336L15.3373 12.9719L16.256 12.5769ZM16.3932 12.8962L15.4745 13.2911L16.272 15.1463L17.2642 13.3876L16.3932 12.8962ZM16.4393 12.8145L17.3103 13.3059L17.3223 13.2847L17.3332 13.2628L16.4393 12.8145ZM16.5585 12.5769L17.4524 13.0252L17.6469 12.6373L17.4965 12.2303L16.5585 12.5769ZM16.4943 12.4033L17.4323 12.0567L17.3997 11.9683L17.3511 11.8877L16.4943 12.4033ZM16.3293 12.1291L15.3376 12.2575L15.3645 12.4652L15.4725 12.6448L16.3293 12.1291ZM16.2927 11.8458L15.3028 11.704L15.2834 11.8389L15.3009 11.9742L16.2927 11.8458ZM16.3293 11.5899L15.4057 11.2066L15.3573 11.3232L15.3394 11.4481L16.3293 11.5899ZM16.4393 11.3249L15.5194 10.9327L15.5157 10.9416L16.4393 11.3249ZM16.5952 10.9593L17.5151 11.3515L17.5691 11.2248L17.5868 11.0883L16.5952 10.9593ZM16.6593 10.4658L15.6833 10.2483L15.6735 10.2922L15.6677 10.3369L16.6593 10.4658ZM16.7693 9.97232L15.8661 9.54319L15.8178 9.64488L15.7933 9.75477L16.7693 9.97232ZM17.0168 9.4514L16.2283 8.83632L16.1607 8.92298L16.1136 9.02227L17.0168 9.4514ZM17.4018 8.9579L16.7521 8.19768L16.6754 8.26324L16.6133 8.34281L17.4018 8.9579ZM17.9151 8.51923L17.4325 7.64337L17.3431 7.69266L17.2654 7.75901L17.9151 8.51923ZM18.6118 8.13539L18.4122 7.15551L18.2627 7.18595L18.1292 7.25954L18.6118 8.13539ZM19.4642 7.96175L19.3121 6.97339L19.2883 6.97706L19.2646 6.98187L19.4642 7.96175ZM14.6892 3.47897L13.9245 2.83452L13.9176 2.8427L13.9109 2.85103L14.6892 3.47897ZM11.435 5.00675L10.4626 5.24012L10.6138 5.87021L11.2507 5.98962L11.435 5.00675ZM12.5961 1.65437L13.347 2.31487L13.3535 2.30738L12.5961 1.65437ZM15.8066 0L16.7824 -0.218709L16.6005 -1.03051L15.7691 -0.999296L15.8066 0ZM16.1928 12.6346L17.1412 12.3175L17.1411 12.3175L16.1928 12.6346ZM16.3223 13.022L17.1932 13.5134L17.4116 13.1263L17.2707 12.7049L16.3223 13.022ZM16.1905 12.6292L17.0758 12.1641L17.0757 12.1641L16.1905 12.6292ZM16.0922 12.4422L16.9775 11.9771L16.9774 11.9769L16.0922 12.4422ZM16.0894 12.4377L15.2815 13.027L15.2815 13.027L16.0894 12.4377ZM16.0426 12.3735L15.2347 12.9628L15.2347 12.9628L16.0426 12.3735ZM15.9959 12.3756L16.8527 12.8912L16.8527 12.8911L15.9959 12.3756ZM15.9925 12.3958L15.0148 12.6059L15.0148 12.6059L15.9925 12.3958ZM16.0727 12.7689L15.095 12.979L15.0955 12.9812L16.0727 12.7689ZM16.1818 13.271L15.2046 13.4834L15.7623 16.0497L17.0527 13.7624L16.1818 13.271ZM18.9762 8.0125C18.9891 8.03092 19.0218 8.08557 19.0618 8.2024L20.9537 7.55375C20.8711 7.31293 20.7634 7.07868 20.6164 6.86808L18.9762 8.0125ZM15.4683 6.2752C16.029 6.2752 17.8049 6.33373 18.9762 8.01249L20.6164 6.86808C18.8457 4.33017 16.1517 4.2752 15.4683 4.2752V6.2752ZM13.3174 6.82602C14.0533 6.53445 14.735 6.2752 15.4683 6.2752V4.2752C14.2985 4.2752 13.2765 4.69095 12.5807 4.96665L13.3174 6.82602ZM11.6205 7.27917C11.9517 7.27917 12.2675 7.20032 12.5268 7.11853C12.7898 7.0356 13.0669 6.92529 13.3174 6.82602L12.5807 4.96665C12.3124 5.07295 12.1063 5.15406 11.9253 5.21115C11.7406 5.26939 11.6515 5.27917 11.6205 5.27917V7.27917ZM9.87571 6.81475C10.3216 6.99481 10.9829 7.27917 11.6205 7.27917V5.27917C11.4573 5.27917 11.2017 5.1933 10.6246 4.96024L9.87571 6.81475ZM8.06952 6.33195C8.65063 6.33195 9.20537 6.54405 9.87571 6.81475L10.6246 4.96024C10.0038 4.70955 9.0982 4.33195 8.06952 4.33195V6.33195ZM3.5957 11.825C3.5957 8.07688 5.96257 6.33195 8.06952 6.33195V4.33195C4.7463 4.33195 1.5957 7.08742 1.5957 11.825H3.5957ZM5.69447 18.4762C4.54162 16.8367 3.5957 14.248 3.5957 11.825H1.5957C1.5957 14.6925 2.68828 17.678 4.05845 19.6266L5.69447 18.4762ZM8.27031 20.8232C7.93331 20.8232 7.58845 20.6801 7.15179 20.2762C6.69697 19.8554 6.24482 19.2482 5.69074 18.4709L4.06218 19.6319C4.59719 20.3824 5.1632 21.1611 5.79364 21.7443C6.44226 22.3443 7.24978 22.8232 8.27031 22.8232V20.8232ZM9.49177 20.4919C8.99111 20.7043 8.68879 20.8232 8.27031 20.8232V22.8232C9.13921 22.8232 9.78079 22.5418 10.2728 22.3331L9.49177 20.4919ZM11.8912 19.9328C10.7978 19.9328 10.0584 20.2515 9.49177 20.4919L10.2728 22.3331C10.8071 22.1065 11.2286 21.9328 11.8912 21.9328V19.9328ZM14.2198 20.4704C13.6782 20.2342 12.9919 19.9328 11.8912 19.9328V21.9328C12.5651 21.9328 12.9394 22.0939 13.4202 22.3036L14.2198 20.4704ZM15.4705 20.7949C14.9764 20.7949 14.6798 20.6711 14.2198 20.4704L13.4202 22.3036C13.9117 22.518 14.5338 22.7949 15.4705 22.7949V20.7949ZM18.0431 18.5376C17.567 19.2229 17.1485 19.8031 16.6958 20.2205C16.2614 20.6211 15.8773 20.7949 15.4705 20.7949V22.7949C16.5479 22.7949 17.3936 22.2975 18.0516 21.6908C18.6912 21.1011 19.2277 20.3378 19.6856 19.6788L18.0431 18.5376ZM18.4276 17.9303C18.3095 18.132 18.1803 18.3375 18.0396 18.5426L19.6891 19.6737C19.859 19.426 20.0136 19.1799 20.1537 18.9404L18.4276 17.9303ZM18.3642 19.0464L18.7773 19.2935L19.804 17.5772L19.391 17.3301L18.3642 19.0464ZM18.1323 19.0285L18.6273 19.1564L19.1278 17.2201L18.6329 17.0921L18.1323 19.0285ZM17.7765 19.1747L18.5465 19.0468L18.2187 17.0738L17.4487 17.2018L17.7765 19.1747ZM16.8895 19.0221L17.3387 19.15L17.8866 17.2265L17.4374 17.0986L16.8895 19.0221ZM16.253 18.6791L16.6472 18.9167L17.6798 17.2039L17.2856 16.9663L16.253 18.6791ZM15.6946 17.8295L15.8412 18.1951L17.6974 17.4504L17.5507 17.0848L15.6946 17.8295ZM15.6226 17.183V17.4571H17.6226V17.183H15.6226ZM15.7243 16.6451L15.651 16.9467L17.5943 17.4192L17.6677 17.1177L15.7243 16.6451ZM15.6743 16.9791L15.7476 17.1985L17.6444 16.5643L17.571 16.345L15.6743 16.9791ZM15.7427 17.1754L15.871 17.3217L17.3743 16.0024L17.2459 15.8562L15.7427 17.1754ZM15.4943 16.2782V16.5158H17.4943V16.2782H15.4943ZM15.6101 15.7692L15.5459 15.9611L17.4427 16.5953L17.5069 16.4034L15.6101 15.7692ZM16.0174 15.2136L15.8524 15.3781L17.2645 16.7945L17.4295 16.63L16.0174 15.2136ZM16.197 16.7902L16.362 16.8542L17.085 14.9894L16.92 14.9255L16.197 16.7902ZM15.6846 16.3768L15.8038 16.5139L17.3132 15.2018L17.194 15.0647L15.6846 16.3768ZM15.4208 15.8535L15.5033 16.0728L17.3753 15.3687L17.2928 15.1494L15.4208 15.8535ZM15.3568 15.2364V15.5014H17.3568V15.2364H15.3568ZM15.3416 15.2192L15.3691 15.3928L17.3445 15.08L17.317 14.9063L15.3416 15.2192ZM15.8904 16.0035L16.1654 16.0492L16.4932 14.0763L16.2183 14.0306L15.8904 16.0035ZM15.5006 15.8728L15.6839 15.9459L16.4248 14.0882L16.2414 14.0151L15.5006 15.8728ZM14.7517 13.9014C14.5782 14.3296 14.586 14.7688 14.7609 15.1478C14.9182 15.4889 15.1812 15.7174 15.4249 15.8389L16.3171 14.049C16.4325 14.1065 16.5222 14.1915 16.5769 14.31C16.6079 14.3772 16.6248 14.4504 16.6255 14.5218C16.6263 14.5923 16.6111 14.638 16.6054 14.6522L14.7517 13.9014ZM14.9048 13.5152L14.7489 13.9082L16.6081 14.6454L16.7639 14.2524L14.9048 13.5152ZM15.2358 12.9127L14.9647 13.3901L16.704 14.3775L16.975 13.9001L15.2358 12.9127ZM15.1012 13.5779C15.1813 13.9726 15.4684 14.2492 15.7918 14.356L16.4189 12.4568C16.7192 12.556 16.9868 12.8137 17.0612 13.1801L15.1012 13.5779ZM14.9643 12.9038L15.1012 13.5779L17.0612 13.18L16.9243 12.5059L14.9643 12.9038ZM15.6321 11.3691C15.2159 11.5287 15.0525 11.8731 14.9968 12.0303C14.937 12.199 14.9257 12.3532 14.9228 12.441C14.9169 12.6255 14.9428 12.7995 14.9648 12.9064L16.9238 12.5033C16.9241 12.5048 16.923 12.4991 16.9222 12.4913C16.9212 12.4821 16.9224 12.487 16.9218 12.505C16.9216 12.5116 16.9203 12.5899 16.8819 12.6983C16.8476 12.7953 16.7167 13.0952 16.3482 13.2365L15.6321 11.3691ZM17.1188 12.0393C17.0684 11.9401 16.9751 11.7845 16.8322 11.6432C16.7552 11.567 16.2848 11.1188 15.6321 11.3691L16.3482 13.2365C16.0779 13.3401 15.83 13.2933 15.6747 13.2281C15.5368 13.1703 15.4548 13.0938 15.4257 13.065C15.3677 13.0077 15.3458 12.9649 15.3359 12.9455L17.1188 12.0393ZM17.1776 12.1798C17.1629 12.1358 17.1438 12.0886 17.1189 12.0395L15.3358 12.9453C15.3124 12.8994 15.2946 12.8552 15.281 12.8145L17.1776 12.1798ZM17.2044 12.2598L17.1777 12.1801L15.2809 12.8142L15.3076 12.894L17.2044 12.2598ZM17.312 12.5013L17.1747 12.182L15.3373 12.9719L15.4745 13.2911L17.312 12.5013ZM15.5684 12.3232L15.5223 12.4048L17.2642 13.3876L17.3103 13.3059L15.5684 12.3232ZM15.6646 12.1286L15.5454 12.3663L17.3332 13.2628L17.4524 13.0252L15.6646 12.1286ZM15.5563 12.7499L15.6205 12.9236L17.4965 12.2303L17.4323 12.0567L15.5563 12.7499ZM15.4725 12.6448L15.6375 12.9189L17.3511 11.8877L17.1861 11.6135L15.4725 12.6448ZM15.3009 11.9742L15.3376 12.2575L17.3211 12.0008L17.2844 11.7175L15.3009 11.9742ZM15.3394 11.4481L15.3028 11.704L17.2826 11.9876L17.3192 11.7318L15.3394 11.4481ZM15.5157 10.9416L15.4057 11.2066L17.2529 11.9733L17.3629 11.7082L15.5157 10.9416ZM15.6752 10.5672L15.5194 10.9328L17.3592 11.717L17.5151 11.3515L15.6752 10.5672ZM15.6677 10.3369L15.6035 10.8304L17.5868 11.0883L17.651 10.5948L15.6677 10.3369ZM15.7933 9.75477L15.6833 10.2483L17.6354 10.6834L17.7454 10.1899L15.7933 9.75477ZM16.1136 9.02227L15.8661 9.54319L17.6726 10.4015L17.92 9.88054L16.1136 9.02227ZM16.6133 8.34281L16.2283 8.83632L17.8053 10.0665L18.1903 9.57298L16.6133 8.34281ZM17.2654 7.75901L16.7521 8.19768L18.0515 9.71812L18.5648 9.27945L17.2654 7.75901ZM18.1292 7.25954L17.4325 7.64337L18.3977 9.39508L19.0943 9.01124L18.1292 7.25954ZM19.2646 6.98187L18.4122 7.15551L18.8114 9.11527L19.6638 8.94163L19.2646 6.98187ZM19.8556 6.88972L19.3121 6.97339L19.6164 8.95011L20.1599 8.86643L19.8556 6.88972ZM15.4538 4.12343C16.2606 3.16621 16.8481 1.82675 16.8481 0.438691H14.8481C14.8481 1.28555 14.4753 2.18102 13.9245 2.83452L15.4538 4.12343ZM11.7318 6.03513C12.4341 6.03513 13.1544 5.80587 13.7789 5.47609C14.4097 5.14299 15.0122 4.67119 15.4674 4.10691L13.9109 2.85103C13.646 3.17942 13.2651 3.48569 12.845 3.70751C12.4187 3.93263 12.0204 4.03513 11.7318 4.03513V6.03513ZM11.2507 5.98962C11.3625 6.01059 11.54 6.03513 11.7318 6.03513V4.03513C11.718 4.03513 11.6975 4.03408 11.6728 4.03146C11.6485 4.02888 11.6289 4.02568 11.6193 4.02388L11.2507 5.98962ZM10.3935 4.61171C10.3935 4.86733 10.4328 5.116 10.4626 5.24012L12.4074 4.77338C12.411 4.78859 12.411 4.79098 12.4087 4.7772C12.4068 4.76628 12.4043 4.74994 12.4018 4.72999C12.3966 4.68764 12.3935 4.64503 12.3935 4.61171H10.3935ZM11.8453 0.993896C11.1147 1.82442 10.3935 3.16717 10.3935 4.61171H12.3935C12.3935 3.79078 12.8335 2.8986 13.347 2.31484L11.8453 0.993896ZM15.7691 -0.999296C14.3445 -0.945803 12.7826 -0.0932701 11.8388 1.00136L13.3535 2.30738C13.9942 1.5643 15.06 1.02874 15.8442 0.999296L15.7691 -0.999296ZM16.8481 0.438691C16.8481 0.237713 16.832 0.00232123 16.7824 -0.218709L14.8308 0.218709C14.838 0.250854 14.8481 0.329748 14.8481 0.438691H16.8481ZM15.2444 12.9516L15.3739 13.3391L17.2707 12.7049L17.1412 12.3175L15.2444 12.9516ZM15.3052 13.0942C15.2811 13.0483 15.2607 13.0006 15.2444 12.9517L17.1411 12.3175C17.1235 12.2648 17.1017 12.2135 17.0758 12.1641L15.3052 13.0942ZM15.207 12.9073L15.3052 13.0943L17.0757 12.1641L16.9775 11.9771L15.207 12.9073ZM15.2815 13.027C15.2538 12.9889 15.2289 12.949 15.2071 12.9075L16.9774 11.9769C16.9539 11.9323 16.9272 11.8893 16.8973 11.8483L15.2815 13.027ZM15.2347 12.9628L15.2815 13.027L16.8973 11.8484L16.8505 11.7842L15.2347 12.9628ZM16.8527 12.8911C16.494 13.4873 15.6441 13.5241 15.2347 12.9628L16.8505 11.7842C16.4174 11.1904 15.5184 11.2294 15.139 11.86L16.8527 12.8911ZM16.9702 12.1857C17.0221 12.4275 16.9799 12.6797 16.8527 12.8912L15.1391 11.8599C15.0044 12.0836 14.9599 12.3503 15.0148 12.6059L16.9702 12.1857ZM17.0503 12.5587L16.9702 12.1857L15.0148 12.6059L15.095 12.979L17.0503 12.5587ZM17.159 13.0587L17.0499 12.5565L15.0955 12.9812L15.2046 13.4834L17.159 13.0587ZM15.4513 12.5306L15.3108 12.7796L17.0527 13.7624L17.1932 13.5134L15.4513 12.5306Z" fill="black" mask="url(#path-2-inside-1_358_18)"></path></svg> 