<svg width="86" height="26" viewBox="0 0 86 26" fill="none" xmlns="http://www.w3.org/2000/svg">
<path d="M29.5512 11.9923L32.3922 19.9542H30.2362L29.7196 18.3573H27.5973L27.1033 19.9542H24.9473L27.7209 11.9923H29.5512ZM28.0465 16.5693H29.2368L28.6866 14.2415H28.6304L28.0465 16.5693Z" fill="white"/>
<path d="M32.9248 19.9542V11.9923H36.1027C38.0453 11.9923 39.011 13.398 39.011 14.8037C39.011 16.2207 38.0341 17.6264 36.1139 17.6264H34.9349V19.9542H32.9248ZM34.9349 15.8383H36.1027C37.3154 15.8496 37.3154 13.8591 36.1027 13.8704H34.9349V15.8383Z" fill="white"/>
<path d="M39.8663 19.9542V11.9923H43.0441C44.9868 11.9923 45.9525 13.398 45.9525 14.8037C45.9525 16.2207 44.9755 17.6264 43.0554 17.6264H41.8763V19.9542H39.8663ZM41.8763 15.8383H43.0441C44.2569 15.8496 44.2569 13.8591 43.0441 13.8704H41.8763V15.8383Z" fill="white"/>
<path d="M46.8077 19.9542V11.9923H48.829V17.9637H52.0629V19.9542H46.8077Z" fill="white"/>
<path d="M54.8934 13.8816V15.1186H58.1161V16.8617H54.8934V18.0537H58.3969V19.9542H52.8609V11.9923H58.3969V13.8816H54.8934Z" fill="white"/>
<path d="M65.1232 13.578L63.4388 14.3539C63.0009 13.2856 61.2267 13.533 61.2267 14.5788V17.3115C61.2267 18.5598 63.5511 18.5485 63.5511 17.3115V17.0191H62.2822V15.3323H65.4825V17.3115C65.4825 19.1445 63.9554 20.0667 62.3608 20.0667C60.7887 20.0667 59.2167 19.1445 59.2167 17.3115V14.5788C59.2167 12.7795 60.7887 11.8799 62.3608 11.8799C63.3939 11.8799 64.573 12.3072 65.1232 13.578Z" fill="white"/>
<path d="M66.2239 17.334V14.6126C66.2239 12.7795 67.8634 11.8799 69.514 11.8799C71.1647 11.8799 72.8154 12.7908 72.8154 14.6126V17.334C72.8154 19.1558 71.1759 20.0667 69.5253 20.0667C67.8746 20.0667 66.2239 19.1558 66.2239 17.334ZM68.2339 14.6126V17.334C68.2339 17.9188 68.8852 18.1999 69.5253 18.1999C70.1653 18.1999 70.8054 17.9075 70.8054 17.334V14.6126C70.8054 13.9941 70.1429 13.7129 69.4916 13.7129C68.8627 13.7129 68.2339 14.0278 68.2339 14.6126Z" fill="white"/>
<path d="M73.8826 19.9542V11.9923H75.9038V17.9637H79.1378V19.9542H73.8826Z" fill="white"/>
<path d="M79.9358 11.9923H82.9115C84.506 11.9923 85.9995 12.802 85.9995 14.6575V17.334C85.9995 19.167 84.506 19.9655 82.9115 19.9542H79.9358V11.9923ZM81.957 18.065H82.9789C83.6639 18.065 83.9783 17.7163 83.9783 17.199V14.7138C83.9783 14.1965 83.6526 13.8704 82.9789 13.8704H81.957V18.065Z" fill="white"/>
<path d="M15.2324 6.24219C15.9689 6.24221 18.6131 6.30945 20.3535 8.80371C20.4479 8.939 20.5301 9.11014 20.6025 9.32129L19.96 9.4209L18.9512 9.62695L18.127 10.0811L17.5195 10.5996L17.0645 11.1836L16.7715 11.7998L16.6416 12.3838L16.5654 12.9678L16.3809 13.4004L16.251 13.7139L16.207 14.0166L16.251 14.3525L16.4463 14.6768L16.5225 14.8818L16.3809 15.1631L16.3262 15.2588L16.1641 14.8818L16.1328 14.7881C16.1322 14.7861 16.1308 14.7841 16.1299 14.7822C16.0819 14.6879 15.9613 14.5149 15.8496 14.5576C15.7369 14.6008 15.766 14.8925 15.7949 15.0332L15.957 15.8311C15.9604 15.8475 15.9721 15.8576 15.9854 15.8623L15.665 16.4287L15.4805 16.8936C15.2983 17.3434 15.5571 17.6069 15.709 17.6826L15.9258 17.7695L16.251 17.8232L16.2832 18.0293V18.3428L16.3809 18.6025L16.5225 18.7646L16.7168 18.8398L16.5225 19.0352L16.4463 19.2617V19.543L16.5977 19.7158L16.6846 19.9756L16.5977 20.332V20.6572L16.7715 21.0898L17.2383 21.3701L17.7695 21.5225L18.6807 21.3701L19.2666 21.5225L19.7529 21.8135C19.6003 22.0744 19.4346 22.3426 19.251 22.6104C18.1456 24.2012 16.9905 25.79 15.2344 25.79C13.4785 25.7899 13.0262 24.7695 10.999 24.7695C9.02355 24.7696 8.32107 25.8232 6.71484 25.8232C5.10848 25.8232 3.98793 24.3508 2.69922 22.543C1.20651 20.4201 0 17.1222 0 13.9922C0.000105742 8.9718 3.26486 6.30957 6.47754 6.30957C8.1843 6.30975 9.60706 7.4295 10.6787 7.42969C11.6988 7.42969 13.2903 6.24219 15.2324 6.24219ZM15.8564 14.6436C15.8688 14.6236 15.8972 14.6226 15.9111 14.6416L15.9668 14.7178C15.968 14.7194 15.9698 14.7209 15.9707 14.7227L16.0869 14.9443C16.0878 14.9462 16.0882 14.9482 16.0889 14.9502L16.2422 15.4082L16.0762 15.7021L15.9473 15.1094L15.8525 14.668C15.8508 14.6598 15.8521 14.6507 15.8564 14.6436ZM15.6328 0C15.6664 0.149774 15.6816 0.336206 15.6816 0.519531C15.6815 1.84145 15.1134 3.16338 14.3105 4.11621C13.4583 5.17249 11.983 5.95801 10.8105 5.95801C10.6763 5.95799 10.5416 5.94029 10.459 5.9248C10.4435 5.86024 10.4102 5.65846 10.4102 5.45703C10.4102 4.1169 11.0971 2.79479 11.833 1.95801C12.7705 0.870741 14.326 0.0490691 15.6328 0Z" fill="white"/>
</svg>
