<?xml version="1.0" encoding="UTF-8"?> <svg xmlns="http://www.w3.org/2000/svg" width="272" height="228" viewBox="0 0 272 228" fill="none"><g clip-path="url(#clip0_255_767)"><path d="M182.199 0H20C8.95431 0 0 8.95431 0 20V208C0 219.046 8.95431 228 20 228H252C263.046 228 272 219.046 272 208V44.4803C272 36.5853 267.355 29.4291 260.145 26.2139L218.85 7.80107C207.316 2.65796 194.828 0 182.199 0Z" fill="#FFC964"></path><g filter="url(#filter0_f_255_767)"><path d="M47.0908 149.076L124.025 61.5303L280.545 127.853L261.975 310.902L47.0908 241.927V149.076Z" fill="#FCDD70"></path></g><g filter="url(#filter1_f_255_767)"><path d="M-30.9143 137.371L35.407 67.3648L71.5152 -66.0146L-43.4417 -52.0134L-30.9143 137.371Z" fill="white"></path></g></g><defs><filter id="filter0_f_255_767" x="-32.0092" y="-17.5697" width="391.655" height="407.572" filterUnits="userSpaceOnUse" color-interpolation-filters="sRGB"><feFlood flood-opacity="0" result="BackgroundImageFix"></feFlood><feBlend mode="normal" in="SourceGraphic" in2="BackgroundImageFix" result="shape"></feBlend><feGaussianBlur stdDeviation="39.55" result="effect1_foregroundBlur_255_767"></feGaussianBlur></filter><filter id="filter1_f_255_767" x="-167.342" y="-189.915" width="362.757" height="451.185" filterUnits="userSpaceOnUse" color-interpolation-filters="sRGB"><feFlood flood-opacity="0" result="BackgroundImageFix"></feFlood><feBlend mode="normal" in="SourceGraphic" in2="BackgroundImageFix" result="shape"></feBlend><feGaussianBlur stdDeviation="61.95" result="effect1_foregroundBlur_255_767"></feGaussianBlur></filter><clipPath id="clip0_255_767"><rect width="272" height="228" rx="20" fill="white"></rect></clipPath></defs></svg> 