<?xml version="1.0" encoding="UTF-8"?> <svg xmlns="http://www.w3.org/2000/svg" width="272" height="228" viewBox="0 0 272 228" fill="none"><g clip-path="url(#clip0_255_768)"><path d="M89.8015 0H252C263.046 0 272 8.95431 272 20V208C272 219.046 263.046 228 252 228H20C8.95432 228 0 219.046 0 208V44.4803C0 36.5853 4.6445 29.4291 11.8552 26.2139L53.1499 7.80107C64.6844 2.65796 77.1723 0 89.8015 0Z" fill="#FFC964"></path><g filter="url(#filter0_f_255_768)"><path d="M224.909 149.076L147.975 61.5303L-8.54547 127.853L10.0248 310.902L224.909 241.927V149.076Z" fill="#FCDD70"></path></g><g filter="url(#filter1_f_255_768)"><path d="M302.914 137.371L236.593 67.3648L200.485 -66.0146L315.442 -52.0134L302.914 137.371Z" fill="white"></path></g></g><defs><filter id="filter0_f_255_768" x="-87.6454" y="-17.5697" width="391.655" height="407.572" filterUnits="userSpaceOnUse" color-interpolation-filters="sRGB"><feFlood flood-opacity="0" result="BackgroundImageFix"></feFlood><feBlend mode="normal" in="SourceGraphic" in2="BackgroundImageFix" result="shape"></feBlend><feGaussianBlur stdDeviation="39.55" result="effect1_foregroundBlur_255_768"></feGaussianBlur></filter><filter id="filter1_f_255_768" x="76.5849" y="-189.915" width="362.757" height="451.185" filterUnits="userSpaceOnUse" color-interpolation-filters="sRGB"><feFlood flood-opacity="0" result="BackgroundImageFix"></feFlood><feBlend mode="normal" in="SourceGraphic" in2="BackgroundImageFix" result="shape"></feBlend><feGaussianBlur stdDeviation="61.95" result="effect1_foregroundBlur_255_768"></feGaussianBlur></filter><clipPath id="clip0_255_768"><rect width="272" height="228" rx="20" transform="matrix(-1 0 0 1 272 0)" fill="white"></rect></clipPath></defs></svg> 