<?xml version="1.0" encoding="UTF-8"?> <svg xmlns="http://www.w3.org/2000/svg" width="1071" height="151" viewBox="0 0 1071 151" fill="none"><path d="M129.972 147.436H109.538L97.7722 115.029H32.753L20.9876 147.436H0.552979L54.426 2.94847H76.0991L129.972 147.436ZM65.1594 25.86L39.3581 97.0715H91.1671L65.1594 25.86Z" fill="#161616"></path><path d="M136.697 2.94847H189.125C202.335 2.94847 213.412 7.42069 222.357 16.3651C231.301 25.3096 235.774 36.3181 235.774 49.3908C235.774 62.4634 231.301 73.472 222.357 82.4164C213.412 91.3609 202.335 95.8331 189.125 95.8331H155.893V147.436H136.697V2.94847ZM155.893 77.8754H189.125C197.244 77.8754 203.849 75.1921 208.94 69.8254C214.169 64.1835 216.784 57.372 216.784 49.3908C216.784 41.1344 214.169 34.3228 208.94 28.9562C203.711 23.5895 197.106 20.9062 189.125 20.9062H155.893V77.8754Z" fill="#161616"></path><path d="M248.126 2.94847H300.554C313.764 2.94847 324.842 7.42069 333.786 16.3651C342.731 25.3096 347.203 36.3181 347.203 49.3908C347.203 62.4634 342.731 73.472 333.786 82.4164C324.842 91.3609 313.764 95.8331 300.554 95.8331H267.322V147.436H248.126V2.94847ZM267.322 77.8754H300.554C308.673 77.8754 315.278 75.1921 320.369 69.8254C325.599 64.1835 328.213 57.372 328.213 49.3908C328.213 41.1344 325.599 34.3228 320.369 28.9562C315.14 23.5895 308.535 20.9062 300.554 20.9062H267.322V77.8754Z" fill="#161616"></path><path d="M378.751 2.94847V129.272H441.087V147.436H359.555V2.94847H378.751Z" fill="#161616"></path><path d="M469.217 83.4485V129.272H536.3V147.436H450.021V2.94847H535.268V21.1126H469.217V65.4908H530.108V83.4485H469.217Z" fill="#161616"></path><path d="M615.23 75.8113H687.473V84.4805C687.473 103.333 681.006 119.02 668.071 131.542C655.136 143.927 638.004 150.119 616.674 150.119C594.657 150.119 576.425 142.895 561.976 128.446C547.665 113.722 540.509 95.9707 540.509 75.192C540.509 54.4134 547.665 36.7309 561.976 22.1446C576.425 7.5583 594.52 0.265137 616.262 0.265137C629.472 0.265137 641.719 3.4989 653.003 9.96643C664.424 16.4339 673.024 24.828 678.804 35.1485L662.291 44.8498C658.163 37.0062 651.902 30.7451 643.508 26.0664C635.114 21.2502 625.963 18.8421 616.055 18.8421C599.405 18.8421 585.851 24.2775 575.392 35.1485C564.797 46.0194 559.499 59.3673 559.499 75.192C559.499 91.0168 564.797 104.365 575.392 115.236C586.126 125.969 599.955 131.336 616.881 131.336C631.054 131.336 642.613 127.895 651.558 121.015C660.64 113.997 666.213 104.709 668.277 93.1497H615.23V75.8113Z" fill="#161616"></path><path d="M692.858 75.192C692.858 54.2758 700.082 36.5933 714.531 22.1446C728.979 7.5583 746.662 0.265137 767.578 0.265137C788.494 0.265137 806.177 7.5583 820.626 22.1446C835.212 36.5933 842.505 54.2758 842.505 75.192C842.505 95.9707 835.212 113.653 820.626 128.239C806.177 142.826 788.494 150.119 767.578 150.119C746.662 150.119 728.979 142.826 714.531 128.239C700.082 113.516 692.858 95.8331 692.858 75.192ZM823.309 75.192C823.309 59.2297 817.942 45.8818 807.209 35.1485C796.751 24.2775 783.541 18.8421 767.578 18.8421C751.753 18.8421 738.474 24.2775 727.741 35.1485C717.145 46.0194 711.847 59.3673 711.847 75.192C711.847 90.8792 717.145 104.227 727.741 115.236C738.474 125.969 751.753 131.336 767.578 131.336C783.541 131.336 796.751 125.969 807.209 115.236C817.942 104.227 823.309 90.8792 823.309 75.192Z" fill="#161616"></path><path d="M874.458 2.94847V129.272H936.794V147.436H855.262V2.94847H874.458Z" fill="#161616"></path><path d="M945.728 2.94847H1002.08C1021.62 2.94847 1037.92 9.96642 1051 24.0023C1064.07 37.9006 1070.61 54.9639 1070.61 75.192C1070.61 95.2826 1064.07 112.415 1051 126.588C1037.92 140.486 1021.62 147.436 1002.08 147.436H945.728V2.94847ZM964.924 129.272H1002.08C1016.8 129.272 1028.84 124.111 1038.2 113.791C1047.56 103.333 1052.24 90.4664 1052.24 75.192C1052.24 59.9177 1047.56 47.0515 1038.2 36.5933C1028.84 26.2728 1016.8 21.1126 1002.08 21.1126H964.924V129.272Z" fill="#161616"></path></svg> 