<?xml version="1.0" encoding="UTF-8"?> <svg xmlns="http://www.w3.org/2000/svg" width="1121" height="509" viewBox="0 0 1121 509" fill="none"><path d="M0.28125 30C0.28125 13.4315 13.7127 0 30.2813 0H143.031C160.8 0 178.17 5.25942 192.954 15.1155L207.608 24.8845C222.392 34.7406 239.763 40 257.531 40H863.031C880.8 40 898.17 34.7406 912.954 24.8845L927.608 15.1155C942.392 5.25941 959.763 0 977.531 0H1090.28C1106.85 0 1120.28 13.4315 1120.28 30V449C1120.28 465.569 1106.85 479 1090.28 479H936.601C925.809 479 915.105 480.941 905 484.73L855.562 503.27C845.457 507.059 834.753 509 823.961 509H296.601C285.809 509 275.105 507.059 265 503.27L215.562 484.73C205.457 480.941 194.753 479 183.961 479H30.2812C13.7127 479 0.28125 465.569 0.28125 449V30Z" fill="url(#paint0_linear_258_780)"></path><path d="M0.28125 30C0.28125 13.4315 13.7127 0 30.2813 0H143.031C160.8 0 178.17 5.25942 192.954 15.1155L207.608 24.8845C222.392 34.7406 239.763 40 257.531 40H863.031C880.8 40 898.17 34.7406 912.954 24.8845L927.608 15.1155C942.392 5.25941 959.763 0 977.531 0H1090.28C1106.85 0 1120.28 13.4315 1120.28 30V449C1120.28 465.569 1106.85 479 1090.28 479H936.601C925.809 479 915.105 480.941 905 484.73L855.562 503.27C845.457 507.059 834.753 509 823.961 509H296.601C285.809 509 275.105 507.059 265 503.27L215.562 484.73C205.457 480.941 194.753 479 183.961 479H30.2812C13.7127 479 0.28125 465.569 0.28125 449V30Z" fill="url(#paint1_radial_258_780)"></path><defs><linearGradient id="paint0_linear_258_780" x1="1180.25" y1="654.831" x2="1211.38" y2="393.544" gradientUnits="userSpaceOnUse"><stop stop-color="#FCFDD4"></stop><stop offset="1" stop-color="#F6D45D"></stop></linearGradient><radialGradient id="paint1_radial_258_780" cx="0" cy="0" r="1" gradientUnits="userSpaceOnUse" gradientTransform="translate(414.71 -88.155) rotate(114.342) scale(655.42 1288.6)"><stop stop-color="#FCFDD4"></stop><stop offset="1" stop-color="#F6D45D" stop-opacity="0"></stop></radialGradient></defs></svg> 