<?xml version="1.0" encoding="UTF-8"?> <svg xmlns="http://www.w3.org/2000/svg" width="1056" height="2268" viewBox="0 0 1056 2268" fill="none"><path d="M0.428284 80.4146C0.428284 36.2318 36.2455 0.414551 80.4283 0.414551H328.107H478.764H606.822H757.479H975.026C1019.21 0.414551 1055.03 36.2318 1055.03 80.4145V2168.36C1055.03 2195.98 1032.64 2218.36 1005.03 2218.36H666.322C658.39 2218.36 650.532 2219.89 643.178 2222.87L545.023 2262.59C528.943 2269.1 510.867 2268.54 495.223 2261.04L418.783 2224.42C410.462 2220.43 401.353 2218.36 392.127 2218.36H50.4282C22.814 2218.36 0.428284 2195.98 0.428284 2168.36V80.4146Z" fill="url(#paint0_linear_258_779)"></path><path d="M0.428284 80.4146C0.428284 36.2318 36.2455 0.414551 80.4283 0.414551H328.107H478.764H606.822H757.479H975.026C1019.21 0.414551 1055.03 36.2318 1055.03 80.4145V2168.36C1055.03 2195.98 1032.64 2218.36 1005.03 2218.36H666.322C658.39 2218.36 650.532 2219.89 643.178 2222.87L545.023 2262.59C528.943 2269.1 510.867 2268.54 495.223 2261.04L418.783 2224.42C410.462 2220.43 401.353 2218.36 392.127 2218.36H50.4282C22.814 2218.36 0.428284 2195.98 0.428284 2168.36V80.4146Z" fill="url(#paint1_radial_258_779)"></path><defs><linearGradient id="paint0_linear_258_779" x1="1055.03" y1="2013.02" x2="274.723" y2="1077.17" gradientUnits="userSpaceOnUse"><stop stop-color="#FCFDD4"></stop><stop offset="1" stop-color="#F6D45D"></stop></linearGradient><radialGradient id="paint1_radial_258_779" cx="0" cy="0" r="1" gradientUnits="userSpaceOnUse" gradientTransform="translate(338.635 155.014) rotate(113.613) scale(1071.3 1915.62)"><stop stop-color="#FCFDD4"></stop><stop offset="1" stop-color="#F6D45D" stop-opacity="0"></stop></radialGradient></defs></svg> 