<svg width="14" height="13" viewBox="0 0 14 13" fill="none" xmlns="http://www.w3.org/2000/svg">
<path d="M9.66203 1.93696C11.7688 3.71922 12.148 6.78649 10.6217 9.01487C10.5195 9.16401 10.4082 9.30957 10.2887 9.45081C10.1694 9.59189 10.0447 9.72533 9.91468 9.85068C7.97028 11.7255 4.88264 11.8602 2.77563 10.0781C0.527498 8.17651 0.246064 4.81261 2.14755 2.56441C4.04924 0.316201 7.41382 0.035262 9.66203 1.93696ZM11.0835 10.0566L12.3436 11.3296L12.3745 11.3596L12.4099 11.3858C12.4166 11.3912 12.4284 11.4011 12.4421 11.4143C12.4717 11.4427 12.5006 11.4767 12.5193 11.509C12.5296 11.5268 12.534 11.5378 12.5353 11.543C12.533 11.5499 12.5254 11.5668 12.5022 11.5943C12.4809 11.6194 12.4663 11.6303 12.4591 11.6346C12.4551 11.6345 12.4431 11.6336 12.4209 11.6253C12.3859 11.6122 12.3477 11.5894 12.3147 11.5649C12.2994 11.5535 12.2884 11.5428 12.2819 11.5371L10.9578 10.2022L11.0522 10.0966C11.0631 10.0838 11.0728 10.0695 11.0835 10.0566Z" stroke="#C1C1C1"/>
</svg>
