<?xml version="1.0" encoding="utf-8"?>
<!-- Generator: Adobe Illustrator 21.1.0, SVG Export Plug-In . SVG Version: 6.00 Build 0)  -->
<svg version="1.1" id="Слой_1" xmlns="http://www.w3.org/2000/svg" xmlns:xlink="http://www.w3.org/1999/xlink" x="0px" y="0px"
	 viewBox="0 0 460 104" style="enable-background:new 0 0 460 104;" xml:space="preserve">
<style type="text/css">
	.st0{fill:#29B35B;}
</style>
<g>
	<path class="st0" d="M103.3,43.4H51.1C56.8,54,67.8,60.6,79.7,60.6h6.1c-1.6,6.1-4.7,11.5-9.1,16.1c-3.3,3.3-7.1,5.9-11.4,7.6
		c-4.2,1.7-8.7,2.6-13.4,2.6c-4.7,0-9.1-0.9-13.3-2.6c-4.2-1.7-8-4.2-11.3-7.6c-3.3-3.3-5.9-7.1-7.6-11.4c-1.8-4.2-2.6-8.7-2.6-13.4
		c0-4.7,0.9-9.1,2.6-13.3c1.8-4.2,4.3-8,7.6-11.3c3.3-3.3,7.1-5.9,11.3-7.6c4.2-1.8,8.6-2.6,13.3-2.6c4.7,0,9.1,0.9,13.4,2.6
		c4.2,1.8,8,4.3,11.4,7.6l12-12.1C84,10.5,78.6,6.8,72.3,4.1C66,1.4,59.2,0,52,0c-7.1,0-13.9,1.4-20.2,4.1
		c-6.3,2.7-11.9,6.4-16.6,11.1c-4.7,4.7-8.4,10.2-11.1,16.6C1.4,38.1,0,44.9,0,52c0,7.1,1.4,13.9,4.1,20.2
		c2.7,6.3,6.4,11.9,11.1,16.6c4.7,4.7,10.2,8.4,16.6,11.1c6.3,2.7,13.1,4.1,20.2,4.1c7.1,0,13.9-1.4,20.2-4.1
		c6.3-2.7,11.9-6.4,16.6-11.1c4.7-4.7,8.4-10.2,11.1-16.6c2.7-6.3,4.1-13.1,4.1-20.2c0-1.4-0.1-2.9-0.2-4.3
		C103.6,46.3,103.5,44.9,103.3,43.4z"/>
	<path class="st0" d="M170.8,34.8c-1.8-1.2-3.8-2.2-5.9-3.1c-4.6-2-9.5-2.9-14.7-2.9c-0.2,0-0.4,0-0.6,0c-0.3,0-0.5,0-0.8,0
		c-5.2,0-10.1,1-14.5,2.9c-4.4,2-8.3,4.6-11.5,8.1c-3.2,3.4-5.8,7.4-7.6,12c-1.8,4.6-2.7,9.5-2.7,14.7c0,5.1,0.9,10,2.7,14.6
		c1.8,4.6,4.3,8.6,7.6,12c3.2,3.4,7.1,6.1,11.5,8.1c4.4,2,9.3,2.9,14.5,2.9c0.2,0,0.5,0,0.7,0c0.2,0,0.5,0,0.7,0
		c5.2,0,10.1-1,14.7-2.9c2.1-0.9,4-1.9,5.9-3.1v6H188V28.7h-17.1V34.8z M164.8,80.9c-2,2-4.2,3.5-6.7,4.5c-2.5,1-5.1,1.5-7.9,1.5
		c-2.8,0-5.4-0.5-7.9-1.5c-2.5-1-4.7-2.5-6.6-4.5c-4-4-6-8.8-6-14.4c0-5.7,2-10.6,6-14.6c1.9-1.9,4.1-3.4,6.6-4.4
		c2.5-1,5.2-1.6,7.9-1.6c5.5,0,10.4,2,14.6,6c4,4,6,8.9,6,14.6C170.8,72,168.8,76.9,164.8,80.9z"/>
	<path class="st0" d="M218,36.1v-7.4h-17.1v37.5V104H218V66.3c0-5.5,2-10.4,6-14.6c4-4,8.9-6,14.6-6V28.6c-4.3,0-8.1,0.7-11.5,2.1
		C223.7,32.1,220.7,34,218,36.1z"/>
	<rect x="251.6" y="0" class="st0" width="17.1" height="104"/>
	<rect x="281.6" y="28.7" class="st0" width="17.1" height="75.3"/>
	<path class="st0" d="M349.3,45.9c5.7,0,10.6,2,14.6,6L376,39.7c-3.4-3.4-7.4-6.1-12-8.1c-4.6-2-9.5-2.9-14.7-2.9
		c-5.2,0-10.1,1-14.7,2.9c-4.6,2-8.6,4.6-12,8.1c-3.4,3.4-6.1,7.4-8.1,12c-2,4.6-2.9,9.5-2.9,14.7c0,5.1,1,10,2.9,14.6
		c2,4.6,4.6,8.6,8.1,12c3.4,3.4,7.4,6.1,12,8.1c4.6,2,9.5,2.9,14.7,2.9c5.2,0,10.1-1,14.7-2.9c4.6-2,8.6-4.6,12-8.1l-12.1-12.1
		c-3.9,4-8.8,6-14.6,6c-2.8,0-5.4-0.5-7.9-1.5c-2.5-1-4.7-2.5-6.7-4.5c-4-4-6-8.8-6-14.4c0-5.7,2-10.6,6-14.6
		C338.9,47.9,343.8,45.9,349.3,45.9z"/>
	<path class="st0" d="M457.1,51.7c-2-4.6-4.6-8.6-8.1-12c-3.4-3.4-7.4-6.1-12-8.1c-4.6-2-9.5-2.9-14.7-2.9c-5.2,0-10.1,1-14.7,2.9
		c-4.6,2-8.6,4.6-12,8.1c-3.4,3.4-6.1,7.4-8.1,12c-2,4.6-2.9,9.5-2.9,14.7c0,5.1,1,10,2.9,14.6c2,4.6,4.6,8.6,8.1,12
		c3.4,3.4,7.4,6.1,12,8.1c4.6,2,9.5,2.9,14.7,2.9c5.2,0,10.1-1,14.7-2.9c4.6-2,8.6-4.6,12-8.1c3.4-3.4,6.1-7.4,8.1-12
		c2-4.6,2.9-9.4,2.9-14.6C460,61.2,459,56.3,457.1,51.7z M436.9,80.9c-2,2-4.2,3.5-6.7,4.5c-2.5,1-5.1,1.5-7.9,1.5
		c-2.8,0-5.4-0.5-7.9-1.5c-2.5-1-4.7-2.5-6.6-4.5c-4-4-6-8.8-6-14.4c0-5.7,2-10.6,6-14.6c4-4,8.9-6,14.6-6c5.5,0,10.4,2,14.6,6
		c4,4,6,8.9,6,14.6C442.9,72,440.9,76.9,436.9,80.9z"/>
	<rect x="281.6" y="0" class="st0" width="17.1" height="15.9"/>
</g>
</svg>
