<?xml version="1.0" encoding="utf-8"?>
<!-- Generator: Adobe Illustrator 21.1.0, SVG Export Plug-In . SVG Version: 6.00 Build 0)  -->
<svg version="1.1" id="Слой_1" xmlns="http://www.w3.org/2000/svg" xmlns:xlink="http://www.w3.org/1999/xlink" x="0px" y="0px"
	 viewBox="0 0 13 26" style="enable-background:new 0 0 13 26;" xml:space="preserve">
<style type="text/css">
	.st0{fill:#FFFFFF;}
</style>
<path class="st0" d="M9.8,4.7c0.6,0,1.9,0,3.1,0c0-0.6,0-2.8,0-4.7c-1.6,0-3.4,0-4.2,0C2.8,0,2.9,4.6,2.9,5.2c0,0.7,0,3.7,0,3.7H0.2
	v4.6h2.7V26h5.6V13.5h3.8c0,0,0.4-2.2,0.5-4.6c-0.5,0-4.3,0-4.3,0s0-2.6,0-3.1C8.5,5.4,9.2,4.7,9.8,4.7z"/>
</svg>
