<?xml version="1.0" encoding="utf-8"?>
<!-- Generator: Adobe Illustrator 21.1.0, SVG Export Plug-In . SVG Version: 6.00 Build 0)  -->
<svg version="1.1" id="Слой_1" xmlns="http://www.w3.org/2000/svg" xmlns:xlink="http://www.w3.org/1999/xlink" x="0px" y="0px"
	 viewBox="0 0 20 40" style="enable-background:new 0 0 20 40;" xml:space="preserve">
<style type="text/css">
	.st0{fill:#29B35B;}
</style>
<g>
	<path class="st0" d="M13.9,33.9L10,37.8l-3.9-3.9c-0.4-0.4-0.9-0.4-1.3,0c-0.4,0.4-0.4,0.9,0,1.3l4.5,4.5C9.5,39.9,9.8,40,10,40
		s0.5-0.1,0.6-0.3l4.5-4.5c0.4-0.4,0.4-0.9,0-1.3C14.8,33.5,14.3,33.5,13.9,33.9z"/>
	<path class="st0" d="M10,0C4.5,0,0,4.5,0,10v12.1c0,5.5,4.5,10,10,10c5.5,0,10-4.5,10-10V10C20,4.5,15.5,0,10,0z M18.2,22.1
		c0,4.5-3.7,8.2-8.2,8.2s-8.2-3.7-8.2-8.2V10c0-4.5,3.7-8.2,8.2-8.2s8.2,3.7,8.2,8.2V22.1z"/>
	<path class="st0" d="M10,5.3c-0.5,0-0.9,0.4-0.9,0.9v7.3c0,0.5,0.4,0.9,0.9,0.9c0.5,0,0.9-0.4,0.9-0.9V6.2
		C10.9,5.7,10.5,5.3,10,5.3z"/>
</g>
</svg>
