<?xml version="1.0" encoding="utf-8"?>
<!-- Generator: Adobe Illustrator 21.1.0, SVG Export Plug-In . SVG Version: 6.00 Build 0)  -->
<svg version="1.1" id="Слой_1" xmlns="http://www.w3.org/2000/svg" xmlns:xlink="http://www.w3.org/1999/xlink" x="0px" y="0px"
	 viewBox="0 0 175 210" style="enable-background:new 0 0 175 210;" xml:space="preserve">
<style type="text/css">
	.st0{fill:#FFFFFF;}
</style>
<g>
	<path class="st0" d="M168.1,70.9c-4.4-10.4-10.7-19.8-18.8-27.8c-8-8-17.4-14.3-27.8-18.8c-3-1.3-6-2.3-9.1-3.3V0h-50v21.1
		c-3.1,0.9-6.1,2-9.1,3.3C43,28.8,33.7,35.1,25.6,43.1c-8,8-14.3,17.4-18.8,27.8C2.3,81.7,0,93.2,0,105c0,11.8,2.3,23.3,6.9,34.1
		c4.4,10.4,10.7,19.8,18.8,27.8c8,8,17.4,14.3,27.8,18.8c3,1.3,6,2.3,9.1,3.3V210l25-8.5l25,8.5v-21.1c3.1-0.9,6.1-2,9.1-3.3
		c10.4-4.4,19.8-10.7,27.8-18.8c8-8,14.3-17.4,18.8-27.8c4.6-10.8,6.9-22.2,6.9-34.1C175,93.2,172.7,81.7,168.1,70.9z M87.5,185.4
		c-44.3,0-80.4-36.1-80.4-80.4c0-44.3,36.1-80.4,80.4-80.4s80.4,36.1,80.4,80.4C167.9,149.3,131.8,185.4,87.5,185.4z"/>
	<path class="st0" d="M117,35.2c-9.3-3.9-19.3-6-29.5-6c-10.2,0-20.1,2-29.5,6C49,39,40.9,44.5,34,51.5c-7,7-12.4,15.1-16.2,24.1
		c-3.9,9.3-6,19.3-6,29.5c0,10.2,2,20.1,6,29.5c3.8,9,9.3,17.1,16.2,24.1c7,7,15.1,12.4,24.1,16.2c9.3,3.9,19.3,6,29.5,6
		c10.2,0,20.1-2,29.5-6c9-3.8,17.1-9.3,24.1-16.2c7-7,12.4-15.1,16.2-24.1c3.9-9.3,6-19.3,6-29.5c0-10.2-2-20.1-6-29.5
		c-3.8-9-9.3-17.1-16.2-24.1C134.1,44.5,126,39,117,35.2z M159.7,105c0,39.8-32.4,72.2-72.2,72.2c-39.8,0-72.2-32.4-72.2-72.2
		c0-39.8,32.4-72.2,72.2-72.2C127.3,32.8,159.7,65.2,159.7,105z"/>
	<path class="st0" d="M84.4,43.9c0,0.1,0.1,0.1,0.2,0.2c0.1,0.1,0.2,0.2,0.3,0.3c0.2,0.1,0.5,0.3,0.8,0.4c0.3,0.1,0.5,0.2,0.8,0.2
		c0.3,0.1,0.6,0.1,0.9,0.1c0.6,0,1.2,0,1.8-0.1c0.3-0.1,0.6-0.1,0.9-0.3c0.3-0.1,0.6-0.3,0.8-0.5c0,0,0.1-0.1,0.1-0.1
		c0,0,0.1-0.1,0.1-0.2c0-0.1,0.1-0.3,0-0.5c0-0.1-0.1-0.2-0.2-0.2c-0.1-0.1-0.1-0.1-0.2-0.1c-0.1,0-0.2-0.1-0.3-0.1
		c-0.4-0.1-0.6,0-0.9,0c-0.6,0-1.1,0.1-1.7,0.1c-0.6,0-1.1,0-1.7,0.1c-0.3,0-0.6,0-0.9,0c-0.1,0-0.3,0-0.5,0.1
		c-0.1,0-0.2,0.1-0.3,0.1c-0.1,0.1-0.2,0.2-0.2,0.3c0,0,0,0.1,0,0.1C84.4,43.9,84.4,43.9,84.4,43.9z M84.8,43.7c0,0,0.1,0,0.1,0
		c0.1,0,0.2,0,0.4-0.1c0.3,0,0.5,0,0.8,0c0.6,0,1.1,0.1,1.7,0.1c0.6,0,1.1,0.1,1.7,0.1c0.2,0,0.6,0.1,0.2,0.3
		c-0.2,0.1-0.4,0.2-0.7,0.3c-0.5,0.2-1,0.2-1.5,0.3c-0.5,0-1.1,0-1.6-0.2c-0.2-0.1-0.5-0.2-0.7-0.3c-0.1-0.1-0.2-0.1-0.3-0.2
		C84.8,43.8,84.8,43.7,84.8,43.7C84.8,43.7,84.8,43.7,84.8,43.7z"/>
	<path class="st0" d="M103.5,122.8c0.5-0.1,0.9-0.3,1.4-0.4c1-0.3,1.9-0.7,2.8-1.2c0.5-0.3,1-0.5,1.5-0.8c0.4-0.2,0.8-0.5,1.2-0.8
		c0,0,0.1-0.1,0.1-0.1c0.8-0.6,1.5-1.2,2.3-1.8c0.7-0.7,1.4-1.4,2.1-2.2c0,0,0,0,0-0.1c0.1-0.2,0.3-0.3,0.4-0.5c0.5-0.6,1-1.3,1.4-2
		c0.6-0.9,1.1-1.8,1.5-2.7c0.3-0.7,0.6-1.3,0.9-2l0.2-0.2c0.3-0.4,0.7-0.7,1-1.1c1.1-1.2,2-2.5,2.9-3.9c0,0,0-0.1,0.1-0.1
		c0.4-0.6,0.7-1.2,1-1.8c0.5-0.9,1-1.9,1.4-2.8c0.4-1,0.8-2,1-3c0.1-0.4,0.2-0.8,0.3-1.2c0.1-0.6,0.2-1.3,0.3-1.9
		c0-0.2,0-0.3,0.1-0.5c0.1-0.5,0.1-1.1,0.1-1.6c0-0.3,0-0.6,0-0.9c0,0,0,0,0,0c0-0.8-0.1-1.7-0.2-2.5c-0.1-0.8-0.3-1.7-0.6-2.5
		c-0.5-1.6-1.3-3.2-2.2-4.6c-0.9-1.4-2-2.7-3.2-3.9c-1.2-1.2-2.5-2.2-3.8-3.2c-1.3-0.9-2.8-1.8-4.2-2.5c-2.8-1.5-5.5-3-8.1-4.7
		c-2.2-1.4-4.3-3-6.3-4.7c0,0,0,0,0,0c-0.3-0.3-1-0.9-1-1c0,0,0,0,0,0c-1.1-1.1-2.2-3.5-2.8-6.5c-0.8-3.7-0.9-8.7-0.9-9.7
		c0,0,0-0.1,0-0.1c0-0.2-0.1-0.4-0.2-0.6c-0.1-0.2-0.3-0.3-0.4-0.3c-0.3-0.1-0.6-0.2-0.9-0.3c-0.6-0.1-1.2-0.1-1.7-0.2
		c-0.6,0-1.1-0.1-1.7-0.1l-1.7-0.1c-1.1-0.1-2.2-0.1-3.4-0.1c-0.3,0-0.6,0-0.9,0c-0.3,0-0.6,0.1-1,0.2c-0.2,0.1-0.4,0.2-0.6,0.3
		c-0.1,0.1-0.2,0.2-0.3,0.3c-0.1,0.1-0.1,0.3-0.2,0.4c0,0.2,0,0.3,0,0.5c0,1.3-0.2,5.8-0.9,9.4c-0.7,3.1-1.7,5.4-2.8,6.5
		c0,0,0,0,0,0c-0.1,0.1-0.1,0.1-0.2,0.2c-0.3,0.3-0.6,0.5-0.9,0.8c-2,1.8-4.2,3.4-6.4,4.9c-2.6,1.7-5.3,3.2-8.1,4.7
		c-1.4,0.8-2.9,1.6-4.2,2.5c-1.4,0.9-2.7,2-3.8,3.2c-1.2,1.2-2.3,2.5-3.2,3.9c-0.9,1.4-1.7,3-2.2,4.6c-0.2,0.8-0.5,1.6-0.6,2.5
		c-0.1,0.8-0.2,1.7-0.2,2.5c0,0,0,0,0,0c0,0.3,0,0.6,0,0.9c0,0.5,0,1.1,0.1,1.6c0,0.2,0,0.3,0.1,0.5c0.1,0.7,0.2,1.3,0.3,1.9
		c0.1,0.4,0.2,0.8,0.3,1.2c0.3,1,0.6,2,1,3c0.4,1,0.9,1.9,1.4,2.8c0.3,0.6,0.7,1.2,1,1.8c0,0,0,0.1,0.1,0.1c0.9,1.4,1.8,2.6,2.9,3.9
		c0.3,0.4,0.7,0.7,1,1.1l0.2,0.2c0.3,0.7,0.5,1.3,0.9,2c0.5,0.9,1,1.8,1.5,2.7c0.5,0.7,0.9,1.3,1.4,2c0.1,0.2,0.3,0.3,0.4,0.5
		c0,0,0,0,0,0.1c0.6,0.8,1.4,1.5,2.1,2.2c0.7,0.7,1.5,1.3,2.3,1.8c0,0,0.1,0.1,0.1,0.1c0.4,0.3,0.8,0.5,1.2,0.8
		c0.5,0.3,1,0.6,1.5,0.8c0.9,0.5,1.9,0.9,2.8,1.2c0.5,0.2,0.9,0.3,1.4,0.4c0.3,0.1,0.6,0.1,0.9,0.2c0.9,0.2,1.8,0.3,2.7,0.4
		c0,0,0,0,0.1,0c0.7,0,1.4,0,2.1,0c0.7,0,1.3-0.1,1.9-0.2c0,0,0.1,0.1,0.1,0.1c-0.6,0.4-1.1,0.7-1.7,1.1c-0.2,0.1-0.4,0.3-0.6,0.4
		c-0.2,0.1-0.4,0.3-0.6,0.4c-0.4,0.3-0.3,0.4,0.2,0.2c0.2-0.1,0.5-0.2,0.7-0.3c0.2-0.1,0.5-0.2,0.7-0.3c0.7-0.3,1.4-0.6,2.1-0.9
		c0.2,0.1,0.3,0.2,0.5,0.3c-0.6,0.4-1.1,0.7-1.7,1.1c-0.2,0.1-0.4,0.3-0.6,0.4c-0.2,0.1-0.4,0.3-0.6,0.4c-0.4,0.3-0.3,0.4,0.2,0.2
		c0.2-0.1,0.5-0.2,0.7-0.3c0.2-0.1,0.5-0.2,0.7-0.3c0.8-0.3,1.5-0.7,2.3-1c0,0,0.1,0,0.1,0.1c-0.1,0.1-0.3,0.3-0.4,0.4
		c-0.7,0.6-1.4,1.3-2,2c-0.2,0.2-0.3,0.3-0.5,0.5c-0.2,0.2-0.3,0.3-0.5,0.5c-0.3,0.3-0.2,0.4,0.2,0.2c0.2-0.1,0.4-0.3,0.6-0.4
		c0.2-0.1,0.4-0.3,0.6-0.4c0.8-0.5,1.6-1.1,2.4-1.6c0,0,0.1-0.1,0.1-0.1c-0.2,0.3-0.3,0.6-0.5,0.9c-0.1,0.2-0.2,0.4-0.3,0.6
		c-0.1,0.2-0.2,0.4-0.3,0.6c-0.2,0.4,0,0.5,0.3,0.1c0.1-0.2,0.3-0.4,0.4-0.5c0.1-0.2,0.3-0.3,0.4-0.5c0.4-0.5,0.8-0.9,1.3-1.4
		c0.2,0.1,0.3,0.1,0.5,0.2c-0.1,0.2-0.1,0.4-0.2,0.6c-0.1,0.2-0.1,0.4-0.2,0.6c-0.1,0.2-0.1,0.4-0.2,0.6c-0.1,0.4,0.1,0.5,0.3,0.1
		c0.1-0.2,0.2-0.4,0.3-0.6c0.1-0.2,0.2-0.4,0.3-0.6c0.1-0.2,0.3-0.4,0.4-0.6c0.1,0,0.2,0.1,0.3,0.1c-0.2,0.6-0.4,1.1-0.6,1.7
		c-0.1,0.2-0.1,0.4-0.2,0.6c-0.1,0.2-0.1,0.4-0.2,0.6c-0.1,0.4,0.1,0.5,0.3,0.1c0.1-0.2,0.2-0.4,0.3-0.6c0.1-0.2,0.2-0.4,0.3-0.6
		c0.4-0.6,0.7-1.1,1.1-1.7c0.3,0.1,0.7,0.1,1.1,0.1c0,0.5,0.1,1.1,0.1,1.6c0,0.2,0,0.4,0.1,0.6c0.1,0.9,0.2,0.2,0.2,0
		c0-0.2,0.1-0.4,0.1-0.6c0.1-0.5,0.1-1.1,0.1-1.6c0.4,0,0.7-0.1,1.1-0.1c0.4,0.6,0.8,1.1,1.1,1.7c0.1,0.2,0.2,0.4,0.3,0.6
		c0.1,0.2,0.2,0.4,0.3,0.6c0.2,0.4,0.4,0.3,0.3-0.1c-0.1-0.2-0.1-0.4-0.2-0.6c-0.1-0.2-0.1-0.4-0.2-0.6c-0.2-0.6-0.4-1.1-0.6-1.7
		c0.1,0,0.2,0,0.3-0.1c0.1,0.2,0.3,0.4,0.4,0.6c0.1,0.2,0.2,0.4,0.3,0.6c0.1,0.2,0.2,0.4,0.3,0.6c0.2,0.4,0.4,0.3,0.3-0.1
		c-0.1-0.2-0.1-0.4-0.2-0.6c-0.1-0.2-0.1-0.4-0.2-0.6c-0.1-0.2-0.1-0.4-0.2-0.6c0.2-0.1,0.4-0.1,0.5-0.2c0.4,0.5,0.9,0.9,1.3,1.4
		c0.2,0.2,0.3,0.3,0.4,0.5c0.1,0.2,0.3,0.3,0.4,0.5c0.3,0.4,0.5,0.3,0.3-0.1c-0.1-0.2-0.2-0.4-0.3-0.6c-0.1-0.2-0.2-0.4-0.3-0.6
		c-0.2-0.3-0.3-0.6-0.5-0.9c0,0,0.1,0.1,0.1,0.1c0.8,0.5,1.6,1,2.4,1.6c0.2,0.1,0.4,0.3,0.6,0.4c0.2,0.1,0.4,0.3,0.6,0.4
		c0.4,0.3,0.5,0.2,0.2-0.2c-0.2-0.2-0.3-0.3-0.5-0.5c-0.2-0.2-0.3-0.3-0.5-0.5c-0.7-0.7-1.3-1.3-2-2c-0.1-0.1-0.3-0.3-0.4-0.4
		c0,0,0.1,0,0.1-0.1c0.8,0.3,1.5,0.6,2.3,1c0.2,0.1,0.5,0.2,0.7,0.3c0.2,0.1,0.5,0.2,0.7,0.3c0.5,0.2,0.6,0.1,0.2-0.2
		c-0.2-0.1-0.4-0.3-0.6-0.4c-0.2-0.1-0.4-0.3-0.6-0.4c-0.6-0.4-1.1-0.7-1.7-1.1c0.2-0.1,0.3-0.2,0.5-0.3c0.7,0.3,1.4,0.6,2.1,0.9
		c0.2,0.1,0.5,0.2,0.7,0.3c0.2,0.1,0.5,0.2,0.7,0.3c0.5,0.2,0.6,0.1,0.2-0.2c-0.2-0.1-0.4-0.3-0.6-0.4c-0.2-0.1-0.4-0.3-0.6-0.4
		c-0.5-0.4-1.1-0.7-1.7-1.1c0,0,0.1-0.1,0.1-0.1c0.6,0.1,1.3,0.2,1.9,0.2c0.7,0,1.4,0,2.1,0c0,0,0,0,0.1,0c0.9-0.1,1.8-0.2,2.7-0.4
		C102.9,123,103.2,122.9,103.5,122.8z M92.4,42.9c1.8,0.4,0.4,1.3,0.2,1.5c-0.4,0.3-2.4,1.3-4.5,1.3c-2.5,0-4.3-0.9-4.7-1.1
		C78.3,41.2,91.9,42.8,92.4,42.9z M101.2,109.9c-0.1,0.8-0.2,1.6-0.4,2.4c0-0.3,0-0.5,0-0.8c0-0.4,0-0.7-0.1-1
		c-0.1-1.4-0.3-2.8-0.5-4.2c-0.2-1.4-0.5-2.7-0.8-4.1c-0.3-1.3-0.7-2.7-1.2-4c-0.3-0.8-0.6-1.6-0.9-2.4c-0.2-0.5-0.3-0.2-0.2,0.4
		c0.2,0.7,0.3,1.5,0.4,2.2c0.2,1.3,0.4,2.7,0.5,4c0.1,1.3,0.1,2.7,0.1,4c0,1.3-0.1,2.7-0.2,4c0,0.3-0.1,0.7-0.1,1
		c0,0.3-0.1,0.7-0.1,1c-0.1,0.7-0.2,1.3-0.3,1.9c-0.2,1.2-0.5,2.3-0.8,3.5l0-0.3l0.2-2.1c0.2-2.8,0.3-5.7,0.1-8.5
		c-0.1-0.7-0.1-1.4-0.2-2.1l-0.1-1l-0.2-1c-0.2-1-0.4-1.9-0.7-2.9c-0.1-0.4-0.2-0.1-0.2,0.4c0.1,0.9,0.1,1.7,0.1,2.6l0,1l0,1
		c0,0.7-0.1,1.4-0.1,2c-0.2,2.7-0.8,5.4-1.4,8l-0.6,1.9l-0.1,0.5c0,0.2-0.1,0.3-0.2,0.5l-0.3,1l-0.3,1c-0.1,0.3-0.2,0.6-0.3,0.9
		l-0.1,0.3c-0.1,0-0.3,0-0.4,0.1c0.1-0.5,0.2-1,0.4-1.5c0.3-1.5,0.6-3,0.8-4.4c0.2-1.5,0.3-3,0.4-4.5c0.1-1.5,0.1-3,0-4.5
		c0-0.7-0.1-1.5-0.2-2.2c0-0.3-0.1-0.5-0.1-0.8c-0.1-0.5-0.2-0.3-0.2,0.2c0,0.2,0,0.4,0,0.6c0,0.7-0.1,1.5-0.2,2.2
		c-0.1,1.4-0.4,2.9-0.7,4.3c-0.3,1.4-0.7,2.8-1.1,4.2c-0.4,1.4-0.9,2.7-1.4,4.1c-0.2,0.4-0.3,0.8-0.5,1.2c0-0.6,0-1.1-0.1-1.7
		c-0.1-2.4-0.3-4.9-0.5-7.3c-0.1-0.6-0.1-1.2-0.2-1.8c-0.1-0.6-0.1-1.2-0.2-1.8c-0.4-3.2-0.6-1.2-0.7,0c0,0.6-0.1,1.2-0.1,1.8
		c-0.1,0.6-0.1,1.2-0.2,1.8c-0.2,2.4-0.6,4.8-0.9,7.1c-0.1,0.4-0.1,0.8-0.2,1.1c-0.1-0.2-0.1-0.3-0.2-0.5c-0.5-1.3-1-2.7-1.4-4.1
		c-0.4-1.4-0.8-2.8-1.1-4.2c-0.3-1.4-0.5-2.9-0.7-4.3c-0.1-0.7-0.1-1.5-0.2-2.2c0-0.2,0-0.4,0-0.6c0-0.5-0.2-0.7-0.2-0.2
		c0,0.3-0.1,0.5-0.1,0.8c-0.1,0.7-0.2,1.5-0.2,2.2c-0.1,1.5-0.1,3,0,4.5c0.1,1.5,0.2,3,0.4,4.5c0.2,1.5,0.5,3,0.8,4.4
		c0.1,0.5,0.2,1,0.4,1.5c-0.1,0-0.3,0-0.4-0.1l-0.1-0.3c-0.1-0.3-0.2-0.6-0.3-0.9l-0.3-1l-0.3-1c-0.1-0.2-0.1-0.3-0.2-0.5l-0.1-0.5
		l-0.6-1.9c-0.7-2.6-1.2-5.3-1.4-8c-0.1-0.7-0.1-1.4-0.1-2l0-1l0-1c0-0.9,0-1.7,0.1-2.6c0-0.5-0.1-0.8-0.2-0.4
		c-0.3,0.9-0.5,1.9-0.7,2.9l-0.2,1l-0.1,1c-0.1,0.7-0.2,1.4-0.2,2.1c-0.2,2.8-0.2,5.6,0.1,8.5l0.2,2.1l0,0.3
		c-0.3-1.2-0.6-2.3-0.8-3.5c-0.1-0.6-0.2-1.3-0.3-1.9c0-0.3-0.1-0.7-0.1-1c0-0.3-0.1-0.7-0.1-1c-0.1-1.3-0.2-2.6-0.2-4
		c0-1.3,0-2.7,0.1-4c0.1-1.3,0.3-2.7,0.5-4c0.1-0.7,0.3-1.5,0.4-2.2c0.1-0.6,0-0.8-0.2-0.4c-0.3,0.8-0.6,1.6-0.9,2.4
		c-0.5,1.3-0.8,2.6-1.2,4c-0.3,1.3-0.6,2.7-0.8,4.1c-0.2,1.4-0.4,2.8-0.5,4.2c0,0.3-0.1,0.7-0.1,1c0,0.3,0,0.5,0,0.8
		c-0.2-0.8-0.3-1.6-0.4-2.4c-0.3-2.8-0.2-5.7,0.1-8.6c0.2-1.4,0.4-2.9,0.8-4.3c0.3-1.4,0.7-2.8,1.1-4.2c0.4-1.4,0.9-2.7,1.5-4.1
		c0.3-0.7,0.6-1.3,0.9-2c0.2-0.3,0.3-0.6,0.5-0.9c0.1-0.2,0.2-0.3,0.3-0.5l0.1-0.2l0.1-0.3l1.1-2c0.3-0.7,0.7-1.4,1-2.1
		c0.2-0.3,0.3-0.7,0.4-1.1l0.4-1.1c0.1-0.4,0.3-0.7,0.4-1.1l0.4-1.1c1-2.9,1.7-5.9,2.2-8.8c0.1-0.4,0.1-0.7,0.2-1.1
		c0.1-0.4,0.1-0.7,0.2-1.1c0.1-0.8,0.2-1.5,0.2-2.3c0.1-1.5-0.4-1.6-0.8-0.1c-0.2,0.7-0.4,1.4-0.6,2.2c-0.2,0.7-0.4,1.4-0.6,2.1
		c-0.9,2.8-1.8,5.6-3,8.3c-1.1,2.7-2.4,5.3-4,7.8l-0.1,0.2l-0.2,0.3c-0.1,0.2-0.2,0.3-0.3,0.5c-0.2,0.3-0.4,0.7-0.6,1
		c-0.4,0.7-0.7,1.4-1,2.1c-0.6,1.4-2.2,5.3-3,8.5c-1.1,4.5-1.4,10.1-1.4,11c0,1.3,0.2,2.6,0.4,3.9c0.1,0.4,0.2,0.9,0.2,1.3
		c-0.3-0.9-0.6-1.7-0.9-2.6c-0.4-1.2-0.7-2.4-0.9-3.6c-0.2-1.2-0.4-2.5-0.5-3.7c0-0.7,0-1.5,0-2.2c0-0.5-0.1-0.7-0.2-0.3
		c-0.2,0.8-0.4,1.7-0.5,2.5c-0.2,1.3-0.2,2.6-0.2,3.9c0,1.3,0.1,2.6,0.3,3.9c0.2,1.3,0.4,2.6,0.7,3.9c0.1,0.3,0.1,0.6,0.2,1
		c0.1,0.3,0.2,0.6,0.2,1c0.2,0.6,0.3,1.3,0.5,1.9l0.1,0.4c-0.2-0.4-0.4-0.9-0.6-1.3c-0.5-1.1-0.9-2.2-1.3-3.3
		c-0.4-1.1-0.8-2.3-1.1-3.4c-0.3-1.2-0.5-2.3-0.7-3.5c-0.2-1.2-0.3-2.4-0.4-3.6c-0.1-1.2,0-2.4,0.1-3.6c0-0.6,0.1-1.2,0.2-1.8
		c0.1-0.6-0.1-0.7-0.3-0.1c-0.2,0.6-0.4,1.2-0.6,1.8c-0.3,1.2-0.6,2.4-0.8,3.7c-0.2,1.2-0.3,2.5-0.3,3.8c0,1.3,0,2.5,0.1,3.8
		c0.1,1.1,0.2,2.2,0.3,3.3c-0.1-0.3-0.2-0.7-0.3-1c-0.3-1.1-0.6-2.1-0.8-3.2c-0.2-1.1-0.4-2.2-0.5-3.3c-0.1-1.1-0.2-2.2-0.2-3.4
		c0-1.1,0-2.3,0.1-3.4c0.1-1.1,0.3-2.3,0.5-3.4c0.1-0.6,0.3-1.1,0.4-1.7c0.2-0.6,0-0.6-0.3-0.1c-0.3,0.5-0.5,1-0.8,1.6
		c-0.5,1.1-0.9,2.2-1.2,3.3c-0.3,1.1-0.6,2.3-0.9,3.5c-0.2,1.2-0.4,2.4-0.5,3.6c-0.1,0.7-0.1,1.3-0.1,2c-0.1-1-0.2-2-0.2-3l0-0.4
		l0-0.4c0-0.3,0-0.5,0-0.8c0-0.5,0-1.1,0.1-1.6c0.2-2.2,0.6-4.4,1.2-6.6c0.3-1.1,0.7-2.1,1.1-3.2c0.2-0.5,0.4-1,0.7-1.5
		c0.3-0.5,0.3-0.9,0-0.6c-0.5,0.6-0.9,1.1-1.3,1.7c-0.7,1-1.3,2-1.8,3c-1,1.9-1.9,3.9-2.5,6c0-0.8,0-1.5,0.1-2.3
		c0.1-0.9,0.2-1.8,0.4-2.7c0.2-0.9,0.5-1.7,0.8-2.6c1.3-3.4,3.6-6.4,6.5-8.7l1.1-0.9c0.4-0.3,0.8-0.6,1.1-1l1.1-1
		c0.4-0.3,0.7-0.7,1.1-1l0.5-0.5l0.5-0.5c0.4-0.3,0.7-0.7,1.1-1l1-1.1c0.3-0.4,0.7-0.7,1-1.1c2.7-3,5.1-6.2,7-9.7
		c0.5-0.9,0.9-1.8,1.3-2.7c0.4-0.9,0.8-1.8,1.1-2.8c0.6-1.9,0.7-3.9,0.4-3c-0.3,0.9-0.7,1.8-1.1,2.7c-0.4,0.9-0.9,1.7-1.4,2.6
		c-0.5,0.8-1,1.7-1.5,2.5c-2.1,3.2-4.7,6.1-7.4,8.8c-1.4,1.4-2.8,2.7-4.3,3.9c-0.4,0.3-0.7,0.6-1.1,0.9l-1.1,0.9
		c-0.4,0.3-0.8,0.6-1.1,0.9l-1.2,0.9c-0.8,0.6-1.6,1.3-2.3,2c-0.2,0.2-0.4,0.4-0.5,0.6c-0.2,0.2-0.4,0.4-0.5,0.6l-0.5,0.6l-0.5,0.6
		c-1.3,1.6-2.3,3.5-3.1,5.4c-0.4,1-0.7,2-0.9,3c-0.2,1-0.4,2.1-0.5,3.1c-0.1,1-0.1,2.1,0,3.1c0,0.5,0.1,1,0.1,1.4l-0.1-0.6l-0.1-0.3
		l-0.1-0.3L54,101c0-0.2-0.1-0.5-0.1-0.7c-0.1-0.5-0.1-0.9-0.2-1.4c0-0.2,0-0.5,0-0.7c0-0.2,0-0.5,0-0.7c0-0.9,0-1.8,0.1-2.8
		c0.1-0.9,0.3-1.8,0.6-2.7c0.3-0.9,0.6-1.8,1.1-2.6c0.2-0.4,0.5-0.8,0.7-1.2c0.3-0.4,0.2-0.5-0.2-0.1c-0.3,0.3-0.7,0.7-1,1.1
		c-0.6,0.8-1.1,1.6-1.5,2.5c-0.4,0.7-0.6,1.5-0.9,2.3l0-0.3c0-0.2,0.1-0.5,0.1-0.7c0-0.5,0.1-0.9,0.2-1.4c0-0.2,0.1-0.4,0.1-0.7
		c0-0.2,0.1-0.5,0.2-0.7c0.2-0.9,0.5-1.8,0.9-2.6c0.4-0.9,0.8-1.7,1.3-2.5c0.5-0.8,1.1-1.5,1.7-2.2c0.3-0.3,0.7-0.7,1-1
		c0.4-0.3,0.3-0.4-0.1-0.2c-0.4,0.2-0.8,0.5-1.2,0.8c-0.8,0.6-1.5,1.3-2.2,2c-1,1.1-1.8,2.4-2.5,3.7c0.2-0.7,0.5-1.3,0.8-1.9
		c0.7-1.5,1.6-2.9,2.6-4.3c0.8-1,1.6-2,2.6-2.8c0.3-0.3,0.6-0.6,0.3-0.4c-1.3,0.7-2.5,1.6-3.6,2.6c-0.3,0.3-0.6,0.5-0.8,0.8
		c0.7-1.1,1.5-2.2,2.5-3.2l0.4-0.4c0.1-0.1,0.3-0.3,0.4-0.4c0.1-0.1,0.3-0.3,0.4-0.4l0.5-0.4c0.6-0.5,0.5-0.7-0.2-0.4l-0.5,0.3
		c-0.2,0.1-0.3,0.2-0.5,0.3c-0.2,0.1-0.4,0.2-0.5,0.3l-0.5,0.3c-0.6,0.4-1.3,0.9-1.8,1.5c0.6-0.7,1.2-1.4,1.8-2c1.1-1,2.2-2,3.5-2.9
		c0.3-0.2,0.6-0.4,0.9-0.6c0.3-0.2,0.6-0.4,1-0.6c0.3-0.2,0.6-0.4,1-0.6l1-0.6c2.8-1.6,5.5-3.3,8.1-5.3c2-1.6,4-3.2,5.7-5.1
		c0,0,0,0,0,0s0.2-0.2,0.5-0.5c0.8-0.8,2.2-2.4,2.9-4.4c1.4-4.1,1.8-10.3,1.8-12.1c0.2,0.2,0.5,0.3,0.7,0.5c0.5,0.3,1.1,0.5,1.7,0.7
		c1.2,0.3,2.4,0.4,3.6,0.3c0.6,0,1.2-0.1,1.7-0.3c0.6-0.1,1.1-0.3,1.6-0.6c0.5-0.2,0.9-0.5,1.3-0.8c0,1.4,0.2,7.9,1.9,12.4
		c0.7,2,2.9,4.4,2.9,4.4c1.8,2,3.9,3.8,6.1,5.5c2.6,1.9,5.3,3.7,8.1,5.3l1,0.6c0.3,0.2,0.7,0.4,1,0.6c0.3,0.2,0.6,0.4,1,0.6
		c0.3,0.2,0.6,0.4,0.9,0.6c1.2,0.9,2.4,1.8,3.5,2.9c0.6,0.6,1.2,1.3,1.8,2c-0.6-0.5-1.2-1-1.8-1.5l-0.5-0.3
		c-0.2-0.1-0.3-0.2-0.5-0.3c-0.2-0.1-0.3-0.2-0.5-0.3l-0.5-0.3c-0.7-0.4-0.9-0.1-0.2,0.4l0.5,0.4c0.1,0.1,0.3,0.3,0.4,0.4
		c0.1,0.1,0.3,0.3,0.4,0.4l0.4,0.4c0.9,1,1.7,2.1,2.5,3.2c-0.3-0.3-0.5-0.5-0.8-0.8c-1.1-1-2.3-1.9-3.6-2.6c-0.2-0.1,0,0.2,0.3,0.4
		c1,0.8,1.8,1.8,2.6,2.8c1,1.3,1.9,2.8,2.6,4.3c0.3,0.6,0.6,1.3,0.8,1.9c-0.7-1.3-1.5-2.6-2.5-3.7c-0.7-0.7-1.4-1.4-2.2-2
		c-0.4-0.3-0.8-0.6-1.2-0.8c-0.4-0.2-0.5-0.1-0.1,0.2c0.4,0.3,0.7,0.6,1,1c0.7,0.7,1.2,1.4,1.7,2.2c0.5,0.8,0.9,1.6,1.3,2.5
		c0.4,0.9,0.6,1.7,0.9,2.6c0.1,0.2,0.1,0.4,0.2,0.7c0,0.2,0.1,0.4,0.1,0.7c0.1,0.5,0.2,0.9,0.2,1.4c0,0.2,0.1,0.5,0.1,0.7l0,0.3
		c-0.2-0.8-0.5-1.5-0.9-2.3c-0.4-0.9-0.9-1.7-1.5-2.5c-0.3-0.4-0.6-0.8-1-1.1c-0.3-0.3-0.5-0.2-0.2,0.1c0.3,0.4,0.5,0.8,0.7,1.2
		c0.4,0.8,0.8,1.7,1.1,2.6c0.3,0.9,0.4,1.8,0.6,2.7c0.1,0.9,0.2,1.8,0.1,2.8c0,0.2,0,0.5,0,0.7c0,0.2,0,0.5,0,0.7
		c-0.1,0.5-0.1,0.9-0.2,1.4c0,0.2-0.1,0.5-0.1,0.7l-0.1,0.7l-0.1,0.3l-0.1,0.3l-0.1,0.6c0.1-0.5,0.1-1,0.1-1.4c0.1-1,0.1-2.1,0-3.1
		c-0.1-1-0.2-2.1-0.5-3.1c-0.2-1-0.5-2-0.9-3c-0.8-1.9-1.8-3.8-3.1-5.4l-0.5-0.6l-0.5-0.6c-0.2-0.2-0.3-0.4-0.5-0.6
		c-0.2-0.2-0.4-0.4-0.5-0.6c-0.7-0.7-1.5-1.4-2.3-2l-1.2-0.9c-0.4-0.3-0.8-0.6-1.1-0.9l-1.1-0.9c-0.4-0.3-0.7-0.6-1.1-0.9
		c-1.5-1.3-2.9-2.5-4.3-3.9c-2.7-2.7-5.3-5.6-7.4-8.8c-0.5-0.8-1-1.6-1.5-2.5c-0.5-0.8-0.9-1.7-1.4-2.6c-0.4-0.9-0.8-1.8-1.1-2.7
		c-0.3-0.9-0.2,1.1,0.4,3c0.3,0.9,0.7,1.9,1.1,2.8c0.4,0.9,0.8,1.8,1.3,2.7c1.9,3.5,4.3,6.7,7,9.7c0.3,0.4,0.7,0.7,1,1.1l1,1.1
		c0.3,0.4,0.7,0.7,1.1,1l0.5,0.5l0.5,0.5c0.4,0.3,0.7,0.7,1.1,1l1.1,1c0.4,0.3,0.8,0.6,1.1,1l1.1,0.9c2.9,2.3,5.2,5.3,6.5,8.7
		c0.3,0.8,0.6,1.7,0.8,2.6c0.2,0.9,0.3,1.8,0.4,2.7c0.1,0.8,0.1,1.5,0.1,2.3c-0.7-2.1-1.5-4.1-2.5-6c-0.6-1-1.2-2-1.8-3
		c-0.4-0.6-0.8-1.2-1.3-1.7c-0.3-0.3-0.3,0.1,0,0.6c0.2,0.5,0.5,1,0.7,1.5c0.4,1,0.8,2.1,1.1,3.2c0.6,2.2,1.1,4.4,1.2,6.6
		c0.1,0.5,0.1,1.1,0.1,1.6c0,0.3,0,0.5,0,0.8l0,0.4l0,0.4c0,1-0.1,2-0.2,3c0-0.7-0.1-1.3-0.1-2c-0.1-1.2-0.3-2.4-0.5-3.6
		c-0.2-1.2-0.5-2.3-0.9-3.5c-0.3-1.1-0.7-2.2-1.2-3.3c-0.2-0.5-0.5-1.1-0.8-1.6c-0.3-0.5-0.5-0.4-0.3,0.1c0.2,0.6,0.3,1.1,0.4,1.7
		c0.2,1.1,0.4,2.2,0.5,3.4c0.1,1.1,0.1,2.3,0.1,3.4c0,1.1-0.1,2.2-0.2,3.4c-0.1,1.1-0.3,2.2-0.5,3.3c-0.2,1.1-0.5,2.2-0.8,3.2
		c-0.1,0.3-0.2,0.7-0.3,1c0.2-1.1,0.3-2.2,0.3-3.3c0.1-1.3,0.1-2.6,0.1-3.8c0-1.3-0.1-2.5-0.3-3.8c-0.2-1.2-0.4-2.5-0.8-3.7
		c-0.2-0.6-0.4-1.2-0.6-1.8c-0.2-0.6-0.4-0.5-0.3,0.1c0.1,0.6,0.2,1.2,0.2,1.8c0.1,1.2,0.1,2.4,0.1,3.6c-0.1,1.2-0.2,2.4-0.4,3.6
		c-0.2,1.2-0.4,2.4-0.7,3.5c-0.3,1.2-0.7,2.3-1.1,3.4c-0.4,1.1-0.8,2.2-1.3,3.3c-0.2,0.5-0.4,0.9-0.6,1.3l0.1-0.4
		c0.2-0.6,0.4-1.3,0.5-1.9c0.1-0.3,0.2-0.6,0.2-1c0.1-0.3,0.2-0.6,0.2-1c0.3-1.3,0.5-2.6,0.7-3.9c0.2-1.3,0.2-2.6,0.3-3.9
		c0-1.3-0.1-2.6-0.2-3.9c-0.1-0.8-0.3-1.7-0.5-2.5c-0.1-0.4-0.2-0.2-0.2,0.3c0,0.7,0,1.5,0,2.2c-0.1,1.3-0.2,2.5-0.5,3.7
		c-0.2,1.2-0.5,2.4-0.9,3.6c-0.3,0.9-0.6,1.7-0.9,2.6c0.1-0.4,0.2-0.9,0.2-1.3c0.2-1.3,0.3-2.6,0.4-3.9c0-0.9-0.3-6.5-1.4-11
		c-0.8-3.2-2.4-7.1-3-8.5c-0.3-0.7-0.7-1.4-1-2.1c-0.2-0.3-0.4-0.7-0.6-1c-0.1-0.2-0.2-0.3-0.3-0.5l-0.2-0.3l-0.1-0.2
		c-1.5-2.5-2.8-5.1-4-7.8c-1.1-2.7-2.1-5.5-3-8.3c-0.2-0.7-0.4-1.4-0.6-2.1c-0.2-0.7-0.4-1.4-0.6-2.2c-0.4-1.4-0.9-1.4-0.8,0.1
		c0.1,0.8,0.2,1.5,0.2,2.3c0,0.4,0.1,0.7,0.2,1.1c0.1,0.4,0.1,0.7,0.2,1.1c0.5,3,1.2,5.9,2.2,8.8l0.4,1.1c0.1,0.4,0.2,0.7,0.4,1.1
		l0.4,1.1c0.1,0.4,0.3,0.7,0.4,1.1c0.3,0.7,0.6,1.4,1,2.1l1.1,2l0.1,0.3l0.1,0.2c0.1,0.2,0.2,0.3,0.3,0.5c0.2,0.3,0.3,0.6,0.5,0.9
		c0.3,0.6,0.6,1.3,0.9,2c0.6,1.3,1.1,2.7,1.5,4.1c0.4,1.4,0.8,2.8,1.1,4.2c0.3,1.4,0.6,2.8,0.8,4.3
		C101.4,104.1,101.5,107,101.2,109.9z"/>
	<path class="st0" d="M57,159.9h1.2v1c-0.3,0.2-0.7,0.4-1.2,0.4c-1,0-1.6-0.7-1.6-1.7c0-0.9,0.6-1.7,1.5-1.7c0.6,0,0.9,0.2,1.2,0.5
		l0.3-0.3c-0.4-0.3-0.8-0.5-1.5-0.5c-1.2,0-2,1-2,2.1c0,1.2,0.8,2.1,2.1,2.1c0.7,0,1.2-0.3,1.6-0.6v-1.6H57V159.9z"/>
	<path class="st0" d="M62.4,157.6l-1.8,4.1H61l0.5-1.1h2.2l0.5,1.1h0.5l-1.8-4.1H62.4z M61.6,160.2l0.9-2.1l0.9,2.1H61.6z"/>
	<path class="st0" d="M69.8,158.8c0-0.3-0.1-0.6-0.3-0.8c-0.3-0.3-0.7-0.4-1.2-0.4h-1.7v4H67v-1.6h1.2l1.2,1.6h0.6l-1.2-1.7
		C69.3,159.9,69.8,159.5,69.8,158.8z M67,159.7v-1.6h1.2c0.7,0,1,0.3,1,0.8c0,0.5-0.4,0.8-1,0.8H67z"/>
	<polygon class="st0" points="72.4,157.6 71.9,157.6 71.9,161.7 74.7,161.7 74.7,161.3 72.4,161.3 	"/>
	<rect x="76.7" y="157.6" class="st0" width="0.5" height="4"/>
	<path class="st0" d="M81.4,161.3c-0.9,0-1.6-0.7-1.6-1.7c0-0.9,0.7-1.7,1.6-1.7c0.5,0,0.9,0.2,1.3,0.6l0.3-0.3
		c-0.4-0.4-0.8-0.7-1.6-0.7c-1.2,0-2,0.9-2,2.1c0,1.2,0.9,2.1,2,2.1c0.7,0,1.2-0.3,1.6-0.7l-0.3-0.3
		C82.3,161.1,81.9,161.3,81.4,161.3z"/>
	<path class="st0" d="M91,159.8l-0.4-0.2c-0.1,0.3-0.3,0.6-0.5,0.9l-0.9-0.9c0.6-0.2,1-0.5,1-1.1c0-0.5-0.4-0.9-1-0.9
		c-0.6,0-1.1,0.4-1.1,1c0,0.3,0.1,0.6,0.4,0.9c-0.6,0.2-1,0.6-1,1.2c0,0.7,0.5,1.1,1.3,1.1c0.5,0,1-0.2,1.3-0.6l0.6,0.7l0.3-0.3
		l-0.7-0.7C90.6,160.5,90.8,160.1,91,159.8z M89.1,157.9c0.3,0,0.6,0.2,0.6,0.6c0,0.4-0.3,0.6-0.8,0.8c-0.3-0.3-0.4-0.5-0.4-0.7
		C88.5,158.2,88.8,157.9,89.1,157.9z M88.8,161.3c-0.5,0-0.8-0.3-0.8-0.8c0-0.4,0.2-0.7,0.8-0.9l1.1,1.1
		C89.5,161.1,89.2,161.3,88.8,161.3z"/>
	<path class="st0" d="M97.8,157.6c-1.2,0-2.1,1-2.1,2.1c0,1.1,0.8,2.1,2.1,2.1c1.2,0,2.1-1,2.1-2.1C99.8,158.5,99,157.6,97.8,157.6z
		 M97.8,161.3c-0.9,0-1.6-0.8-1.6-1.7c0-0.9,0.7-1.7,1.6-1.7c0.9,0,1.6,0.8,1.6,1.7C99.4,160.6,98.7,161.3,97.8,161.3z"/>
	<polygon class="st0" points="104.9,160.9 102.4,157.6 101.9,157.6 101.9,161.7 102.4,161.7 102.4,158.4 105,161.7 105.4,161.7 
		105.4,157.6 104.9,157.6 	"/>
	<rect x="107.7" y="157.6" class="st0" width="0.5" height="4"/>
	<path class="st0" d="M112.4,157.6c-1.2,0-2.1,1-2.1,2.1c0,1.1,0.8,2.1,2.1,2.1c1.2,0,2.1-1,2.1-2.1
		C114.5,158.5,113.6,157.6,112.4,157.6z M112.4,161.3c-0.9,0-1.6-0.8-1.6-1.7c0-0.9,0.7-1.7,1.6-1.7c0.9,0,1.6,0.8,1.6,1.7
		C114,160.6,113.3,161.3,112.4,161.3z"/>
	<polygon class="st0" points="119.6,160.9 117,157.6 116.6,157.6 116.6,161.7 117,161.7 117,158.4 119.6,161.7 120,161.7 120,157.6 
		119.6,157.6 	"/>
	<path class="st0" d="M65.5,143h-9.1c1,1.8,2.9,3,5,3h1.1c-0.3,1.1-0.8,2-1.6,2.8c-0.6,0.6-1.2,1-2,1.3c-0.7,0.3-1.5,0.4-2.3,0.4
		c-0.8,0-1.6-0.1-2.3-0.4c-0.7-0.3-1.4-0.7-2-1.3c-0.6-0.6-1-1.2-1.3-2c-0.3-0.7-0.5-1.5-0.5-2.3c0-0.8,0.2-1.6,0.5-2.3
		c0.3-0.7,0.7-1.4,1.3-2c0.6-0.6,1.2-1,2-1.3c0.7-0.3,1.5-0.5,2.3-0.5c0.8,0,1.6,0.2,2.3,0.5c0.7,0.3,1.4,0.7,2,1.3l2.1-2.1
		c-0.8-0.8-1.8-1.5-2.9-2c-1.1-0.5-2.3-0.7-3.5-0.7c-1.2,0-2.4,0.2-3.5,0.7c-1.1,0.5-2.1,1.1-2.9,1.9c-0.8,0.8-1.5,1.8-1.9,2.9
		c-0.5,1.1-0.7,2.3-0.7,3.5s0.2,2.4,0.7,3.5c0.5,1.1,1.1,2.1,1.9,2.9c0.8,0.8,1.8,1.5,2.9,1.9c1.1,0.5,2.3,0.7,3.5,0.7
		s2.4-0.2,3.5-0.7c1.1-0.5,2.1-1.1,2.9-1.9c0.8-0.8,1.5-1.8,1.9-2.9c0.5-1.1,0.7-2.3,0.7-3.5c0-0.2,0-0.5,0-0.7
		C65.5,143.5,65.5,143.3,65.5,143z"/>
	<path class="st0" d="M80.2,153.5v-13.1h-3v1c-0.3-0.2-0.7-0.4-1-0.5c-0.8-0.3-1.6-0.5-2.6-0.5c0,0-0.1,0-0.1,0c0,0-0.1,0-0.1,0
		c-0.9,0-1.8,0.2-2.5,0.5c-0.8,0.3-1.4,0.8-2,1.4c-0.6,0.6-1,1.3-1.3,2.1c-0.3,0.8-0.5,1.6-0.5,2.6c0,0.9,0.2,1.7,0.5,2.5
		c0.3,0.8,0.8,1.5,1.3,2.1c0.6,0.6,1.2,1.1,2,1.4s1.6,0.5,2.5,0.5c0,0,0.1,0,0.1,0c0,0,0.1,0,0.1,0c0.9,0,1.8-0.2,2.6-0.5
		c0.4-0.2,0.7-0.3,1-0.5v1.1H80.2z M76.2,149.5c-0.3,0.3-0.7,0.6-1.2,0.8c-0.4,0.2-0.9,0.3-1.4,0.3c-0.5,0-0.9-0.1-1.4-0.3
		c-0.4-0.2-0.8-0.4-1.2-0.8c-0.7-0.7-1-1.5-1-2.5c0-1,0.3-1.8,1-2.5c0.3-0.3,0.7-0.6,1.2-0.8c0.4-0.2,0.9-0.3,1.4-0.3
		c1,0,1.8,0.3,2.5,1c0.7,0.7,1,1.5,1,2.5C77.2,148,76.9,148.8,76.2,149.5z"/>
	<path class="st0" d="M89,140.4c-0.7,0-1.4,0.1-2,0.4c-0.6,0.2-1.1,0.6-1.6,0.9v-1.3h-3v6.5v6.6h3V147c0-1,0.3-1.8,1-2.5
		c0.7-0.7,1.5-1,2.5-1V140.4z"/>
	<rect x="91.3" y="135.5" class="st0" width="3" height="18.1"/>
	<rect x="96.5" y="140.4" class="st0" width="3" height="13.1"/>
	<path class="st0" d="M112.9,151.6l-2.1-2.1c-0.7,0.7-1.5,1-2.5,1c-0.5,0-0.9-0.1-1.4-0.3c-0.4-0.2-0.8-0.4-1.2-0.8
		c-0.7-0.7-1-1.5-1-2.5c0-1,0.3-1.8,1-2.5c0.7-0.7,1.6-1,2.5-1c1,0,1.8,0.3,2.5,1l2.1-2.1c-0.6-0.6-1.3-1.1-2.1-1.4
		c-0.8-0.3-1.6-0.5-2.6-0.5c-0.9,0-1.8,0.2-2.6,0.5c-0.8,0.3-1.5,0.8-2.1,1.4c-0.6,0.6-1.1,1.3-1.4,2.1c-0.3,0.8-0.5,1.6-0.5,2.6
		c0,0.9,0.2,1.7,0.5,2.5c0.3,0.8,0.8,1.5,1.4,2.1c0.6,0.6,1.3,1.1,2.1,1.4c0.8,0.3,1.6,0.5,2.6,0.5c0.9,0,1.8-0.2,2.6-0.5
		C111.6,152.7,112.3,152.2,112.9,151.6z"/>
	<path class="st0" d="M125.6,142.4c-0.6-0.6-1.3-1.1-2.1-1.4c-0.8-0.3-1.6-0.5-2.6-0.5c-0.9,0-1.8,0.2-2.6,0.5
		c-0.8,0.3-1.5,0.8-2.1,1.4c-0.6,0.6-1.1,1.3-1.4,2.1c-0.3,0.8-0.5,1.6-0.5,2.6c0,0.9,0.2,1.7,0.5,2.5c0.3,0.8,0.8,1.5,1.4,2.1
		c0.6,0.6,1.3,1.1,2.1,1.4c0.8,0.3,1.6,0.5,2.6,0.5c0.9,0,1.8-0.2,2.6-0.5c0.8-0.3,1.5-0.8,2.1-1.4c0.6-0.6,1.1-1.3,1.4-2.1
		c0.3-0.8,0.5-1.6,0.5-2.5c0-0.9-0.2-1.8-0.5-2.6C126.7,143.7,126.2,143,125.6,142.4z M123.5,149.5c-0.3,0.3-0.7,0.6-1.2,0.8
		c-0.4,0.2-0.9,0.3-1.4,0.3c-0.5,0-0.9-0.1-1.4-0.3c-0.4-0.2-0.8-0.4-1.2-0.8c-0.7-0.7-1-1.5-1-2.5c0-1,0.3-1.8,1-2.5
		c0.7-0.7,1.5-1,2.5-1c1,0,1.8,0.3,2.5,1c0.7,0.7,1,1.5,1,2.5C124.5,148,124.2,148.8,123.5,149.5z"/>
	<rect x="96.5" y="135.5" class="st0" width="3" height="2.8"/>
</g>
</svg>
