<?xml version="1.0" encoding="utf-8"?>
<!-- Generator: Adobe Illustrator 21.1.0, SVG Export Plug-In . SVG Version: 6.00 Build 0)  -->
<svg version="1.1" id="Слой_1" xmlns="http://www.w3.org/2000/svg" xmlns:xlink="http://www.w3.org/1999/xlink" x="0px" y="0px"
	 viewBox="0 0 125 58" style="enable-background:new 0 0 125 58;" xml:space="preserve">
<style type="text/css">
	.st0{fill:#FFFFFF;}
</style>
<g>
	<path class="st0" d="M29,0C21.3,0,14,3,8.5,8.5C3,14,0,21.2,0,29s3,15,8.5,20.5C14,55,21.3,58,29,58s15-3,20.5-8.5
		C55,44,58,36.8,58,29c0-7.8-3-15-8.5-20.5C44.1,3,36.8,0,29,0z M17,7.1c-0.4,0.5-0.8,1.1-1.1,1.7c-0.9,1.4-1.6,3-2.3,4.7
		c-1.7,0.7-3.2,1.4-4.7,2.3c-0.6,0.4-1.2,0.7-1.7,1.1C9.4,12.8,12.9,9.4,17,7.1z M7.2,41.1c0.6,0.4,1.1,0.8,1.7,1.1
		c1.4,0.9,3,1.6,4.7,2.3c0.7,1.7,1.4,3.2,2.3,4.7c0.4,0.6,0.7,1.2,1.1,1.7C12.9,48.6,9.4,45.2,7.2,41.1z M41.1,50.9
		c0.4-0.6,0.8-1.1,1.1-1.7c0.9-1.4,1.6-3,2.3-4.7c1.7-0.7,3.2-1.4,4.7-2.3c0.6-0.4,1.2-0.7,1.7-1.1C48.6,45.2,45.2,48.6,41.1,50.9z
		 M47.1,38.7c-0.3,0.2-0.7,0.4-1,0.6c0.8-3.2,1.2-6.7,1.2-10.3c0-2.6-0.2-5.2-0.6-7.6c-0.2-0.1-0.4-0.3-0.6-0.4
		c-1.2-0.7-2.6-1.4-4-1.9c0.8,3.1,1.2,6.4,1.2,9.9c0,5-0.9,9.8-2.5,13.9c-0.1,0.2-0.1,0.3-0.2,0.5c-0.2,0.6-0.5,1.1-0.7,1.6
		c-0.1,0.1-0.1,0.2-0.2,0.4c-0.3,0.6-0.6,1.1-0.9,1.6C36.1,51.5,32.6,54,29,54c-3.6,0-7-2.5-9.7-6.9c-0.2-0.3-0.4-0.7-0.6-1
		c3.2,0.8,6.7,1.2,10.3,1.2c2.6,0,5.2-0.2,7.6-0.6c0.1-0.2,0.3-0.4,0.4-0.6c0.7-1.2,1.4-2.6,1.9-4c-3.1,0.8-6.4,1.2-9.9,1.2
		c-5,0-9.9-0.9-13.9-2.5c-0.1-0.1-0.3-0.1-0.4-0.2c-0.6-0.2-1.1-0.5-1.7-0.8c-0.1,0-0.2-0.1-0.3-0.2c-0.6-0.3-1.1-0.6-1.7-0.9
		C6.5,36,4,32.6,4,29c0-3.6,2.5-7,6.9-9.7c0.3-0.2,0.7-0.4,1-0.6c-0.8,3.2-1.2,6.7-1.2,10.3c0,2.6,0.2,5.2,0.6,7.6
		c0.2,0.1,0.4,0.3,0.6,0.4c1.2,0.7,2.6,1.4,4,1.9c-0.8-3.1-1.2-6.4-1.2-9.9c0-5,0.9-9.8,2.5-13.9c0.1-0.1,0.1-0.3,0.2-0.4
		c0.2-0.6,0.5-1.1,0.8-1.7c0-0.1,0.1-0.2,0.2-0.3c0.3-0.6,0.6-1.1,0.9-1.7C22,6.5,25.4,4,29,4c3.6,0,7,2.5,9.7,6.9
		c0.2,0.3,0.4,0.7,0.6,1c-3.2-0.8-6.7-1.2-10.3-1.2c-2.6,0-5.2,0.2-7.6,0.6c-0.1,0.2-0.3,0.4-0.4,0.6c-0.7,1.2-1.4,2.6-1.9,4
		c3.1-0.8,6.4-1.2,9.9-1.2c5.1,0,9.9,0.9,14,2.5c0.1,0.1,0.3,0.1,0.4,0.2c0.6,0.2,1.2,0.5,1.7,0.8c0.1,0,0.2,0.1,0.3,0.1
		c0.6,0.3,1.1,0.6,1.7,0.9C51.5,22,54,25.4,54,29C54,32.6,51.5,36,47.1,38.7z M49.2,15.8c-1.4-0.9-3-1.6-4.7-2.3
		c-0.7-1.7-1.4-3.2-2.3-4.7c-0.4-0.6-0.7-1.2-1.1-1.7c4.1,2.3,7.5,5.7,9.8,9.8C50.3,16.6,49.8,16.2,49.2,15.8z"/>
	<path class="st0" d="M17.9,26.3v10.8h4v-4h4v4h4V20.9h-6.7C20.3,20.9,17.9,23.3,17.9,26.3z M26,29h-4v-2.7c0-0.7,0.6-1.3,1.4-1.3
		H26V29z"/>
	<path class="st0" d="M32.1,37.1h2.7c0.7,0,1.3-0.6,1.3-1.3V33h4v-4h-4v-4h4v-4h-8.1V37.1z"/>
	<path class="st0" d="M68.3,23.8h4.5l0.9,2.1H76l-4.3-9.6h-2.2l-4.3,9.6h2.3L68.3,23.8z M70.6,18.4l1.5,3.7H69L70.6,18.4z"/>
	<path class="st0" d="M80.1,24.2c-0.3,0-0.5-0.1-0.7-0.3c-0.2-0.2-0.2-0.4-0.2-0.7v-3H81v-1.6h-1.8v-1.8H77v1.8h-1.1v1.6H77v3
		c0,0.9,0.2,1.5,0.7,2c0.5,0.4,1.2,0.7,2,0.7c0.3,0,0.7,0,1-0.1c0.3-0.1,0.6-0.2,0.8-0.4L81,24C80.7,24.2,80.4,24.2,80.1,24.2z"/>
	<rect x="82.7" y="15.6" class="st0" width="2.1" height="10.2"/>
	<path class="st0" d="M91.4,24.9v0.9h2v-4.2c0-1.1-0.3-1.9-0.9-2.5c-0.6-0.5-1.5-0.8-2.6-0.8c-0.6,0-1.2,0.1-1.7,0.2
		c-0.6,0.2-1,0.4-1.5,0.7l0.8,1.5c0.3-0.2,0.6-0.4,1-0.5c0.4-0.1,0.8-0.2,1.2-0.2c0.6,0,1,0.1,1.3,0.4c0.3,0.3,0.4,0.6,0.4,1.1h-1.7
		c-1.1,0-1.9,0.2-2.4,0.6c-0.5,0.4-0.8,0.9-0.8,1.6c0,0.4,0.1,0.8,0.3,1.2c0.2,0.3,0.5,0.6,1,0.8c0.4,0.2,0.9,0.3,1.5,0.3
		C90.3,25.9,91,25.6,91.4,24.9z M90.7,24.3c-0.3,0.2-0.6,0.3-1,0.3c-0.4,0-0.7-0.1-0.9-0.2c-0.2-0.2-0.3-0.4-0.3-0.7
		c0-0.6,0.4-0.9,1.3-0.9h1.5v0.8C91.2,23.8,91,24.1,90.7,24.3z"/>
	<path class="st0" d="M97.9,24.3c-0.4,0-0.9-0.1-1.4-0.2c-0.5-0.1-0.9-0.3-1.2-0.5l-0.7,1.5c0.3,0.2,0.8,0.4,1.4,0.6
		c0.6,0.2,1.2,0.2,1.8,0.2c0.7,0,1.3-0.1,1.9-0.3c0.5-0.2,0.9-0.5,1.2-0.8c0.3-0.4,0.4-0.8,0.4-1.2c0-0.5-0.1-1-0.4-1.3
		c-0.3-0.3-0.6-0.5-1-0.6c-0.4-0.1-0.9-0.2-1.5-0.3c-0.5-0.1-0.9-0.2-1.2-0.3c-0.2-0.1-0.4-0.3-0.4-0.5c0-0.2,0.1-0.4,0.3-0.5
		c0.2-0.1,0.6-0.2,1-0.2c0.8,0,1.5,0.2,2.1,0.5l0.7-1.5c-0.3-0.2-0.8-0.4-1.3-0.5c-0.5-0.1-1-0.2-1.6-0.2c-0.7,0-1.3,0.1-1.8,0.3
		c-0.5,0.2-0.9,0.5-1.2,0.8c-0.3,0.4-0.4,0.8-0.4,1.2c0,0.6,0.1,1,0.4,1.3c0.3,0.3,0.6,0.5,1,0.6c0.4,0.1,0.9,0.2,1.5,0.3
		c0.5,0.1,0.9,0.1,1.1,0.2c0.2,0.1,0.4,0.2,0.4,0.5C99.3,24.1,98.8,24.3,97.9,24.3z"/>
	<polygon class="st0" points="66.5,39.6 68.7,39.6 68.7,36.1 73.1,36.1 73.1,34.3 68.7,34.3 68.7,31.7 73.7,31.7 73.7,30 66.5,30 	
		"/>
	<path class="st0" d="M77.9,32.1c-0.6,0-1.2,0.1-1.7,0.2c-0.6,0.2-1,0.4-1.5,0.7l0.8,1.5c0.3-0.2,0.6-0.4,1-0.5
		c0.4-0.1,0.8-0.2,1.2-0.2c0.6,0,1,0.1,1.3,0.4c0.3,0.3,0.4,0.6,0.4,1.1h-1.7c-1.1,0-1.9,0.2-2.4,0.6c-0.5,0.4-0.8,0.9-0.8,1.6
		c0,0.4,0.1,0.8,0.3,1.2c0.2,0.3,0.5,0.6,1,0.8c0.4,0.2,0.9,0.3,1.5,0.3c1.1,0,1.9-0.3,2.3-1v0.9h2v-4.2c0-1.1-0.3-1.9-0.9-2.5
		C79.9,32.4,79,32.1,77.9,32.1z M79.3,37.2c-0.1,0.3-0.3,0.6-0.6,0.7c-0.3,0.2-0.6,0.3-1,0.3c-0.4,0-0.7-0.1-0.9-0.2
		c-0.2-0.2-0.3-0.4-0.3-0.7c0-0.6,0.4-0.9,1.3-0.9h1.5V37.2z"/>
	<path class="st0" d="M85.4,33.2v-1h-2v7.4h2.1v-3.5c0-0.7,0.2-1.2,0.5-1.5c0.3-0.3,0.8-0.5,1.4-0.5c0.1,0,0.2,0,0.5,0v-2
		c-0.6,0-1.1,0.1-1.5,0.3C86,32.5,85.7,32.8,85.4,33.2z"/>
	<path class="st0" d="M98.7,32.1c-0.5,0-1.1,0.1-1.5,0.3c-0.5,0.2-0.8,0.5-1.1,0.9c-0.3-0.4-0.6-0.7-1-0.9c-0.4-0.2-0.9-0.3-1.4-0.3
		c-0.5,0-0.9,0.1-1.3,0.2c-0.4,0.2-0.7,0.4-1,0.7v-0.9h-2v7.4h2.1v-3.7c0-0.6,0.1-1.1,0.4-1.5c0.3-0.3,0.7-0.5,1.2-0.5
		c0.9,0,1.4,0.6,1.4,1.7v3.9h2.1v-3.7c0-0.6,0.1-1.1,0.4-1.5c0.3-0.3,0.7-0.5,1.2-0.5c0.4,0,0.8,0.1,1,0.4c0.2,0.3,0.4,0.7,0.4,1.3
		v3.9h2.1v-4.2c0-1.1-0.3-1.9-0.8-2.5C100.4,32.4,99.6,32.1,98.7,32.1z"/>
	<rect x="103.7" y="32.2" class="st0" width="2.1" height="7.4"/>
	<path class="st0" d="M104.7,28.8c-0.4,0-0.7,0.1-1,0.3c-0.2,0.2-0.4,0.5-0.4,0.9c0,0.3,0.1,0.6,0.4,0.9c0.2,0.2,0.6,0.3,1,0.3
		c0.4,0,0.7-0.1,1-0.4c0.2-0.2,0.4-0.5,0.4-0.9c0-0.3-0.1-0.6-0.4-0.8C105.4,28.9,105.1,28.8,104.7,28.8z"/>
	<path class="st0" d="M112.3,32.1c-0.5,0-1,0.1-1.4,0.3c-0.4,0.2-0.8,0.4-1.1,0.7v-0.9h-2v7.4h2.1v-3.7c0-0.7,0.2-1.2,0.5-1.5
		c0.3-0.3,0.8-0.5,1.3-0.5c0.5,0,0.9,0.1,1.1,0.4c0.3,0.3,0.4,0.7,0.4,1.3v3.9h2.1v-4.2c0-1.1-0.3-1.9-0.8-2.4
		C113.9,32.4,113.2,32.1,112.3,32.1z"/>
	<path class="st0" d="M123,32.2v0.9c-0.6-0.7-1.4-1.1-2.4-1.1c-0.7,0-1.3,0.1-1.9,0.4c-0.6,0.3-1,0.7-1.3,1.3
		c-0.3,0.5-0.5,1.2-0.5,1.9c0,0.7,0.2,1.3,0.5,1.9c0.3,0.5,0.8,1,1.3,1.3c0.6,0.3,1.2,0.4,1.9,0.4c1,0,1.8-0.3,2.3-0.9v0.3
		c0,0.7-0.2,1.2-0.5,1.5c-0.4,0.3-0.9,0.5-1.6,0.5c-0.5,0-1-0.1-1.4-0.2c-0.5-0.2-0.9-0.4-1.2-0.6l-0.9,1.5c0.4,0.3,1,0.6,1.6,0.8
		c0.6,0.2,1.3,0.3,2,0.3c1.4,0,2.4-0.3,3.1-1c0.7-0.7,1.1-1.7,1.1-3v-6.2H123z M122.3,37c-0.4,0.3-0.8,0.5-1.4,0.5
		c-0.6,0-1-0.2-1.4-0.5c-0.4-0.3-0.5-0.8-0.5-1.3c0-0.5,0.2-1,0.5-1.3c0.4-0.3,0.8-0.5,1.4-0.5c0.6,0,1,0.2,1.4,0.5
		c0.4,0.3,0.5,0.8,0.5,1.3C122.9,36.2,122.7,36.6,122.3,37z"/>
</g>
</svg>
