<?xml version="1.0" encoding="utf-8"?>
<!-- Generator: Adobe Illustrator 21.1.0, SVG Export Plug-In . SVG Version: 6.00 Build 0)  -->
<svg version="1.1" id="Слой_1" xmlns="http://www.w3.org/2000/svg" xmlns:xlink="http://www.w3.org/1999/xlink" x="0px" y="0px"
	 viewBox="0 0 32 50" style="enable-background:new 0 0 32 50;" xml:space="preserve">
<style type="text/css">
	.st0{fill:#29B35B;}
	.st1{fill:#FFFFFF;}
</style>
<g>
	<path class="st0" d="M32,16.1C32,27.8,16,50,16,50S0,27.8,0,16.1C0,7.2,7.2,0,16,0C24.8,0,32,7.2,32,16.1z"/>
	<path class="st1" d="M28.2,14.6H15.8c1.3,2.5,4,4.1,6.8,4.1h1.5c-0.4,1.5-1.1,2.7-2.2,3.8c-0.8,0.8-1.7,1.4-2.7,1.8
		c-1,0.4-2.1,0.6-3.2,0.6c-1.1,0-2.2-0.2-3.2-0.6c-1-0.4-1.9-1-2.7-1.8c-0.8-0.8-1.4-1.7-1.8-2.7c-0.4-1-0.6-2.1-0.6-3.2
		c0-1.1,0.2-2.2,0.6-3.2c0.4-1,1-1.9,1.8-2.7c0.8-0.8,1.7-1.4,2.7-1.8c1-0.4,2.1-0.6,3.2-0.6c1.1,0,2.2,0.2,3.2,0.6
		c1,0.4,1.9,1,2.7,1.8l2.9-2.9c-1.1-1.1-2.4-2-3.9-2.7c-1.5-0.6-3.1-1-4.8-1c-1.7,0-3.3,0.3-4.8,1C9.7,5.9,8.4,6.7,7.2,7.9
		c-1.1,1.1-2,2.4-2.7,3.9c-0.6,1.5-1,3.1-1,4.8s0.3,3.3,1,4.8c0.6,1.5,1.5,2.8,2.7,3.9c1.1,1.1,2.4,2,3.9,2.7c1.5,0.6,3.1,1,4.8,1
		c1.7,0,3.3-0.3,4.8-1c1.5-0.6,2.8-1.5,3.9-2.7c1.1-1.1,2-2.4,2.7-3.9c0.6-1.5,1-3.1,1-4.8c0-0.3,0-0.7-0.1-1
		C28.3,15.3,28.3,14.9,28.2,14.6z"/>
</g>
</svg>
