<svg width="247" height="247" viewBox="0 0 247 247" fill="none" xmlns="http://www.w3.org/2000/svg">
<path fill-rule="evenodd" clip-rule="evenodd" d="M102.241 45.2717C113.069 26.0761 140.714 26.0761 151.542 45.2717L229.507 183.482C240.15 202.349 226.518 225.689 204.856 225.689H48.9267C27.2653 225.689 13.6335 202.349 24.2762 183.482L102.241 45.2717Z" fill="#F9AF1B"/>
<path fill-rule="evenodd" clip-rule="evenodd" d="M126.892 86.752C131.154 86.752 134.61 90.2078 134.61 94.4707V140.783C134.61 145.046 131.154 148.502 126.892 148.502C122.629 148.502 119.173 145.046 119.173 140.783V94.4707C119.173 90.2078 122.629 86.752 126.892 86.752Z" fill="white"/>
<path fill-rule="evenodd" clip-rule="evenodd" d="M126.892 169.085C131.154 169.085 134.61 172.541 134.61 176.804V181.95C134.61 186.213 131.154 189.669 126.892 189.669C122.629 189.669 119.173 186.213 119.173 181.95V176.804C119.173 172.541 122.629 169.085 126.892 169.085Z" fill="white"/>
<path fill-rule="evenodd" clip-rule="evenodd" d="M142.5 50C137.578 41.2747 117.422 41.2747 112.5 50L33.5001 189.669C28.6625 198.244 39.0806 214.5 48.9267 214.5H204.856C214.702 214.5 226.838 198.244 222 189.669L142.5 50ZM102.241 45.2717C113.069 26.0761 140.714 26.0761 151.542 45.2717L229.507 183.482C240.15 202.349 226.518 225.689 204.856 225.689H48.9267C27.2653 225.689 13.6335 202.349 24.2762 183.482L102.241 45.2717Z" fill="white"/>
</svg>
