<svg width="150" height="38" viewBox="0 0 150 38" fill="none" xmlns="http://www.w3.org/2000/svg">
<g clip-path="url(#clip0_10071_25477)">
<path d="M35.1327 34.7513V36.7798H24.6873L15.9764 24.4431H13.2545C13.5164 24.2076 13.7782 23.9775 13.8273 23.9507C13.9418 23.8919 14.0073 23.6029 14.0673 23.4905C14.2091 23.1319 14.6018 23.1586 14.7436 22.8C14.8691 22.4522 15.18 21.7992 15.3655 21.4781C15.5509 21.173 15.9218 20.52 16.1727 20.2524C16.3855 20.0491 17.0673 19.6423 17.2091 19.6423C17.3509 19.6583 18 19.744 18.2564 19.6744C18.4691 19.5995 18.8073 19.2944 18.9927 19.1713C19.3309 18.9251 19.9855 18.3899 20.3509 18.1865C20.5636 18.0634 21.0327 17.8814 21.2727 17.8226C21.5673 17.7369 22.4618 17.6567 22.5055 17.6567C22.5436 17.6567 23.34 17.6567 23.6073 17.5978C23.82 17.5443 24.2618 17.3891 24.4582 17.2713C24.6327 17.1589 24.8836 16.8645 25.0091 16.7147C25.1673 16.5327 25.4618 16.142 25.5927 15.9493C25.6909 15.8102 25.8164 15.4891 25.92 15.3499C26.0291 15.1679 26.34 14.8736 26.4273 14.6809C26.4709 14.5578 26.5691 14.2795 26.5255 14.1564C26.4436 13.9316 25.9855 13.6961 25.7891 13.5569C25.4945 13.3375 24.8291 12.9307 24.5018 12.722C24.4145 12.6578 24.3 12.5882 24.1745 12.5079C23.8255 12.2778 23.3836 11.9995 23.1545 11.8068C22.9418 11.6409 22.56 11.2395 22.4018 11.0147C22.3036 10.8595 22.0909 10.4153 22.0364 10.3778C22.0145 10.351 21.9109 10.153 21.78 9.92286C21.6109 9.6392 21.4036 9.29666 21.2455 9.17891C20.9727 8.97018 20.2691 8.94342 19.9582 8.82032C19.6691 8.70793 19.0036 8.24765 18.9055 8.18877C18.6382 8.02821 17.1491 7.68032 16.7291 7.27356C16.3745 6.92568 16.2982 5.84455 15.9873 5.45384C15.7909 5.19161 15.2236 4.77414 14.9018 4.6778C14.4436 4.53864 13.4236 4.52258 13.0036 4.73131C12.7582 4.85977 12.4636 5.36821 12.3218 5.60906C12.2073 5.80173 12.1691 6.33159 11.9509 6.42793C11.3836 6.70624 10.4945 6.06399 9.51818 5.82849V9.81046H9.49636V15.7888H9.51818V24.4431H9.49636V36.7798H0V1.15076H20.6673C28.1509 1.15076 33.6818 5.42708 33.6818 12.2778C33.6818 17.266 30.72 20.991 26.2527 22.5806V22.9124L35.1327 34.7513Z" fill="#F9AF1B"/>
<path d="M59.2456 1.15088H39.582V36.7799H49.0784V25.4334H59.2456C66.7293 25.4334 72.2602 20.6647 72.2602 13.2627C72.2602 5.86074 66.7293 1.15088 59.2456 1.15088ZM59.2456 16.7737H49.0784V9.8106H59.2456C61.3674 9.8106 62.7638 11.0737 62.7638 13.2627C62.7638 15.4517 61.3674 16.7737 59.2456 16.7737Z" fill="#F9AF1B"/>
<path d="M90.8747 14.8521C87.6347 14.1992 84.3347 13.3214 84.3347 11.4589C84.3347 9.59634 86.7401 8.55268 90.0347 8.55268C92.9965 8.55268 96.0674 9.92282 97.0165 12.0583H106.846V9.7569C104.222 4.11042 98.1347 0 90.1438 0C82.1528 0 74.8438 4.88113 74.8438 11.673C74.8438 19.7868 84.3947 21.7028 90.8747 22.9124C94.3929 23.5707 97.5183 24.3361 97.5183 26.1451C97.5183 28.1735 94.7256 28.9924 91.3165 28.9924C87.9074 28.9924 84.8965 27.6223 83.7783 25.4332H73.9492V27.7346C76.6819 34.0394 83.2219 37.5451 91.0929 37.5451C100.087 37.5451 107.015 33.1617 107.015 25.9256C107.015 18.0901 97.4638 16.1687 90.8747 14.8521Z" fill="#F9AF1B"/>
<path d="M114.105 1.37813C114.105 0.934751 113.739 0.575317 113.287 0.575317C112.835 0.575317 112.469 0.934751 112.469 1.37813V36.1669C112.469 36.6102 112.835 36.9697 113.287 36.9697C113.739 36.9697 114.105 36.6102 114.105 36.1669V1.37813Z" fill="#F9AF1B"/>
<path d="M122.102 7.3977H122.232V8.06356H122.102C121.692 8.06356 121.367 8.18189 121.129 8.41845C120.892 8.65261 120.775 8.96972 120.775 9.36974V11.2795H120.118V7.45989H120.775V8.11847C121.08 7.63796 121.523 7.3977 122.102 7.3977ZM125.946 10.932C125.625 11.2247 125.199 11.371 124.667 11.371C124.135 11.371 123.708 11.2247 123.385 10.932C123.064 10.6369 122.904 10.2478 122.904 9.76483V7.45989H123.56V9.67706C123.56 9.99899 123.661 10.2588 123.862 10.4563C124.065 10.6515 124.334 10.749 124.667 10.749C125 10.749 125.268 10.6515 125.469 10.4563C125.673 10.2588 125.775 9.99899 125.775 9.67706V7.45989H126.431V9.76483C126.431 10.2478 126.269 10.6369 125.946 10.932ZM128.761 11.371C128.132 11.371 127.605 11.171 127.18 10.771L127.546 10.3064C127.864 10.6259 128.265 10.7856 128.75 10.7856C129.014 10.7856 129.23 10.7381 129.399 10.643C129.568 10.5454 129.653 10.4124 129.653 10.2441C129.653 10.1734 129.634 10.11 129.596 10.0539C129.562 9.99535 129.519 9.94777 129.47 9.91121C129.422 9.8746 129.35 9.83923 129.254 9.80508C129.159 9.76853 129.076 9.74166 129.003 9.72458C128.934 9.7051 128.835 9.67947 128.706 9.64778C128.586 9.61851 128.492 9.59533 128.422 9.57826C128.352 9.55872 128.262 9.5295 128.15 9.49043C128.041 9.45141 127.951 9.41363 127.881 9.37702C127.814 9.34046 127.74 9.29288 127.658 9.23433C127.578 9.17337 127.515 9.10995 127.467 9.04412C127.423 8.97582 127.384 8.89533 127.352 8.80263C127.322 8.70747 127.307 8.60385 127.307 8.49162C127.307 8.25259 127.377 8.04648 127.516 7.87334C127.655 7.70015 127.836 7.5733 128.056 7.49281C128.278 7.4099 128.525 7.36842 128.799 7.36842C129.36 7.36842 129.836 7.5428 130.227 7.89159L129.858 8.3636C129.572 8.09042 129.221 7.95378 128.806 7.95378C128.57 7.95378 128.373 7.99773 128.217 8.0855C128.06 8.17333 127.982 8.29648 127.982 8.45506C127.982 8.52823 128.001 8.59406 128.038 8.65261C128.075 8.7087 128.118 8.75505 128.164 8.79166C128.215 8.82821 128.289 8.86482 128.389 8.90143C128.488 8.93558 128.571 8.96239 128.638 8.98187C128.708 8.99894 128.81 9.02335 128.944 9.05509C129.061 9.0819 129.154 9.10508 129.224 9.12456C129.296 9.14163 129.386 9.1685 129.496 9.20505C129.605 9.24166 129.693 9.27827 129.761 9.31483C129.83 9.34897 129.905 9.39532 129.984 9.45387C130.064 9.51243 130.126 9.57462 130.171 9.64045C130.215 9.70633 130.253 9.78678 130.283 9.88194C130.315 9.97463 130.331 10.0758 130.331 10.1856C130.331 10.5539 130.183 10.8441 129.888 11.0564C129.591 11.2661 129.216 11.371 128.761 11.371ZM132.43 11.371C131.802 11.371 131.275 11.171 130.849 10.771L131.215 10.3064C131.533 10.6259 131.935 10.7856 132.419 10.7856C132.682 10.7856 132.899 10.7381 133.068 10.643C133.237 10.5454 133.322 10.4124 133.322 10.2441C133.322 10.1734 133.303 10.11 133.266 10.0539C133.231 9.99535 133.189 9.94777 133.139 9.91121C133.092 9.8746 133.02 9.83923 132.923 9.80508C132.828 9.76853 132.745 9.74166 132.673 9.72458C132.603 9.7051 132.504 9.67947 132.374 9.64778C132.255 9.61851 132.16 9.59533 132.091 9.57826C132.021 9.55872 131.931 9.5295 131.819 9.49043C131.709 9.45141 131.62 9.41363 131.55 9.37702C131.483 9.34046 131.409 9.29288 131.327 9.23433C131.247 9.17337 131.184 9.10995 131.137 9.04412C131.092 8.97582 131.053 8.89533 131.021 8.80263C130.991 8.70747 130.976 8.60385 130.976 8.49162C130.976 8.25259 131.046 8.04648 131.185 7.87334C131.324 7.70015 131.504 7.5733 131.726 7.49281C131.947 7.4099 132.194 7.36842 132.468 7.36842C133.029 7.36842 133.506 7.5428 133.896 7.89159L133.526 8.3636C133.24 8.09042 132.89 7.95378 132.475 7.95378C132.239 7.95378 132.043 7.99773 131.886 8.0855C131.73 8.17333 131.651 8.29648 131.651 8.45506C131.651 8.52823 131.67 8.59406 131.707 8.65261C131.744 8.7087 131.786 8.75505 131.834 8.79166C131.883 8.82821 131.958 8.86482 132.057 8.90143C132.157 8.93558 132.24 8.96239 132.307 8.98187C132.377 8.99894 132.479 9.02335 132.613 9.05509C132.73 9.0819 132.823 9.10508 132.892 9.12456C132.965 9.14163 133.056 9.1685 133.165 9.20505C133.274 9.24166 133.363 9.27827 133.43 9.31483C133.499 9.34897 133.574 9.39532 133.653 9.45387C133.733 9.51243 133.795 9.57462 133.84 9.64045C133.885 9.70633 133.922 9.78678 133.952 9.88194C133.984 9.97463 134 10.0758 134 10.1856C134 10.5539 133.852 10.8441 133.556 11.0564C133.261 11.2661 132.885 11.371 132.43 11.371ZM135.16 6.69524C135.033 6.69524 134.928 6.65499 134.843 6.57449C134.758 6.49153 134.716 6.38909 134.716 6.26717C134.716 6.14279 134.758 6.0403 134.843 5.95986C134.928 5.87936 135.033 5.83911 135.16 5.83911C135.284 5.83911 135.387 5.87936 135.469 5.95986C135.551 6.0403 135.593 6.14279 135.593 6.26717C135.593 6.38909 135.55 6.49153 135.465 6.57449C135.384 6.65499 135.282 6.69524 135.16 6.69524ZM134.832 11.2795V7.45989H135.488V11.2795H134.832ZM139.821 7.45989H140.477V11.2795H139.821V10.5917C139.654 10.8356 139.439 11.0271 139.176 11.1661C138.914 11.3027 138.625 11.371 138.307 11.371C137.941 11.371 137.61 11.2844 137.311 11.1113C137.013 10.9356 136.779 10.6954 136.61 10.3905C136.443 10.0832 136.36 9.74289 136.36 9.36974C136.36 8.99654 136.443 8.65748 136.61 8.35262C136.779 8.04525 137.013 7.80505 137.311 7.63185C137.61 7.45625 137.941 7.36842 138.307 7.36842C138.625 7.36842 138.914 7.43795 139.176 7.57694C139.439 7.71358 139.654 7.9038 139.821 8.14769V7.45989ZM138.43 10.749C138.828 10.749 139.158 10.6173 139.422 10.3539C139.688 10.0905 139.821 9.76242 139.821 9.36974C139.821 8.977 139.688 8.64897 139.422 8.38554C139.158 8.12211 138.828 7.99039 138.43 7.99039C138.03 7.99039 137.696 8.12211 137.431 8.38554C137.165 8.64897 137.031 8.977 137.031 9.36974C137.031 9.76242 137.165 10.0905 137.431 10.3539C137.696 10.6173 138.03 10.749 138.43 10.749ZM143.654 7.36842C144.128 7.36842 144.51 7.50988 144.799 7.79285C145.089 8.07576 145.234 8.45137 145.234 8.91968V11.2795H144.578V9.12092C144.578 8.77945 144.475 8.50628 144.269 8.3014C144.063 8.09406 143.787 7.99039 143.441 7.99039C143.08 7.99039 142.792 8.09529 142.576 8.30504C142.36 8.51479 142.252 8.79166 142.252 9.13558V11.2795H141.595V7.45989H142.252V8.04161C142.567 7.59284 143.035 7.36842 143.654 7.36842ZM122.284 17.0022C122.841 17.0022 123.306 17.1937 123.679 17.5766C124.052 17.9596 124.238 18.4352 124.238 19.0035C124.238 19.5718 124.052 20.0475 123.679 20.4304C123.306 20.8134 122.841 21.0048 122.284 21.0048C121.966 21.0048 121.677 20.9365 121.416 20.7999C121.155 20.6609 120.941 20.4694 120.775 20.2255V22.3366H120.118V17.0937H120.775V17.7815C120.941 17.5376 121.155 17.3474 121.416 17.2107C121.677 17.0718 121.966 17.0022 122.284 17.0022ZM122.162 20.3828C122.562 20.3828 122.895 20.2511 123.161 19.9877C123.427 19.7243 123.56 19.3962 123.56 19.0035C123.56 18.6108 123.427 18.2828 123.161 18.0193C122.895 17.7559 122.562 17.6242 122.162 17.6242C121.764 17.6242 121.433 17.7559 121.17 18.0193C120.906 18.2828 120.775 18.6108 120.775 19.0035C120.775 19.3962 120.906 19.7243 121.17 19.9877C121.433 20.2511 121.764 20.3828 122.162 20.3828ZM128.336 17.0937H128.993V20.9133H128.336V20.2255C128.17 20.4694 127.954 20.6609 127.691 20.7999C127.43 20.9365 127.141 21.0048 126.822 21.0048C126.457 21.0048 126.125 20.9182 125.827 20.7451C125.528 20.5694 125.295 20.3292 125.126 20.0243C124.959 19.717 124.876 19.3767 124.876 19.0035C124.876 18.6303 124.959 18.2913 125.126 17.9864C125.295 17.6791 125.528 17.4389 125.827 17.2657C126.125 17.0901 126.457 17.0022 126.822 17.0022C127.141 17.0022 127.43 17.0718 127.691 17.2107C127.954 17.3474 128.17 17.5376 128.336 17.7815V17.0937ZM126.945 20.3828C127.343 20.3828 127.674 20.2511 127.937 19.9877C128.203 19.7243 128.336 19.3962 128.336 19.0035C128.336 18.6108 128.203 18.2828 127.937 18.0193C127.674 17.7559 127.343 17.6242 126.945 17.6242C126.545 17.6242 126.212 17.7559 125.946 18.0193C125.68 18.2828 125.547 18.6108 125.547 19.0035C125.547 19.3962 125.68 19.7243 125.946 19.9877C126.212 20.2511 126.545 20.3828 126.945 20.3828ZM132.094 17.0315H132.225V17.6974H132.094C131.685 17.6974 131.36 17.8157 131.121 18.0523C130.885 18.2864 130.767 18.6035 130.767 19.0035V20.9133H130.111V17.0937H130.767V17.7523C131.073 17.2718 131.516 17.0315 132.094 17.0315ZM135.495 20.9133L134.097 19.3767L133.594 19.9036V20.9133H132.937V15.5168H133.594V19.0328L135.455 17.0937H136.312L134.563 18.8974L136.364 20.9133H135.495ZM137.277 16.329C137.151 16.329 137.045 16.2888 136.961 16.2083C136.876 16.1253 136.834 16.0229 136.834 15.901C136.834 15.7766 136.876 15.6741 136.961 15.5937C137.045 15.5132 137.151 15.4729 137.277 15.4729C137.402 15.4729 137.505 15.5132 137.587 15.5937C137.669 15.6741 137.71 15.7766 137.71 15.901C137.71 16.0229 137.668 16.1253 137.583 16.2083C137.502 16.2888 137.4 16.329 137.277 16.329ZM136.95 20.9133V17.0937H137.606V20.9133H136.95ZM140.775 17.0022C141.25 17.0022 141.632 17.1437 141.92 17.4266C142.21 17.7096 142.356 18.0852 142.356 18.5535V20.9133H141.7V18.7547C141.7 18.4133 141.597 18.1401 141.39 17.9352C141.184 17.7279 140.908 17.6242 140.563 17.6242C140.202 17.6242 139.914 17.7291 139.698 17.9388C139.481 18.1486 139.373 18.4255 139.373 18.7694V20.9133H138.717V17.0937H139.373V17.6754C139.689 17.2266 140.156 17.0022 140.775 17.0022ZM145.872 21.0121C146.242 21.0121 146.547 21.1036 146.786 21.2865C147.025 21.4695 147.163 21.7195 147.2 22.0365L146.521 22.2085C146.514 22.0378 146.439 21.8999 146.298 21.7951C146.158 21.6927 145.978 21.6414 145.756 21.6414H144.321C143.998 21.6414 143.736 21.5572 143.534 21.389C143.336 21.2207 143.236 21.0024 143.236 20.7341C143.236 20.5536 143.278 20.3853 143.363 20.2292C143.45 20.0706 143.568 19.9511 143.717 19.8706C143.548 19.717 143.417 19.5365 143.322 19.3292C143.23 19.1218 143.184 18.8986 143.184 18.6596C143.184 18.1864 143.353 17.7925 143.691 17.4779C144.032 17.1608 144.456 17.0022 144.962 17.0022C145.308 17.0022 145.626 17.0851 145.917 17.251C145.954 17.0486 146.053 16.8876 146.211 16.7681C146.371 16.6486 146.568 16.5888 146.804 16.5888H147.103V17.1888H146.842C146.7 17.1888 146.584 17.2278 146.495 17.3059C146.408 17.3815 146.363 17.4827 146.361 17.6096C146.614 17.9047 146.741 18.2547 146.741 18.6596C146.741 19.1303 146.571 19.5255 146.231 19.845C145.89 20.1621 145.467 20.3206 144.962 20.3206C144.657 20.3206 144.382 20.2609 144.139 20.1413C144.061 20.1902 144.001 20.2536 143.956 20.3316C143.913 20.4072 143.892 20.4865 143.892 20.5694C143.892 20.7036 143.943 20.8109 144.045 20.8914C144.147 20.9719 144.28 21.0121 144.444 21.0121H145.872ZM144.962 17.6169C144.647 17.6169 144.385 17.7169 144.176 17.9169C143.967 18.1144 143.863 18.362 143.863 18.6596C143.863 18.9596 143.967 19.2096 144.176 19.4096C144.387 19.6072 144.649 19.706 144.962 19.706C145.276 19.706 145.537 19.6072 145.746 19.4096C145.957 19.2096 146.062 18.9596 146.062 18.6596C146.062 18.362 145.957 18.1144 145.746 17.9169C145.537 17.7169 145.276 17.6169 144.962 17.6169ZM121.393 30.6386C120.764 30.6386 120.237 30.4386 119.812 30.0386L120.178 29.574C120.496 29.8935 120.897 30.0532 121.382 30.0532C121.646 30.0532 121.862 30.0057 122.031 29.9106C122.2 29.813 122.284 29.68 122.284 29.5117C122.284 29.441 122.266 29.3776 122.229 29.3215C122.194 29.263 122.151 29.2154 122.102 29.1788C122.055 29.1422 121.982 29.1068 121.886 29.0727C121.791 29.0361 121.708 29.0093 121.636 28.9922C121.566 28.9727 121.467 28.9471 121.338 28.9154C121.218 28.8861 121.124 28.8629 121.054 28.8459C120.985 28.8263 120.894 28.7971 120.782 28.758C120.673 28.719 120.583 28.6812 120.513 28.6446C120.446 28.6081 120.372 28.5605 120.29 28.5019C120.21 28.441 120.147 28.3776 120.099 28.3117C120.055 28.2434 120.016 28.1629 119.984 28.0702C119.954 27.9751 119.939 27.8715 119.939 27.7592C119.939 27.5202 120.009 27.3141 120.148 27.1409C120.287 26.9678 120.468 26.8409 120.689 26.7604C120.91 26.6775 121.157 26.636 121.431 26.636C121.993 26.636 122.468 26.8104 122.859 27.1592L122.49 27.6312C122.204 27.358 121.853 27.2214 121.438 27.2214C121.202 27.2214 121.005 27.2653 120.849 27.3531C120.692 27.4409 120.614 27.5641 120.614 27.7227C120.614 27.7958 120.633 27.8617 120.67 27.9202C120.708 27.9763 120.75 28.0227 120.797 28.0593C120.847 28.0958 120.921 28.1324 121.021 28.169C121.12 28.2032 121.203 28.23 121.271 28.2495C121.34 28.2665 121.442 28.291 121.576 28.3227C121.693 28.3495 121.786 28.3727 121.856 28.3922C121.928 28.4092 122.019 28.4361 122.128 28.4727C122.238 28.5093 122.325 28.5459 122.392 28.5824C122.462 28.6166 122.537 28.6629 122.617 28.7215C122.696 28.78 122.758 28.8422 122.803 28.9081C122.847 28.9739 122.885 29.0544 122.914 29.1495C122.947 29.2422 122.963 29.3434 122.963 29.4532C122.963 29.8215 122.815 30.1117 122.52 30.324C122.223 30.5337 121.848 30.6386 121.393 30.6386ZM126.614 26.7275H127.348L125.245 31.3557C125.148 31.5777 125.01 31.7508 124.831 31.8753C124.655 31.9996 124.46 32.0618 124.246 32.0618C124.092 32.0618 123.931 32.0277 123.765 31.9594C123.601 31.8911 123.463 31.802 123.351 31.6923L123.627 31.1984C123.774 31.3594 123.947 31.4399 124.145 31.4399C124.364 31.4399 124.531 31.3252 124.645 31.0959L124.924 30.5252L123.231 26.7275H123.985L125.301 29.7751L126.614 26.7275ZM129.179 30.6386C128.55 30.6386 128.023 30.4386 127.598 30.0386L127.963 29.574C128.282 29.8935 128.683 30.0532 129.168 30.0532C129.431 30.0532 129.648 30.0057 129.817 29.9106C129.986 29.813 130.07 29.68 130.07 29.5117C130.07 29.441 130.051 29.3776 130.014 29.3215C129.979 29.263 129.937 29.2154 129.888 29.1788C129.84 29.1422 129.768 29.1068 129.671 29.0727C129.577 29.0361 129.493 29.0093 129.421 28.9922C129.352 28.9727 129.252 28.9471 129.123 28.9154C129.003 28.8861 128.909 28.8629 128.84 28.8459C128.77 28.8263 128.679 28.7971 128.568 28.758C128.458 28.719 128.369 28.6812 128.299 28.6446C128.232 28.6081 128.157 28.5605 128.075 28.5019C127.996 28.441 127.932 28.3776 127.885 28.3117C127.841 28.2434 127.802 28.1629 127.77 28.0702C127.74 27.9751 127.725 27.8715 127.725 27.7592C127.725 27.5202 127.794 27.3141 127.934 27.1409C128.073 26.9678 128.253 26.8409 128.474 26.7604C128.695 26.6775 128.943 26.636 129.216 26.636C129.778 26.636 130.254 26.8104 130.644 27.1592L130.275 27.6312C129.989 27.358 129.639 27.2214 129.224 27.2214C128.988 27.2214 128.791 27.2653 128.635 27.3531C128.478 27.4409 128.4 27.5641 128.4 27.7227C128.4 27.7958 128.418 27.8617 128.456 27.9202C128.493 27.9763 128.535 28.0227 128.582 28.0593C128.632 28.0958 128.707 28.1324 128.806 28.169C128.905 28.2032 128.989 28.23 129.056 28.2495C129.126 28.2665 129.228 28.291 129.362 28.3227C129.479 28.3495 129.572 28.3727 129.641 28.3922C129.714 28.4092 129.804 28.4361 129.913 28.4727C130.023 28.5093 130.111 28.5459 130.178 28.5824C130.248 28.6166 130.322 28.6629 130.402 28.7215C130.482 28.78 130.544 28.8422 130.588 28.9081C130.633 28.9739 130.67 29.0544 130.7 29.1495C130.732 29.2422 130.749 29.3434 130.749 29.4532C130.749 29.8215 130.601 30.1117 130.305 30.324C130.009 30.5337 129.634 30.6386 129.179 30.6386ZM133.706 27.3092H132.535V29.4239C132.535 29.8191 132.744 30.0166 133.161 30.0166C133.343 30.0166 133.524 29.9691 133.706 29.8739V30.4813C133.509 30.5862 133.282 30.6386 133.023 30.6386C132.648 30.6386 132.363 30.5423 132.169 30.3496C131.976 30.1569 131.878 29.8825 131.878 29.5264V27.3092H131.178V26.7275H131.878V25.6994H132.535V26.7275H133.706V27.3092ZM138.217 28.6373C138.217 28.6739 138.211 28.769 138.199 28.9227H134.846C134.913 29.2593 135.077 29.5313 135.335 29.7386C135.596 29.9435 135.914 30.0459 136.29 30.0459C136.568 30.0459 136.824 29.9886 137.058 29.8739C137.292 29.7568 137.474 29.6069 137.606 29.4239L138.057 29.8044C137.86 30.063 137.606 30.2666 137.293 30.4154C136.982 30.5642 136.64 30.6386 136.267 30.6386C135.658 30.6386 135.151 30.4459 134.746 30.0605C134.341 29.6752 134.138 29.1959 134.138 28.6227C134.138 28.2519 134.226 27.9153 134.403 27.6129C134.582 27.308 134.828 27.069 135.141 26.8958C135.455 26.7226 135.802 26.636 136.185 26.636C136.566 26.636 136.911 26.7226 137.222 26.8958C137.533 27.069 137.776 27.3092 137.953 27.6165C138.129 27.9214 138.217 28.2617 138.217 28.6373ZM136.178 27.2287C135.84 27.2287 135.548 27.3324 135.301 27.5397C135.055 27.7446 134.901 28.0104 134.839 28.3373H137.52C137.458 28.0056 137.304 27.7385 137.058 27.536C136.812 27.3312 136.518 27.2287 136.178 27.2287ZM143.709 26.636C144.157 26.636 144.514 26.7677 144.78 27.0312C145.049 27.2921 145.183 27.6422 145.183 28.0812V30.5471H144.526V28.2605C144.526 27.9556 144.433 27.7129 144.247 27.5324C144.063 27.3495 143.816 27.258 143.508 27.258C143.19 27.258 142.934 27.3507 142.74 27.536C142.546 27.7214 142.449 27.9678 142.449 28.2751V30.5471H141.793V28.2605C141.793 27.9556 141.7 27.7129 141.513 27.5324C141.33 27.3495 141.084 27.258 140.775 27.258C140.457 27.258 140.201 27.3507 140.007 27.536C139.813 27.7214 139.716 27.9678 139.716 28.2751V30.5471H139.06V26.7275H139.716V27.2434C140.012 26.8385 140.437 26.636 140.991 26.636C141.295 26.636 141.559 26.7019 141.786 26.8336C142.012 26.9653 142.182 27.1495 142.297 27.3861C142.443 27.1446 142.637 26.9592 142.878 26.8299C143.122 26.7007 143.399 26.636 143.709 26.636ZM147.509 30.6386C146.88 30.6386 146.353 30.4386 145.928 30.0386L146.294 29.574C146.612 29.8935 147.013 30.0532 147.498 30.0532C147.762 30.0532 147.978 30.0057 148.147 29.9106C148.316 29.813 148.4 29.68 148.4 29.5117C148.4 29.441 148.382 29.3776 148.345 29.3215C148.31 29.263 148.267 29.2154 148.218 29.1788C148.17 29.1422 148.098 29.1068 148.002 29.0727C147.907 29.0361 147.824 29.0093 147.752 28.9922C147.682 28.9727 147.583 28.9471 147.453 28.9154C147.334 28.8861 147.24 28.8629 147.17 28.8459C147.1 28.8263 147.009 28.7971 146.898 28.758C146.789 28.719 146.699 28.6812 146.629 28.6446C146.562 28.6081 146.487 28.5605 146.406 28.5019C146.326 28.441 146.263 28.3776 146.215 28.3117C146.17 28.2434 146.132 28.1629 146.1 28.0702C146.07 27.9751 146.055 27.8715 146.055 27.7592C146.055 27.5202 146.125 27.3141 146.264 27.1409C146.403 26.9678 146.583 26.8409 146.804 26.7604C147.026 26.6775 147.273 26.636 147.547 26.636C148.109 26.636 148.584 26.8104 148.975 27.1592L148.605 27.6312C148.32 27.358 147.969 27.2214 147.554 27.2214C147.318 27.2214 147.121 27.2653 146.965 27.3531C146.808 27.4409 146.73 27.5641 146.73 27.7227C146.73 27.7958 146.749 27.8617 146.786 27.9202C146.823 27.9763 146.865 28.0227 146.913 28.0593C146.962 28.0958 147.037 28.1324 147.136 28.169C147.236 28.2032 147.319 28.23 147.386 28.2495C147.456 28.2665 147.558 28.291 147.692 28.3227C147.808 28.3495 147.902 28.3727 147.972 28.3922C148.044 28.4092 148.134 28.4361 148.244 28.4727C148.353 28.5093 148.441 28.5459 148.508 28.5824C148.578 28.6166 148.653 28.6629 148.732 28.7215C148.812 28.78 148.874 28.8422 148.918 28.9081C148.963 28.9739 149.001 29.0544 149.03 29.1495C149.063 29.2422 149.079 29.3434 149.079 29.4532C149.079 29.8215 148.931 30.1117 148.635 30.324C148.339 30.5337 147.964 30.6386 147.509 30.6386Z" fill="#F9AF1B"/>
<path d="M21.0041 11.0843C20.8185 11.4322 20.4201 11.3358 20.1253 11.2074C19.8414 11.0843 19.3175 10.8327 19.6013 10.4581C19.7923 10.2119 20.1089 9.93895 20.4582 10.0567C20.4582 10.062 20.4582 10.062 20.4691 10.062C20.4746 10.0674 20.5019 10.0727 20.5128 10.0781C20.5183 10.0835 20.5237 10.0835 20.5292 10.0888H20.551C21.0041 10.2868 21.2442 10.6347 21.0041 11.0843Z" fill="#F9AF1B"/>
<path d="M25.8241 14.5578C25.8623 14.7184 25.7095 14.7987 25.5731 14.8415C25.5731 14.8415 25.5676 14.8469 25.5512 14.8522H25.5294C24.4486 15.1412 24.4213 13.4874 24.9453 13.6533C25.2565 13.7497 24.9835 14.2528 25.3274 14.4187C25.4966 14.5043 25.7695 14.3063 25.8241 14.5578Z" fill="#F9AF1B"/>
<path d="M23.4698 15.8797C23.2024 15.8529 22.4601 15.6014 22.2908 15.853C21.9797 16.324 22.8039 16.4095 23.0605 16.4095C23.4153 16.4095 23.7482 16.2811 24.0921 16.3079C24.7143 16.3668 24.103 16.9447 23.77 17.0304C23.1151 17.1963 22.3509 17.2124 21.685 17.1589C21.1719 17.1 20.6915 16.6183 20.4623 16.1848C20.4022 16.067 20.4022 15.9279 20.4405 15.7887C20.5169 15.4944 20.7734 15.2268 21.0791 15.2642H21.1009C22.4382 15.5318 21.0736 13.4338 21.1719 13.027C21.3029 12.4865 22.0834 12.5454 22.4491 12.7916C22.6893 12.9575 22.9131 13.1662 23.1423 13.3374C23.3006 13.4498 23.5408 13.4873 23.6827 13.6265C23.8028 13.7389 23.8792 13.9101 23.9283 14.0975C24.0102 14.3865 24.0484 14.7183 24.163 14.9485C24.2777 15.2 24.6597 15.1678 24.8017 15.3926C25.2984 16.2115 23.9065 15.9332 23.4698 15.8797Z" fill="#F9AF1B"/>
</g>
<defs>
<clipPath id="clip0_10071_25477">
<rect width="150" height="38" fill="white"/>
</clipPath>
</defs>
</svg>
