<svg width="10" height="12" viewBox="0 0 10 12" fill="none" xmlns="http://www.w3.org/2000/svg">
<g opacity="0.65">
<path d="M8.07692 3.07692C8.07692 4.77351 6.69659 6.15385 5 6.15385C3.30341 6.15385 1.92308 4.77351 1.92308 3.07692C1.92308 1.38033 3.30341 0 5 0C6.69659 0 8.07692 1.38033 8.07692 3.07692ZM3.04124 6.55011C1.19385 7.33812 0 9.14551 0 11.1538C0 11.3664 0.172213 11.5385 0.384615 11.5385M9.61539 11.5385C9.82779 11.5385 10 11.3664 10 11.1538C10 9.14551 8.80615 7.33812 6.95876 6.55011C6.85772 6.50654 6.74335 6.50879 6.64476 6.55574C5.60322 7.04327 4.39678 7.04327 3.35524 6.55574C3.25627 6.50879 3.1419 6.50654 3.04124 6.55011C1.19385 7.33812 0 9.14551 0 11.1538C0 11.3664 0.172213 11.5385 0.384615 11.5385H9.61539Z" fill="#162736"/>
</g>
</svg>
