<svg width="11" height="11" viewBox="0 0 11 11" fill="none" xmlns="http://www.w3.org/2000/svg">
<path opacity="0.65" d="M10.0153 7.92907C9.95234 7.62892 9.75504 7.36027 9.47168 7.19236C8.94695 6.88381 8.40334 6.58577 7.87861 6.29822L7.51969 6.10092C7.06213 5.85115 6.7494 5.89732 6.56679 5.98128C6.39258 6.06104 6.16381 6.25204 6.06515 6.7117C6.06305 6.718 6.06095 6.7264 6.06095 6.73479C6.02947 6.85443 5.94131 6.90271 5.89094 6.92159C5.7755 6.96147 5.63908 6.93419 5.52573 6.84604C4.65049 6.15759 3.89278 5.40198 3.20854 4.53933C3.12039 4.43019 3.0931 4.29585 3.13507 4.18042C3.15396 4.12794 3.20644 4.03349 3.35336 4.00201C3.35965 3.99991 3.36806 3.99991 3.37435 3.99781C3.84031 3.89497 4.02501 3.65569 4.10057 3.47308C4.18243 3.2674 4.20971 2.91478 3.87179 2.40683C3.61783 2.02693 3.40583 1.61135 3.20013 1.20837C3.10569 1.02576 3.01334 0.843157 2.91678 0.662641C2.72369 0.305823 2.46551 0.0833395 2.17167 0.0182738C1.90511 -0.0383881 1.62386 0.0371696 1.3573 0.23867C1.09283 0.440157 0.813673 0.662641 0.549221 0.918714C-0.0195886 1.47283 -0.14972 2.17386 0.173508 2.94415C1.5441 6.22475 3.90538 8.56924 7.19436 9.91464C7.45043 10.0217 7.7023 10.0742 7.94158 10.0742C8.37395 10.0742 8.77065 9.90205 9.11487 9.56203C9.39402 9.28707 9.6396 8.97013 9.84949 8.69097C10.0111 8.47059 10.0699 8.19983 10.0153 7.92907Z" fill="#162736"/>
</svg>
