<svg width="9" height="14" viewBox="0 0 9 14" fill="none" xmlns="http://www.w3.org/2000/svg">
<g opacity="0.65">
<path d="M5.61703 11.334C5.2998 11.0414 4.86666 10.8773 4.41217 10.8773H4.38166C3.41777 10.8773 2.63995 11.5773 2.63995 12.4387C2.63995 13.3 3.41777 14 4.38166 14H4.41217C5.37606 13.9863 6.14168 13.2754 6.12643 12.4113C6.11728 12.0066 5.93426 11.6211 5.61703 11.334ZM7.66377 1.07461C6.8951 0.366406 5.80005 0.00546875 4.41217 0H4.38166C3.28356 0 2.34712 0.267969 1.59675 0.798438C1.23987 1.05 0.922639 1.34258 0.651163 1.66797C0.388839 1.98516 0.175319 2.33516 0.0228045 2.70703C-0.0443018 2.87383 0.0411062 3.05703 0.221073 3.12812L1.86518 3.77617C2.0543 3.85 2.27392 3.77617 2.35627 3.60664C2.35932 3.60391 2.35932 3.59844 2.36237 3.5957C2.51489 3.26211 2.75891 2.93398 3.08834 2.62227C3.38117 2.34336 3.80516 2.20938 4.38166 2.20938H4.41217C5.00392 2.21484 5.44621 2.3543 5.76344 2.63867C6.08372 2.92852 6.23929 3.27852 6.23929 3.71602C6.23929 4.08242 6.11728 4.41875 5.86715 4.74414C5.59263 5.10234 5.18694 5.49883 4.66229 5.92266C4.57688 5.99375 4.49147 6.06211 4.41522 6.13047C3.94852 6.54063 3.62519 6.9207 3.43302 7.28984C3.32016 7.50586 3.23476 7.77656 3.17375 8.10469C3.10969 8.49023 3.07614 8.87852 3.07614 9.26953C3.07309 9.45547 3.23781 9.60586 3.44218 9.61133H3.45133H5.40961C5.61398 9.61133 5.77869 9.46641 5.78174 9.2832C5.797 8.53672 5.89156 8.17305 5.97086 7.99805C6.04712 7.82852 6.29419 7.49219 7.03541 6.85234C7.64852 6.32734 8.10606 5.81328 8.38974 5.32656C8.68257 4.82344 8.83203 4.25742 8.83203 3.64492C8.82593 2.65234 8.43549 1.78555 7.66377 1.07461Z" fill="#162736"/>
</g>
</svg>
