<svg width="14" height="16" viewBox="0 0 14 16" fill="none" xmlns="http://www.w3.org/2000/svg">
<path fill-rule="evenodd" clip-rule="evenodd" d="M14 1.71429C14 0.767429 13.2166 0 12.25 0C9.80933 0 4.19067 0 1.75 0C1.28567 0 0.840584 0.18057 0.512751 0.502284C0.184334 0.823427 0 1.25943 0 1.71429V14.2857C0 15.2326 0.783417 16 1.75 16H12.25C13.2166 16 14 15.2326 14 14.2857V1.71429ZM2.91667 12H11.0833C11.4053 12 11.6667 11.744 11.6667 11.4286C11.6667 11.1131 11.4053 10.8571 11.0833 10.8571H2.91667C2.59467 10.8571 2.33333 11.1131 2.33333 11.4286C2.33333 11.744 2.59467 12 2.91667 12ZM2.91667 8.57143H11.0833C11.4053 8.57143 11.6667 8.31543 11.6667 8C11.6667 7.68457 11.4053 7.42857 11.0833 7.42857H2.91667C2.59467 7.42857 2.33333 7.68457 2.33333 8C2.33333 8.31543 2.59467 8.57143 2.91667 8.57143ZM2.91667 5.14286H11.0833C11.4053 5.14286 11.6667 4.88686 11.6667 4.57143C11.6667 4.256 11.4053 4 11.0833 4H2.91667C2.59467 4 2.33333 4.256 2.33333 4.57143C2.33333 4.88686 2.59467 5.14286 2.91667 5.14286Z" fill="#4B5D70"/>
</svg>
