<svg width="17" height="14" viewBox="0 0 17 14" fill="none" xmlns="http://www.w3.org/2000/svg">
<path d="M1.60601 2.6035H5.07317V1.2064C5.07317 0.541169 5.61437 0 6.2796 0H9.8195C10.4847 0 11.0259 0.541169 11.0259 1.2064V2.6035H14.4931C15.3763 2.6035 16.0949 3.32209 16.0949 4.20532C16.0949 5.00761 16.1771 5.72811 15.5691 6.53838C15.2251 6.99681 14.7524 7.32384 14.2021 7.48404L8.85832 9.03992C8.32928 9.19393 7.76998 9.19399 7.24085 9.03992L1.89705 7.48404C1.34675 7.3238 0.874043 6.99681 0.53006 6.53838C-0.0806599 5.72447 0.00425148 4.99656 0.00425148 4.20532C0.00421906 3.32209 0.722775 2.6035 1.60601 2.6035ZM10.0041 1.2064C10.0041 1.10463 9.92127 1.02186 9.8195 1.02186H6.2796C6.17783 1.02186 6.09503 1.10466 6.09503 1.2064V2.6035H10.0041V1.2064Z" fill="#4B5D70"/>
<path d="M1.61168 8.4651C7.37562 10.1433 7.30099 10.1773 8.04988 10.1773C8.79341 10.1773 8.61701 10.1745 14.4881 8.46514C15.1071 8.28488 15.6553 7.95264 16.0952 7.49463V12.3981C16.0952 13.2814 15.3767 13.9999 14.4934 13.9999H1.60635C0.723111 13.9999 0.00452232 13.2814 0.00452232 12.3981V7.49463C0.444464 7.95261 0.992689 8.28487 1.61168 8.4651Z" fill="#4B5D70"/>
</svg>
