<svg width="16" height="16" viewBox="0 0 16 16" fill="none" xmlns="http://www.w3.org/2000/svg">
<path d="M8.00102 0C3.5906 0 0.0010158 3.58958 0.0010158 8C0.0010158 9.51979 0.427578 10.9922 1.23852 12.2719L0.0385158 15.2693C-0.0416925 15.4667 0.00622411 15.6906 0.155703 15.8453C0.257266 15.9469 0.395808 16 0.534349 16C0.598412 16 0.667682 15.9896 0.731745 15.9625L3.72914 14.7625C5.00883 15.5734 6.48122 16 8.00102 16C12.4114 16 16.001 12.4104 16.001 8C16.001 3.58958 12.4114 0 8.00102 0ZM4.80102 10.6667H3.73435V5.86667H4.80102V10.6667ZM12.2411 7.17344L11.6968 9.89323C11.5531 10.6135 10.8385 11.2 10.1026 11.2H7.16925C6.58227 11.2 6.10258 10.7198 6.10258 10.1333V5.86667C6.10258 5.86667 7.00883 5.33333 7.54216 4.26667C7.7557 3.8349 7.80883 3.2 8.34216 3.2C8.89164 3.2 9.56925 4.26667 8.50258 5.86667H11.1692C11.9052 5.86667 12.3849 6.45313 12.2411 7.17344Z" fill="#4B5D70"/>
</svg>
