<svg width="15" height="16" viewBox="0 0 15 16" fill="none" xmlns="http://www.w3.org/2000/svg">
<path d="M14.175 1.125C14.125 1.075 14.05 1.05 13.975 1.05H11.75C11.75 0.9 11.75 0.725 11.775 0.575C11.775 0.475 11.775 0.35 11.775 0.25C11.775 0.125 11.675 0 11.525 0H2.725C2.6 0 2.475 0.1 2.475 0.25V0.575C2.475 0.725 2.475 0.9 2.5 1.05H0.275C0.2 1.05 0.125 1.075 0.075 1.125C0.025 1.175 0 1.25 0 1.325C0 1.5 0.125 3.025 0.925 4.55C1.75 6.15 3 7.175 4.65 7.6C4.85 7.85 5.05 8.05 5.275 8.225C5.45 8.375 5.65 8.5 5.825 8.6C6 10.225 5.725 11.7 5.025 12.875H3.675C3.55 12.875 3.425 12.975 3.425 13.125V14.175H2.825C2.725 14.175 2.625 14.225 2.6 14.325L2.075 15.675C2.05 15.75 2.05 15.825 2.1 15.9C2.15 15.975 2.225 16 2.3 16H11.9C11.975 16 12.05 15.95 12.1 15.9C12.15 15.825 12.15 15.75 12.125 15.675L11.625 14.325C11.6 14.225 11.5 14.175 11.4 14.175H10.8V13.125C10.8 13 10.7 12.875 10.55 12.875H9.2C8.5 11.7 8.225 10.225 8.4 8.6C8.6 8.5 8.775 8.375 8.95 8.225C9.175 8.05 9.375 7.825 9.575 7.6C11.225 7.15 12.475 6.125 13.3 4.55C14.1 3.025 14.225 1.5 14.225 1.325C14.25 1.25 14.225 1.175 14.175 1.125ZM10.55 6.125C11.1 5 11.5 3.6 11.675 2.075H13.125C12.925 3.125 12.325 5.075 10.55 6.125ZM8.625 5.625C8.65 5.725 8.6 5.8 8.525 5.875C8.45 5.925 8.35 5.925 8.275 5.9L7.125 5.275L5.975 5.875C5.95 5.9 5.9 5.9 5.85 5.9C5.8 5.9 5.75 5.875 5.7 5.85C5.625 5.8 5.6 5.7 5.6 5.6L5.825 4.325L4.9 3.425C4.825 3.35 4.8 3.275 4.85 3.175C4.875 3.075 4.95 3.025 5.05 3L6.35 2.8L6.925 1.625C7 1.45 7.275 1.45 7.35 1.625L7.925 2.8L9.225 3C9.325 3 9.4 3.075 9.425 3.175C9.45 3.25 9.425 3.35 9.375 3.425L8.45 4.325L8.625 5.625ZM3.7 6.125C1.925 5.075 1.325 3.125 1.125 2.075H2.575C2.75 3.6 3.15 5 3.7 6.125Z" fill="#4B5D70"/>
<path d="M7.54961 3.14995L7.12461 2.32495L6.69961 3.17495C6.67461 3.24995 6.59961 3.29995 6.52461 3.29995L5.59961 3.42495L6.27461 4.07495C6.32461 4.12495 6.34961 4.19995 6.34961 4.29995L6.19961 5.22495L7.02461 4.79995C7.04961 4.77495 7.09961 4.77495 7.12461 4.77495C7.17461 4.77495 7.19961 4.77495 7.24961 4.79995L8.07461 5.22495L7.92461 4.29995C7.92461 4.22495 7.94961 4.14995 7.99961 4.07495L8.67461 3.42495L7.74961 3.29995C7.64961 3.27495 7.57461 3.22495 7.54961 3.14995Z" fill="#4B5D70"/>
</svg>
