<svg width="15" height="15" viewBox="0 0 15 15" fill="none" xmlns="http://www.w3.org/2000/svg">
<path d="M14.0468 12.6079L11.7321 3.87419C11.681 3.6815 11.5067 3.54732 11.3073 3.54732H8.77947C9.8955 2.11893 8.88204 0 7.04776 0C5.21328 0 4.20016 2.11913 5.31605 3.54729H2.61128C2.4093 3.54729 2.23338 3.68493 2.18474 3.88096L0.0129368 12.6373C-0.0120827 12.738 -0.00056903 12.8444 0.0453685 12.9376L0.942234 14.755C1.01627 14.905 1.16905 15 1.33634 15H12.7621C12.9328 15 13.088 14.9012 13.1602 14.7466L14.0202 12.9065C14.0638 12.8131 14.0733 12.7074 14.0468 12.6079ZM7.04776 0.878906C7.7747 0.878906 8.36612 1.47032 8.36612 2.19727C8.36612 2.92421 7.7747 3.51562 7.04776 3.51562C6.32082 3.51562 5.7294 2.92421 5.7294 2.19727C5.7294 1.47032 6.32082 0.878906 7.04776 0.878906ZM7.46278 11.663V11.8828C7.46278 12.1254 7.26602 12.3222 7.02333 12.3222C6.78063 12.3222 6.58387 12.1254 6.58387 11.8828V11.6956C6.253 11.64 5.93981 11.5176 5.70107 11.3614C5.49796 11.2286 5.44103 10.9562 5.57389 10.7531C5.70673 10.55 5.9791 10.4931 6.18224 10.6259C6.51608 10.8443 7.03921 10.9153 7.32462 10.7811C7.53406 10.6825 7.69062 10.4744 7.71421 10.2631C7.76322 9.82359 7.26421 9.6264 6.88206 9.47546C6.48262 9.31769 6.0299 9.1389 5.77012 8.66985C5.39372 7.99025 5.75178 7.06178 6.58387 6.80622V6.62109C6.58387 6.3784 6.78063 6.18164 7.02333 6.18164C7.26602 6.18164 7.46278 6.3784 7.46278 6.62109V6.7752C7.72642 6.83276 7.97284 6.94986 8.16145 7.12383C8.33987 7.28836 8.35109 7.56639 8.18653 7.7448C8.022 7.92319 7.744 7.93447 7.56555 7.76988C7.39074 7.60866 6.94455 7.54893 6.71017 7.70648C6.52499 7.831 6.44656 8.07718 6.53896 8.24402C6.73976 8.60654 7.45575 8.64234 8.01151 9.07541C9.05554 9.88904 8.59068 11.3479 7.46278 11.663Z" fill="#4B5D70"/>
</svg>
