<svg width="16" height="16" viewBox="0 0 16 16" fill="none" xmlns="http://www.w3.org/2000/svg">
<path d="M8.39062 7.5957V4.76312C8.93531 4.76312 9.47198 4.73075 9.99263 4.68624C10.2053 5.64228 10.3286 6.61637 10.3611 7.5957H8.39062Z" fill="#4B5D70"/>
<path d="M8.39062 3.9541V0.259604C8.98796 1.42013 9.46316 2.64078 9.8084 3.9015C9.33981 3.91364 8.86722 3.9541 8.39062 3.9541Z" fill="#4B5D70"/>
<path d="M8.39062 11.2371V8.40457H10.3611C10.3294 9.38797 10.206 10.3662 9.99263 11.3262C9.47198 11.2817 8.93531 11.2371 8.39062 11.2371Z" fill="#4B5D70"/>
<path d="M8.39062 12.0464C8.86722 12.0464 9.33981 12.0748 9.8084 12.1071C9.46316 13.3678 8.98796 14.5885 8.39062 15.749V12.0464Z" fill="#4B5D70"/>
<path d="M7.58961 8.40499V11.2376C7.04492 11.2376 6.50825 11.2699 5.9876 11.3145C5.77496 10.3584 5.6516 9.38432 5.61914 8.40499H7.58961Z" fill="#4B5D70"/>
<path d="M7.58965 12.0463V15.7529C6.99231 14.5924 6.51712 13.3718 6.17188 12.111C6.64046 12.0868 7.11305 12.0463 7.58965 12.0463Z" fill="#4B5D70"/>
<path d="M7.58965 3.9541C7.11305 3.9541 6.64046 3.92578 6.17188 3.8934C6.51712 2.63269 6.99231 1.41204 7.58965 0.251511V3.9541Z" fill="#4B5D70"/>
<path d="M7.58961 4.76312V7.5957H5.61914C5.65085 6.6123 5.77421 5.63411 5.9876 4.6741C6.50825 4.71861 7.04492 4.74289 7.58961 4.76312Z" fill="#4B5D70"/>
<path d="M5.35455 12.1882C5.7081 13.5071 6.19808 14.7847 6.81638 16C4.74441 15.6892 2.87538 14.5707 1.60986 12.8842C2.83799 12.5528 4.09012 12.3201 5.35455 12.1882Z" fill="#4B5D70"/>
<path d="M10.6254 3.81152C10.2719 2.4926 9.78188 1.21495 9.16357 -0.000324011C11.2355 0.310504 13.1046 1.42902 14.3701 3.11552C13.142 3.44686 11.8898 3.67959 10.6254 3.81152Z" fill="#4B5D70"/>
<path d="M11.1698 7.5957C11.1456 6.58993 11.0276 5.5887 10.8174 4.60531C12.1785 4.45164 13.5256 4.19052 14.8464 3.82432C15.5356 4.96487 15.932 6.26118 15.9999 7.5957H11.1698Z" fill="#4B5D70"/>
<path d="M11.1698 8.40538H15.9999C15.9381 9.73813 15.5485 11.0343 14.8664 12.1768C13.5457 11.8106 12.1985 11.5494 10.8374 11.3958C11.0409 10.4117 11.1522 9.41051 11.1698 8.40538Z" fill="#4B5D70"/>
<path d="M4.81002 8.40538C4.83421 9.41115 4.95221 10.4124 5.16246 11.3958C3.80133 11.5494 2.4542 11.8106 1.13342 12.1768C0.451319 11.0343 0.0617743 9.73813 0 8.40538H4.81002Z" fill="#4B5D70"/>
<path d="M9.16357 16C9.78188 14.7847 10.2719 13.5071 10.6254 12.1882C11.8898 12.3201 13.142 12.5528 14.3701 12.8842C13.1046 14.5707 11.2355 15.6892 9.16357 16Z" fill="#4B5D70"/>
<path d="M6.81638 -0.000324011C6.19808 1.21495 5.7081 2.4926 5.35455 3.81152C4.09012 3.67959 2.83799 3.44686 1.60986 3.11552C2.87538 1.42902 4.74441 0.310504 6.81638 -0.000324011Z" fill="#4B5D70"/>
<path d="M4.80992 7.5957H0.00390625C0.0656805 6.26295 0.455225 4.96676 1.13732 3.82432C2.4581 4.19052 3.80523 4.45164 5.16637 4.60531C4.95477 5.58857 4.83543 6.5898 4.80992 7.5957Z" fill="#4B5D70"/>
</svg>
