<svg width="40" height="40" viewBox="0 0 40 40" fill="none" xmlns="http://www.w3.org/2000/svg">
<path fill-rule="evenodd" clip-rule="evenodd" d="M20.0769 39.1969C16.2192 39.1969 14.4264 38.6313 11.3102 36.3689C9.33917 38.9141 3.09741 40.9032 2.82522 37.5001C2.82522 34.9454 2.26205 32.7866 1.62379 30.4299C0.863521 27.5265 0 24.293 0 19.6079C0 8.41819 9.14206 0 19.9736 0C30.8146 0 39.309 8.83298 39.309 19.7116C39.3265 24.8554 37.3112 29.7961 33.7056 33.4492C30.0999 37.1024 25.1984 39.1695 20.0769 39.1969ZM20.2364 9.67197C14.9614 9.39859 10.8503 13.0656 9.93988 18.816C9.18899 23.5766 10.5218 29.3741 11.6575 29.6758C12.2019 29.8078 13.5723 28.6954 14.4264 27.8375C15.8388 28.8175 17.4835 29.406 19.1946 29.5438C21.822 29.6707 24.3941 28.7573 26.3581 26.9998C28.3221 25.2424 29.5212 22.7812 29.6976 20.1452C29.8003 17.5038 28.8665 14.9275 27.0971 12.9706C25.3277 11.0137 22.8641 9.83255 20.2364 9.68139V9.67197Z" fill="white"/>
</svg>
