<svg width="16" height="16" viewBox="0 0 16 16" fill="none" xmlns="http://www.w3.org/2000/svg">
<path d="M8.46938 0C7.43521 0 6.56299 0.872221 6.56299 1.90639C6.56299 2.94056 7.43521 3.81278 8.46938 3.81278C9.50355 3.81278 10.3445 2.94056 10.3445 1.90639C10.3445 0.872221 9.50355 0 8.46938 0Z" fill="#4B5D70"/>
<path d="M10.5506 3.81274C10.0354 4.38401 9.29751 4.75031 8.46945 4.75031C7.64139 4.75031 6.87224 4.38401 6.35704 3.81274C5.90726 4.3115 5.62549 4.96489 5.62549 5.68788V6.15667C5.62549 6.41578 5.83516 6.62545 6.09427 6.62545H10.8134C11.0725 6.62545 11.2822 6.41578 11.2822 6.15667V5.68788C11.2822 4.96489 11.0004 4.3115 10.5506 3.81274Z" fill="#4B5D70"/>
<path d="M4.52913 14.3887L2.14018 9.59917C1.9095 9.13666 1.34809 8.94806 0.885021 9.17748L0.260631 9.48678C0.0281454 9.60207 -0.0664554 9.88463 0.0495845 10.1167L2.86229 15.7421C2.97796 15.9741 3.25932 16.0664 3.48993 15.9527L4.10629 15.6473C4.57117 15.4171 4.76065 14.853 4.52913 14.3887Z" fill="#4B5D70"/>
<path d="M15.617 7.74108C15.2326 7.45981 14.6982 7.51606 14.3794 7.86296L11.8167 11.0132C11.6386 11.2007 11.3011 11.3132 11.1229 11.3132H8.93836C8.67581 11.3132 8.46958 11.107 8.46958 10.8444C8.46958 10.5819 8.67581 10.3756 8.93836 10.3756C9.56622 10.3756 10.2613 10.3756 10.8135 10.3756C11.3292 10.3756 11.7511 9.95374 11.7511 9.43808C11.7511 8.92242 11.3292 8.50051 10.8135 8.50051C8.6119 8.50051 10.7119 8.50051 8.35707 8.50051C8.12343 8.50051 8.00692 8.35234 7.82265 8.19108C7.09732 7.53838 6.01161 7.22391 4.91247 7.47868C4.30218 7.62013 3.89061 7.86668 3.47321 8.19727L3.4593 8.18599L2.78125 8.78272L5.44595 14.1259H6.23501H10.8135C11.6948 14.1259 12.5387 13.704 13.0637 13.0008L15.8139 9.06305C16.1233 8.65049 16.0389 8.05051 15.617 7.74108Z" fill="#4B5D70"/>
</svg>
