<svg width="33" height="30" viewBox="0 0 33 30" fill="none" xmlns="http://www.w3.org/2000/svg">
<path d="M9.7047 29.9998C15.0644 29.9998 19.4094 25.6548 19.4094 20.2951C19.4094 14.9352 15.0644 10.5903 9.7047 10.5903C4.34495 10.5903 0 14.9352 0 20.2951C0 25.6548 4.34495 29.9998 9.7047 29.9998Z" fill="white"/>
<path d="M26.54 28.7752C29.7787 28.7752 32.4041 26.1497 32.4041 22.911C32.4041 19.6723 29.7787 17.0469 26.54 17.0469C23.3013 17.0469 20.6758 19.6723 20.6758 22.911C20.6758 26.1497 23.3013 28.7752 26.54 28.7752Z" fill="white"/>
<path d="M11.5607 9.32563C13.565 9.32563 15.1897 7.70092 15.1897 5.69675C15.1897 3.69258 13.565 2.06787 11.5607 2.06787C9.55658 2.06787 7.93188 3.69258 7.93188 5.69675C7.93188 7.70092 9.55658 9.32563 11.5607 9.32563Z" fill="white"/>
<path d="M24.2619 15.7806C28.6195 15.7806 32.1522 12.248 32.1522 7.89032C32.1522 3.5326 28.6195 0 24.2619 0C19.9041 0 16.3716 3.5326 16.3716 7.89032C16.3716 12.248 19.9041 15.7806 24.2619 15.7806Z" fill="white"/>
</svg>
