<svg xmlns="http://www.w3.org/2000/svg" width="12" height="7" viewBox="0 0 12 7"><g><g><path fill="#878787" d="M.27.292a.939.939 0 0 0 0 1.323l5.061 5.091a.929.929 0 0 0 1.318 0l5.063-5.09c.37-.358.38-.95.022-1.323a.929.929 0 0 0-1.317-.022l-.023.022L5.991 4.72 1.588.293A.929.929 0 0 0 .271.292z"/><path fill="#fff" d="M.27.292a.939.939 0 0 0 0 1.323l5.061 5.091a.929.929 0 0 0 1.318 0l5.063-5.09c.37-.358.38-.95.022-1.323a.929.929 0 0 0-1.317-.022l-.023.022L5.991 4.72 1.588.293A.929.929 0 0 0 .271.292z"/></g></g></svg>