<svg width="11" height="11" viewBox="0 0 11 11" fill="none" xmlns="http://www.w3.org/2000/svg">
<path opacity="0.65" d="M0.725077 8.22934C0.764525 8.29623 0.789325 8.37074 0.797838 8.44792C0.806352 8.52511 0.798385 8.60323 0.774464 8.67711L0.347217 9.95885C0.314994 10.0555 0.310327 10.1593 0.333741 10.2584C0.357155 10.3576 0.407724 10.4483 0.479782 10.5204C0.55184 10.5924 0.64254 10.643 0.741719 10.6664C0.840898 10.6898 0.944638 10.6852 1.04131 10.6529L2.32305 10.2257C2.39694 10.2018 2.47505 10.1938 2.55224 10.2023C2.62943 10.2108 2.70393 10.2356 2.77082 10.2751C3.92751 10.9362 5.28483 11.155 6.59065 10.8908C7.89647 10.6266 9.06201 9.89738 9.87074 8.83865C10.6795 7.77992 11.0764 6.46362 10.9878 5.13429C10.8992 3.80496 10.3311 2.55298 9.38908 1.61092C8.44702 0.668855 7.19504 0.100764 5.86571 0.0121786C4.53638 -0.0764071 3.22008 0.320535 2.16135 1.12926C1.10262 1.93799 0.373425 3.10353 0.109234 4.40935C-0.154956 5.71517 0.0639817 7.07266 0.725077 8.22934ZM8.23142 4.96386C8.33995 4.96386 8.44604 4.99605 8.53628 5.05634C8.62652 5.11664 8.69685 5.20234 8.73838 5.30261C8.77991 5.40287 8.79078 5.51321 8.76961 5.61965C8.74844 5.7261 8.69617 5.82387 8.61943 5.90061C8.54269 5.97736 8.44491 6.02962 8.33847 6.05079C8.23202 6.07197 8.12169 6.0611 8.02142 6.01957C7.92115 5.97803 7.83545 5.9077 7.77516 5.81746C7.71486 5.72722 7.68268 5.62113 7.68268 5.5126C7.68268 5.36706 7.74049 5.22749 7.8434 5.12458C7.94631 5.02168 8.08588 4.96386 8.23142 4.96386ZM5.48773 4.96386C5.59626 4.96386 5.70235 4.99605 5.79259 5.05634C5.88283 5.11664 5.95316 5.20234 5.9947 5.30261C6.03623 5.40287 6.0471 5.51321 6.02592 5.61965C6.00475 5.7261 5.95249 5.82387 5.87575 5.90061C5.799 5.97736 5.70123 6.02962 5.59478 6.05079C5.48834 6.07197 5.37801 6.0611 5.27774 6.01957C5.17747 5.97803 5.09177 5.9077 5.03147 5.81746C4.97118 5.72722 4.93899 5.62113 4.93899 5.5126C4.93899 5.36706 4.99681 5.22749 5.09971 5.12458C5.20262 5.02168 5.3422 4.96386 5.48773 4.96386ZM2.74405 4.96386C2.85258 4.96386 2.95867 4.99605 3.04891 5.05634C3.13915 5.11664 3.20948 5.20234 3.25101 5.30261C3.29255 5.40287 3.30341 5.51321 3.28224 5.61965C3.26107 5.7261 3.2088 5.82387 3.13206 5.90061C3.05532 5.97736 2.95754 6.02962 2.8511 6.05079C2.74465 6.07197 2.63432 6.0611 2.53405 6.01957C2.43378 5.97803 2.34808 5.9077 2.28779 5.81746C2.22749 5.72722 2.19531 5.62113 2.19531 5.5126C2.19531 5.36706 2.25312 5.22749 2.35603 5.12458C2.45894 5.02168 2.59851 4.96386 2.74405 4.96386Z" fill="#162736"/>
</svg>
