<svg width="10" height="10" viewBox="0 0 10 10" fill="none" xmlns="http://www.w3.org/2000/svg">
<path opacity="0.65" d="M9.01728 7.13894C8.96059 6.8687 8.78295 6.62682 8.52783 6.47564C8.05539 6.19784 7.56595 5.9295 7.09351 5.67061L6.77036 5.49297C6.35839 5.26809 6.07682 5.30966 5.91241 5.38525C5.75556 5.45706 5.54958 5.62903 5.46076 6.04288C5.45887 6.04856 5.45698 6.05611 5.45698 6.06367C5.42864 6.17138 5.34926 6.21486 5.30391 6.23186C5.19997 6.26776 5.07715 6.2432 4.97509 6.16383C4.18707 5.54398 3.50487 4.86368 2.88881 4.08699C2.80944 3.98872 2.78487 3.86777 2.82266 3.76384C2.83967 3.7166 2.88691 3.63155 3.0192 3.60321C3.02486 3.60132 3.03243 3.60132 3.03809 3.59943C3.45762 3.50684 3.62392 3.2914 3.69195 3.12699C3.76566 2.9418 3.79021 2.62432 3.48596 2.16699C3.25731 1.82495 3.06644 1.45078 2.88124 1.08795C2.79621 0.923544 2.71306 0.759136 2.62613 0.596609C2.45227 0.275348 2.21983 0.0750347 1.95527 0.0164528C1.71526 -0.0345627 1.46204 0.0334657 1.22204 0.214886C0.983931 0.396295 0.73259 0.596609 0.494491 0.827165C-0.0176366 1.32606 -0.1348 1.95723 0.156218 2.65077C1.39023 5.60446 3.51621 7.71532 6.47745 8.92665C6.70799 9.02303 6.93477 9.07027 7.1502 9.07027C7.53949 9.07027 7.89666 8.91531 8.20658 8.60917C8.45791 8.36162 8.67902 8.07626 8.86799 7.82492C9.0135 7.6265 9.06641 7.38272 9.01728 7.13894Z" fill="#162736"/>
</svg>
