<svg width="8" height="9" viewBox="0 0 8 9" fill="none" xmlns="http://www.w3.org/2000/svg">
<g opacity="0.65">
<path d="M6.3 2.4C6.3 3.72334 5.22334 4.8 3.9 4.8C2.57666 4.8 1.5 3.72334 1.5 2.4C1.5 1.07666 2.57666 0 3.9 0C5.22334 0 6.3 1.07666 6.3 2.4ZM2.37217 5.10908C0.931201 5.72373 0 7.1335 0 8.7C0 8.86582 0.134326 9 0.3 9M7.5 9C7.66567 9 7.8 8.86582 7.8 8.7C7.8 7.1335 6.8688 5.72373 5.42783 5.10908C5.34902 5.0751 5.25981 5.07686 5.18291 5.11348C4.37051 5.49375 3.42949 5.49375 2.61709 5.11348C2.53989 5.07686 2.45068 5.0751 2.37217 5.10908C0.931201 5.72373 0 7.1335 0 8.7C0 8.86582 0.134326 9 0.3 9H7.5Z" fill="#162736"/>
</g>
</svg>
