<svg width="18" height="22" viewBox="0 0 18 22" fill="none" xmlns="http://www.w3.org/2000/svg">
<path d="M13.0537 3.36006C12.5937 1.4309 10.837 0 8.78005 0C6.21989 0 4.25694 2.1422 4.37876 4.58009C2.53188 4.70689 1.27058 6.53583 1.86197 8.34898C-1.27042 9.70176 -0.221264 14.7116 3.29926 14.5517C4.1999 15.6569 6.48685 15.7207 6.9851 15.7207C7.7385 15.7207 7.39029 15.7573 11.6036 14.9669C12.287 15.5035 13.0793 15.7845 13.9032 15.7845C16.6884 15.7845 18.8977 12.6476 17.2888 9.99701C19.2529 7.02821 16.9244 2.87566 13.0537 3.36006Z" fill="#33C972"/>
<path d="M11.3156 16.3208L8.84341 16.7808C8.48575 16.8829 8.10886 16.9341 7.75746 16.966V18.4033C7.75746 19.4573 7.34224 20.1536 7.13783 20.4857C7.08666 20.5752 7.0484 20.6391 7.02924 20.6901C6.93342 20.8817 6.94619 21.1181 7.0675 21.3034C7.18255 21.4886 7.3869 21.5972 7.60415 21.5972H12.0373H12.0501C12.4014 21.5972 12.6889 21.3161 12.6889 20.9584C12.6889 20.7924 12.6186 20.6327 12.51 20.5176C12.1013 19.8788 11.884 19.1507 11.884 18.4033V16.6211C11.6924 16.5379 11.5008 16.4358 11.3156 16.3208Z" fill="#33C972"/>
</svg>
