<svg width="19" height="22" viewBox="0 0 19 22" fill="none" xmlns="http://www.w3.org/2000/svg">
<path d="M17.7357 5.04898L9.42198 0.103061C9.19093 -0.0343535 8.90317 -0.0343535 8.67213 0.103061L0.358402 5.04898C0.136211 5.1812 0 5.4207 0 5.67925V8.5026C0 14.4492 3.43578 19.8806 8.78226 21.9505C8.95246 22.0164 9.14143 22.0165 9.3118 21.9505C14.6453 19.8857 18.094 14.4661 18.094 8.5026V5.67925C18.0941 5.42066 17.9579 5.1812 17.7357 5.04898ZM12.67 9.35213L8.07387 13.9483C7.78749 14.2347 7.32317 14.2347 7.03678 13.9483L5.42373 12.3353C5.13735 12.049 5.13735 11.5846 5.42373 11.2982C5.71012 11.0119 6.17448 11.0119 6.46083 11.2982L7.55528 12.3927L11.6329 8.31504C11.9193 8.02869 12.3836 8.02869 12.67 8.31504C12.9565 8.60147 12.9565 9.06579 12.67 9.35213Z" fill="#33C972"/>
</svg>
