<svg width="22" height="24" viewBox="0 0 22 24" fill="none" xmlns="http://www.w3.org/2000/svg">
<path d="M19.0933 8.09846C19.0933 6.22542 18.4624 4.46574 17.3041 3.03136C17.2794 2.99688 17.2498 2.96238 17.2252 2.92787C17.102 2.78491 16.9738 2.64691 16.8457 2.51381C16.7865 2.44973 16.7274 2.38565 16.6682 2.32651C16.6288 2.2871 16.5943 2.24766 16.5548 2.20821C16.5401 2.19344 16.5203 2.18357 16.5006 2.17371C15.9781 1.68573 15.3916 1.26677 14.7557 0.931602C14.7459 0.921734 14.736 0.911866 14.7262 0.906932C14.5487 0.813279 14.3614 0.729493 14.1741 0.650641C14.1495 0.640773 14.1248 0.630905 14.1002 0.621068C13.8784 0.527414 13.6615 0.448532 13.4347 0.374614C13.42 0.36968 13.4101 0.364746 13.3953 0.359813C13.1735 0.295732 12.9517 0.236586 12.7299 0.192241C12.6707 0.177439 12.6116 0.162668 12.5524 0.1528C12.3306 0.108425 12.1088 0.073918 11.887 0.0492787C11.8328 0.0443448 11.7835 0.039441 11.7342 0.0345071C11.4927 0.0147716 11.2462 0 10.9998 0C10.7533 0 10.5118 0.0147716 10.2654 0.0345071C10.2161 0.039441 10.1668 0.0443448 10.1175 0.0492787C9.89074 0.073918 9.66893 0.108425 9.44713 0.1528C9.38797 0.162668 9.32883 0.177439 9.27461 0.192241C9.04787 0.236586 8.82606 0.295732 8.60425 0.359813C8.59439 0.364746 8.57961 0.36968 8.56975 0.374614C8.34301 0.448532 8.11628 0.527414 7.8994 0.621068C7.87475 0.630905 7.85011 0.640773 7.82546 0.650641C7.63816 0.729493 7.45578 0.813279 7.27341 0.906932C7.26355 0.911866 7.25369 0.921734 7.24383 0.931602C6.60798 1.26677 6.02143 1.68573 5.49894 2.17371C5.47923 2.18357 5.46444 2.19344 5.44472 2.20821C5.40529 2.24766 5.37078 2.2871 5.33135 2.32651C5.27221 2.38565 5.21306 2.44973 5.1539 2.51381C5.02575 2.64691 4.8976 2.78491 4.77437 2.92787C4.74972 2.96238 4.72508 2.99688 4.6955 3.03136C3.5421 4.4608 2.90625 6.22049 2.90625 8.09846C2.90625 12.5593 6.53897 16.192 10.9998 16.192C15.4606 16.192 19.0933 12.5593 19.0933 8.09846ZM14.7769 7.59469L13.3273 9.00786C13.2336 9.09905 13.1908 9.23067 13.2129 9.3603L13.555 11.3551C13.6107 11.6804 13.2696 11.9284 12.9778 11.7746L11.1856 10.8326C11.0698 10.772 10.9313 10.772 10.8154 10.8326L9.02372 11.7746C8.73142 11.9284 8.39034 11.6804 8.44603 11.3551L8.78811 9.3603C8.81029 9.23067 8.76741 9.09905 8.67376 9.00786L7.22411 7.59469C6.98802 7.36451 7.11814 6.96331 7.44494 6.91598L9.44811 6.62467C9.57775 6.60593 9.68963 6.52461 9.7478 6.4068L10.6434 4.59143C10.7898 4.29567 11.2117 4.29567 11.3576 4.59143L12.2532 6.4068C12.3114 6.52461 12.4233 6.60593 12.5529 6.62467L14.5561 6.91598C14.8829 6.96331 15.013 7.36451 14.7769 7.59469Z" fill="#33C972"/>
<path d="M4.20809 13.343L0.0331616 20.5099C-0.0161321 20.5937 -0.0112058 20.7071 0.0528746 20.7859C0.112021 20.8648 0.215535 20.8993 0.314115 20.8697L4.16372 19.741L5.86918 23.0336C5.90861 23.1124 5.99241 23.1667 6.08113 23.1667H6.08606C6.17478 23.1667 6.25857 23.1174 6.30294 23.0385L9.9258 16.6159C7.60421 16.3251 5.56851 15.1076 4.20809 13.343Z" fill="#33C972"/>
<path d="M21.9674 20.5099L17.7924 13.343C16.432 15.1076 14.3963 16.3251 12.0747 16.6159L15.6976 23.0385C15.7419 23.1174 15.8257 23.1667 15.9144 23.1667H15.9194C16.0081 23.1667 16.0919 23.1124 16.1313 23.0336L17.8368 19.7409L21.6864 20.8697C21.785 20.8993 21.8885 20.8648 21.9476 20.7859C22.0117 20.7071 22.0166 20.5937 21.9674 20.5099Z" fill="#33C972"/>
</svg>
