<svg width="24" height="16" viewBox="0 0 24 16" fill="none" xmlns="http://www.w3.org/2000/svg">
<path fill-rule="evenodd" clip-rule="evenodd" d="M7.92159 12.5742C7.92159 11.9727 7.43325 11.4844 6.83175 11.4844H1.08984C0.488344 11.4844 0 11.9727 0 12.5742V14.8714C0 15.4729 0.488344 15.9612 1.08984 15.9612H6.83175C7.43325 15.9612 7.92159 15.4729 7.92159 14.8714V12.5742Z" fill="#33C972"/>
<path fill-rule="evenodd" clip-rule="evenodd" d="M14.812 12.5742C14.812 11.9727 14.3237 11.4844 13.7222 11.4844H10.2773C9.67584 11.4844 9.1875 11.9727 9.1875 12.5742V14.8714C9.1875 15.4729 9.67584 15.9612 10.2773 15.9612H13.7222C14.3237 15.9612 14.812 15.4729 14.812 14.8714V12.5742Z" fill="#33C972"/>
<path fill-rule="evenodd" clip-rule="evenodd" d="M24.0003 12.5742C24.0003 11.9727 23.512 11.4844 22.9105 11.4844H17.168C16.5665 11.4844 16.0781 11.9727 16.0781 12.5742V14.8714C16.0781 15.4729 16.5665 15.9612 17.168 15.9612H22.9105C23.512 15.9612 24.0003 15.4729 24.0003 14.8714V12.5742Z" fill="#33C972"/>
<path fill-rule="evenodd" clip-rule="evenodd" d="M11.3671 6.83252C11.3671 6.23102 10.8788 5.74268 10.2773 5.74268H3.38672C2.78522 5.74268 2.29688 6.23102 2.29688 6.83252V9.12963C2.29688 9.73113 2.78522 10.2195 3.38672 10.2195H10.2773C10.8788 10.2195 11.3671 9.73113 11.3671 9.12963V6.83252Z" fill="#33C972"/>
<path fill-rule="evenodd" clip-rule="evenodd" d="M21.7035 6.83252C21.7035 6.23102 21.2151 5.74268 20.6136 5.74268H13.7227C13.1212 5.74268 12.6328 6.23102 12.6328 6.83252V9.12963C12.6328 9.73113 13.1212 10.2195 13.7227 10.2195H20.6136C21.2151 10.2195 21.7035 9.73113 21.7035 9.12963V6.83252Z" fill="#33C972"/>
<path fill-rule="evenodd" clip-rule="evenodd" d="M7.92159 1.08984C7.92159 0.488344 7.43325 0 6.83175 0H1.08984C0.488344 0 0 0.488344 0 1.08984V3.387C0 3.9885 0.488344 4.47684 1.08984 4.47684H6.83175C7.43325 4.47684 7.92159 3.9885 7.92159 3.387V1.08984Z" fill="#33C972"/>
<path fill-rule="evenodd" clip-rule="evenodd" d="M14.8125 1.08984C14.8125 0.488344 14.3241 0 13.7226 0H10.2773C9.67584 0 9.1875 0.488344 9.1875 1.08984V3.387C9.1875 3.9885 9.67584 4.47684 10.2773 4.47684H13.7226C14.3241 4.47684 14.8125 3.9885 14.8125 3.387V1.08984Z" fill="#33C972"/>
<path fill-rule="evenodd" clip-rule="evenodd" d="M24.0003 1.08984C24.0003 0.488344 23.512 0 22.9105 0H17.168C16.5665 0 16.0781 0.488344 16.0781 1.08984V3.387C16.0781 3.9885 16.5665 4.47684 17.168 4.47684H22.9105C23.512 4.47684 24.0003 3.9885 24.0003 3.387V1.08984Z" fill="#33C972"/>
</svg>
