<svg width="168" height="51" viewBox="0 0 168 51" fill="none" xmlns="http://www.w3.org/2000/svg">
<path d="M74.61 14C74.498 14 74.442 13.9347 74.442 13.804V3.808C74.442 3.74267 74.456 3.696 74.484 3.668C74.512 3.63067 74.5633 3.612 74.638 3.612H75.562C75.7113 3.612 75.786 3.682 75.786 3.822V12.81C75.786 12.894 75.828 12.936 75.912 12.936H80.196C80.28 12.936 80.322 12.8893 80.322 12.796V3.822C80.322 3.682 80.4013 3.612 80.56 3.612H81.47C81.5447 3.612 81.596 3.63067 81.624 3.668C81.652 3.696 81.666 3.74267 81.666 3.808V13.804C81.666 13.9347 81.6147 14 81.512 14H74.61ZM81.988 15.946C81.8293 15.946 81.75 15.876 81.75 15.736V14.126C81.75 14.042 81.708 14 81.624 14H80.826L81.666 12.796C81.666 12.8893 81.7127 12.936 81.806 12.936H82.772C82.884 12.936 82.94 12.9967 82.94 13.118V15.75C82.94 15.8153 82.926 15.862 82.898 15.89C82.87 15.9273 82.8187 15.946 82.744 15.946H81.988ZM84.8157 10.752C84.8157 11.2093 84.923 11.6293 85.1377 12.012C85.3617 12.3853 85.6557 12.684 86.0197 12.908C86.393 13.132 86.8083 13.244 87.2657 13.244C87.7323 13.244 88.1477 13.1507 88.5117 12.964C88.8757 12.768 89.1883 12.474 89.4497 12.082C89.487 12.0447 89.515 12.026 89.5337 12.026C89.5617 12.0167 89.599 12.0213 89.6457 12.04L90.2337 12.334C90.3177 12.3807 90.327 12.446 90.2617 12.53C90.0097 12.9033 89.7297 13.2113 89.4217 13.454C89.123 13.6873 88.787 13.86 88.4137 13.972C88.0403 14.084 87.6203 14.14 87.1537 14.14C86.463 14.14 85.8517 13.9813 85.3197 13.664C84.7877 13.3467 84.3677 12.9033 84.0597 12.334C83.7517 11.7647 83.5977 11.1067 83.5977 10.36C83.5977 9.548 83.7517 8.85267 84.0597 8.274C84.377 7.686 84.8017 7.23333 85.3337 6.916C85.875 6.59867 86.477 6.44 87.1397 6.44C87.821 6.44 88.4137 6.58933 88.9177 6.888C89.4217 7.18667 89.8137 7.62067 90.0937 8.19C90.3737 8.75933 90.5137 9.44533 90.5137 10.248C90.5137 10.3133 90.5043 10.3787 90.4857 10.444C90.4763 10.5093 90.4157 10.542 90.3037 10.542H84.9417C84.9043 10.542 84.8717 10.5653 84.8437 10.612C84.825 10.6493 84.8157 10.696 84.8157 10.752ZM89.0997 9.772C89.2023 9.772 89.2677 9.76267 89.2957 9.744C89.3237 9.716 89.3377 9.66 89.3377 9.576C89.3377 9.17467 89.249 8.80133 89.0717 8.456C88.9037 8.10133 88.6563 7.81667 88.3297 7.602C88.0123 7.38733 87.625 7.28 87.1677 7.28C86.6637 7.28 86.239 7.40133 85.8937 7.644C85.5483 7.87733 85.287 8.18533 85.1097 8.568C84.9323 8.95067 84.8437 9.352 84.8437 9.772H89.0997ZM92.8664 6.762V13.762C92.8664 13.8553 92.8478 13.9207 92.8104 13.958C92.7731 13.986 92.7078 14 92.6144 14H91.9004C91.8164 14 91.7604 13.986 91.7324 13.958C91.7044 13.93 91.6904 13.8787 91.6904 13.804V6.776C91.6904 6.64533 91.7418 6.58 91.8444 6.58H92.6984C92.8104 6.58 92.8664 6.64067 92.8664 6.762ZM97.7804 6.762V13.762C97.7804 13.8553 97.7618 13.9207 97.7244 13.958C97.6964 13.986 97.6358 14 97.5424 14H96.8144C96.7304 14 96.6744 13.986 96.6464 13.958C96.6184 13.93 96.6044 13.8787 96.6044 13.804V6.776C96.6044 6.64533 96.6604 6.58 96.7724 6.58H97.6264C97.7291 6.58 97.7804 6.64067 97.7804 6.762ZM92.1804 10.556C92.0778 10.556 92.0264 10.5047 92.0264 10.402V9.814C92.0264 9.72067 92.0731 9.674 92.1664 9.674H97.1924C97.2951 9.674 97.3464 9.72067 97.3464 9.814V10.402C97.3464 10.5047 97.2951 10.556 97.1924 10.556H92.1804ZM104.677 7.462H102.423C102.339 7.462 102.297 7.49933 102.297 7.574V13.86C102.297 13.9533 102.25 14 102.157 14H101.261C101.167 14 101.121 13.9533 101.121 13.86V7.602C101.121 7.50867 101.079 7.462 100.995 7.462H98.7406C98.638 7.462 98.5866 7.41067 98.5866 7.308V6.72C98.5866 6.62667 98.6333 6.58 98.7266 6.58H104.677C104.779 6.58 104.831 6.622 104.831 6.706V7.308C104.831 7.41067 104.779 7.462 104.677 7.462ZM106.519 6.58C106.65 6.58 106.715 6.65 106.715 6.79V7.378C106.715 7.45267 106.729 7.49467 106.757 7.504C106.794 7.504 106.841 7.48067 106.897 7.434C107 7.322 107.14 7.19133 107.317 7.042C107.494 6.88333 107.723 6.74333 108.003 6.622C108.292 6.50067 108.656 6.44 109.095 6.44C109.664 6.44 110.178 6.58 110.635 6.86C111.102 7.13067 111.47 7.54133 111.741 8.092C112.021 8.64267 112.161 9.338 112.161 10.178C112.161 11.018 112.026 11.732 111.755 12.32C111.484 12.908 111.106 13.3607 110.621 13.678C110.145 13.986 109.585 14.14 108.941 14.14C108.512 14.14 108.129 14.0747 107.793 13.944C107.466 13.804 107.186 13.636 106.953 13.44C106.869 13.3653 106.808 13.3373 106.771 13.356C106.743 13.3653 106.729 13.4213 106.729 13.524V16.128C106.729 16.2493 106.678 16.31 106.575 16.31H105.707C105.604 16.31 105.553 16.2493 105.553 16.128V6.804C105.553 6.72 105.567 6.664 105.595 6.636C105.632 6.59867 105.693 6.58 105.777 6.58H106.519ZM106.729 12.362C107.018 12.642 107.312 12.866 107.611 13.034C107.919 13.202 108.26 13.286 108.633 13.286C109.081 13.286 109.478 13.1693 109.823 12.936C110.178 12.7027 110.453 12.3573 110.649 11.9C110.854 11.4427 110.957 10.8733 110.957 10.192C110.957 9.51067 110.854 8.95533 110.649 8.526C110.444 8.09667 110.168 7.784 109.823 7.588C109.487 7.392 109.114 7.294 108.703 7.294C108.32 7.294 107.98 7.378 107.681 7.546C107.382 7.714 107.149 7.924 106.981 8.176C106.813 8.41867 106.729 8.66133 106.729 8.904V12.362ZM79.16 31.14C79.048 31.14 78.992 31.0887 78.992 30.986V29.656C78.992 29.5627 78.95 29.5207 78.866 29.53C77.7927 29.6887 76.8873 29.6327 76.15 29.362C75.422 29.0913 74.8667 28.6293 74.484 27.976C74.1013 27.3227 73.91 26.5247 73.91 25.582C73.91 24.9753 74.0127 24.4107 74.218 23.888C74.4233 23.3653 74.7313 22.922 75.142 22.558C75.5527 22.194 76.0613 21.9467 76.668 21.816C77.284 21.676 77.998 21.69 78.81 21.858C78.9313 21.8767 78.992 21.83 78.992 21.718V20.444C78.992 20.332 79.0433 20.276 79.146 20.276H80.196C80.308 20.276 80.364 20.3273 80.364 20.43V21.704C80.364 21.8253 80.42 21.8767 80.532 21.858C81.3533 21.69 82.072 21.6713 82.688 21.802C83.304 21.9327 83.8173 22.18 84.228 22.544C84.6387 22.908 84.942 23.356 85.138 23.888C85.3433 24.4107 85.446 24.9753 85.446 25.582C85.446 26.5247 85.2547 27.3227 84.872 27.976C84.4987 28.6293 83.9433 29.0913 83.206 29.362C82.4687 29.6327 81.5633 29.6887 80.49 29.53C80.406 29.5207 80.364 29.5627 80.364 29.656V30.972C80.364 31.084 80.3127 31.14 80.21 31.14H79.16ZM78.922 28.578C79.006 28.5687 79.048 28.5033 79.048 28.382V22.95C79.048 22.8847 79.034 22.8427 79.006 22.824C78.978 22.8053 78.936 22.7913 78.88 22.782C78.1147 22.6047 77.4567 22.614 76.906 22.81C76.3647 22.9967 75.9493 23.328 75.66 23.804C75.38 24.28 75.24 24.8633 75.24 25.554C75.24 26.3193 75.3707 26.9587 75.632 27.472C75.9027 27.976 76.3087 28.326 76.85 28.522C77.3913 28.7087 78.082 28.7273 78.922 28.578ZM80.434 28.578C81.274 28.7273 81.9647 28.7087 82.506 28.522C83.0473 28.326 83.4487 27.976 83.71 27.472C83.9807 26.9587 84.116 26.3193 84.116 25.554C84.116 24.8633 83.9713 24.28 83.682 23.804C83.3927 23.328 82.9773 22.9967 82.436 22.81C81.904 22.614 81.2507 22.6047 80.476 22.782C80.4107 22.7913 80.364 22.8053 80.336 22.824C80.308 22.8427 80.294 22.8847 80.294 22.95V28.382C80.294 28.5033 80.3407 28.5687 80.434 28.578ZM88.0934 23.762V30.762C88.0934 30.8553 88.0748 30.9207 88.0374 30.958C88.0094 30.986 87.9441 31 87.8414 31H87.1694C87.0854 31 87.0294 30.986 87.0014 30.958C86.9734 30.93 86.9594 30.8787 86.9594 30.804V23.776C86.9594 23.6453 87.0108 23.58 87.1134 23.58H87.9254C88.0374 23.58 88.0934 23.6407 88.0934 23.762ZM93.1894 23.762V30.762C93.1894 30.8553 93.1708 30.9207 93.1334 30.958C93.1054 30.986 93.0448 31 92.9514 31H92.2654C92.1814 31 92.1254 30.986 92.0974 30.958C92.0694 30.93 92.0554 30.8787 92.0554 30.804V23.776C92.0554 23.6453 92.1114 23.58 92.2234 23.58H93.0354C93.1381 23.58 93.1894 23.6407 93.1894 23.762ZM92.0834 23.636L92.7834 24.126L88.0514 30.944L87.3514 30.454L92.0834 23.636ZM96.134 23.762V30.762C96.134 30.8553 96.1153 30.9207 96.078 30.958C96.0407 30.986 95.9753 31 95.882 31H95.168C95.084 31 95.028 30.986 95 30.958C94.972 30.93 94.958 30.8787 94.958 30.804V23.776C94.958 23.6453 95.0093 23.58 95.112 23.58H95.966C96.078 23.58 96.134 23.6407 96.134 23.762ZM101.048 23.762V30.762C101.048 30.8553 101.029 30.9207 100.992 30.958C100.964 30.986 100.903 31 100.81 31H100.082C99.998 31 99.942 30.986 99.914 30.958C99.886 30.93 99.872 30.8787 99.872 30.804V23.776C99.872 23.6453 99.928 23.58 100.04 23.58H100.894C100.997 23.58 101.048 23.6407 101.048 23.762ZM95.448 27.556C95.3453 27.556 95.294 27.5047 95.294 27.402V26.814C95.294 26.7207 95.3407 26.674 95.434 26.674H100.46C100.563 26.674 100.614 26.7207 100.614 26.814V27.402C100.614 27.5047 100.563 27.556 100.46 27.556H95.448ZM106.992 30.104C106.647 30.44 106.269 30.6967 105.858 30.874C105.457 31.0513 105.009 31.14 104.514 31.14C103.786 31.14 103.212 30.9533 102.792 30.58C102.372 30.2067 102.162 29.7167 102.162 29.11C102.162 28.6153 102.302 28.1907 102.582 27.836C102.872 27.472 103.287 27.1873 103.828 26.982C104.379 26.7673 105.056 26.6367 105.858 26.59L106.95 26.506C107.016 26.4967 107.067 26.478 107.104 26.45C107.151 26.422 107.174 26.3707 107.174 26.296V25.918C107.174 25.414 107.02 25.0173 106.712 24.728C106.404 24.4293 105.98 24.28 105.438 24.28C105.037 24.28 104.668 24.3733 104.332 24.56C103.996 24.7467 103.698 25.0267 103.436 25.4C103.408 25.4467 103.38 25.4793 103.352 25.498C103.324 25.5073 103.282 25.5027 103.226 25.484L102.484 25.232C102.447 25.2133 102.424 25.19 102.414 25.162C102.405 25.134 102.419 25.0827 102.456 25.008C102.727 24.5227 103.119 24.14 103.632 23.86C104.146 23.58 104.766 23.44 105.494 23.44C106.12 23.44 106.638 23.538 107.048 23.734C107.468 23.9207 107.786 24.196 108 24.56C108.215 24.9147 108.322 25.3393 108.322 25.834V30.79C108.322 30.874 108.304 30.93 108.266 30.958C108.238 30.986 108.192 31 108.126 31H107.412C107.356 31 107.31 30.9813 107.272 30.944C107.244 30.8973 107.23 30.8413 107.23 30.776L107.202 30.132C107.184 30.0013 107.114 29.992 106.992 30.104ZM107.174 27.444C107.174 27.2853 107.109 27.2107 106.978 27.22L106.054 27.304C105.625 27.3227 105.242 27.3787 104.906 27.472C104.57 27.556 104.286 27.668 104.052 27.808C103.819 27.948 103.642 28.116 103.52 28.312C103.399 28.4987 103.338 28.718 103.338 28.97C103.338 29.3807 103.478 29.7027 103.758 29.936C104.048 30.16 104.435 30.272 104.92 30.272C105.219 30.272 105.504 30.2207 105.774 30.118C106.054 30.006 106.302 29.866 106.516 29.698C106.722 29.5207 106.88 29.3387 106.992 29.152C107.114 28.9653 107.174 28.7833 107.174 28.606V27.444ZM111.092 23.762V30.762C111.092 30.8553 111.073 30.9207 111.036 30.958C110.999 30.986 110.933 31 110.84 31H110.126C110.042 31 109.986 30.986 109.958 30.958C109.93 30.93 109.916 30.8787 109.916 30.804V23.776C109.916 23.6453 109.967 23.58 110.07 23.58H110.924C111.036 23.58 111.092 23.6407 111.092 23.762ZM116.006 23.762V30.762C116.006 30.8553 115.987 30.9207 115.95 30.958C115.922 30.986 115.861 31 115.768 31H115.04C114.956 31 114.9 30.986 114.872 30.958C114.844 30.93 114.83 30.8787 114.83 30.804V23.776C114.83 23.6453 114.886 23.58 114.998 23.58H115.852C115.955 23.58 116.006 23.6407 116.006 23.762ZM110.406 27.556C110.303 27.556 110.252 27.5047 110.252 27.402V26.814C110.252 26.7207 110.299 26.674 110.392 26.674H115.418C115.521 26.674 115.572 26.7207 115.572 26.814V27.402C115.572 27.5047 115.521 27.556 115.418 27.556H110.406ZM120.76 23.44C121.246 23.44 121.67 23.5193 122.034 23.678C122.408 23.8273 122.725 24.0373 122.986 24.308C123.257 24.5693 123.481 24.8587 123.658 25.176C123.714 25.288 123.691 25.358 123.588 25.386L122.818 25.568C122.753 25.596 122.692 25.568 122.636 25.484C122.45 25.2133 122.263 24.994 122.076 24.826C121.899 24.658 121.708 24.532 121.502 24.448C121.297 24.3547 121.073 24.308 120.83 24.308C120.354 24.308 119.934 24.4293 119.57 24.672C119.216 24.9053 118.94 25.246 118.744 25.694C118.548 26.142 118.45 26.674 118.45 27.29C118.45 27.9153 118.548 28.452 118.744 28.9C118.95 29.348 119.23 29.6887 119.584 29.922C119.948 30.1553 120.373 30.272 120.858 30.272C121.306 30.272 121.694 30.16 122.02 29.936C122.347 29.712 122.646 29.3853 122.916 28.956C122.944 28.9093 122.968 28.886 122.986 28.886C123.014 28.8767 123.052 28.8813 123.098 28.9L123.7 29.124C123.766 29.152 123.784 29.2127 123.756 29.306C123.616 29.5487 123.453 29.782 123.266 30.006C123.08 30.23 122.86 30.426 122.608 30.594C122.366 30.762 122.09 30.8973 121.782 31C121.474 31.0933 121.134 31.14 120.76 31.14C120.07 31.14 119.458 30.9813 118.926 30.664C118.404 30.3373 117.993 29.8893 117.694 29.32C117.396 28.7413 117.246 28.074 117.246 27.318C117.246 26.5527 117.396 25.8807 117.694 25.302C118.002 24.7233 118.418 24.2707 118.94 23.944C119.472 23.608 120.079 23.44 120.76 23.44ZM127.816 31.14C127.116 31.14 126.496 30.9813 125.954 30.664C125.422 30.3373 125.007 29.8893 124.708 29.32C124.419 28.7413 124.274 28.0787 124.274 27.332C124.274 26.5573 124.424 25.8807 124.722 25.302C125.03 24.714 125.45 24.2567 125.982 23.93C126.514 23.6033 127.13 23.44 127.83 23.44C128.54 23.44 129.156 23.608 129.678 23.944C130.21 24.2707 130.621 24.728 130.91 25.316C131.209 25.8947 131.358 26.562 131.358 27.318C131.358 28.0647 131.209 28.7273 130.91 29.306C130.612 29.8753 130.196 30.3233 129.664 30.65C129.142 30.9767 128.526 31.14 127.816 31.14ZM127.844 30.258C128.33 30.258 128.745 30.1413 129.09 29.908C129.436 29.6653 129.697 29.3247 129.874 28.886C130.061 28.438 130.154 27.906 130.154 27.29C130.154 26.674 130.061 26.1467 129.874 25.708C129.688 25.26 129.422 24.9147 129.076 24.672C128.731 24.4293 128.316 24.308 127.83 24.308C127.354 24.308 126.939 24.4293 126.584 24.672C126.23 24.9147 125.954 25.26 125.758 25.708C125.572 26.1467 125.478 26.674 125.478 27.29C125.478 27.8967 125.572 28.424 125.758 28.872C125.954 29.32 126.23 29.6653 126.584 29.908C126.939 30.1413 127.359 30.258 127.844 30.258ZM132.613 31V23.58H135.777C136.673 23.58 137.345 23.7433 137.793 24.07C138.241 24.3967 138.465 24.8727 138.465 25.498C138.465 25.89 138.386 26.2213 138.227 26.492C138.068 26.7533 137.784 26.9633 137.373 27.122C137.336 27.1313 137.317 27.1547 137.317 27.192C137.317 27.22 137.336 27.2387 137.373 27.248C137.784 27.36 138.106 27.57 138.339 27.878C138.582 28.1767 138.703 28.5407 138.703 28.97C138.703 29.6513 138.47 30.16 138.003 30.496C137.536 30.832 136.855 31 135.959 31H132.613ZM135.861 30.188C136.477 30.188 136.92 30.09 137.191 29.894C137.462 29.6887 137.597 29.3667 137.597 28.928C137.597 28.48 137.434 28.158 137.107 27.962C136.79 27.7567 136.318 27.654 135.693 27.654H133.733V30.188H135.861ZM135.637 26.898C135.973 26.898 136.272 26.8607 136.533 26.786C136.794 26.702 137 26.5667 137.149 26.38C137.308 26.1933 137.387 25.932 137.387 25.596C137.387 25.1947 137.242 24.9007 136.953 24.714C136.673 24.5273 136.262 24.434 135.721 24.434H133.733V26.898H135.637ZM142.884 31.14C142.184 31.14 141.563 30.9813 141.022 30.664C140.49 30.3373 140.074 29.8893 139.776 29.32C139.486 28.7413 139.342 28.0787 139.342 27.332C139.342 26.5573 139.491 25.8807 139.79 25.302C140.098 24.714 140.518 24.2567 141.05 23.93C141.582 23.6033 142.198 23.44 142.898 23.44C143.607 23.44 144.223 23.608 144.746 23.944C145.278 24.2707 145.688 24.728 145.978 25.316C146.276 25.8947 146.426 26.562 146.426 27.318C146.426 28.0647 146.276 28.7273 145.978 29.306C145.679 29.8753 145.264 30.3233 144.732 30.65C144.209 30.9767 143.593 31.14 142.884 31.14ZM142.912 30.258C143.397 30.258 143.812 30.1413 144.158 29.908C144.503 29.6653 144.764 29.3247 144.942 28.886C145.128 28.438 145.222 27.906 145.222 27.29C145.222 26.674 145.128 26.1467 144.942 25.708C144.755 25.26 144.489 24.9147 144.144 24.672C143.798 24.4293 143.383 24.308 142.898 24.308C142.422 24.308 142.006 24.4293 141.652 24.672C141.297 24.9147 141.022 25.26 140.826 25.708C140.639 26.1467 140.546 26.674 140.546 27.29C140.546 27.8967 140.639 28.424 140.826 28.872C141.022 29.32 141.297 29.6653 141.652 29.908C142.006 30.1413 142.426 30.258 142.912 30.258ZM147.807 31C147.723 31 147.681 30.9533 147.681 30.86V23.72C147.681 23.6267 147.727 23.58 147.821 23.58H152.273C152.375 23.58 152.427 23.6267 152.427 23.72V24.308C152.427 24.4107 152.375 24.462 152.273 24.462H148.969C148.894 24.462 148.857 24.4993 148.857 24.574V30.86C148.857 30.9533 148.805 31 148.703 31H147.807ZM156.256 31.14C155.556 31.14 154.935 30.9813 154.394 30.664C153.862 30.3373 153.447 29.8893 153.148 29.32C152.859 28.7413 152.714 28.0787 152.714 27.332C152.714 26.5573 152.863 25.8807 153.162 25.302C153.47 24.714 153.89 24.2567 154.422 23.93C154.954 23.6033 155.57 23.44 156.27 23.44C156.979 23.44 157.595 23.608 158.118 23.944C158.65 24.2707 159.061 24.728 159.35 25.316C159.649 25.8947 159.798 26.562 159.798 27.318C159.798 28.0647 159.649 28.7273 159.35 29.306C159.051 29.8753 158.636 30.3233 158.104 30.65C157.581 30.9767 156.965 31.14 156.256 31.14ZM156.284 30.258C156.769 30.258 157.185 30.1413 157.53 29.908C157.875 29.6653 158.137 29.3247 158.314 28.886C158.501 28.438 158.594 27.906 158.594 27.29C158.594 26.674 158.501 26.1467 158.314 25.708C158.127 25.26 157.861 24.9147 157.516 24.672C157.171 24.4293 156.755 24.308 156.27 24.308C155.794 24.308 155.379 24.4293 155.024 24.672C154.669 24.9147 154.394 25.26 154.198 25.708C154.011 26.1467 153.918 26.674 153.918 27.29C153.918 27.8967 154.011 28.424 154.198 28.872C154.394 29.32 154.669 29.6653 155.024 29.908C155.379 30.1413 155.799 30.258 156.284 30.258ZM78.348 48.14C77.4333 48.14 76.64 47.9347 75.968 47.524C75.3053 47.1133 74.7967 46.516 74.442 45.732C74.0873 44.9387 73.91 43.9773 73.91 42.848C73.91 41.7093 74.092 40.7387 74.456 39.936C74.82 39.1333 75.3333 38.522 75.996 38.102C76.6587 37.682 77.4473 37.472 78.362 37.472C79.2767 37.472 80.0607 37.682 80.714 38.102C81.3767 38.522 81.8853 39.1287 82.24 39.922C82.604 40.7153 82.786 41.686 82.786 42.834C82.786 43.9633 82.6087 44.9247 82.254 45.718C81.8993 46.502 81.386 47.104 80.714 47.524C80.0513 47.9347 79.2627 48.14 78.348 48.14ZM78.376 47.118C79.384 47.118 80.1353 46.7727 80.63 46.082C81.134 45.382 81.386 44.304 81.386 42.848C81.386 41.364 81.1293 40.2673 80.616 39.558C80.112 38.8487 79.3607 38.494 78.362 38.494C77.354 38.494 76.5933 38.8533 76.08 39.572C75.5667 40.2813 75.31 41.3733 75.31 42.848C75.31 44.2947 75.5667 45.368 76.08 46.068C76.5933 46.768 77.3587 47.118 78.376 47.118ZM86.8134 48.126C86.2814 48.126 85.8147 48.0607 85.4134 47.93C85.0121 47.79 84.6714 47.5847 84.3914 47.314C84.1114 47.0433 83.8781 46.712 83.6914 46.32C83.6541 46.2173 83.6821 46.1473 83.7754 46.11L84.3354 45.9C84.4194 45.872 84.4847 45.9 84.5314 45.984C84.7834 46.4227 85.0774 46.7493 85.4134 46.964C85.7587 47.1787 86.2021 47.286 86.7434 47.286C87.3687 47.286 87.8447 47.16 88.1714 46.908C88.5074 46.656 88.6754 46.306 88.6754 45.858C88.6754 45.4567 88.5447 45.1487 88.2834 44.934C88.0314 44.7193 87.6767 44.612 87.2194 44.612H86.0294V43.856H87.1774C87.5414 43.856 87.8494 43.744 88.1014 43.52C88.3534 43.2867 88.4794 42.974 88.4794 42.582C88.4794 42.1993 88.3347 41.8913 88.0454 41.658C87.7654 41.4247 87.3594 41.308 86.8274 41.308C86.3887 41.308 86.0107 41.3967 85.6934 41.574C85.3854 41.742 85.1054 42.0407 84.8534 42.47C84.8161 42.5727 84.7647 42.61 84.6994 42.582L83.8874 42.372C83.8594 42.3533 83.8407 42.33 83.8314 42.302C83.8221 42.274 83.8267 42.2273 83.8454 42.162C84.1067 41.63 84.4847 41.21 84.9794 40.902C85.4834 40.594 86.1181 40.44 86.8834 40.44C87.7701 40.44 88.4467 40.636 88.9134 41.028C89.3894 41.4107 89.6227 41.896 89.6134 42.484C89.6134 42.848 89.5387 43.156 89.3894 43.408C89.2401 43.66 89.0021 43.8653 88.6754 44.024C88.6194 44.052 88.5867 44.0847 88.5774 44.122C88.5774 44.15 88.6101 44.1733 88.6754 44.192C89.0301 44.3133 89.3147 44.5187 89.5294 44.808C89.7441 45.088 89.8514 45.4567 89.8514 45.914C89.8514 46.3433 89.7301 46.726 89.4874 47.062C89.2447 47.3887 88.8947 47.65 88.4374 47.846C87.9894 48.0327 87.4481 48.126 86.8134 48.126ZM90.4468 49.862C90.3908 49.862 90.3488 49.848 90.3208 49.82C90.2928 49.792 90.2788 49.7547 90.2788 49.708V47.272C90.2788 47.1693 90.3255 47.118 90.4188 47.118H95.5988C95.6548 47.118 95.6828 47.0853 95.6828 47.02V41.546C95.6828 41.49 95.6502 41.462 95.5848 41.462H93.0088C92.9435 41.462 92.9108 41.49 92.9108 41.546L91.9588 40.72C91.9588 40.6267 92.0055 40.58 92.0988 40.58H96.6208C96.6955 40.58 96.7422 40.5893 96.7608 40.608C96.7795 40.6267 96.7888 40.6687 96.7888 40.734V46.992C96.7888 47.076 96.8262 47.118 96.9008 47.118H97.6428C97.7362 47.118 97.7828 47.1693 97.7828 47.272V49.708C97.7828 49.7547 97.7688 49.792 97.7408 49.82C97.7222 49.848 97.6802 49.862 97.6148 49.862H96.9288C96.7982 49.862 96.7328 49.806 96.7328 49.694V48.098C96.7328 48.0327 96.6955 48 96.6208 48H91.4408C91.3662 48 91.3288 48.0327 91.3288 48.098V49.694C91.3288 49.806 91.2635 49.862 91.1328 49.862H90.4468ZM90.7408 47.678L90.6848 47.118C90.9928 47.118 91.2402 46.9267 91.4268 46.544C91.6228 46.1613 91.7582 45.6107 91.8328 44.892C91.9168 44.164 91.9588 43.2867 91.9588 42.26V40.72H92.9108V42.288C92.9108 43.1093 92.8688 43.8607 92.7848 44.542C92.7102 45.2233 92.5888 45.802 92.4208 46.278C92.2528 46.754 92.0288 47.1133 91.7488 47.356C91.4688 47.5987 91.1328 47.706 90.7408 47.678ZM101.688 48.14C100.988 48.14 100.367 47.9813 99.8256 47.664C99.2936 47.3373 98.8783 46.8893 98.5796 46.32C98.2903 45.7413 98.1456 45.0787 98.1456 44.332C98.1456 43.5573 98.295 42.8807 98.5936 42.302C98.9016 41.714 99.3216 41.2567 99.8536 40.93C100.386 40.6033 101.002 40.44 101.702 40.44C102.411 40.44 103.027 40.608 103.55 40.944C104.082 41.2707 104.492 41.728 104.782 42.316C105.08 42.8947 105.23 43.562 105.23 44.318C105.23 45.0647 105.08 45.7273 104.782 46.306C104.483 46.8753 104.068 47.3233 103.536 47.65C103.013 47.9767 102.397 48.14 101.688 48.14ZM101.716 47.258C102.201 47.258 102.616 47.1413 102.962 46.908C103.307 46.6653 103.568 46.3247 103.746 45.886C103.932 45.438 104.026 44.906 104.026 44.29C104.026 43.674 103.932 43.1467 103.746 42.708C103.559 42.26 103.293 41.9147 102.948 41.672C102.602 41.4293 102.187 41.308 101.702 41.308C101.226 41.308 100.81 41.4293 100.456 41.672C100.101 41.9147 99.8256 42.26 99.6296 42.708C99.443 43.1467 99.3496 43.674 99.3496 44.29C99.3496 44.8967 99.443 45.424 99.6296 45.872C99.8256 46.32 100.101 46.6653 100.456 46.908C100.81 47.1413 101.23 47.258 101.716 47.258ZM107.366 40.58C107.497 40.58 107.562 40.65 107.562 40.79V41.378C107.562 41.4527 107.576 41.4947 107.604 41.504C107.642 41.504 107.688 41.4807 107.744 41.434C107.847 41.322 107.987 41.1913 108.164 41.042C108.342 40.8833 108.57 40.7433 108.85 40.622C109.14 40.5007 109.504 40.44 109.942 40.44C110.512 40.44 111.025 40.58 111.482 40.86C111.949 41.1307 112.318 41.5413 112.588 42.092C112.868 42.6427 113.008 43.338 113.008 44.178C113.008 45.018 112.873 45.732 112.602 46.32C112.332 46.908 111.954 47.3607 111.468 47.678C110.992 47.986 110.432 48.14 109.788 48.14C109.359 48.14 108.976 48.0747 108.64 47.944C108.314 47.804 108.034 47.636 107.8 47.44C107.716 47.3653 107.656 47.3373 107.618 47.356C107.59 47.3653 107.576 47.4213 107.576 47.524V50.128C107.576 50.2493 107.525 50.31 107.422 50.31H106.554C106.452 50.31 106.4 50.2493 106.4 50.128V40.804C106.4 40.72 106.414 40.664 106.442 40.636C106.48 40.5987 106.54 40.58 106.624 40.58H107.366ZM107.576 46.362C107.866 46.642 108.16 46.866 108.458 47.034C108.766 47.202 109.107 47.286 109.48 47.286C109.928 47.286 110.325 47.1693 110.67 46.936C111.025 46.7027 111.3 46.3573 111.496 45.9C111.702 45.4427 111.804 44.8733 111.804 44.192C111.804 43.5107 111.702 42.9553 111.496 42.526C111.291 42.0967 111.016 41.784 110.67 41.588C110.334 41.392 109.961 41.294 109.55 41.294C109.168 41.294 108.827 41.378 108.528 41.546C108.23 41.714 107.996 41.924 107.828 42.176C107.66 42.4187 107.576 42.6613 107.576 42.904V46.362ZM117.302 48.14C116.602 48.14 115.981 47.9813 115.44 47.664C114.908 47.3373 114.493 46.8893 114.194 46.32C113.905 45.7413 113.76 45.0787 113.76 44.332C113.76 43.5573 113.909 42.8807 114.208 42.302C114.516 41.714 114.936 41.2567 115.468 40.93C116 40.6033 116.616 40.44 117.316 40.44C118.025 40.44 118.641 40.608 119.164 40.944C119.696 41.2707 120.107 41.728 120.396 42.316C120.695 42.8947 120.844 43.562 120.844 44.318C120.844 45.0647 120.695 45.7273 120.396 46.306C120.097 46.8753 119.682 47.3233 119.15 47.65C118.627 47.9767 118.011 48.14 117.302 48.14ZM117.33 47.258C117.815 47.258 118.231 47.1413 118.576 46.908C118.921 46.6653 119.183 46.3247 119.36 45.886C119.547 45.438 119.64 44.906 119.64 44.29C119.64 43.674 119.547 43.1467 119.36 42.708C119.173 42.26 118.907 41.9147 118.562 41.672C118.217 41.4293 117.801 41.308 117.316 41.308C116.84 41.308 116.425 41.4293 116.07 41.672C115.715 41.9147 115.44 42.26 115.244 42.708C115.057 43.1467 114.964 43.674 114.964 44.29C114.964 44.8967 115.057 45.424 115.244 45.872C115.44 46.32 115.715 46.6653 116.07 46.908C116.425 47.1413 116.845 47.258 117.33 47.258ZM122.099 48V40.58H125.263C126.159 40.58 126.831 40.7433 127.279 41.07C127.727 41.3967 127.951 41.8727 127.951 42.498C127.951 42.89 127.872 43.2213 127.713 43.492C127.554 43.7533 127.27 43.9633 126.859 44.122C126.822 44.1313 126.803 44.1547 126.803 44.192C126.803 44.22 126.822 44.2387 126.859 44.248C127.27 44.36 127.592 44.57 127.825 44.878C128.068 45.1767 128.189 45.5407 128.189 45.97C128.189 46.6513 127.956 47.16 127.489 47.496C127.022 47.832 126.341 48 125.445 48H122.099ZM125.347 47.188C125.963 47.188 126.406 47.09 126.677 46.894C126.948 46.6887 127.083 46.3667 127.083 45.928C127.083 45.48 126.92 45.158 126.593 44.962C126.276 44.7567 125.804 44.654 125.179 44.654H123.219V47.188H125.347ZM125.123 43.898C125.459 43.898 125.758 43.8607 126.019 43.786C126.28 43.702 126.486 43.5667 126.635 43.38C126.794 43.1933 126.873 42.932 126.873 42.596C126.873 42.1947 126.728 41.9007 126.439 41.714C126.159 41.5273 125.748 41.434 125.207 41.434H123.219V43.898H125.123ZM128.576 48C128.492 47.9813 128.454 47.9347 128.464 47.86L128.548 47.146C128.557 47.0713 128.599 47.034 128.674 47.034C129 47.0527 129.271 46.9547 129.486 46.74C129.71 46.516 129.887 46.194 130.018 45.774C130.158 45.3447 130.256 44.836 130.312 44.248C130.377 43.66 130.41 43.0067 130.41 42.288V40.58H135.324V48H134.148V41.434H131.362V42.456C131.362 43.296 131.31 44.0753 131.208 44.794C131.105 45.5033 130.946 46.11 130.732 46.614C130.517 47.118 130.232 47.496 129.878 47.748C129.523 47.9907 129.089 48.0747 128.576 48ZM137.771 44.752C137.771 45.2093 137.878 45.6293 138.093 46.012C138.317 46.3853 138.611 46.684 138.975 46.908C139.348 47.132 139.763 47.244 140.221 47.244C140.687 47.244 141.103 47.1507 141.467 46.964C141.831 46.768 142.143 46.474 142.405 46.082C142.442 46.0447 142.47 46.026 142.489 46.026C142.517 46.0167 142.554 46.0213 142.601 46.04L143.189 46.334C143.273 46.3807 143.282 46.446 143.217 46.53C142.965 46.9033 142.685 47.2113 142.377 47.454C142.078 47.6873 141.742 47.86 141.369 47.972C140.995 48.084 140.575 48.14 140.109 48.14C139.418 48.14 138.807 47.9813 138.275 47.664C137.743 47.3467 137.323 46.9033 137.015 46.334C136.707 45.7647 136.553 45.1067 136.553 44.36C136.553 43.548 136.707 42.8527 137.015 42.274C137.332 41.686 137.757 41.2333 138.289 40.916C138.83 40.5987 139.432 40.44 140.095 40.44C140.776 40.44 141.369 40.5893 141.873 40.888C142.377 41.1867 142.769 41.6207 143.049 42.19C143.329 42.7593 143.469 43.4453 143.469 44.248C143.469 44.3133 143.459 44.3787 143.441 44.444C143.431 44.5093 143.371 44.542 143.259 44.542H137.897C137.859 44.542 137.827 44.5653 137.799 44.612C137.78 44.6493 137.771 44.696 137.771 44.752ZM142.055 43.772C142.157 43.772 142.223 43.7627 142.251 43.744C142.279 43.716 142.293 43.66 142.293 43.576C142.293 43.1747 142.204 42.8013 142.027 42.456C141.859 42.1013 141.611 41.8167 141.285 41.602C140.967 41.3873 140.58 41.28 140.123 41.28C139.619 41.28 139.194 41.4013 138.849 41.644C138.503 41.8773 138.242 42.1853 138.065 42.568C137.887 42.9507 137.799 43.352 137.799 43.772H142.055ZM145.821 40.762V47.762C145.821 47.8553 145.803 47.9207 145.765 47.958C145.728 47.986 145.663 48 145.569 48H144.855C144.771 48 144.715 47.986 144.687 47.958C144.659 47.93 144.645 47.8787 144.645 47.804V40.776C144.645 40.6453 144.697 40.58 144.799 40.58H145.653C145.765 40.58 145.821 40.6407 145.821 40.762ZM150.735 40.762V47.762C150.735 47.8553 150.717 47.9207 150.679 47.958C150.651 47.986 150.591 48 150.497 48H149.769C149.685 48 149.629 47.986 149.601 47.958C149.573 47.93 149.559 47.8787 149.559 47.804V40.776C149.559 40.6453 149.615 40.58 149.727 40.58H150.581C150.684 40.58 150.735 40.6407 150.735 40.762ZM145.135 44.556C145.033 44.556 144.981 44.5047 144.981 44.402V43.814C144.981 43.7207 145.028 43.674 145.121 43.674H150.147C150.25 43.674 150.301 43.7207 150.301 43.814V44.402C150.301 44.5047 150.25 44.556 150.147 44.556H145.135ZM153.628 40.762V47.762C153.628 47.8553 153.609 47.9207 153.572 47.958C153.544 47.986 153.478 48 153.376 48H152.704C152.62 48 152.564 47.986 152.536 47.958C152.508 47.93 152.494 47.8787 152.494 47.804V40.776C152.494 40.6453 152.545 40.58 152.648 40.58H153.46C153.572 40.58 153.628 40.6407 153.628 40.762ZM158.724 40.762V47.762C158.724 47.8553 158.705 47.9207 158.668 47.958C158.64 47.986 158.579 48 158.486 48H157.8C157.716 48 157.66 47.986 157.632 47.958C157.604 47.93 157.59 47.8787 157.59 47.804V40.776C157.59 40.6453 157.646 40.58 157.758 40.58H158.57C158.672 40.58 158.724 40.6407 158.724 40.762ZM157.618 40.636L158.318 41.126L153.586 47.944L152.886 47.454L157.618 40.636ZM164.748 48V45.312H163.362C162.933 45.312 162.532 45.256 162.158 45.144C161.794 45.0227 161.468 44.8593 161.178 44.654C160.898 44.4393 160.679 44.1827 160.52 43.884C160.362 43.576 160.282 43.2353 160.282 42.862C160.282 42.162 160.52 41.6067 160.996 41.196C161.482 40.7853 162.172 40.58 163.068 40.58H165.882V48H164.748ZM160.24 48C160.156 48 160.105 47.9767 160.086 47.93C160.068 47.874 160.082 47.8133 160.128 47.748L162.41 44.864L163.516 45.312C163.339 45.3027 163.204 45.3587 163.11 45.48L161.36 47.86C161.323 47.916 161.286 47.9533 161.248 47.972C161.211 47.9907 161.164 48 161.108 48H160.24ZM163.264 44.514H164.748V41.392H163.194C162.588 41.392 162.14 41.5273 161.85 41.798C161.561 42.0593 161.416 42.4233 161.416 42.89C161.416 43.2727 161.5 43.5853 161.668 43.828C161.846 44.0613 162.074 44.234 162.354 44.346C162.634 44.458 162.938 44.514 163.264 44.514Z" fill="white"/>
<path d="M46 12.9293C46.7635 12.9294 49.7687 12.8474 50.29 13.026C52.6209 13.8241 52.8912 17.0654 50.3848 18.1461L50.3857 23.3082L53.4971 28.7145L58 28.7125C58.0086 30.9028 57.1726 33.0117 55.666 34.6012C54.0993 36.2323 51.9475 37.1738 49.6865 37.2174C47.4105 37.2807 45.2054 36.4237 43.5703 34.8405C41.8393 33.1759 41.0107 31.0912 40.9727 28.7115H45.4854L48.5986 23.3014V18.152C47.1193 17.5136 46.5194 16.2629 46.9619 14.6998L34.96 14.7037L34.9609 29.8688L34.9619 36.6403C35.7292 36.6438 36.9156 36.4751 37.5693 36.9088C37.8078 37.0671 37.9245 37.3719 37.957 37.651C38.0335 38.3051 37.5347 38.8872 36.875 38.9039C35.8357 38.9171 34.7803 38.9112 33.7334 38.9117L27.5107 38.9127L23.1855 38.9117C22.4129 38.9117 21.6478 38.93 20.875 38.8873C19.902 38.8476 19.5449 37.5953 20.2002 36.9645C20.721 36.4642 22.1623 36.6322 22.877 36.6383L22.8799 14.7018L11.001 14.7008C11.5322 16.2326 10.8558 17.5026 9.42773 18.1324L9.41895 21.4684C9.41844 21.7442 9.40181 23.1441 9.4707 23.2838C10.2932 24.9405 11.6146 27.1352 12.5225 28.7125L17.0088 28.7115C17.0234 30.8531 16.2268 32.9208 14.7793 34.4996C13.2368 36.1572 11.0979 37.1333 8.83496 37.2125C6.55935 37.2962 4.34324 36.4728 2.67383 34.9244C0.880051 33.2376 0.0698361 31.1417 0 28.7125H4.52148C5.43451 27.1322 6.75657 24.9574 7.59082 23.2906C7.65876 23.1541 7.64005 21.778 7.63965 21.4947L7.63379 18.1373C7.44826 18.0587 7.24672 17.9575 7.07617 17.8492C6.47143 17.471 6.04405 16.8652 5.89062 16.1686C5.73911 15.4697 5.87465 14.7393 6.2666 14.1412C6.72896 13.4369 7.33761 13.1174 8.12891 12.942C9.21662 12.8985 10.5209 12.9295 11.626 12.9293L17.9619 12.9283H37.252L46 12.9293ZM30.0371 36.6393C30.9109 36.6383 31.8481 36.6556 32.7158 36.6363V14.7096H30.0322L30.0371 36.6393ZM25.1123 36.6403L27.8076 36.6373L27.8066 14.7096H25.1104L25.1123 36.6403ZM8.49023 25.3893C7.87152 26.4638 7.22408 27.6686 6.58887 28.7135L8.5957 28.7125L10.4541 28.7135C10.2194 28.3007 8.6966 25.5401 8.49023 25.3893ZM47.542 28.7135L49.5762 28.7125H51.4307C51.21 28.3256 49.6451 25.5259 49.4482 25.3912L47.542 28.7135ZM8.4873 14.6881C7.98897 14.7011 7.59632 15.1175 7.6123 15.6158C7.62844 16.1139 8.04687 16.5039 8.54492 16.485C9.03869 16.4661 9.42478 16.0521 9.40918 15.5582C9.39335 15.0642 8.98147 14.6754 8.4873 14.6881ZM49.4121 14.6979C49.0903 14.7256 48.8082 14.9251 48.6758 15.2194C48.543 15.5135 48.5794 15.8564 48.7715 16.1158C48.9633 16.3754 49.2813 16.5113 49.6016 16.4703C50.0827 16.4088 50.4268 15.9732 50.375 15.4908C50.3237 15.0086 49.8956 14.6565 49.4121 14.6979Z" fill="white"/>
<path d="M15.682 41.8228C17.2478 41.7441 18.0819 42.6318 18.2784 44.1243L39.5909 44.1284C39.6351 43.6909 39.6894 43.3824 39.9056 42.987C40.1949 42.4511 40.6922 42.0583 41.2809 41.9004C41.9072 41.7289 42.5766 41.8279 43.1263 42.174C43.6607 42.5064 44.0357 43.0434 44.1636 43.6595C44.3047 44.3482 44.1144 44.914 43.751 45.4845C43.4861 45.8001 42.9786 46.2437 42.5873 46.3021C41.485 46.467 39.8716 46.399 38.7348 46.399L32.2112 46.3975L21.5267 46.3985C19.7018 46.398 17.8773 46.3995 16.0525 46.3904C14.9256 46.3853 14.0291 45.8316 13.7322 44.6948C13.5699 44.0746 13.6737 43.4148 14.0187 42.8743C14.4275 42.2339 14.966 41.9664 15.682 41.8228Z" fill="white"/>
<path d="M15.6859 5.03007C17.1306 4.96668 19.0254 5.02317 20.4969 5.02312L30.1024 5.02296L38.0165 5.02195C39.3715 5.02195 40.7383 5.00672 42.0928 5.03976C43.1068 5.06453 43.9021 5.79884 44.1315 6.7755C44.2807 7.39785 44.1645 8.05422 43.8097 8.58715C43.0347 9.7593 41.6081 9.92338 40.4942 9.12653L40.4343 9.08314C39.8532 8.53285 39.6568 8.07716 39.6151 7.28788L18.2697 7.29295C18.2375 7.76463 18.1463 8.1474 17.8892 8.55346C17.564 9.06574 17.0447 9.42398 16.4502 9.54599C15.8178 9.6821 15.1573 9.55015 14.6257 9.18145C12.8922 7.98662 13.5285 5.42998 15.6859 5.03007Z" fill="white"/>
<path d="M19.287 8.8358C20.341 8.80043 21.5702 8.82824 22.637 8.82804L28.9568 8.82723L35.0509 8.82713C36.069 8.82718 37.9498 8.7338 38.8441 8.92792C39.5886 9.08946 39.9885 10.6894 38.5761 11.1061C34.9362 11.1631 31.138 11.1083 27.4873 11.1084L22.287 11.1086C21.3987 11.1087 20.5113 11.1106 19.623 11.1041C19.0527 11.0999 18.5837 10.9499 18.3877 10.3526C18.2904 10.0566 18.316 9.73384 18.4588 9.45679C18.6433 9.10077 18.9296 8.96025 19.287 8.8358Z" fill="white"/>
<path d="M19.2982 40.2982C20.4174 40.2678 21.6782 40.2942 22.8067 40.2942L29.6662 40.2932L35.295 40.2927C36.1643 40.2927 38.1472 40.1967 38.8663 40.3992C39.6509 40.6205 39.9432 42.1933 38.539 42.5668C35.0894 42.645 31.3344 42.5714 27.8638 42.5719H22.439C21.6267 42.5719 19.5914 42.6729 18.9482 42.4648C18.1146 42.1953 17.9751 40.6819 19.2982 40.2982Z" fill="white"/>
</svg>
