<svg width="142" height="42" viewBox="0 0 142 42" fill="none" xmlns="http://www.w3.org/2000/svg">
<path d="M62.8589 11C62.7645 11 62.7173 10.945 62.7173 10.8349V2.41327C62.7173 2.35822 62.7291 2.31891 62.7527 2.29532C62.7763 2.26386 62.8195 2.24814 62.8825 2.24814H63.6609C63.7867 2.24814 63.8496 2.30711 63.8496 2.42506V9.99743C63.8496 10.0682 63.885 10.1036 63.9558 10.1036H67.5651C67.6358 10.1036 67.6712 10.0643 67.6712 9.98563V2.42506C67.6712 2.30711 67.738 2.24814 67.8717 2.24814H68.6384C68.7013 2.24814 68.7445 2.26386 68.7681 2.29532C68.7917 2.31891 68.8035 2.35822 68.8035 2.41327V10.8349C68.8035 10.945 68.7603 11 68.6738 11H62.8589ZM69.0748 12.6395C68.9411 12.6395 68.8743 12.5805 68.8743 12.4626V11.1062C68.8743 11.0354 68.8389 11 68.7681 11H68.0958L68.8035 9.98563C68.8035 10.0643 68.8428 10.1036 68.9215 10.1036H69.7353C69.8297 10.1036 69.8769 10.1547 69.8769 10.2569V12.4744C69.8769 12.5294 69.8651 12.5687 69.8415 12.5923C69.8179 12.6238 69.7746 12.6395 69.7117 12.6395H69.0748ZM71.4571 8.26357C71.4571 8.64887 71.5475 9.00272 71.7284 9.32512C71.9171 9.63965 72.1648 9.89127 72.4715 10.08C72.786 10.2687 73.1359 10.3631 73.5212 10.3631C73.9144 10.3631 74.2643 10.2844 74.571 10.1272C74.8777 9.96204 75.1411 9.71435 75.3612 9.38409C75.3927 9.35264 75.4163 9.33691 75.432 9.33691C75.4556 9.32905 75.4871 9.33298 75.5264 9.34871L76.0218 9.5964C76.0925 9.63572 76.1004 9.69076 76.0454 9.76153C75.833 10.0761 75.5971 10.3356 75.3377 10.54C75.086 10.7366 74.803 10.8821 74.4884 10.9764C74.1739 11.0708 73.82 11.1179 73.4269 11.1179C72.845 11.1179 72.3299 10.9843 71.8817 10.7169C71.4335 10.4496 71.0797 10.0761 70.8202 9.5964C70.5607 9.11674 70.431 8.56237 70.431 7.93331C70.431 7.2492 70.5607 6.66339 70.8202 6.17586C71.0875 5.68047 71.4453 5.2991 71.8935 5.03175C72.3496 4.7644 72.8568 4.63072 73.4151 4.63072C73.9891 4.63072 74.4884 4.75653 74.913 5.00816C75.3377 5.25978 75.6679 5.62543 75.9038 6.10509C76.1397 6.58475 76.2577 7.16271 76.2577 7.83895C76.2577 7.89399 76.2498 7.94904 76.2341 8.00408C76.2262 8.05912 76.1751 8.08664 76.0807 8.08664H71.5633C71.5318 8.08664 71.5043 8.1063 71.4807 8.14562C71.465 8.17707 71.4571 8.21639 71.4571 8.26357ZM75.0664 7.43792C75.1529 7.43792 75.2079 7.43006 75.2315 7.41433C75.2551 7.39074 75.2669 7.34356 75.2669 7.27279C75.2669 6.93467 75.1922 6.62014 75.0428 6.32919C74.9012 6.03039 74.6929 5.79056 74.4176 5.6097C74.1503 5.42885 73.824 5.33842 73.4387 5.33842C73.014 5.33842 72.6563 5.44064 72.3653 5.64509C72.0744 5.84167 71.8542 6.10116 71.7048 6.42355C71.5554 6.74595 71.4807 7.08407 71.4807 7.43792H75.0664ZM78.2399 4.902V10.7995C78.2399 10.8781 78.2241 10.9332 78.1927 10.9646C78.1612 10.9882 78.1062 11 78.0276 11H77.426C77.3552 11 77.3081 10.9882 77.2845 10.9646C77.2609 10.941 77.2491 10.8978 77.2491 10.8349V4.9138C77.2491 4.80371 77.2923 4.74867 77.3788 4.74867H78.0983C78.1927 4.74867 78.2399 4.79978 78.2399 4.902ZM82.3799 4.902V10.7995C82.3799 10.8781 82.3642 10.9332 82.3327 10.9646C82.3091 10.9882 82.258 11 82.1794 11H81.566C81.4953 11 81.4481 10.9882 81.4245 10.9646C81.4009 10.941 81.3891 10.8978 81.3891 10.8349V4.9138C81.3891 4.80371 81.4363 4.74867 81.5307 4.74867H82.2501C82.3366 4.74867 82.3799 4.79978 82.3799 4.902ZM77.6619 8.09844C77.5754 8.09844 77.5322 8.05519 77.5322 7.96869V7.47331C77.5322 7.39467 77.5715 7.35536 77.6501 7.35536H81.8845C81.971 7.35536 82.0143 7.39467 82.0143 7.47331V7.96869C82.0143 8.05519 81.971 8.09844 81.8845 8.09844H77.6619ZM88.1899 5.49175H86.2909C86.2202 5.49175 86.1848 5.52321 86.1848 5.58611V10.8821C86.1848 10.9607 86.1455 11 86.0668 11H85.312C85.2333 11 85.194 10.9607 85.194 10.8821V5.6097C85.194 5.53107 85.1586 5.49175 85.0879 5.49175H83.1889C83.1024 5.49175 83.0591 5.4485 83.0591 5.36201V4.86662C83.0591 4.78799 83.0984 4.74867 83.1771 4.74867H88.1899C88.2764 4.74867 88.3197 4.78405 88.3197 4.85482V5.36201C88.3197 5.4485 88.2764 5.49175 88.1899 5.49175ZM89.742 4.74867C89.8521 4.74867 89.9071 4.80764 89.9071 4.92559V5.42098C89.9071 5.48389 89.9189 5.51927 89.9425 5.52714C89.9739 5.52714 90.0133 5.50748 90.0604 5.46816C90.1469 5.3738 90.2649 5.26372 90.4143 5.1379C90.5637 5.00423 90.7563 4.88628 90.9922 4.78405C91.236 4.68183 91.5427 4.63072 91.9123 4.63072C92.3919 4.63072 92.8244 4.74867 93.2097 4.98457C93.6029 5.2126 93.9135 5.55859 94.1415 6.02253C94.3774 6.48646 94.4953 7.07228 94.4953 7.77998C94.4953 8.48767 94.3813 9.08922 94.1533 9.5846C93.9253 10.08 93.6068 10.4614 93.1979 10.7287C92.7969 10.9882 92.3251 11.1179 91.7825 11.1179C91.4208 11.1179 91.0984 11.0629 90.8153 10.9528C90.5401 10.8349 90.3042 10.6933 90.1076 10.5282C90.0369 10.4653 89.9857 10.4417 89.9543 10.4574C89.9307 10.4653 89.9189 10.5125 89.9189 10.599V12.7928C89.9189 12.8951 89.8757 12.9462 89.7892 12.9462H89.0579C88.9714 12.9462 88.9281 12.8951 88.9281 12.7928V4.93739C88.9281 4.86662 88.9399 4.81944 88.9635 4.79585C88.995 4.7644 89.0461 4.74867 89.1168 4.74867H89.742ZM89.9189 9.61999C90.1627 9.85589 90.4104 10.0446 90.662 10.1861C90.9215 10.3277 91.2085 10.3985 91.523 10.3985C91.9005 10.3985 92.2346 10.3002 92.5256 10.1036C92.8244 9.907 93.0564 9.61606 93.2215 9.23076C93.3945 8.84545 93.481 8.36579 93.481 7.79177C93.481 7.21775 93.3945 6.74988 93.2215 6.38817C93.0485 6.02646 92.8165 5.76304 92.5256 5.59791C92.2425 5.43278 91.928 5.35021 91.582 5.35021C91.2596 5.35021 90.9726 5.42098 90.721 5.56252C90.4693 5.70406 90.2728 5.88099 90.1312 6.0933C89.9897 6.29774 89.9189 6.50219 89.9189 6.70663V9.61999ZM66.6922 25.1179C66.5979 25.1179 66.5507 25.0747 66.5507 24.9882V23.8677C66.5507 23.7891 66.5153 23.7537 66.4445 23.7615C65.5403 23.8952 64.7775 23.848 64.1563 23.62C63.543 23.392 63.0751 23.0027 62.7527 22.4523C62.4303 21.9019 62.2691 21.2295 62.2691 20.4353C62.2691 19.9242 62.3556 19.4485 62.5286 19.0082C62.7016 18.5678 62.9611 18.1943 63.3071 17.8876C63.6531 17.581 64.0816 17.3726 64.5927 17.2625C65.1117 17.1446 65.7132 17.1563 66.3974 17.2979C66.4996 17.3136 66.5507 17.2743 66.5507 17.1799V16.1066C66.5507 16.0122 66.5939 15.9651 66.6804 15.9651H67.5651C67.6594 15.9651 67.7066 16.0083 67.7066 16.0948V17.1681C67.7066 17.2704 67.7538 17.3136 67.8481 17.2979C68.5401 17.1563 69.1456 17.1406 69.6646 17.2507C70.1835 17.3608 70.616 17.5692 70.962 17.8758C71.308 18.1825 71.5635 18.56 71.7287 19.0082C71.9017 19.4485 71.9882 19.9242 71.9882 20.4353C71.9882 21.2295 71.827 21.9019 71.5046 22.4523C71.19 23.0027 70.7222 23.392 70.101 23.62C69.4798 23.848 68.717 23.8952 67.8127 23.7615C67.742 23.7537 67.7066 23.7891 67.7066 23.8677V24.9764C67.7066 25.0708 67.6633 25.1179 67.5768 25.1179H66.6922ZM66.4917 22.9595C66.5625 22.9516 66.5979 22.8966 66.5979 22.7943V18.2179C66.5979 18.1629 66.5861 18.1275 66.5625 18.1117C66.5389 18.096 66.5035 18.0842 66.4563 18.0764C65.8115 17.927 65.2572 17.9348 64.7932 18.0999C64.3372 18.2572 63.9872 18.5364 63.7435 18.9374C63.5076 19.3384 63.3896 19.8299 63.3896 20.4118C63.3896 21.0566 63.4997 21.5952 63.7199 22.0277C63.9479 22.4523 64.29 22.7472 64.7461 22.9123C65.2021 23.0696 65.784 23.0853 66.4917 22.9595ZM67.7656 22.9595C68.4733 23.0853 69.0551 23.0696 69.5112 22.9123C69.9673 22.7472 70.3054 22.4523 70.5256 22.0277C70.7536 21.5952 70.8676 21.0566 70.8676 20.4118C70.8676 19.8299 70.7458 19.3384 70.502 18.9374C70.2582 18.5364 69.9083 18.2572 69.4522 18.0999C69.004 17.9348 68.4536 17.927 67.801 18.0764C67.7459 18.0842 67.7066 18.096 67.683 18.1117C67.6594 18.1275 67.6476 18.1629 67.6476 18.2179V22.7943C67.6476 22.8966 67.6869 22.9516 67.7656 22.9595ZM74.2186 18.902V24.7995C74.2186 24.8781 74.2029 24.9332 74.1714 24.9646C74.1478 24.9882 74.0928 25 74.0063 25H73.4401C73.3694 25 73.3222 24.9882 73.2986 24.9646C73.275 24.941 73.2632 24.8978 73.2632 24.8349V18.9138C73.2632 18.8037 73.3065 18.7487 73.393 18.7487H74.0771C74.1714 18.7487 74.2186 18.7998 74.2186 18.902ZM78.512 18.902V24.7995C78.512 24.8781 78.4962 24.9332 78.4648 24.9646C78.4412 24.9882 78.3901 25 78.3115 25H77.7335C77.6627 25 77.6156 24.9882 77.592 24.9646C77.5684 24.941 77.5566 24.8978 77.5566 24.8349V18.9138C77.5566 18.8037 77.6038 18.7487 77.6981 18.7487H78.3822C78.4687 18.7487 78.512 18.7998 78.512 18.902ZM77.5802 18.7958L78.1699 19.2087L74.1832 24.9528L73.5935 24.54L77.5802 18.7958ZM80.9928 18.902V24.7995C80.9928 24.8781 80.9771 24.9332 80.9456 24.9646C80.9142 24.9882 80.8591 25 80.7805 25H80.1789C80.1082 25 80.061 24.9882 80.0374 24.9646C80.0138 24.941 80.002 24.8978 80.002 24.8349V18.9138C80.002 18.8037 80.0453 18.7487 80.1318 18.7487H80.8512C80.9456 18.7487 80.9928 18.7998 80.9928 18.902ZM85.1328 18.902V24.7995C85.1328 24.8781 85.1171 24.9332 85.0856 24.9646C85.0621 24.9882 85.0109 25 84.9323 25H84.319C84.2482 25 84.201 24.9882 84.1774 24.9646C84.1538 24.941 84.142 24.8978 84.142 24.8349V18.9138C84.142 18.8037 84.1892 18.7487 84.2836 18.7487H85.0031C85.0896 18.7487 85.1328 18.7998 85.1328 18.902ZM80.4148 22.0984C80.3283 22.0984 80.2851 22.0552 80.2851 21.9687V21.4733C80.2851 21.3947 80.3244 21.3554 80.403 21.3554H84.6374C84.7239 21.3554 84.7672 21.3947 84.7672 21.4733V21.9687C84.7672 22.0552 84.7239 22.0984 84.6374 22.0984H80.4148ZM90.1408 24.2451C89.8499 24.5282 89.5314 24.7444 89.1854 24.8938C88.8473 25.0432 88.4698 25.1179 88.0531 25.1179C87.4397 25.1179 86.9562 24.9607 86.6023 24.6462C86.2485 24.3316 86.0715 23.9188 86.0715 23.4077C86.0715 22.9909 86.1895 22.6331 86.4254 22.3343C86.6691 22.0277 87.0191 21.7878 87.4751 21.6148C87.9391 21.434 88.5092 21.3239 89.1854 21.2846L90.1054 21.2138C90.1605 21.206 90.2037 21.1902 90.2352 21.1666C90.2745 21.143 90.2941 21.0998 90.2941 21.0369V20.7184C90.2941 20.2938 90.1644 19.9596 89.9049 19.7159C89.6454 19.4642 89.2876 19.3384 88.8316 19.3384C88.4934 19.3384 88.1828 19.4171 87.8998 19.5743C87.6167 19.7316 87.365 19.9675 87.1449 20.282C87.1213 20.3213 87.0977 20.3489 87.0741 20.3646C87.0505 20.3724 87.0151 20.3685 86.968 20.3528L86.3428 20.1405C86.3114 20.1247 86.2917 20.1051 86.2838 20.0815C86.276 20.0579 86.2878 20.0147 86.3192 19.9518C86.5473 19.5429 86.8775 19.2205 87.31 18.9846C87.7425 18.7487 88.2654 18.6307 88.8787 18.6307C89.4056 18.6307 89.842 18.7133 90.188 18.8784C90.5418 19.0357 90.8092 19.2676 90.99 19.5743C91.1709 19.8731 91.2613 20.2309 91.2613 20.6477V24.8231C91.2613 24.8938 91.2456 24.941 91.2141 24.9646C91.1905 24.9882 91.1512 25 91.0962 25H90.4946C90.4475 25 90.4081 24.9843 90.3767 24.9528C90.3531 24.9135 90.3413 24.8663 90.3413 24.8113L90.3177 24.2687C90.302 24.1586 90.243 24.1508 90.1408 24.2451ZM90.2941 22.0041C90.2941 21.8704 90.2391 21.8075 90.129 21.8154L89.3505 21.8861C88.9888 21.9019 88.6664 21.949 88.3833 22.0277C88.1003 22.0984 87.8604 22.1928 87.6639 22.3107C87.4673 22.4287 87.3179 22.5702 87.2156 22.7354C87.1134 22.8926 87.0623 23.0774 87.0623 23.2897C87.0623 23.6357 87.1803 23.907 87.4162 24.1036C87.6599 24.2923 87.9862 24.3867 88.3951 24.3867C88.6468 24.3867 88.8866 24.3434 89.1146 24.2569C89.3505 24.1626 89.5589 24.0446 89.7398 23.9031C89.9128 23.7537 90.0464 23.6003 90.1408 23.4431C90.243 23.2858 90.2941 23.1325 90.2941 22.9831V22.0041ZM93.595 18.902V24.7995C93.595 24.8781 93.5792 24.9332 93.5478 24.9646C93.5163 24.9882 93.4613 25 93.3827 25H92.7811C92.7103 25 92.6632 24.9882 92.6396 24.9646C92.616 24.941 92.6042 24.8978 92.6042 24.8349V18.9138C92.6042 18.8037 92.6474 18.7487 92.7339 18.7487H93.4534C93.5478 18.7487 93.595 18.7998 93.595 18.902ZM97.735 18.902V24.7995C97.735 24.8781 97.7193 24.9332 97.6878 24.9646C97.6642 24.9882 97.6131 25 97.5345 25H96.9211C96.8504 25 96.8032 24.9882 96.7796 24.9646C96.756 24.941 96.7442 24.8978 96.7442 24.8349V18.9138C96.7442 18.8037 96.7914 18.7487 96.8858 18.7487H97.6053C97.6918 18.7487 97.735 18.7998 97.735 18.902ZM93.017 22.0984C92.9305 22.0984 92.8873 22.0552 92.8873 21.9687V21.4733C92.8873 21.3947 92.9266 21.3554 93.0052 21.3554H97.2396C97.3261 21.3554 97.3694 21.3947 97.3694 21.4733V21.9687C97.3694 22.0552 97.3261 22.0984 97.2396 22.0984H93.017ZM101.74 18.6307C102.149 18.6307 102.507 18.6976 102.814 18.8312C103.128 18.957 103.396 19.134 103.616 19.362C103.844 19.5822 104.033 19.8259 104.182 20.0933C104.229 20.1877 104.209 20.2466 104.123 20.2702L103.474 20.4236C103.419 20.4471 103.368 20.4236 103.321 20.3528C103.164 20.1247 103.006 19.94 102.849 19.7984C102.7 19.6569 102.539 19.5507 102.366 19.48C102.193 19.4013 102.004 19.362 101.799 19.362C101.398 19.362 101.045 19.4642 100.738 19.6687C100.439 19.8653 100.207 20.1523 100.042 20.5297C99.8768 20.9071 99.7942 21.3554 99.7942 21.8743C99.7942 22.4012 99.8768 22.8533 100.042 23.2308C100.215 23.6082 100.451 23.8952 100.75 24.0918C101.056 24.2884 101.414 24.3867 101.823 24.3867C102.2 24.3867 102.527 24.2923 102.802 24.1036C103.077 23.9149 103.329 23.6396 103.557 23.2779C103.58 23.2386 103.6 23.219 103.616 23.219C103.639 23.2111 103.671 23.215 103.71 23.2308L104.217 23.4195C104.272 23.4431 104.288 23.4942 104.265 23.5728C104.147 23.7773 104.009 23.9738 103.852 24.1626C103.694 24.3513 103.51 24.5164 103.297 24.6579C103.093 24.7995 102.861 24.9135 102.601 25C102.342 25.0786 102.055 25.1179 101.74 25.1179C101.159 25.1179 100.643 24.9843 100.195 24.7169C99.7549 24.4417 99.4089 24.0643 99.1573 23.5846C98.9057 23.0971 98.7799 22.5349 98.7799 21.8979C98.7799 21.2531 98.9057 20.687 99.1573 20.1995C99.4168 19.7119 99.7667 19.3306 100.207 19.0553C100.655 18.7723 101.166 18.6307 101.74 18.6307ZM107.685 25.1179C107.095 25.1179 106.572 24.9843 106.116 24.7169C105.668 24.4417 105.318 24.0643 105.066 23.5846C104.823 23.0971 104.701 22.5388 104.701 21.9097C104.701 21.2571 104.827 20.687 105.078 20.1995C105.338 19.7041 105.692 19.3188 106.14 19.0435C106.588 18.7683 107.107 18.6307 107.697 18.6307C108.294 18.6307 108.813 18.7723 109.254 19.0553C109.702 19.3306 110.048 19.7159 110.292 20.2112C110.543 20.6988 110.669 21.261 110.669 21.8979C110.669 22.527 110.543 23.0853 110.292 23.5728C110.04 24.0525 109.69 24.4299 109.242 24.7051C108.802 24.9803 108.283 25.1179 107.685 25.1179ZM107.709 24.3749C108.117 24.3749 108.467 24.2766 108.758 24.08C109.049 23.8755 109.269 23.5885 109.419 23.219C109.576 22.8415 109.655 22.3933 109.655 21.8743C109.655 21.3554 109.576 20.9111 109.419 20.5415C109.262 20.1641 109.037 19.8731 108.747 19.6687C108.456 19.4642 108.106 19.362 107.697 19.362C107.296 19.362 106.946 19.4642 106.647 19.6687C106.348 19.8731 106.116 20.1641 105.951 20.5415C105.794 20.9111 105.715 21.3554 105.715 21.8743C105.715 22.3854 105.794 22.8297 105.951 23.2072C106.116 23.5846 106.348 23.8755 106.647 24.08C106.946 24.2766 107.3 24.3749 107.709 24.3749ZM111.726 25V18.7487H114.392C115.147 18.7487 115.713 18.8863 116.09 19.1615C116.468 19.4367 116.657 19.8377 116.657 20.3646C116.657 20.6948 116.59 20.974 116.456 21.202C116.322 21.4222 116.083 21.5991 115.737 21.7328C115.705 21.7407 115.689 21.7603 115.689 21.7918C115.689 21.8154 115.705 21.8311 115.737 21.8389C116.083 21.9333 116.354 22.1102 116.55 22.3697C116.755 22.6213 116.857 22.928 116.857 23.2897C116.857 23.8638 116.661 24.2923 116.267 24.5754C115.874 24.8585 115.3 25 114.545 25H111.726ZM114.463 24.3159C114.982 24.3159 115.355 24.2333 115.583 24.0682C115.811 23.8952 115.925 23.6239 115.925 23.2543C115.925 22.8769 115.788 22.6056 115.512 22.4405C115.245 22.2675 114.848 22.181 114.321 22.181H112.67V24.3159H114.463ZM114.274 21.5441C114.557 21.5441 114.809 21.5126 115.029 21.4497C115.249 21.3789 115.422 21.2649 115.548 21.1077C115.682 20.9504 115.748 20.7302 115.748 20.4471C115.748 20.109 115.627 19.8613 115.383 19.7041C115.147 19.5468 114.801 19.4682 114.345 19.4682H112.67V21.5441H114.274ZM120.379 25.1179C119.79 25.1179 119.267 24.9843 118.811 24.7169C118.362 24.4417 118.012 24.0643 117.761 23.5846C117.517 23.0971 117.395 22.5388 117.395 21.9097C117.395 21.2571 117.521 20.687 117.773 20.1995C118.032 19.7041 118.386 19.3188 118.834 19.0435C119.282 18.7683 119.801 18.6307 120.391 18.6307C120.989 18.6307 121.508 18.7723 121.948 19.0553C122.396 19.3306 122.742 19.7159 122.986 20.2112C123.238 20.6988 123.363 21.261 123.363 21.8979C123.363 22.527 123.238 23.0853 122.986 23.5728C122.734 24.0525 122.384 24.4299 121.936 24.7051C121.496 24.9803 120.977 25.1179 120.379 25.1179ZM120.403 24.3749C120.812 24.3749 121.162 24.2766 121.453 24.08C121.744 23.8755 121.964 23.5885 122.113 23.219C122.27 22.8415 122.349 22.3933 122.349 21.8743C122.349 21.3554 122.27 20.9111 122.113 20.5415C121.956 20.1641 121.732 19.8731 121.441 19.6687C121.15 19.4642 120.8 19.362 120.391 19.362C119.99 19.362 119.64 19.4642 119.341 19.6687C119.043 19.8731 118.811 20.1641 118.645 20.5415C118.488 20.9111 118.41 21.3554 118.41 21.8743C118.41 22.3854 118.488 22.8297 118.645 23.2072C118.811 23.5846 119.043 23.8755 119.341 24.08C119.64 24.2766 119.994 24.3749 120.403 24.3749ZM124.527 25C124.456 25 124.421 24.9607 124.421 24.8821V18.8666C124.421 18.788 124.46 18.7487 124.539 18.7487H128.289C128.376 18.7487 128.419 18.788 128.419 18.8666V19.362C128.419 19.4485 128.376 19.4918 128.289 19.4918H125.506C125.443 19.4918 125.411 19.5232 125.411 19.5861V24.8821C125.411 24.9607 125.368 25 125.282 25H124.527ZM131.645 25.1179C131.056 25.1179 130.533 24.9843 130.077 24.7169C129.628 24.4417 129.278 24.0643 129.027 23.5846C128.783 23.0971 128.661 22.5388 128.661 21.9097C128.661 21.2571 128.787 20.687 129.039 20.1995C129.298 19.7041 129.652 19.3188 130.1 19.0435C130.548 18.7683 131.067 18.6307 131.657 18.6307C132.255 18.6307 132.774 18.7723 133.214 19.0553C133.662 19.3306 134.008 19.7159 134.252 20.2112C134.504 20.6988 134.629 21.261 134.629 21.8979C134.629 22.527 134.504 23.0853 134.252 23.5728C134 24.0525 133.65 24.4299 133.202 24.7051C132.762 24.9803 132.243 25.1179 131.645 25.1179ZM131.669 24.3749C132.078 24.3749 132.428 24.2766 132.719 24.08C133.01 23.8755 133.23 23.5885 133.379 23.219C133.536 22.8415 133.615 22.3933 133.615 21.8743C133.615 21.3554 133.536 20.9111 133.379 20.5415C133.222 20.1641 132.998 19.8731 132.707 19.6687C132.416 19.4642 132.066 19.362 131.657 19.362C131.256 19.362 130.906 19.4642 130.607 19.6687C130.309 19.8731 130.077 20.1641 129.911 20.5415C129.754 20.9111 129.676 21.3554 129.676 21.8743C129.676 22.3854 129.754 22.8297 129.911 23.2072C130.077 23.5846 130.309 23.8755 130.607 24.08C130.906 24.2766 131.26 24.3749 131.669 24.3749ZM66.0081 39.1179C65.2375 39.1179 64.5691 38.945 64.003 38.599C63.4447 38.253 63.0161 37.7497 62.7173 37.0892C62.4185 36.4208 62.2691 35.6109 62.2691 34.6595C62.2691 33.7001 62.4224 32.8823 62.7291 32.2061C63.0358 31.5299 63.4683 31.0148 64.0266 30.661C64.5849 30.3071 65.2493 30.1302 66.0199 30.1302C66.7905 30.1302 67.451 30.3071 68.0015 30.661C68.5598 31.0148 68.9883 31.5259 69.2871 32.1943C69.5938 32.8627 69.7471 33.6805 69.7471 34.6477C69.7471 35.5991 69.5977 36.409 69.2989 37.0774C69.0001 37.7379 68.5676 38.2451 68.0015 38.599C67.4432 38.945 66.7787 39.1179 66.0081 39.1179ZM66.0317 38.2569C66.8809 38.2569 67.5139 37.966 67.9307 37.3841C68.3553 36.7943 68.5676 35.8861 68.5676 34.6595C68.5676 33.4092 68.3514 32.4852 67.9189 31.8876C67.4943 31.29 66.8613 30.9912 66.0199 30.9912C65.1707 30.9912 64.5298 31.294 64.0973 31.8994C63.6649 32.497 63.4486 33.4171 63.4486 34.6595C63.4486 35.8783 63.6649 36.7825 64.0973 37.3723C64.5298 37.962 65.1746 38.2569 66.0317 38.2569ZM73.1402 39.1062C72.692 39.1062 72.2988 39.0511 71.9607 38.941C71.6226 38.8231 71.3356 38.6501 71.0997 38.422C70.8638 38.194 70.6672 37.9149 70.5099 37.5846C70.4785 37.4981 70.5021 37.4391 70.5807 37.4077L71.0525 37.2308C71.1233 37.2072 71.1783 37.2308 71.2176 37.3015C71.4299 37.6711 71.6776 37.9463 71.9607 38.1272C72.2516 38.308 72.6252 38.3985 73.0812 38.3985C73.6081 38.3985 74.0091 38.2923 74.2843 38.08C74.5674 37.8677 74.7089 37.5728 74.7089 37.1954C74.7089 36.8572 74.5988 36.5978 74.3787 36.4169C74.1664 36.236 73.8676 36.1456 73.4823 36.1456H72.4797V35.5087H73.4469C73.7535 35.5087 74.013 35.4143 74.2253 35.2256C74.4376 35.029 74.5438 34.7656 74.5438 34.4353C74.5438 34.113 74.4219 33.8535 74.1782 33.6569C73.9423 33.4603 73.6002 33.362 73.152 33.362C72.7824 33.362 72.464 33.4367 72.1966 33.5861C71.9371 33.7277 71.7012 33.9793 71.4889 34.341C71.4575 34.4275 71.4142 34.4589 71.3592 34.4353L70.6751 34.2584C70.6515 34.2427 70.6357 34.223 70.6279 34.1995C70.62 34.1759 70.6239 34.1365 70.6397 34.0815C70.8598 33.6333 71.1783 33.2794 71.5951 33.02C72.0197 32.7605 72.5544 32.6307 73.1992 32.6307C73.9462 32.6307 74.5163 32.7958 74.9094 33.1261C75.3105 33.4485 75.5071 33.8574 75.4992 34.3528C75.4992 34.6595 75.4363 34.9189 75.3105 35.1313C75.1847 35.3436 74.9841 35.5166 74.7089 35.6502C74.6617 35.6738 74.6342 35.7013 74.6264 35.7328C74.6264 35.7564 74.6539 35.776 74.7089 35.7918C75.0077 35.894 75.2476 36.067 75.4284 36.3107C75.6093 36.5466 75.6997 36.8572 75.6997 37.2426C75.6997 37.6043 75.5975 37.9267 75.393 38.2097C75.1886 38.485 74.8937 38.7051 74.5084 38.8703C74.131 39.0275 73.6749 39.1062 73.1402 39.1062ZM76.2014 40.5687C76.1542 40.5687 76.1188 40.5569 76.0952 40.5333C76.0716 40.5098 76.0598 40.4783 76.0598 40.439V38.3867C76.0598 38.3002 76.0991 38.2569 76.1778 38.2569H80.5419C80.5891 38.2569 80.6127 38.2294 80.6127 38.1744V33.5625C80.6127 33.5153 80.5852 33.4918 80.5301 33.4918H78.3598C78.3048 33.4918 78.2773 33.5153 78.2773 33.5625L77.4752 32.8666C77.4752 32.788 77.5145 32.7487 77.5932 32.7487H81.4029C81.4658 32.7487 81.5052 32.7565 81.5209 32.7723C81.5366 32.788 81.5445 32.8234 81.5445 32.8784V38.1508C81.5445 38.2215 81.5759 38.2569 81.6388 38.2569H82.264C82.3426 38.2569 82.3819 38.3002 82.3819 38.3867V40.439C82.3819 40.4783 82.3701 40.5098 82.3465 40.5333C82.3308 40.5569 82.2954 40.5687 82.2404 40.5687H81.6624C81.5523 40.5687 81.4973 40.5216 81.4973 40.4272V39.0826C81.4973 39.0275 81.4658 39 81.4029 39H77.0388C76.9759 39 76.9444 39.0275 76.9444 39.0826V40.4272C76.9444 40.5216 76.8894 40.5687 76.7793 40.5687H76.2014ZM76.4491 38.7287L76.4019 38.2569C76.6614 38.2569 76.8697 38.0957 77.027 37.7733C77.1921 37.4509 77.3062 36.987 77.3691 36.3815C77.4398 35.7682 77.4752 35.029 77.4752 34.1641V32.8666H78.2773V34.1877C78.2773 34.8796 78.2419 35.5126 78.1711 36.0866C78.1082 36.6607 78.006 37.1482 77.8645 37.5492C77.7229 37.9502 77.5342 38.253 77.2983 38.4574C77.0624 38.6619 76.7793 38.7523 76.4491 38.7287ZM85.6717 39.1179C85.082 39.1179 84.559 38.9843 84.103 38.7169C83.6548 38.4417 83.3048 38.0643 83.0532 37.5846C82.8095 37.0971 82.6876 36.5388 82.6876 35.9097C82.6876 35.2571 82.8134 34.687 83.065 34.1995C83.3245 33.7041 83.6784 33.3188 84.1266 33.0435C84.5748 32.7683 85.0937 32.6307 85.6835 32.6307C86.2811 32.6307 86.8001 32.7723 87.2404 33.0553C87.6886 33.3306 88.0346 33.7159 88.2784 34.2112C88.53 34.6988 88.6558 35.261 88.6558 35.8979C88.6558 36.527 88.53 37.0853 88.2784 37.5728C88.0268 38.0525 87.6768 38.4299 87.2286 38.7051C86.7883 38.9803 86.2693 39.1179 85.6717 39.1179ZM85.6953 38.3749C86.1042 38.3749 86.4541 38.2766 86.745 38.08C87.036 37.8755 87.2562 37.5885 87.4056 37.219C87.5628 36.8415 87.6415 36.3933 87.6415 35.8743C87.6415 35.3554 87.5628 34.9111 87.4056 34.5415C87.2483 34.1641 87.0242 33.8731 86.7332 33.6687C86.4423 33.4642 86.0924 33.362 85.6835 33.362C85.2825 33.362 84.9326 33.4642 84.6337 33.6687C84.3349 33.8731 84.103 34.1641 83.9378 34.5415C83.7806 34.9111 83.7019 35.3554 83.7019 35.8743C83.7019 36.3854 83.7806 36.8297 83.9378 37.2072C84.103 37.5846 84.3349 37.8755 84.6337 38.08C84.9326 38.2766 85.2864 38.3749 85.6953 38.3749ZM90.4561 32.7487C90.5662 32.7487 90.6213 32.8076 90.6213 32.9256V33.421C90.6213 33.4839 90.6331 33.5193 90.6566 33.5271C90.6881 33.5271 90.7274 33.5075 90.7746 33.4682C90.8611 33.3738 90.979 33.2637 91.1284 33.1379C91.2778 33.0042 91.4705 32.8863 91.7064 32.7841C91.9502 32.6818 92.2568 32.6307 92.6264 32.6307C93.1061 32.6307 93.5385 32.7487 93.9238 32.9846C94.317 33.2126 94.6276 33.5586 94.8556 34.0225C95.0915 34.4865 95.2095 35.0723 95.2095 35.78C95.2095 36.4877 95.0955 37.0892 94.8674 37.5846C94.6394 38.08 94.3209 38.4614 93.9121 38.7287C93.511 38.9882 93.0392 39.1179 92.4967 39.1179C92.1349 39.1179 91.8125 39.0629 91.5295 38.9528C91.2543 38.8349 91.0184 38.6933 90.8218 38.5282C90.751 38.4653 90.6999 38.4417 90.6684 38.4574C90.6448 38.4653 90.6331 38.5125 90.6331 38.599V40.7928C90.6331 40.8951 90.5898 40.9462 90.5033 40.9462H89.772C89.6855 40.9462 89.6423 40.8951 89.6423 40.7928V32.9374C89.6423 32.8666 89.6541 32.8194 89.6777 32.7958C89.7091 32.7644 89.7602 32.7487 89.831 32.7487H90.4561ZM90.6331 37.62C90.8768 37.8559 91.1245 38.0446 91.3761 38.1861C91.6356 38.3277 91.9226 38.3985 92.2372 38.3985C92.6146 38.3985 92.9488 38.3002 93.2397 38.1036C93.5385 37.907 93.7705 37.6161 93.9356 37.2308C94.1086 36.8455 94.1951 36.3658 94.1951 35.7918C94.1951 35.2177 94.1086 34.7499 93.9356 34.3882C93.7626 34.0265 93.5307 33.763 93.2397 33.5979C92.9567 33.4328 92.6421 33.3502 92.2961 33.3502C91.9737 33.3502 91.6867 33.421 91.4351 33.5625C91.1835 33.7041 90.9869 33.881 90.8454 34.0933C90.7038 34.2977 90.6331 34.5022 90.6331 34.7066V37.62ZM98.8268 39.1179C98.237 39.1179 97.7141 38.9843 97.258 38.7169C96.8098 38.4417 96.4599 38.0643 96.2083 37.5846C95.9645 37.0971 95.8426 36.5388 95.8426 35.9097C95.8426 35.2571 95.9685 34.687 96.2201 34.1995C96.4796 33.7041 96.8334 33.3188 97.2816 33.0435C97.7298 32.7683 98.2488 32.6307 98.8386 32.6307C99.4362 32.6307 99.9552 32.7723 100.396 33.0553C100.844 33.3306 101.19 33.7159 101.433 34.2112C101.685 34.6988 101.811 35.261 101.811 35.8979C101.811 36.527 101.685 37.0853 101.433 37.5728C101.182 38.0525 100.832 38.4299 100.384 38.7051C99.9434 38.9803 99.4244 39.1179 98.8268 39.1179ZM98.8504 38.3749C99.2593 38.3749 99.6092 38.2766 99.9001 38.08C100.191 37.8755 100.411 37.5885 100.561 37.219C100.718 36.8415 100.797 36.3933 100.797 35.8743C100.797 35.3554 100.718 34.9111 100.561 34.5415C100.403 34.1641 100.179 33.8731 99.8883 33.6687C99.5974 33.4642 99.2475 33.362 98.8386 33.362C98.4375 33.362 98.0876 33.4642 97.7888 33.6687C97.49 33.8731 97.258 34.1641 97.0929 34.5415C96.9356 34.9111 96.857 35.3554 96.857 35.8743C96.857 36.3854 96.9356 36.8297 97.0929 37.2072C97.258 37.5846 97.49 37.8755 97.7888 38.08C98.0876 38.2766 98.4415 38.3749 98.8504 38.3749ZM102.868 39V32.7487H105.534C106.289 32.7487 106.855 32.8863 107.232 33.1615C107.61 33.4367 107.798 33.8377 107.798 34.3646C107.798 34.6948 107.732 34.974 107.598 35.202C107.464 35.4222 107.224 35.5991 106.878 35.7328C106.847 35.7407 106.831 35.7603 106.831 35.7918C106.831 35.8154 106.847 35.8311 106.878 35.8389C107.224 35.9333 107.496 36.1102 107.692 36.3697C107.897 36.6213 107.999 36.928 107.999 37.2897C107.999 37.8638 107.802 38.2923 107.409 38.5754C107.016 38.8585 106.442 39 105.687 39H102.868ZM105.605 38.3159C106.124 38.3159 106.497 38.2333 106.725 38.0682C106.953 37.8952 107.067 37.6239 107.067 37.2543C107.067 36.8769 106.93 36.6056 106.654 36.4405C106.387 36.2675 105.99 36.181 105.463 36.181H103.812V38.3159H105.605ZM105.416 35.5441C105.699 35.5441 105.951 35.5126 106.171 35.4497C106.391 35.3789 106.564 35.2649 106.69 35.1077C106.823 34.9504 106.89 34.7302 106.89 34.4471C106.89 34.109 106.768 33.8613 106.525 33.7041C106.289 33.5468 105.943 33.4682 105.487 33.4682H103.812V35.5441H105.416ZM108.325 39C108.254 38.9843 108.222 38.945 108.23 38.8821L108.301 38.2805C108.309 38.2176 108.344 38.1861 108.407 38.1861C108.682 38.2019 108.91 38.1193 109.091 37.9385C109.28 37.7497 109.429 37.4784 109.54 37.1246C109.657 36.7629 109.74 36.3343 109.787 35.8389C109.842 35.3436 109.87 34.7931 109.87 34.1877V32.7487H114.01V39H113.019V33.4682H110.672V34.3292C110.672 35.0369 110.629 35.6935 110.542 36.299C110.456 36.8966 110.322 37.4077 110.141 37.8323C109.96 38.2569 109.72 38.5754 109.422 38.7877C109.123 38.9921 108.757 39.0629 108.325 39ZM116.072 36.2636C116.072 36.6489 116.162 37.0027 116.343 37.3251C116.532 37.6396 116.779 37.8913 117.086 38.08C117.4 38.2687 117.75 38.3631 118.136 38.3631C118.529 38.3631 118.879 38.2844 119.185 38.1272C119.492 37.962 119.756 37.7143 119.976 37.3841C120.007 37.3526 120.031 37.3369 120.046 37.3369C120.07 37.329 120.102 37.333 120.141 37.3487L120.636 37.5964C120.707 37.6357 120.715 37.6908 120.66 37.7615C120.447 38.0761 120.212 38.3356 119.952 38.54C119.7 38.7366 119.417 38.8821 119.103 38.9764C118.788 39.0708 118.434 39.1179 118.041 39.1179C117.459 39.1179 116.944 38.9843 116.496 38.7169C116.048 38.4496 115.694 38.0761 115.435 37.5964C115.175 37.1167 115.045 36.5624 115.045 35.9333C115.045 35.2492 115.175 34.6634 115.435 34.1759C115.702 33.6805 116.06 33.2991 116.508 33.0317C116.964 32.7644 117.471 32.6307 118.03 32.6307C118.604 32.6307 119.103 32.7565 119.527 33.0082C119.952 33.2598 120.282 33.6254 120.518 34.1051C120.754 34.5848 120.872 35.1627 120.872 35.8389C120.872 35.894 120.864 35.949 120.849 36.0041C120.841 36.0591 120.79 36.0866 120.695 36.0866H116.178C116.146 36.0866 116.119 36.1063 116.095 36.1456C116.079 36.1771 116.072 36.2164 116.072 36.2636ZM119.681 35.4379C119.767 35.4379 119.822 35.4301 119.846 35.4143C119.87 35.3907 119.881 35.3436 119.881 35.2728C119.881 34.9347 119.807 34.6201 119.657 34.3292C119.516 34.0304 119.307 33.7906 119.032 33.6097C118.765 33.4288 118.438 33.3384 118.053 33.3384C117.628 33.3384 117.271 33.4406 116.98 33.6451C116.689 33.8417 116.469 34.1012 116.319 34.4236C116.17 34.7459 116.095 35.0841 116.095 35.4379H119.681ZM122.854 32.902V38.7995C122.854 38.8781 122.839 38.9332 122.807 38.9646C122.776 38.9882 122.721 39 122.642 39H122.04C121.97 39 121.923 38.9882 121.899 38.9646C121.875 38.941 121.864 38.8978 121.864 38.8349V32.9138C121.864 32.8037 121.907 32.7487 121.993 32.7487H122.713C122.807 32.7487 122.854 32.7998 122.854 32.902ZM126.994 32.902V38.7995C126.994 38.8781 126.979 38.9332 126.947 38.9646C126.924 38.9882 126.872 39 126.794 39H126.18C126.11 39 126.063 38.9882 126.039 38.9646C126.015 38.941 126.004 38.8978 126.004 38.8349V32.9138C126.004 32.8037 126.051 32.7487 126.145 32.7487H126.865C126.951 32.7487 126.994 32.7998 126.994 32.902ZM122.276 36.0984C122.19 36.0984 122.147 36.0552 122.147 35.9687V35.4733C122.147 35.3947 122.186 35.3554 122.265 35.3554H126.499C126.585 35.3554 126.629 35.3947 126.629 35.4733V35.9687C126.629 36.0552 126.585 36.0984 126.499 36.0984H122.276ZM129.431 32.902V38.7995C129.431 38.8781 129.415 38.9332 129.384 38.9646C129.36 38.9882 129.305 39 129.219 39H128.653C128.582 39 128.535 38.9882 128.511 38.9646C128.487 38.941 128.476 38.8978 128.476 38.8349V32.9138C128.476 32.8037 128.519 32.7487 128.605 32.7487H129.289C129.384 32.7487 129.431 32.7998 129.431 32.902ZM133.724 32.902V38.7995C133.724 38.8781 133.709 38.9332 133.677 38.9646C133.654 38.9882 133.603 39 133.524 39H132.946C132.875 39 132.828 38.9882 132.804 38.9646C132.781 38.941 132.769 38.8978 132.769 38.8349V32.9138C132.769 32.8037 132.816 32.7487 132.911 32.7487H133.595C133.681 32.7487 133.724 32.7998 133.724 32.902ZM132.793 32.7958L133.382 33.2087L129.396 38.9528L128.806 38.54L132.793 32.7958ZM138.8 39V36.7354H137.632C137.271 36.7354 136.933 36.6882 136.618 36.5938C136.311 36.4916 136.036 36.354 135.792 36.181C135.556 36.0001 135.372 35.7839 135.238 35.5323C135.104 35.2728 135.037 34.9858 135.037 34.6712C135.037 34.0815 135.238 33.6136 135.639 33.2676C136.048 32.9217 136.63 32.7487 137.385 32.7487H139.755V39H138.8ZM135.002 39C134.931 39 134.888 38.9803 134.872 38.941C134.857 38.8938 134.868 38.8427 134.908 38.7877L136.83 36.3579L137.762 36.7354C137.613 36.7275 137.499 36.7747 137.42 36.8769L135.946 38.8821C135.914 38.9292 135.883 38.9607 135.851 38.9764C135.82 38.9921 135.781 39 135.733 39H135.002ZM137.55 36.0631H138.8V33.4328H137.491C136.98 33.4328 136.602 33.5468 136.359 33.7748C136.115 33.995 135.993 34.3017 135.993 34.6948C135.993 35.0172 136.064 35.2807 136.205 35.4851C136.355 35.6817 136.547 35.8272 136.783 35.9215C137.019 36.0159 137.275 36.0631 137.55 36.0631Z" fill="#057CBF"/>
<path d="M38.7549 10.8924C39.3981 10.8925 41.93 10.824 42.3691 10.9745C44.3328 11.6469 44.5608 14.3775 42.4492 15.288V19.6376L45.0713 24.1913L48.8652 24.1903C48.8724 26.0355 48.1677 27.8122 46.8984 29.1512C45.5786 30.5254 43.7661 31.3185 41.8613 31.3553C39.9437 31.4088 38.0857 30.6864 36.708 29.3524C35.2496 27.95 34.5517 26.1941 34.5195 24.1893H38.3213L40.9443 19.6307V15.2928C39.6981 14.755 39.1928 13.7014 39.5654 12.3846L29.4531 12.3876L29.4541 25.1639L29.4551 30.869C30.1016 30.872 31.1016 30.73 31.6523 31.0956C31.8532 31.229 31.9511 31.4855 31.9785 31.7206C32.043 32.2716 31.6232 32.7621 31.0674 32.7762C30.1918 32.7873 29.3029 32.7826 28.4209 32.7831H23.1777L19.5332 32.7821C18.8823 32.7821 18.238 32.7975 17.5869 32.7616C16.7674 32.7279 16.4667 31.6739 17.0186 31.1424C17.4572 30.721 18.6712 30.8628 19.2734 30.868L19.2764 12.3866L9.26855 12.3856C9.71593 13.6759 9.14631 14.7456 7.94336 15.2762L7.93555 18.0868C7.93512 18.3189 7.92067 19.4964 7.97852 19.6161C8.67143 21.0118 9.78496 22.8614 10.5498 24.1903L14.3301 24.1893C14.3424 25.9935 13.6707 27.7352 12.4512 29.0653C11.1516 30.4618 9.34992 31.2847 7.44336 31.3514C5.52619 31.4219 3.65939 30.7282 2.25293 29.4237C0.741582 28.0025 0.0589055 26.2369 0 24.1903H3.80957C4.57882 22.8588 5.69262 21.0262 6.39551 19.6219C6.4527 19.5065 6.43687 18.3478 6.43652 18.1092L6.43164 15.2801C6.27531 15.2139 6.10563 15.1292 5.96191 15.038C5.45227 14.7193 5.0922 14.2089 4.96289 13.6219C4.83516 13.033 4.94892 12.4169 5.2793 11.913C5.66884 11.3196 6.18196 11.0509 6.84863 10.9032C7.76505 10.8665 8.86391 10.8926 9.79492 10.8924H38.7549ZM25.3066 30.868C26.0428 30.8672 26.8325 30.8823 27.5635 30.8661L27.5625 12.3934L25.3018 12.3924L25.3066 30.868ZM21.1572 30.869L23.4277 30.8671L23.4268 12.3934L21.1553 12.3924L21.1572 30.869ZM7.15332 21.3895C6.632 22.2949 6.086 23.31 5.55078 24.1903L7.24219 24.1893L8.80762 24.1903C8.61025 23.8432 7.32767 21.5176 7.15332 21.3895ZM40.0547 24.1903H43.3301C43.1444 23.8646 41.826 21.5049 41.6602 21.3915L40.0547 24.1903ZM7.15039 12.3749C6.73064 12.386 6.39962 12.7363 6.41309 13.1561C6.42663 13.5758 6.77954 13.9045 7.19922 13.8885C7.61533 13.8726 7.94107 13.5235 7.92773 13.1073C7.91439 12.6911 7.56672 12.3641 7.15039 12.3749ZM41.6289 12.3817C41.3579 12.405 41.1204 12.5733 41.0088 12.8212C40.8968 13.0691 40.9278 13.3584 41.0898 13.577C41.2515 13.7957 41.5193 13.9104 41.7891 13.8758C42.1942 13.8239 42.4839 13.4569 42.4404 13.0506C42.3972 12.6442 42.0364 12.3467 41.6289 12.3817Z" fill="#057CBF"/>
<path d="M13.2117 35.2365C14.5309 35.1702 15.2336 35.918 15.3992 37.1755L33.3549 37.179C33.3921 36.8104 33.4379 36.5504 33.62 36.2174C33.8638 35.7658 34.2828 35.4349 34.7788 35.3019C35.3064 35.1574 35.8704 35.2408 36.3334 35.5324C36.7837 35.8124 37.0996 36.2648 37.2074 36.7839C37.3263 37.3641 37.1659 37.8409 36.8598 38.3214C36.6366 38.5874 36.209 38.9611 35.8793 39.0103C34.9507 39.1492 33.5914 39.0919 32.6336 39.0919L27.1376 39.0907L18.1359 39.0915C16.5984 39.0911 15.0612 39.0924 13.5239 39.0847C12.5744 39.0804 11.8192 38.6139 11.569 37.6561C11.4323 37.1336 11.5198 36.5778 11.8104 36.1224C12.1548 35.5828 12.6085 35.3575 13.2117 35.2365Z" fill="#057CBF"/>
<path d="M13.2154 4.23823C14.4325 4.18483 16.0289 4.23242 17.2686 4.23238L25.3612 4.23225L32.0288 4.23139C33.1704 4.23139 34.3219 4.21857 35.4631 4.2464C36.3174 4.26727 36.9874 4.88593 37.1807 5.70875C37.3064 6.23309 37.2085 6.78607 36.9096 7.23507C36.2567 8.2226 35.0548 8.36083 34.1162 7.6895L34.0658 7.65294C33.5762 7.18932 33.4107 6.8054 33.3757 6.14043L15.3922 6.14471C15.3651 6.5421 15.2882 6.86458 15.0716 7.20668C14.7977 7.63827 14.3601 7.9401 13.8593 8.04289C13.3265 8.15756 12.77 8.04639 12.3222 7.73576C10.8616 6.72912 11.3977 4.57516 13.2154 4.23823Z" fill="#057CBF"/>
<path d="M16.249 7.44416C17.137 7.41436 18.1726 7.43779 19.0714 7.43762L24.3957 7.43693L29.5301 7.43685C30.3878 7.43689 31.9724 7.35822 32.7258 7.52176C33.353 7.65786 33.69 9.00579 32.5 9.35688C29.4334 9.40494 26.2335 9.35871 23.1577 9.35884L18.7765 9.35901C18.0281 9.3591 17.2805 9.36068 16.5321 9.35516C16.0516 9.35162 15.6564 9.22531 15.4914 8.7221C15.4094 8.47265 15.4309 8.20075 15.5513 7.96734C15.7067 7.66739 15.9479 7.549 16.249 7.44416Z" fill="#057CBF"/>
<path d="M16.2587 33.9516C17.2016 33.9259 18.2638 33.9481 19.2146 33.9481L24.9937 33.9473L29.7359 33.9469C30.4683 33.9469 32.1389 33.8661 32.7447 34.0367C33.4058 34.2231 33.6521 35.5481 32.469 35.8628C29.5627 35.9287 26.3991 35.8667 23.4752 35.8671H18.9048C18.2204 35.8671 16.5057 35.9522 15.9638 35.7769C15.2615 35.5498 15.144 34.2748 16.2587 33.9516Z" fill="#057CBF"/>
</svg>
