<svg width="222" height="66" viewBox="0 0 222 66" fill="none" xmlns="http://www.w3.org/2000/svg">
<path d="M98.6308 18C98.4827 18 98.4087 17.9136 98.4087 17.7409V4.52668C98.4087 4.44031 98.4272 4.37862 98.4642 4.34161C98.5012 4.29225 98.5691 4.26758 98.6678 4.26758H99.8893C100.087 4.26758 100.185 4.36011 100.185 4.54519V16.4269C100.185 16.5379 100.241 16.5934 100.352 16.5934H106.015C106.126 16.5934 106.182 16.5318 106.182 16.4084V4.54519C106.182 4.36011 106.287 4.26758 106.496 4.26758H107.699C107.798 4.26758 107.866 4.29225 107.903 4.34161C107.94 4.37862 107.958 4.44031 107.958 4.52668V17.7409C107.958 17.9136 107.891 18 107.755 18H98.6308ZM108.384 20.5725C108.174 20.5725 108.07 20.48 108.07 20.2949V18.1666C108.07 18.0555 108.014 18 107.903 18H106.848L107.958 16.4084C107.958 16.5318 108.02 16.5934 108.144 16.5934H109.421C109.569 16.5934 109.643 16.6736 109.643 16.834V20.3134C109.643 20.3998 109.624 20.4615 109.587 20.4985C109.55 20.5478 109.482 20.5725 109.384 20.5725H108.384ZM112.122 13.7063C112.122 14.3109 112.264 14.8661 112.548 15.372C112.844 15.8655 113.233 16.2603 113.714 16.5564C114.207 16.8525 114.756 17.0006 115.361 17.0006C115.978 17.0006 116.527 16.8772 117.008 16.6305C117.489 16.3714 117.903 15.9827 118.248 15.4645C118.297 15.4151 118.334 15.3905 118.359 15.3905C118.396 15.3781 118.446 15.3843 118.507 15.409L119.285 15.7976C119.396 15.8593 119.408 15.9457 119.322 16.0567C118.988 16.5503 118.618 16.9574 118.211 17.2782C117.816 17.5867 117.372 17.8149 116.879 17.963C116.385 18.111 115.83 18.1851 115.213 18.1851C114.3 18.1851 113.492 17.9753 112.788 17.5558C112.085 17.1363 111.53 16.5503 111.123 15.7976C110.716 15.045 110.512 14.1752 110.512 13.1881C110.512 12.1147 110.716 11.1955 111.123 10.4305C111.542 9.6532 112.104 9.0548 112.807 8.6353C113.523 8.2158 114.318 8.00605 115.194 8.00605C116.095 8.00605 116.879 8.20347 117.545 8.59829C118.211 8.99311 118.729 9.56684 119.099 10.3195C119.47 11.0721 119.655 11.979 119.655 13.04C119.655 13.1264 119.642 13.2128 119.618 13.2991C119.605 13.3855 119.525 13.4287 119.377 13.4287H112.289C112.239 13.4287 112.196 13.4595 112.159 13.5212C112.135 13.5706 112.122 13.6323 112.122 13.7063ZM117.785 12.4108C117.921 12.4108 118.007 12.3985 118.045 12.3738C118.082 12.3368 118.1 12.2627 118.1 12.1517C118.1 11.6211 117.983 11.1276 117.748 10.6711C117.526 10.2023 117.199 9.82594 116.768 9.54216C116.348 9.25838 115.836 9.11649 115.231 9.11649C114.565 9.11649 114.004 9.27689 113.547 9.59768C113.091 9.90614 112.745 10.3133 112.511 10.8192C112.276 11.325 112.159 11.8556 112.159 12.4108H117.785ZM122.765 8.43172V17.6854C122.765 17.8088 122.74 17.8951 122.691 17.9445C122.642 17.9815 122.555 18 122.432 18H121.488C121.377 18 121.303 17.9815 121.266 17.9445C121.229 17.9075 121.21 17.8396 121.21 17.7409V8.45023C121.21 8.27749 121.278 8.19113 121.414 8.19113H122.543C122.691 8.19113 122.765 8.27133 122.765 8.43172ZM129.261 8.43172V17.6854C129.261 17.8088 129.236 17.8951 129.187 17.9445C129.15 17.9815 129.07 18 128.946 18H127.984C127.873 18 127.799 17.9815 127.762 17.9445C127.725 17.9075 127.706 17.8396 127.706 17.7409V8.45023C127.706 8.27749 127.78 8.19113 127.928 8.19113H129.057C129.193 8.19113 129.261 8.27133 129.261 8.43172ZM121.858 13.4472C121.722 13.4472 121.654 13.3793 121.654 13.2436V12.4663C121.654 12.3429 121.716 12.2812 121.84 12.2812H128.484C128.619 12.2812 128.687 12.3429 128.687 12.4663V13.2436C128.687 13.3793 128.619 13.4472 128.484 13.4472H121.858ZM138.377 9.35709H135.398C135.287 9.35709 135.231 9.40644 135.231 9.50515V17.8149C135.231 17.9383 135.169 18 135.046 18H133.862C133.738 18 133.677 17.9383 133.677 17.8149V9.54216C133.677 9.41878 133.621 9.35709 133.51 9.35709H130.53C130.395 9.35709 130.327 9.28923 130.327 9.15351V8.3762C130.327 8.25282 130.388 8.19113 130.512 8.19113H138.377C138.513 8.19113 138.581 8.24665 138.581 8.35769V9.15351C138.581 9.28923 138.513 9.35709 138.377 9.35709ZM140.813 8.19113C140.985 8.19113 141.072 8.28366 141.072 8.46874V9.24604C141.072 9.34475 141.09 9.40027 141.127 9.41261C141.177 9.41261 141.238 9.38176 141.312 9.32007C141.448 9.17201 141.633 8.99928 141.868 8.80187C142.102 8.59212 142.404 8.40705 142.774 8.24665C143.157 8.08625 143.638 8.00605 144.218 8.00605C144.971 8.00605 145.649 8.19113 146.254 8.56127C146.871 8.91908 147.358 9.46196 147.716 10.1899C148.086 10.9179 148.271 11.8371 148.271 12.9475C148.271 14.0579 148.092 15.0018 147.734 15.7791C147.377 16.5564 146.877 17.1548 146.235 17.5743C145.606 17.9815 144.866 18.1851 144.014 18.1851C143.447 18.1851 142.941 18.0987 142.497 17.926C142.065 17.7409 141.695 17.5188 141.386 17.2597C141.275 17.161 141.195 17.124 141.146 17.1487C141.109 17.161 141.09 17.235 141.09 17.3708V20.8131C141.09 20.9735 141.022 21.0537 140.887 21.0537H139.739C139.604 21.0537 139.536 20.9735 139.536 20.8131V8.48724C139.536 8.3762 139.554 8.30217 139.591 8.26516C139.641 8.2158 139.721 8.19113 139.832 8.19113H140.813ZM141.09 15.8346C141.473 16.2048 141.861 16.5009 142.256 16.723C142.663 16.9451 143.114 17.0561 143.607 17.0561C144.2 17.0561 144.724 16.9019 145.18 16.5934C145.649 16.285 146.013 15.8285 146.272 15.2239C146.544 14.6193 146.68 13.8667 146.68 12.966C146.68 12.0653 146.544 11.3312 146.272 10.7636C146.001 10.1961 145.637 9.78276 145.18 9.52365C144.736 9.26455 144.243 9.135 143.7 9.135C143.194 9.135 142.744 9.24604 142.349 9.46813C141.954 9.69022 141.646 9.96783 141.423 10.301C141.201 10.6218 141.09 10.9425 141.09 11.2633V15.8346ZM104.646 40.1851C104.498 40.1851 104.424 40.1172 104.424 39.9815V38.2233C104.424 38.0999 104.368 38.0444 104.257 38.0567C102.838 38.2665 101.641 38.1925 100.667 37.8346C99.7042 37.4768 98.9701 36.8661 98.4642 36.0024C97.9583 35.1387 97.7054 34.0838 97.7054 32.8377C97.7054 32.0357 97.8411 31.2892 98.1126 30.5983C98.384 29.9073 98.7912 29.3213 99.3341 28.8401C99.8769 28.3589 100.549 28.0319 101.351 27.8592C102.166 27.6741 103.11 27.6926 104.183 27.9147C104.343 27.9394 104.424 27.8777 104.424 27.7297V26.0455C104.424 25.8974 104.491 25.8234 104.627 25.8234H106.015C106.163 25.8234 106.237 25.8913 106.237 26.027V27.7111C106.237 27.8715 106.311 27.9394 106.459 27.9147C107.545 27.6926 108.495 27.668 109.309 27.8407C110.124 28.0134 110.802 28.3404 111.345 28.8216C111.888 29.3028 112.289 29.895 112.548 30.5983C112.82 31.2892 112.955 32.0357 112.955 32.8377C112.955 34.0838 112.703 35.1387 112.197 36.0024C111.703 36.8661 110.969 37.4768 109.994 37.8346C109.02 38.1925 107.823 38.2665 106.404 38.0567C106.293 38.0444 106.237 38.0999 106.237 38.2233V39.963C106.237 40.111 106.169 40.1851 106.034 40.1851H104.646ZM104.331 36.7982C104.442 36.7859 104.498 36.6995 104.498 36.5391V29.3583C104.498 29.2719 104.479 29.2164 104.442 29.1917C104.405 29.1671 104.35 29.1485 104.276 29.1362C103.264 28.9018 102.394 28.9141 101.666 29.1732C100.95 29.42 100.401 29.858 100.019 30.4872C99.6487 31.1165 99.4636 31.8876 99.4636 32.8007C99.4636 33.8124 99.6363 34.6576 99.9818 35.3362C100.34 36.0024 100.876 36.4651 101.592 36.7242C102.308 36.971 103.221 36.9956 104.331 36.7982ZM106.33 36.7982C107.44 36.9956 108.353 36.971 109.069 36.7242C109.785 36.4651 110.315 36.0024 110.661 35.3362C111.018 34.6576 111.197 33.8124 111.197 32.8007C111.197 31.8876 111.006 31.1165 110.624 30.4872C110.241 29.858 109.692 29.42 108.976 29.1732C108.273 28.9141 107.409 28.9018 106.385 29.1362C106.299 29.1485 106.237 29.1671 106.2 29.1917C106.163 29.2164 106.145 29.2719 106.145 29.3583V36.5391C106.145 36.6995 106.206 36.7859 106.33 36.7982ZM116.455 30.4317V39.6854C116.455 39.8088 116.431 39.8951 116.381 39.9445C116.344 39.9815 116.258 40 116.122 40H115.234C115.123 40 115.049 39.9815 115.012 39.9445C114.975 39.9075 114.956 39.8396 114.956 39.7409V30.4502C114.956 30.2775 115.024 30.1911 115.16 30.1911H116.233C116.381 30.1911 116.455 30.2713 116.455 30.4317ZM123.192 30.4317V39.6854C123.192 39.8088 123.167 39.8951 123.118 39.9445C123.081 39.9815 123.001 40 122.877 40H121.97C121.859 40 121.785 39.9815 121.748 39.9445C121.711 39.9075 121.693 39.8396 121.693 39.7409V30.4502C121.693 30.2775 121.767 30.1911 121.915 30.1911H122.988C123.124 30.1911 123.192 30.2713 123.192 30.4317ZM121.73 30.2652L122.655 30.9129L116.4 39.926L115.474 39.2782L121.73 30.2652ZM127.084 30.4317V39.6854C127.084 39.8088 127.06 39.8951 127.01 39.9445C126.961 39.9815 126.875 40 126.751 40H125.807C125.696 40 125.622 39.9815 125.585 39.9445C125.548 39.9075 125.53 39.8396 125.53 39.7409V30.4502C125.53 30.2775 125.598 30.1911 125.733 30.1911H126.862C127.01 30.1911 127.084 30.2713 127.084 30.4317ZM133.581 30.4317V39.6854C133.581 39.8088 133.556 39.8951 133.506 39.9445C133.469 39.9815 133.389 40 133.266 40H132.304C132.192 40 132.118 39.9815 132.081 39.9445C132.044 39.9075 132.026 39.8396 132.026 39.7409V30.4502C132.026 30.2775 132.1 30.1911 132.248 30.1911H133.377C133.513 30.1911 133.581 30.2713 133.581 30.4317ZM126.178 35.4472C126.042 35.4472 125.974 35.3793 125.974 35.2436V34.4663C125.974 34.3429 126.036 34.2812 126.159 34.2812H132.803C132.939 34.2812 133.007 34.3429 133.007 34.4663V35.2436C133.007 35.3793 132.939 35.4472 132.803 35.4472H126.178ZM141.438 38.8155C140.982 39.2597 140.482 39.599 139.939 39.8334C139.409 40.0679 138.817 40.1851 138.163 40.1851C137.2 40.1851 136.441 39.9383 135.886 39.4448C135.331 38.9513 135.053 38.3035 135.053 37.5015C135.053 36.8476 135.239 36.2862 135.609 35.8173C135.991 35.3362 136.54 34.9598 137.256 34.6884C137.984 34.4046 138.878 34.2319 139.939 34.1702L141.383 34.0592C141.469 34.0468 141.537 34.0221 141.587 33.9851C141.648 33.9481 141.679 33.8803 141.679 33.7815V33.2818C141.679 32.6156 141.475 32.0912 141.068 31.7087C140.661 31.3139 140.1 31.1165 139.384 31.1165C138.854 31.1165 138.366 31.2399 137.922 31.4866C137.478 31.7334 137.083 32.1035 136.738 32.5971C136.701 32.6588 136.664 32.702 136.627 32.7266C136.59 32.739 136.534 32.7328 136.46 32.7081L135.479 32.375C135.43 32.3503 135.399 32.3195 135.387 32.2825C135.374 32.2454 135.393 32.1776 135.442 32.0789C135.8 31.4373 136.318 30.9314 136.997 30.5613C137.675 30.1911 138.496 30.0061 139.458 30.0061C140.285 30.0061 140.97 30.1356 141.512 30.3947C142.068 30.6415 142.487 31.0054 142.771 31.4866C143.055 31.9555 143.197 32.5169 143.197 33.1708V39.7224C143.197 39.8334 143.172 39.9075 143.123 39.9445C143.086 39.9815 143.024 40 142.938 40H141.994C141.92 40 141.858 39.9753 141.809 39.926C141.772 39.8643 141.753 39.7903 141.753 39.7039L141.716 38.8525C141.691 38.6798 141.599 38.6675 141.438 38.8155ZM141.679 35.2991C141.679 35.0894 141.593 34.9907 141.42 35.003L140.198 35.1141C139.631 35.1387 139.125 35.2128 138.681 35.3362C138.237 35.4472 137.86 35.5953 137.552 35.7803C137.243 35.9654 137.009 36.1875 136.849 36.4466C136.688 36.6934 136.608 36.9833 136.608 37.3164C136.608 37.8593 136.793 38.285 137.163 38.5934C137.546 38.8896 138.058 39.0376 138.699 39.0376C139.094 39.0376 139.471 38.9698 139.828 38.834C140.198 38.686 140.525 38.5009 140.809 38.2788C141.081 38.0444 141.29 37.8038 141.438 37.557C141.599 37.3103 141.679 37.0697 141.679 36.8353V35.2991ZM146.858 30.4317V39.6854C146.858 39.8088 146.834 39.8951 146.784 39.9445C146.735 39.9815 146.649 40 146.525 40H145.581C145.47 40 145.396 39.9815 145.359 39.9445C145.322 39.9075 145.304 39.8396 145.304 39.7409V30.4502C145.304 30.2775 145.372 30.1911 145.507 30.1911H146.636C146.784 30.1911 146.858 30.2713 146.858 30.4317ZM153.354 30.4317V39.6854C153.354 39.8088 153.33 39.8951 153.28 39.9445C153.243 39.9815 153.163 40 153.04 40H152.077C151.966 40 151.892 39.9815 151.855 39.9445C151.818 39.9075 151.8 39.8396 151.8 39.7409V30.4502C151.8 30.2775 151.874 30.1911 152.022 30.1911H153.151C153.287 30.1911 153.354 30.2713 153.354 30.4317ZM145.952 35.4472C145.816 35.4472 145.748 35.3793 145.748 35.2436V34.4663C145.748 34.3429 145.81 34.2812 145.933 34.2812H152.577C152.713 34.2812 152.781 34.3429 152.781 34.4663V35.2436C152.781 35.3793 152.713 35.4472 152.577 35.4472H145.952ZM159.639 30.0061C160.281 30.0061 160.842 30.1109 161.323 30.3207C161.817 30.5181 162.236 30.7957 162.582 31.1535C162.94 31.499 163.236 31.8815 163.47 32.301C163.544 32.449 163.513 32.5416 163.378 32.5786L162.36 32.8192C162.273 32.8562 162.193 32.8192 162.119 32.7081C161.872 32.3503 161.626 32.0604 161.379 31.8383C161.145 31.6162 160.892 31.4496 160.62 31.3386C160.349 31.2152 160.053 31.1535 159.732 31.1535C159.103 31.1535 158.547 31.3139 158.066 31.6347C157.597 31.9432 157.233 32.3935 156.974 32.9857C156.715 33.578 156.586 34.2812 156.586 35.0956C156.586 35.9222 156.715 36.6317 156.974 37.2239C157.246 37.8161 157.616 38.2665 158.085 38.5749C158.566 38.8834 159.127 39.0376 159.769 39.0376C160.361 39.0376 160.873 38.8896 161.305 38.5934C161.737 38.2973 162.132 37.8655 162.489 37.2979C162.526 37.2362 162.557 37.2054 162.582 37.2054C162.619 37.1931 162.668 37.1992 162.73 37.2239L163.526 37.52C163.612 37.557 163.637 37.6372 163.6 37.7606C163.415 38.0814 163.199 38.3899 162.952 38.686C162.705 38.9821 162.415 39.2412 162.082 39.4633C161.761 39.6854 161.397 39.8643 160.99 40C160.583 40.1234 160.133 40.1851 159.639 40.1851C158.726 40.1851 157.918 39.9753 157.215 39.5558C156.524 39.124 155.981 38.5318 155.586 37.7791C155.191 37.0142 154.994 36.132 154.994 35.1326C154.994 34.1208 155.191 33.2325 155.586 32.4675C155.993 31.7026 156.542 31.1042 157.233 30.6723C157.937 30.2281 158.739 30.0061 159.639 30.0061ZM168.967 40.1851C168.041 40.1851 167.221 39.9753 166.505 39.5558C165.802 39.124 165.253 38.5318 164.858 37.7791C164.476 37.0142 164.284 36.1381 164.284 35.1511C164.284 34.127 164.482 33.2325 164.877 32.4675C165.284 31.6902 165.839 31.0856 166.542 30.6538C167.246 30.222 168.06 30.0061 168.985 30.0061C169.923 30.0061 170.737 30.2281 171.428 30.6723C172.132 31.1042 172.674 31.7087 173.057 32.486C173.452 33.251 173.649 34.1332 173.649 35.1326C173.649 36.1196 173.452 36.9956 173.057 37.7606C172.662 38.5132 172.113 39.1055 171.41 39.5373C170.719 39.9692 169.904 40.1851 168.967 40.1851ZM169.004 39.0191C169.645 39.0191 170.194 38.8649 170.651 38.5564C171.107 38.2356 171.453 37.7853 171.687 37.2054C171.934 36.6132 172.058 35.9099 172.058 35.0956C172.058 34.2812 171.934 33.5841 171.687 33.0042C171.441 32.412 171.089 31.9555 170.632 31.6347C170.176 31.3139 169.627 31.1535 168.985 31.1535C168.356 31.1535 167.807 31.3139 167.338 31.6347C166.869 31.9555 166.505 32.412 166.246 33.0042C165.999 33.5841 165.876 34.2812 165.876 35.0956C165.876 35.8975 165.999 36.5947 166.246 37.1869C166.505 37.7791 166.869 38.2356 167.338 38.5564C167.807 38.8649 168.362 39.0191 169.004 39.0191ZM175.308 40V30.1911H179.491C180.675 30.1911 181.563 30.407 182.156 30.8389C182.748 31.2707 183.044 31.9 183.044 32.7266C183.044 33.2448 182.939 33.6828 182.729 34.0406C182.52 34.3861 182.143 34.6637 181.6 34.8735C181.551 34.8858 181.526 34.9167 181.526 34.966C181.526 35.003 181.551 35.0277 181.6 35.04C182.143 35.1881 182.569 35.4657 182.877 35.8729C183.198 36.2677 183.359 36.7489 183.359 37.3164C183.359 38.2171 183.05 38.8896 182.433 39.3337C181.816 39.7779 180.916 40 179.731 40H175.308ZM179.602 38.9266C180.416 38.9266 181.002 38.797 181.36 38.5379C181.718 38.2665 181.897 37.8408 181.897 37.2609C181.897 36.6687 181.681 36.243 181.249 35.9839C180.829 35.7125 180.206 35.5768 179.38 35.5768H176.789V38.9266H179.602ZM179.306 34.5774C179.75 34.5774 180.145 34.528 180.49 34.4293C180.836 34.3183 181.107 34.1394 181.304 33.8926C181.514 33.6458 181.619 33.3004 181.619 32.8562C181.619 32.3256 181.428 31.937 181.045 31.6902C180.675 31.4435 180.132 31.3201 179.417 31.3201H176.789V34.5774H179.306ZM188.885 40.1851C187.96 40.1851 187.139 39.9753 186.424 39.5558C185.721 39.124 185.171 38.5318 184.777 37.7791C184.394 37.0142 184.203 36.1381 184.203 35.1511C184.203 34.127 184.4 33.2325 184.795 32.4675C185.202 31.6902 185.758 31.0856 186.461 30.6538C187.164 30.222 187.978 30.0061 188.904 30.0061C189.841 30.0061 190.656 30.2281 191.347 30.6723C192.05 31.1042 192.593 31.7087 192.975 32.486C193.37 33.251 193.568 34.1332 193.568 35.1326C193.568 36.1196 193.37 36.9956 192.975 37.7606C192.581 38.5132 192.032 39.1055 191.328 39.5373C190.637 39.9692 189.823 40.1851 188.885 40.1851ZM188.922 39.0191C189.564 39.0191 190.113 38.8649 190.569 38.5564C191.026 38.2356 191.371 37.7853 191.606 37.2054C191.853 36.6132 191.976 35.9099 191.976 35.0956C191.976 34.2812 191.853 33.5841 191.606 33.0042C191.359 32.412 191.007 31.9555 190.551 31.6347C190.094 31.3139 189.545 31.1535 188.904 31.1535C188.275 31.1535 187.725 31.3139 187.257 31.6347C186.788 31.9555 186.424 32.412 186.165 33.0042C185.918 33.5841 185.795 34.2812 185.795 35.0956C185.795 35.8975 185.918 36.5947 186.165 37.1869C186.424 37.7791 186.788 38.2356 187.257 38.5564C187.725 38.8649 188.281 39.0191 188.922 39.0191ZM195.393 40C195.282 40 195.226 39.9383 195.226 39.8149V30.3762C195.226 30.2528 195.288 30.1911 195.412 30.1911H201.297C201.433 30.1911 201.5 30.2528 201.5 30.3762V31.1535C201.5 31.2892 201.433 31.3571 201.297 31.3571H196.929C196.83 31.3571 196.781 31.4064 196.781 31.5051V39.8149C196.781 39.9383 196.713 40 196.578 40H195.393ZM206.563 40.1851C205.637 40.1851 204.817 39.9753 204.101 39.5558C203.398 39.124 202.849 38.5318 202.454 37.7791C202.072 37.0142 201.88 36.1381 201.88 35.1511C201.88 34.127 202.078 33.2325 202.473 32.4675C202.88 31.6902 203.435 31.0856 204.138 30.6538C204.841 30.222 205.656 30.0061 206.581 30.0061C207.519 30.0061 208.333 30.2281 209.024 30.6723C209.727 31.1042 210.27 31.7087 210.653 32.486C211.048 33.251 211.245 34.1332 211.245 35.1326C211.245 36.1196 211.048 36.9956 210.653 37.7606C210.258 38.5132 209.709 39.1055 209.006 39.5373C208.315 39.9692 207.5 40.1851 206.563 40.1851ZM206.6 39.0191C207.241 39.0191 207.79 38.8649 208.247 38.5564C208.703 38.2356 209.049 37.7853 209.283 37.2054C209.53 36.6132 209.653 35.9099 209.653 35.0956C209.653 34.2812 209.53 33.5841 209.283 33.0042C209.036 32.412 208.685 31.9555 208.228 31.6347C207.772 31.3139 207.223 31.1535 206.581 31.1535C205.952 31.1535 205.403 31.3139 204.934 31.6347C204.465 31.9555 204.101 32.412 203.842 33.0042C203.595 33.5841 203.472 34.2812 203.472 35.0956C203.472 35.8975 203.595 36.5947 203.842 37.1869C204.101 37.7791 204.465 38.2356 204.934 38.5564C205.403 38.8649 205.958 39.0191 206.6 39.0191ZM103.572 62.1851C102.363 62.1851 101.314 61.9136 100.426 61.3708C99.55 60.8279 98.8775 60.0382 98.4087 59.0018C97.9398 57.9531 97.7054 56.6822 97.7054 55.1893C97.7054 53.684 97.946 52.4009 98.4272 51.3398C98.9084 50.2787 99.587 49.4706 100.463 48.9153C101.339 48.3601 102.382 48.0825 103.591 48.0825C104.8 48.0825 105.836 48.3601 106.7 48.9153C107.576 49.4706 108.248 50.2725 108.717 51.3213C109.198 52.37 109.439 53.6532 109.439 55.1708C109.439 56.6637 109.205 57.9346 108.736 58.9833C108.267 60.0197 107.588 60.8155 106.7 61.3708C105.824 61.9136 104.781 62.1851 103.572 62.1851ZM103.609 60.834C104.942 60.834 105.935 60.3775 106.589 59.4645C107.255 58.5391 107.588 57.1141 107.588 55.1893C107.588 53.2275 107.249 51.7778 106.57 50.8401C105.904 49.9024 104.911 49.4335 103.591 49.4335C102.258 49.4335 101.253 49.9086 100.574 50.8586C99.8954 51.7963 99.5561 53.2399 99.5561 55.1893C99.5561 57.1017 99.8954 58.5206 100.574 59.446C101.253 60.3714 102.264 60.834 103.609 60.834ZM114.763 62.1666C114.06 62.1666 113.443 62.0802 112.912 61.9075C112.382 61.7224 111.931 61.4509 111.561 61.0931C111.191 60.7353 110.883 60.2973 110.636 59.7791C110.587 59.6434 110.624 59.5509 110.747 59.5015L111.487 59.2239C111.598 59.1869 111.685 59.2239 111.746 59.3349C112.08 59.9148 112.468 60.3467 112.912 60.6305C113.369 60.9142 113.955 61.0561 114.671 61.0561C115.497 61.0561 116.126 60.8896 116.558 60.5564C117.002 60.2233 117.225 59.7606 117.225 59.1684C117.225 58.6378 117.052 58.2307 116.706 57.9469C116.373 57.6631 115.904 57.5212 115.3 57.5212H113.727V56.5218H115.244C115.725 56.5218 116.133 56.3738 116.466 56.0777C116.799 55.7692 116.965 55.3559 116.965 54.8377C116.965 54.3318 116.774 53.9246 116.392 53.6162C116.022 53.3077 115.485 53.1535 114.782 53.1535C114.202 53.1535 113.702 53.2707 113.282 53.5051C112.875 53.7272 112.505 54.1221 112.172 54.6896C112.123 54.8253 112.055 54.8747 111.968 54.8377L110.895 54.5601C110.858 54.5354 110.833 54.5045 110.821 54.4675C110.809 54.4305 110.815 54.3688 110.84 54.2825C111.185 53.5792 111.685 53.024 112.339 52.6168C113.005 52.2096 113.844 52.0061 114.856 52.0061C116.028 52.0061 116.922 52.2652 117.539 52.7834C118.168 53.2892 118.477 53.9308 118.465 54.7081C118.465 55.1893 118.366 55.5965 118.168 55.9296C117.971 56.2627 117.656 56.5342 117.225 56.7439C117.151 56.7809 117.107 56.8241 117.095 56.8735C117.095 56.9105 117.138 56.9413 117.225 56.966C117.693 57.1264 118.07 57.3978 118.353 57.7803C118.637 58.1505 118.779 58.6378 118.779 59.2424C118.779 59.81 118.619 60.3158 118.298 60.76C117.977 61.1918 117.515 61.5373 116.91 61.7964C116.318 62.0432 115.602 62.1666 114.763 62.1666ZM119.566 64.4615C119.492 64.4615 119.437 64.443 119.4 64.406C119.363 64.3689 119.344 64.3196 119.344 64.2579V61.0376C119.344 60.9019 119.406 60.834 119.529 60.834H126.377C126.451 60.834 126.488 60.7909 126.488 60.7045V53.4681C126.488 53.3941 126.445 53.3571 126.358 53.3571H122.953C122.867 53.3571 122.824 53.3941 122.824 53.4681L121.565 52.3762C121.565 52.2528 121.627 52.1911 121.75 52.1911H127.728C127.827 52.1911 127.888 52.2035 127.913 52.2281C127.938 52.2528 127.95 52.3083 127.95 52.3947V60.6675C127.95 60.7785 127.999 60.834 128.098 60.834H129.079C129.202 60.834 129.264 60.9019 129.264 61.0376V64.2579C129.264 64.3196 129.246 64.3689 129.209 64.406C129.184 64.443 129.128 64.4615 129.042 64.4615H128.135C127.962 64.4615 127.876 64.3874 127.876 64.2394V62.1296C127.876 62.0432 127.827 62 127.728 62H120.88C120.782 62 120.732 62.0432 120.732 62.1296V64.2394C120.732 64.3874 120.646 64.4615 120.473 64.4615H119.566ZM119.955 61.5743L119.881 60.834C120.288 60.834 120.615 60.5811 120.862 60.0752C121.121 59.5694 121.3 58.8414 121.399 57.8914C121.51 56.929 121.565 55.7692 121.565 54.412V52.3762H122.824V54.449C122.824 55.5348 122.768 56.528 122.657 57.4287C122.558 58.3294 122.398 59.0944 122.176 59.7236C121.954 60.3528 121.658 60.8279 121.287 61.1487C120.917 61.4695 120.473 61.6113 119.955 61.5743ZM134.426 62.1851C133.501 62.1851 132.68 61.9753 131.965 61.5558C131.261 61.124 130.712 60.5318 130.317 59.7791C129.935 59.0142 129.744 58.1381 129.744 57.1511C129.744 56.127 129.941 55.2325 130.336 54.4675C130.743 53.6902 131.298 53.0856 132.002 52.6538C132.705 52.222 133.519 52.0061 134.445 52.0061C135.382 52.0061 136.197 52.2281 136.888 52.6723C137.591 53.1042 138.134 53.7087 138.516 54.486C138.911 55.251 139.108 56.1332 139.108 57.1326C139.108 58.1196 138.911 58.9956 138.516 59.7606C138.121 60.5132 137.572 61.1055 136.869 61.5373C136.178 61.9692 135.364 62.1851 134.426 62.1851ZM134.463 61.0191C135.105 61.0191 135.654 60.8649 136.11 60.5564C136.567 60.2356 136.912 59.7853 137.147 59.2054C137.393 58.6132 137.517 57.9099 137.517 57.0956C137.517 56.2812 137.393 55.5841 137.147 55.0042C136.9 54.412 136.548 53.9555 136.092 53.6347C135.635 53.3139 135.086 53.1535 134.445 53.1535C133.815 53.1535 133.266 53.3139 132.797 53.6347C132.329 53.9555 131.965 54.412 131.706 55.0042C131.459 55.5841 131.335 56.2812 131.335 57.0956C131.335 57.8975 131.459 58.5947 131.706 59.1869C131.965 59.7791 132.329 60.2356 132.797 60.5564C133.266 60.8649 133.822 61.0191 134.463 61.0191ZM141.933 52.1911C142.106 52.1911 142.192 52.2837 142.192 52.4687V53.246C142.192 53.3447 142.211 53.4003 142.248 53.4126C142.297 53.4126 142.359 53.3818 142.433 53.3201C142.569 53.172 142.754 52.9993 142.988 52.8019C143.223 52.5921 143.525 52.407 143.895 52.2466C144.278 52.0863 144.759 52.0061 145.339 52.0061C146.091 52.0061 146.77 52.1911 147.374 52.5613C147.991 52.9191 148.479 53.462 148.836 54.1899C149.207 54.9179 149.392 55.8371 149.392 56.9475C149.392 58.0579 149.213 59.0018 148.855 59.7791C148.497 60.5564 147.997 61.1548 147.356 61.5743C146.727 61.9815 145.986 62.1851 145.135 62.1851C144.567 62.1851 144.062 62.0987 143.617 61.926C143.186 61.7409 142.815 61.5188 142.507 61.2597C142.396 61.161 142.316 61.124 142.266 61.1487C142.229 61.161 142.211 61.235 142.211 61.3708V64.8131C142.211 64.9735 142.143 65.0537 142.007 65.0537H140.86C140.724 65.0537 140.656 64.9735 140.656 64.8131V52.4872C140.656 52.3762 140.675 52.3022 140.712 52.2652C140.761 52.2158 140.841 52.1911 140.952 52.1911H141.933ZM142.211 59.8346C142.593 60.2048 142.982 60.5009 143.377 60.723C143.784 60.9451 144.234 61.0561 144.728 61.0561C145.32 61.0561 145.844 60.9019 146.301 60.5934C146.77 60.285 147.134 59.8285 147.393 59.2239C147.664 58.6193 147.8 57.8667 147.8 56.966C147.8 56.0653 147.664 55.3312 147.393 54.7636C147.121 54.1961 146.757 53.7828 146.301 53.5237C145.857 53.2646 145.363 53.135 144.82 53.135C144.315 53.135 143.864 53.246 143.469 53.4681C143.075 53.6902 142.766 53.9678 142.544 54.301C142.322 54.6218 142.211 54.9425 142.211 55.2633V59.8346ZM155.068 62.1851C154.142 62.1851 153.322 61.9753 152.606 61.5558C151.903 61.124 151.354 60.5318 150.959 59.7791C150.576 59.0142 150.385 58.1381 150.385 57.1511C150.385 56.127 150.583 55.2325 150.977 54.4675C151.385 53.6902 151.94 53.0856 152.643 52.6538C153.346 52.222 154.161 52.0061 155.086 52.0061C156.024 52.0061 156.838 52.2281 157.529 52.6723C158.232 53.1042 158.775 53.7087 159.158 54.486C159.552 55.251 159.75 56.1332 159.75 57.1326C159.75 58.1196 159.552 58.9956 159.158 59.7606C158.763 60.5132 158.214 61.1055 157.51 61.5373C156.82 61.9692 156.005 62.1851 155.068 62.1851ZM155.105 61.0191C155.746 61.0191 156.295 60.8649 156.752 60.5564C157.208 60.2356 157.554 59.7853 157.788 59.2054C158.035 58.6132 158.158 57.9099 158.158 57.0956C158.158 56.2812 158.035 55.5841 157.788 55.0042C157.541 54.412 157.19 53.9555 156.733 53.6347C156.277 53.3139 155.728 53.1535 155.086 53.1535C154.457 53.1535 153.908 53.3139 153.439 53.6347C152.97 53.9555 152.606 54.412 152.347 55.0042C152.1 55.5841 151.977 56.2812 151.977 57.0956C151.977 57.8975 152.1 58.5947 152.347 59.1869C152.606 59.7791 152.97 60.2356 153.439 60.5564C153.908 60.8649 154.463 61.0191 155.105 61.0191ZM161.409 62V52.1911H165.591C166.776 52.1911 167.664 52.407 168.256 52.8389C168.849 53.2707 169.145 53.9 169.145 54.7266C169.145 55.2448 169.04 55.6828 168.83 56.0406C168.62 56.3861 168.244 56.6637 167.701 56.8735C167.652 56.8858 167.627 56.9167 167.627 56.966C167.627 57.003 167.652 57.0277 167.701 57.04C168.244 57.1881 168.67 57.4657 168.978 57.8729C169.299 58.2677 169.459 58.7489 169.459 59.3164C169.459 60.2171 169.151 60.8896 168.534 61.3337C167.917 61.7779 167.016 62 165.832 62H161.409ZM165.702 60.9266C166.517 60.9266 167.103 60.797 167.461 60.5379C167.818 60.2665 167.997 59.8408 167.997 59.2609C167.997 58.6687 167.781 58.243 167.35 57.9839C166.93 57.7125 166.307 57.5768 165.48 57.5768H162.889V60.9266H165.702ZM165.406 56.5774C165.85 56.5774 166.245 56.528 166.591 56.4293C166.936 56.3183 167.208 56.1394 167.405 55.8926C167.615 55.6458 167.72 55.3004 167.72 54.8562C167.72 54.3256 167.528 53.937 167.146 53.6902C166.776 53.4435 166.233 53.3201 165.517 53.3201H162.889V56.5774H165.406ZM169.971 62C169.859 61.9753 169.81 61.9136 169.822 61.8149L169.934 60.8711C169.946 60.7723 170.001 60.723 170.1 60.723C170.532 60.7477 170.89 60.6181 171.173 60.3343C171.47 60.0382 171.704 59.6126 171.877 59.0573C172.062 58.4898 172.191 57.8173 172.265 57.04C172.352 56.2627 172.395 55.3991 172.395 54.449V52.1911H178.891V62H177.336V53.3201H173.653V54.6711C173.653 55.7815 173.586 56.8118 173.45 57.7618C173.314 58.6995 173.104 59.5015 172.821 60.1678C172.537 60.834 172.161 61.3337 171.692 61.6669C171.223 61.9877 170.649 62.0987 169.971 62ZM182.126 57.7063C182.126 58.3109 182.268 58.8661 182.552 59.372C182.848 59.8655 183.236 60.2603 183.718 60.5564C184.211 60.8525 184.76 61.0006 185.365 61.0006C185.982 61.0006 186.531 60.8772 187.012 60.6305C187.493 60.3714 187.907 59.9827 188.252 59.4645C188.301 59.4151 188.338 59.3905 188.363 59.3905C188.4 59.3781 188.449 59.3843 188.511 59.409L189.288 59.7976C189.399 59.8593 189.412 59.9457 189.325 60.0567C188.992 60.5503 188.622 60.9574 188.215 61.2782C187.82 61.5867 187.376 61.8149 186.882 61.963C186.389 62.111 185.834 62.1851 185.217 62.1851C184.304 62.1851 183.496 61.9753 182.792 61.5558C182.089 61.1363 181.534 60.5503 181.127 59.7976C180.72 59.045 180.516 58.1752 180.516 57.1881C180.516 56.1147 180.72 55.1955 181.127 54.4305C181.546 53.6532 182.108 53.0548 182.811 52.6353C183.526 52.2158 184.322 52.0061 185.198 52.0061C186.099 52.0061 186.882 52.2035 187.549 52.5983C188.215 52.9931 188.733 53.5668 189.103 54.3195C189.473 55.0721 189.659 55.979 189.659 57.04C189.659 57.1264 189.646 57.2128 189.622 57.2991C189.609 57.3855 189.529 57.4287 189.381 57.4287H182.293C182.243 57.4287 182.2 57.4595 182.163 57.5212C182.138 57.5706 182.126 57.6323 182.126 57.7063ZM187.789 56.4108C187.925 56.4108 188.011 56.3985 188.048 56.3738C188.085 56.3368 188.104 56.2627 188.104 56.1517C188.104 55.6211 187.987 55.1276 187.752 54.6711C187.53 54.2023 187.203 53.8259 186.771 53.5422C186.352 53.2584 185.84 53.1165 185.235 53.1165C184.569 53.1165 184.008 53.2769 183.551 53.5977C183.095 53.9061 182.749 54.3133 182.515 54.8192C182.28 55.325 182.163 55.8556 182.163 56.4108H187.789ZM192.769 52.4317V61.6854C192.769 61.8088 192.744 61.8951 192.695 61.9445C192.645 61.9815 192.559 62 192.436 62H191.492C191.381 62 191.307 61.9815 191.27 61.9445C191.233 61.9075 191.214 61.8396 191.214 61.7409V52.4502C191.214 52.2775 191.282 52.1911 191.418 52.1911H192.547C192.695 52.1911 192.769 52.2713 192.769 52.4317ZM199.265 52.4317V61.6854C199.265 61.8088 199.24 61.8951 199.191 61.9445C199.154 61.9815 199.074 62 198.95 62H197.988C197.877 62 197.803 61.9815 197.766 61.9445C197.729 61.9075 197.71 61.8396 197.71 61.7409V52.4502C197.71 52.2775 197.784 52.1911 197.932 52.1911H199.061C199.197 52.1911 199.265 52.2713 199.265 52.4317ZM191.862 57.4472C191.726 57.4472 191.658 57.3793 191.658 57.2436V56.4663C191.658 56.3429 191.72 56.2812 191.843 56.2812H198.488C198.623 56.2812 198.691 56.3429 198.691 56.4663V57.2436C198.691 57.3793 198.623 57.4472 198.488 57.4472H191.862ZM203.088 52.4317V61.6854C203.088 61.8088 203.064 61.8951 203.014 61.9445C202.977 61.9815 202.891 62 202.755 62H201.867C201.756 62 201.682 61.9815 201.645 61.9445C201.608 61.9075 201.589 61.8396 201.589 61.7409V52.4502C201.589 52.2775 201.657 52.1911 201.793 52.1911H202.866C203.014 52.1911 203.088 52.2713 203.088 52.4317ZM209.825 52.4317V61.6854C209.825 61.8088 209.8 61.8951 209.751 61.9445C209.714 61.9815 209.634 62 209.51 62H208.603C208.492 62 208.418 61.9815 208.381 61.9445C208.344 61.9075 208.326 61.8396 208.326 61.7409V52.4502C208.326 52.2775 208.4 52.1911 208.548 52.1911H209.621C209.757 52.1911 209.825 52.2713 209.825 52.4317ZM208.363 52.2652L209.288 52.9129L203.033 61.926L202.107 61.2782L208.363 52.2652ZM217.789 62V58.4466H215.957C215.389 58.4466 214.859 58.3726 214.365 58.2245C213.884 58.0641 213.452 57.8482 213.07 57.5768C212.7 57.293 212.41 56.9537 212.2 56.5589C211.99 56.1517 211.885 55.7013 211.885 55.2078C211.885 54.2825 212.2 53.5483 212.829 53.0054C213.471 52.4626 214.384 52.1911 215.568 52.1911H219.288V62H217.789ZM211.83 62C211.719 62 211.651 61.9692 211.626 61.9075C211.601 61.8334 211.62 61.7532 211.682 61.6669L214.698 57.8544L216.16 58.4466C215.926 58.4343 215.747 58.5083 215.624 58.6687L213.31 61.8149C213.261 61.889 213.212 61.9383 213.162 61.963C213.113 61.9877 213.051 62 212.977 62H211.83ZM215.827 57.3917H217.789V53.2646H215.735C214.933 53.2646 214.341 53.4435 213.958 53.8013C213.576 54.1467 213.384 54.6279 213.384 55.2448C213.384 55.7507 213.495 56.164 213.717 56.4848C213.952 56.7933 214.254 57.0215 214.624 57.1696C214.994 57.3177 215.395 57.3917 215.827 57.3917Z" fill="#162736"/>
<path d="M60.8096 17.091C61.8185 17.0912 65.7907 16.983 66.4805 17.219C69.5618 18.2739 69.9197 22.5588 66.6064 23.9875V30.8117L70.7197 37.9572L76.6729 37.9553C76.6843 40.8507 75.5795 43.6392 73.5879 45.7405C71.5168 47.8967 68.6725 49.1408 65.6836 49.1985C62.6746 49.2823 59.7593 48.1491 57.5977 46.0559C55.3095 43.8554 54.2134 41.1 54.1631 37.9543L60.1299 37.9553L64.2441 30.802V23.9953C62.2888 23.1514 61.4971 21.4981 62.082 19.4319L46.2148 19.4367L46.2158 39.4836L46.2178 48.4348C47.2321 48.4395 48.8009 48.2177 49.665 48.7912C49.9802 49.0005 50.1338 49.4028 50.1768 49.7717C50.278 50.6365 49.6192 51.4068 48.7471 51.4289C47.3732 51.4464 45.9786 51.438 44.5947 51.4387L36.3682 51.4397L30.6494 51.4377C29.6281 51.4377 28.6173 51.4618 27.5957 51.4055C26.3094 51.3529 25.8375 49.6983 26.7041 48.8645C27.3926 48.2032 29.2974 48.4257 30.2422 48.4338L30.2461 19.4348L14.542 19.4338C15.2442 21.4587 14.3507 23.1364 12.4629 23.969L12.4512 28.3801C12.4505 28.7453 12.4285 30.5948 12.5195 30.7795C13.6067 32.9694 15.3536 35.8702 16.5537 37.9553L22.4844 37.9543C22.5038 40.7854 21.4506 43.5185 19.5371 45.6057C17.498 47.7968 14.6712 49.0879 11.6797 49.1926C8.67136 49.3033 5.74209 48.2151 3.53516 46.1682C1.16349 43.9381 0.0923142 41.1668 0 37.9553L5.97656 37.9563C7.18358 35.8671 8.93222 32.9919 10.0352 30.7883C10.1249 30.6073 10.1002 28.7906 10.0996 28.4153L10.0918 23.9758C9.84648 23.8718 9.58001 23.7382 9.35449 23.5949C8.55503 23.095 7.98994 22.2942 7.78711 21.3733C7.5868 20.4493 7.76586 19.4833 8.28418 18.6926C8.89541 17.7615 9.7 17.3395 10.7461 17.1076C12.1841 17.0501 13.9083 17.0912 15.3691 17.091L23.7441 17.0901H49.2461L60.8096 17.091ZM39.708 48.4348C40.8633 48.4334 42.1028 48.4564 43.25 48.4309L43.249 19.4455L39.7012 19.4446L39.708 48.4348ZM33.1973 48.4358L36.7598 48.4328L36.7588 19.4455L33.1943 19.4446L33.1973 48.4358ZM11.2246 33.5627C10.4066 34.9834 9.54977 36.5759 8.70996 37.9572L11.3643 37.9553L13.8193 37.9572C13.5097 37.4127 11.4994 33.7662 11.2246 33.5627ZM62.8486 37.9572L65.5381 37.9563H67.9883C67.6971 37.4456 65.6311 33.7471 65.3691 33.5656L62.8486 37.9572ZM11.2197 19.4172C10.5609 19.4343 10.0415 19.984 10.0625 20.6428C10.0836 21.3016 10.6372 21.8173 11.2959 21.7922C11.9488 21.7672 12.4594 21.2197 12.4385 20.5666C12.4175 19.9136 11.8729 19.4004 11.2197 19.4172ZM65.3193 19.4289C64.8941 19.4656 64.5218 19.7294 64.3467 20.1184C64.1711 20.5074 64.2194 20.9609 64.4736 21.3039C64.7272 21.6469 65.1471 21.8258 65.5703 21.7717C66.2063 21.6903 66.6601 21.1154 66.5918 20.4778C66.524 19.8401 65.9587 19.374 65.3193 19.4289Z" fill="#162736"/>
<path d="M20.7308 55.2886C22.8007 55.1846 23.9034 56.358 24.1631 58.3312L52.3373 58.3365C52.3956 57.7582 52.4674 57.3503 52.7532 56.8277C53.1357 56.1192 53.7931 55.5999 54.5714 55.3913C55.3993 55.1645 56.2842 55.2953 57.0108 55.7529C57.7173 56.1923 58.213 56.9021 58.3821 57.7166C58.5686 58.627 58.317 59.3751 57.8367 60.1292C57.4865 60.5465 56.8156 61.1328 56.2983 61.21C54.8411 61.428 52.7083 61.3381 51.2055 61.3381L42.5817 61.3361L28.4572 61.3375C26.0448 61.3368 23.6329 61.3388 21.2206 61.3267C19.7309 61.32 18.5459 60.5881 18.1532 59.0852C17.9388 58.2654 18.076 57.3932 18.532 56.6787C19.0725 55.832 19.7843 55.4785 20.7308 55.2886Z" fill="#162736"/>
<path d="M20.736 6.65012C22.6459 6.56632 25.1507 6.641 27.0959 6.64093L39.7939 6.64073L50.2559 6.63939C52.0472 6.63939 53.854 6.61926 55.6446 6.66294C56.9851 6.69568 58.0364 7.6664 58.3396 8.95749C58.5369 9.78022 58.3833 10.6479 57.9143 11.3524C56.8898 12.9019 55.0039 13.1188 53.5313 12.0654L53.4521 12.0081C52.6839 11.2806 52.4243 10.6782 52.3693 9.63483L24.1517 9.64154C24.1091 10.2651 23.9885 10.7711 23.6487 11.3079C23.2188 11.9851 22.5322 12.4587 21.7464 12.6199C20.9104 12.7999 20.0372 12.6254 19.3345 12.138C17.0428 10.5585 17.884 7.17879 20.736 6.65012Z" fill="#162736"/>
<path d="M25.4966 11.6807C26.8899 11.634 28.5149 11.6707 29.9251 11.6705L38.2796 11.6694L46.3357 11.6693C47.6816 11.6693 50.1679 11.5459 51.3501 11.8025C52.3343 12.0161 52.863 14.1311 50.9958 14.682C46.1841 14.7574 41.1631 14.6848 36.337 14.685L29.4624 14.6853C28.2881 14.6854 27.1151 14.6879 25.9408 14.6793C25.1868 14.6737 24.5668 14.4755 24.3078 13.6859C24.1792 13.2945 24.213 12.8679 24.4018 12.5017C24.6457 12.031 25.0242 11.8452 25.4966 11.6807Z" fill="#162736"/>
<path d="M25.5111 53.2718C26.9906 53.2315 28.6573 53.2664 30.1491 53.2664L39.217 53.2651L46.658 53.2644C47.8072 53.2644 50.4284 53.1376 51.3791 53.4053C52.4163 53.6978 52.8028 55.7769 50.9464 56.2707C46.3863 56.374 41.4223 56.2767 36.8344 56.2774H29.663C28.5892 56.2774 25.8987 56.4109 25.0483 56.1358C23.9464 55.7796 23.762 53.779 25.5111 53.2718Z" fill="#162736"/>
</svg>
