<svg width="272" height="69" viewBox="0 0 272 69" fill="none" xmlns="http://www.w3.org/2000/svg">
<path d="M47.4711 62.3021V64.8006H17.4894V62.3021C17.4894 60.9255 18.6112 59.8036 19.9879 59.8036H25.0173C25.1497 56.6855 27.1735 54.0821 29.9818 53.0852V23.7905C28.6651 22.9585 27.7831 21.4994 27.7831 19.8254H29.9818H34.9787H37.1774C37.1774 21.4994 36.2954 22.9585 34.9787 23.7905V53.0827C37.787 54.0796 39.8108 56.683 39.9432 59.8011H44.9727C46.3493 59.8036 47.4711 60.9255 47.4711 62.3021ZM64.9605 39.8133C63.1291 44.9702 58.2521 48.6904 52.4681 48.6904C46.6841 48.6904 41.8071 44.9677 39.9757 39.8133H42.8589L51.2988 17.4444C51.6636 16.47 53.2701 16.47 53.6374 17.4444L62.0773 39.8133H64.9605ZM59.4064 39.8133L52.4681 21.427L45.5298 39.8158H59.4064V39.8133ZM12.4924 14.856C13.6242 14.856 14.5462 14.0989 14.866 13.0721C15.693 12.7572 16.5399 12.3325 17.4094 11.8928C19.3208 10.9284 21.4869 9.83152 23.7356 9.83152C25.8943 9.83152 27.2434 10.8284 28.0155 11.6779C27.9855 11.8928 27.9505 12.1076 27.9505 12.33C27.9505 14.831 29.9793 16.8598 32.4803 16.8598C34.9812 16.8598 37.01 14.831 37.01 12.33C37.01 12.1076 36.975 11.8953 36.945 11.6804C37.7146 10.8334 39.0638 9.83152 41.2249 9.83152C43.4736 9.83152 45.6398 10.9259 47.5486 11.8903C48.4206 12.33 49.2676 12.7547 50.0945 13.0696C50.4144 14.0964 51.3363 14.8535 52.4681 14.8535C53.8623 14.8535 54.9916 13.7242 54.9916 12.33C54.9916 10.9359 53.8623 9.80654 52.4681 9.80654C51.7485 9.80654 51.1064 10.1164 50.6467 10.6011C50.0296 10.3412 49.3625 10.0089 48.6754 9.66163C46.5167 8.56979 44.0707 7.33304 41.2249 7.33304C38.7365 7.33304 37.0025 8.27997 35.8257 9.29935C35.2985 8.7172 34.624 8.28246 33.8569 8.03512C34.7889 7.53542 35.4435 6.5835 35.4435 5.45668C35.4435 3.82018 32.4803 0 32.4803 0C32.4803 0 29.5171 3.82018 29.5171 5.45668C29.5171 6.586 30.1717 7.53542 31.1036 8.03512C30.3366 8.27997 29.662 8.7172 29.1348 9.29935C27.958 8.27997 26.2241 7.33304 23.7356 7.33304C20.8898 7.33304 18.4413 8.56979 16.2826 9.66163C15.5955 10.0114 14.9309 10.3437 14.3138 10.6011C13.8541 10.1188 13.212 9.80654 12.4924 9.80654C11.0983 9.80654 9.96894 10.9359 9.96894 12.33C9.96894 13.7242 11.0983 14.856 12.4924 14.856ZM12.4924 48.6929C6.70842 48.6929 1.83139 44.9702 0 39.8158H2.88325L11.3231 17.4469C11.6879 16.4725 13.2944 16.4725 13.6617 17.4469L22.1016 39.8158H24.9848C23.1534 44.9702 18.2764 48.6929 12.4924 48.6929ZM19.4307 39.8133L12.4924 21.427L5.55412 39.8158H19.4307V39.8133Z" fill="#162736"/>
<path d="M99.265 18.1895C98.0272 18.1895 96.9535 17.9116 96.0441 17.3558C95.1473 16.8 94.4589 15.9916 93.9789 14.9306C93.4989 13.857 93.2589 12.5559 93.2589 11.0276C93.2589 9.48656 93.5052 8.17292 93.9978 7.08663C94.4904 6.00035 95.1851 5.17301 96.082 4.6046C96.9788 4.0362 98.0461 3.752 99.284 3.752C100.522 3.752 101.583 4.0362 102.467 4.6046C103.364 5.17301 104.052 5.99403 104.532 7.06769C105.025 8.14134 105.271 9.45499 105.271 11.0086C105.271 12.537 105.031 13.838 104.551 14.9117C104.071 15.9727 103.376 16.7874 102.467 17.3558C101.57 17.9116 100.503 18.1895 99.265 18.1895ZM99.3029 16.8064C100.667 16.8064 101.684 16.339 102.353 15.4043C103.035 14.4569 103.376 12.998 103.376 11.0276C103.376 9.01921 103.029 7.53504 102.334 6.57507C101.652 5.6151 100.636 5.13511 99.284 5.13511C97.9198 5.13511 96.8904 5.62141 96.1956 6.59402C95.5009 7.55399 95.1536 9.03184 95.1536 11.0276C95.1536 12.9854 95.5009 14.438 96.1956 15.3853C96.8904 16.3327 97.9261 16.8064 99.3029 16.8064ZM112.976 18.1895C111.738 18.1895 110.665 17.9116 109.755 17.3558C108.859 16.8 108.17 15.9916 107.69 14.9306C107.21 13.857 106.97 12.5559 106.97 11.0276C106.97 9.48656 107.216 8.17292 107.709 7.08663C108.202 6.00035 108.896 5.17301 109.793 4.6046C110.69 4.0362 111.757 3.752 112.995 3.752C114.233 3.752 115.294 4.0362 116.178 4.6046C117.075 5.17301 117.764 5.99403 118.244 7.06769C118.736 8.14134 118.982 9.45499 118.982 11.0086C118.982 12.537 118.742 13.838 118.262 14.9117C117.782 15.9727 117.088 16.7874 116.178 17.3558C115.281 17.9116 114.214 18.1895 112.976 18.1895ZM113.014 16.8064C114.378 16.8064 115.395 16.339 116.065 15.4043C116.747 14.4569 117.088 12.998 117.088 11.0276C117.088 9.01921 116.74 7.53504 116.046 6.57507C115.364 5.6151 114.347 5.13511 112.995 5.13511C111.631 5.13511 110.602 5.62141 109.907 6.59402C109.212 7.55399 108.865 9.03184 108.865 11.0276C108.865 12.9854 109.212 14.438 109.907 15.3853C110.602 16.3327 111.637 16.8064 113.014 16.8064ZM126.688 18.1895C125.45 18.1895 124.376 17.9116 123.467 17.3558C122.57 16.8 121.881 15.9916 121.401 14.9306C120.921 13.857 120.681 12.5559 120.681 11.0276C120.681 9.48656 120.928 8.17292 121.42 7.08663C121.913 6.00035 122.608 5.17301 123.505 4.6046C124.401 4.0362 125.469 3.752 126.707 3.752C127.944 3.752 129.005 4.0362 129.89 4.6046C130.786 5.17301 131.475 5.99403 131.955 7.06769C132.447 8.14134 132.694 9.45499 132.694 11.0086C132.694 12.537 132.454 13.838 131.974 14.9117C131.494 15.9727 130.799 16.7874 129.89 17.3558C128.993 17.9116 127.925 18.1895 126.688 18.1895ZM126.725 16.8064C128.09 16.8064 129.106 16.339 129.776 15.4043C130.458 14.4569 130.799 12.998 130.799 11.0276C130.799 9.01921 130.452 7.53504 129.757 6.57507C129.075 5.6151 128.058 5.13511 126.707 5.13511C125.342 5.13511 124.313 5.62141 123.618 6.59402C122.923 7.55399 122.576 9.03184 122.576 11.0276C122.576 12.9854 122.923 14.438 123.618 15.3853C124.313 16.3327 125.349 16.8064 126.725 16.8064ZM142.462 8.03398C142.436 8.12239 142.405 8.19187 142.367 8.24239C142.329 8.28028 142.253 8.29923 142.139 8.29923H141.685C141.596 8.29923 141.533 8.2866 141.495 8.26134C141.47 8.22344 141.445 8.16029 141.419 8.07187L140.965 4.13093C140.952 4.06778 140.965 4.02357 141.003 3.9983C141.053 3.96041 141.097 3.94146 141.135 3.94146H142.765C142.891 3.94146 142.948 4.00462 142.935 4.13093L142.462 8.03398ZM139.26 8.03398C139.234 8.12239 139.203 8.19187 139.165 8.24239C139.127 8.28028 139.051 8.29923 138.937 8.29923H138.483C138.394 8.29923 138.331 8.2866 138.293 8.26134C138.268 8.22344 138.243 8.16029 138.217 8.07187L137.763 4.13093C137.75 4.06778 137.763 4.02357 137.801 3.9983C137.851 3.96041 137.895 3.94146 137.933 3.94146H139.563C139.689 3.94146 139.746 4.00462 139.733 4.13093L139.26 8.03398ZM145.629 18C145.477 18 145.402 17.9116 145.402 17.7347V4.20672C145.402 4.1183 145.421 4.05514 145.459 4.01725C145.496 3.96673 145.566 3.94146 145.667 3.94146H146.917C147.12 3.94146 147.221 4.0362 147.221 4.22567V16.3895C147.221 16.5032 147.277 16.56 147.391 16.56H153.189C153.303 16.56 153.359 16.4969 153.359 16.3706V4.22567C153.359 4.0362 153.467 3.94146 153.681 3.94146H154.913C155.014 3.94146 155.084 3.96673 155.121 4.01725C155.159 4.05514 155.178 4.1183 155.178 4.20672V17.7347C155.178 17.9116 155.109 18 154.97 18H145.629ZM155.614 20.6336C155.399 20.6336 155.292 20.5389 155.292 20.3494V18.1705C155.292 18.0568 155.235 18 155.121 18H154.041L155.178 16.3706C155.178 16.4969 155.241 16.56 155.368 16.56H156.675C156.827 16.56 156.902 16.6421 156.902 16.8064V20.3684C156.902 20.4568 156.883 20.5199 156.846 20.5578C156.808 20.6083 156.738 20.6336 156.637 20.6336H155.614ZM165.258 18.1895C165.106 18.1895 165.03 18.12 165.03 17.9811V16.1811C165.03 16.0548 164.973 15.998 164.86 16.0106C163.407 16.2253 162.182 16.1495 161.184 15.7832C160.199 15.4169 159.447 14.7917 158.929 13.9075C158.411 13.0233 158.152 11.9433 158.152 10.6676C158.152 9.84655 158.291 9.08237 158.569 8.37502C158.847 7.66767 159.264 7.06769 159.82 6.57507C160.376 6.08245 161.064 5.74773 161.885 5.57089C162.719 5.38142 163.685 5.40037 164.784 5.62773C164.948 5.65299 165.03 5.58984 165.03 5.43826V3.7141C165.03 3.56253 165.1 3.48674 165.239 3.48674H166.66C166.811 3.48674 166.887 3.55621 166.887 3.69515V5.41932C166.887 5.58352 166.963 5.65299 167.114 5.62773C168.226 5.40037 169.198 5.37511 170.032 5.55194C170.866 5.72878 171.56 6.06351 172.116 6.55612C172.672 7.04874 173.083 7.65504 173.348 8.37502C173.626 9.08237 173.765 9.84655 173.765 10.6676C173.765 11.9433 173.506 13.0233 172.988 13.9075C172.483 14.7917 171.731 15.4169 170.733 15.7832C169.735 16.1495 168.51 16.2253 167.057 16.0106C166.944 15.998 166.887 16.0548 166.887 16.1811V17.9621C166.887 18.1137 166.817 18.1895 166.679 18.1895H165.258ZM164.935 14.7222C165.049 14.7096 165.106 14.6212 165.106 14.4569V7.10558C165.106 7.01716 165.087 6.96032 165.049 6.93506C165.011 6.9098 164.954 6.89085 164.879 6.87822C163.843 6.63823 162.952 6.65086 162.207 6.91611C161.474 7.16874 160.912 7.61715 160.521 8.26134C160.142 8.90553 159.952 9.69498 159.952 10.6297C159.952 11.6654 160.129 12.5307 160.483 13.2254C160.849 13.9075 161.399 14.3812 162.131 14.6464C162.864 14.899 163.799 14.9243 164.935 14.7222ZM166.982 14.7222C168.118 14.9243 169.053 14.899 169.786 14.6464C170.518 14.3812 171.062 13.9075 171.415 13.2254C171.782 12.5307 171.965 11.6654 171.965 10.6297C171.965 9.69498 171.769 8.90553 171.377 8.26134C170.986 7.61715 170.424 7.16874 169.691 6.91611C168.971 6.65086 168.087 6.63823 167.039 6.87822C166.95 6.89085 166.887 6.9098 166.849 6.93506C166.811 6.96032 166.792 7.01716 166.792 7.10558V14.4569C166.792 14.6212 166.855 14.7096 166.982 14.7222ZM181.478 18.1895C180.24 18.1895 179.166 17.9116 178.257 17.3558C177.36 16.8 176.672 15.9916 176.192 14.9306C175.712 13.857 175.472 12.5559 175.472 11.0276C175.472 9.48656 175.718 8.17292 176.211 7.08663C176.703 6.00035 177.398 5.17301 178.295 4.6046C179.192 4.0362 180.259 3.752 181.497 3.752C182.735 3.752 183.796 4.0362 184.68 4.6046C185.577 5.17301 186.265 5.99403 186.745 7.06769C187.238 8.14134 187.484 9.45499 187.484 11.0086C187.484 12.537 187.244 13.838 186.764 14.9117C186.284 15.9727 185.589 16.7874 184.68 17.3558C183.783 17.9116 182.716 18.1895 181.478 18.1895ZM181.516 16.8064C182.88 16.8064 183.897 16.339 184.566 15.4043C185.248 14.4569 185.589 12.998 185.589 11.0276C185.589 9.01921 185.242 7.53504 184.547 6.57507C183.865 5.6151 182.848 5.13511 181.497 5.13511C180.133 5.13511 179.103 5.62141 178.409 6.59402C177.714 7.55399 177.366 9.03184 177.366 11.0276C177.366 12.9854 177.714 14.438 178.409 15.3853C179.103 16.3327 180.139 16.8064 181.516 16.8064ZM193.958 8.03398C193.932 8.12239 193.901 8.19187 193.863 8.24239C193.825 8.28028 193.749 8.29923 193.636 8.29923H193.181C193.092 8.29923 193.029 8.2866 192.991 8.26134C192.966 8.22344 192.941 8.16029 192.916 8.07187L192.461 4.13093C192.448 4.06778 192.461 4.02357 192.499 3.9983C192.549 3.96041 192.593 3.94146 192.631 3.94146H194.261C194.387 3.94146 194.444 4.00462 194.431 4.13093L193.958 8.03398ZM190.756 8.03398C190.73 8.12239 190.699 8.19187 190.661 8.24239C190.623 8.28028 190.547 8.29923 190.434 8.29923H189.979C189.89 8.29923 189.827 8.2866 189.789 8.26134C189.764 8.22344 189.739 8.16029 189.714 8.07187L189.259 4.13093C189.246 4.06778 189.259 4.02357 189.297 3.9983C189.347 3.96041 189.391 3.94146 189.429 3.94146H191.059C191.185 3.94146 191.242 4.00462 191.229 4.13093L190.756 8.03398ZM94.2062 41C94.0547 41 93.9789 40.9116 93.9789 40.7347V27.2067C93.9789 27.1183 93.9978 27.0551 94.0357 27.0173C94.0736 26.9667 94.1431 26.9415 94.2441 26.9415H95.4946C95.6967 26.9415 95.7978 27.0362 95.7978 27.2257V39.3895C95.7978 39.5032 95.8546 39.56 95.9683 39.56H101.766C101.88 39.56 101.937 39.4969 101.937 39.3706V27.2257C101.937 27.0362 102.044 26.9415 102.259 26.9415H103.49C103.591 26.9415 103.661 26.9667 103.699 27.0173C103.736 27.0551 103.755 27.1183 103.755 27.2067V40.7347C103.755 40.9116 103.686 41 103.547 41H94.2062ZM104.191 43.6336C103.976 43.6336 103.869 43.5389 103.869 43.3494V41.1705C103.869 41.0568 103.812 41 103.699 41H102.619L103.755 39.3706C103.755 39.4969 103.819 39.56 103.945 39.56H105.252C105.404 39.56 105.48 39.6421 105.48 39.8064V43.3684C105.48 43.4568 105.461 43.5199 105.423 43.5578C105.385 43.6083 105.315 43.6336 105.214 43.6336H104.191ZM108.018 36.6043C108.018 37.2233 108.163 37.7917 108.454 38.3096C108.757 38.8148 109.155 39.219 109.647 39.5221C110.153 39.8253 110.715 39.9769 111.334 39.9769C111.965 39.9769 112.527 39.8506 113.02 39.5979C113.513 39.3327 113.936 38.9348 114.289 38.4043C114.34 38.3538 114.378 38.3285 114.403 38.3285C114.441 38.3159 114.492 38.3222 114.555 38.3474L115.35 38.7453C115.464 38.8085 115.477 38.8969 115.388 39.0106C115.047 39.5158 114.668 39.9327 114.252 40.2611C113.847 40.5769 113.393 40.8105 112.887 40.9621C112.382 41.1137 111.814 41.1895 111.182 41.1895C110.247 41.1895 109.42 40.9747 108.7 40.5453C107.98 40.1158 107.412 39.5158 106.995 38.7453C106.578 37.9748 106.37 37.0843 106.37 36.0738C106.37 34.9749 106.578 34.0339 106.995 33.2508C107.424 32.455 107.999 31.8424 108.719 31.4129C109.452 30.9835 110.266 30.7687 111.163 30.7687C112.085 30.7687 112.887 30.9708 113.569 31.375C114.252 31.7792 114.782 32.3666 115.161 33.1371C115.54 33.9076 115.729 34.836 115.729 35.9223C115.729 36.0107 115.717 36.0991 115.691 36.1875C115.679 36.2759 115.597 36.3201 115.445 36.3201H108.189C108.138 36.3201 108.094 36.3517 108.056 36.4149C108.031 36.4654 108.018 36.5286 108.018 36.6043ZM113.816 35.2781C113.955 35.2781 114.043 35.2654 114.081 35.2402C114.119 35.2023 114.138 35.1265 114.138 35.0128C114.138 34.4697 114.018 33.9644 113.778 33.4971C113.55 33.0171 113.216 32.6318 112.774 32.3413C112.344 32.0508 111.82 31.9055 111.201 31.9055C110.519 31.9055 109.944 32.0697 109.477 32.3981C109.01 32.7139 108.656 33.1308 108.416 33.6486C108.176 34.1665 108.056 34.7097 108.056 35.2781H113.816ZM118.913 31.2045V40.6779C118.913 40.8042 118.888 40.8926 118.838 40.9432C118.787 40.9811 118.699 41 118.572 41H117.606C117.492 41 117.417 40.9811 117.379 40.9432C117.341 40.9053 117.322 40.8358 117.322 40.7347V31.2234C117.322 31.0466 117.391 30.9582 117.53 30.9582H118.686C118.838 30.9582 118.913 31.0403 118.913 31.2045ZM125.564 31.2045V40.6779C125.564 40.8042 125.539 40.8926 125.488 40.9432C125.45 40.9811 125.368 41 125.242 41H124.256C124.143 41 124.067 40.9811 124.029 40.9432C123.991 40.9053 123.972 40.8358 123.972 40.7347V31.2234C123.972 31.0466 124.048 30.9582 124.2 30.9582H125.355C125.494 30.9582 125.564 31.0403 125.564 31.2045ZM117.985 36.3391C117.846 36.3391 117.777 36.2696 117.777 36.1307V35.3349C117.777 35.2086 117.84 35.1454 117.966 35.1454H124.768C124.907 35.1454 124.976 35.2086 124.976 35.3349V36.1307C124.976 36.2696 124.907 36.3391 124.768 36.3391H117.985ZM134.897 32.1518H131.846C131.733 32.1518 131.676 32.2024 131.676 32.3034V40.8105C131.676 40.9368 131.613 41 131.486 41H130.274C130.147 41 130.084 40.9368 130.084 40.8105V32.3413C130.084 32.215 130.027 32.1518 129.914 32.1518H126.863C126.724 32.1518 126.655 32.0824 126.655 31.9434V31.1477C126.655 31.0213 126.718 30.9582 126.844 30.9582H134.897C135.036 30.9582 135.105 31.015 135.105 31.1287V31.9434C135.105 32.0824 135.036 32.1518 134.897 32.1518ZM137.39 30.9582C137.567 30.9582 137.655 31.0529 137.655 31.2424V32.0382C137.655 32.1392 137.674 32.196 137.712 32.2087C137.762 32.2087 137.826 32.1771 137.901 32.1139C138.04 31.9624 138.23 31.7855 138.47 31.5834C138.71 31.3687 139.019 31.1792 139.398 31.015C139.79 30.8508 140.282 30.7687 140.876 30.7687C141.647 30.7687 142.341 30.9582 142.96 31.3371C143.592 31.7034 144.091 32.2592 144.457 33.0044C144.836 33.7497 145.025 34.6907 145.025 35.8275C145.025 36.9643 144.842 37.9306 144.476 38.7264C144.11 39.5221 143.598 40.1348 142.941 40.5642C142.297 40.9811 141.539 41.1895 140.668 41.1895C140.087 41.1895 139.569 41.101 139.114 40.9242C138.672 40.7347 138.293 40.5074 137.977 40.2421C137.864 40.1411 137.781 40.1032 137.731 40.1284C137.693 40.1411 137.674 40.2169 137.674 40.3558V43.8799C137.674 44.0441 137.605 44.1262 137.466 44.1262H136.291C136.152 44.1262 136.083 44.0441 136.083 43.8799V31.2613C136.083 31.1477 136.101 31.0719 136.139 31.034C136.19 30.9835 136.272 30.9582 136.386 30.9582H137.39ZM137.674 38.7832C138.066 39.1622 138.464 39.4653 138.868 39.6927C139.285 39.92 139.746 40.0337 140.251 40.0337C140.857 40.0337 141.394 39.8758 141.861 39.56C142.341 39.2443 142.714 38.7769 142.979 38.158C143.257 37.539 143.396 36.7685 143.396 35.8465C143.396 34.9244 143.257 34.1728 142.979 33.5918C142.701 33.0108 142.329 32.5876 141.861 32.3224C141.407 32.0571 140.901 31.9245 140.346 31.9245C139.828 31.9245 139.367 32.0382 138.962 32.2655C138.558 32.4929 138.242 32.7771 138.015 33.1181C137.788 33.4465 137.674 33.7749 137.674 34.1034V38.7832ZM156.802 41.1895C156.65 41.1895 156.574 41.12 156.574 40.9811V39.1811C156.574 39.0548 156.518 38.998 156.404 39.0106C154.951 39.2253 153.726 39.1495 152.728 38.7832C151.743 38.4169 150.991 37.7917 150.474 36.9075C149.956 36.0233 149.697 34.9433 149.697 33.6676C149.697 32.8466 149.836 32.0824 150.114 31.375C150.391 30.6677 150.808 30.0677 151.364 29.5751C151.92 29.0825 152.608 28.7477 153.429 28.5709C154.263 28.3814 155.229 28.4004 156.328 28.6277C156.492 28.653 156.574 28.5898 156.574 28.4383V26.7141C156.574 26.5625 156.644 26.4867 156.783 26.4867H158.204C158.355 26.4867 158.431 26.5562 158.431 26.6952V28.4193C158.431 28.5835 158.507 28.653 158.659 28.6277C159.77 28.4004 160.743 28.3751 161.576 28.5519C162.41 28.7288 163.105 29.0635 163.661 29.5561C164.216 30.0487 164.627 30.655 164.892 31.375C165.17 32.0824 165.309 32.8466 165.309 33.6676C165.309 34.9433 165.05 36.0233 164.532 36.9075C164.027 37.7917 163.275 38.4169 162.277 38.7832C161.28 39.1495 160.054 39.2253 158.602 39.0106C158.488 38.998 158.431 39.0548 158.431 39.1811V40.9621C158.431 41.1137 158.362 41.1895 158.223 41.1895H156.802ZM156.48 37.7222C156.593 37.7096 156.65 37.6212 156.65 37.4569V30.1056C156.65 30.0172 156.631 29.9603 156.593 29.9351C156.555 29.9098 156.499 29.8909 156.423 29.8782C155.387 29.6382 154.497 29.6509 153.751 29.9161C153.019 30.1687 152.457 30.6171 152.065 31.2613C151.686 31.9055 151.497 32.695 151.497 33.6297C151.497 34.6654 151.673 35.5307 152.027 36.2254C152.393 36.9075 152.943 37.3812 153.676 37.6464C154.408 37.899 155.343 37.9243 156.48 37.7222ZM158.526 37.7222C159.663 37.9243 160.597 37.899 161.33 37.6464C162.063 37.3812 162.606 36.9075 162.959 36.2254C163.326 35.5307 163.509 34.6654 163.509 33.6297C163.509 32.695 163.313 31.9055 162.922 31.2613C162.53 30.6171 161.968 30.1687 161.235 29.9161C160.515 29.6509 159.631 29.6382 158.583 29.8782C158.494 29.8909 158.431 29.9098 158.393 29.9351C158.355 29.9603 158.336 30.0172 158.336 30.1056V37.4569C158.336 37.6212 158.4 37.7096 158.526 37.7222ZM168.892 31.2045V40.6779C168.892 40.8042 168.866 40.8926 168.816 40.9432C168.778 40.9811 168.69 41 168.551 41H167.641C167.528 41 167.452 40.9811 167.414 40.9432C167.376 40.9053 167.357 40.8358 167.357 40.7347V31.2234C167.357 31.0466 167.427 30.9582 167.565 30.9582H168.664C168.816 30.9582 168.892 31.0403 168.892 31.2045ZM175.788 31.2045V40.6779C175.788 40.8042 175.763 40.8926 175.713 40.9432C175.675 40.9811 175.593 41 175.466 41H174.538C174.424 41 174.348 40.9811 174.311 40.9432C174.273 40.9053 174.254 40.8358 174.254 40.7347V31.2234C174.254 31.0466 174.329 30.9582 174.481 30.9582H175.58C175.719 30.9582 175.788 31.0403 175.788 31.2045ZM174.292 31.034L175.239 31.6971L168.835 40.9242L167.888 40.2611L174.292 31.034ZM179.773 31.2045V40.6779C179.773 40.8042 179.748 40.8926 179.698 40.9432C179.647 40.9811 179.559 41 179.432 41H178.466C178.352 41 178.277 40.9811 178.239 40.9432C178.201 40.9053 178.182 40.8358 178.182 40.7347V31.2234C178.182 31.0466 178.251 30.9582 178.39 30.9582H179.546C179.698 30.9582 179.773 31.0403 179.773 31.2045ZM186.424 31.2045V40.6779C186.424 40.8042 186.399 40.8926 186.348 40.9432C186.31 40.9811 186.228 41 186.102 41H185.116C185.003 41 184.927 40.9811 184.889 40.9432C184.851 40.9053 184.832 40.8358 184.832 40.7347V31.2234C184.832 31.0466 184.908 30.9582 185.06 30.9582H186.215C186.354 30.9582 186.424 31.0403 186.424 31.2045ZM178.845 36.3391C178.706 36.3391 178.637 36.2696 178.637 36.1307V35.3349C178.637 35.2086 178.7 35.1454 178.826 35.1454H185.628C185.767 35.1454 185.836 35.2086 185.836 35.3349V36.1307C185.836 36.2696 185.767 36.3391 185.628 36.3391H178.845ZM194.468 39.7874C194.001 40.2421 193.489 40.5895 192.934 40.8295C192.39 41.0695 191.784 41.1895 191.115 41.1895C190.13 41.1895 189.353 40.9368 188.784 40.4316C188.216 39.9263 187.932 39.2632 187.932 38.4422C187.932 37.7727 188.121 37.198 188.5 36.718C188.892 36.2254 189.454 35.8402 190.186 35.5623C190.932 35.2717 191.847 35.0949 192.934 35.0318L194.411 34.9181C194.5 34.9054 194.569 34.8802 194.62 34.8423C194.683 34.8044 194.715 34.7349 194.715 34.6339V34.1223C194.715 33.4402 194.506 32.9034 194.089 32.5118C193.673 32.1076 193.098 31.9055 192.365 31.9055C191.822 31.9055 191.323 32.0318 190.868 32.2845C190.414 32.5371 190.01 32.916 189.656 33.4213C189.618 33.4844 189.58 33.5286 189.542 33.5539C189.504 33.5665 189.447 33.5602 189.372 33.535L188.367 33.1939C188.317 33.1686 188.285 33.1371 188.273 33.0992C188.26 33.0613 188.279 32.9918 188.33 32.8908C188.696 32.2339 189.226 31.7161 189.921 31.3371C190.616 30.9582 191.456 30.7687 192.441 30.7687C193.287 30.7687 193.988 30.9013 194.544 31.1666C195.113 31.4192 195.542 31.7918 195.832 32.2845C196.123 32.7645 196.268 33.3392 196.268 34.0086V40.7158C196.268 40.8295 196.243 40.9053 196.192 40.9432C196.155 40.9811 196.091 41 196.003 41H195.037C194.961 41 194.898 40.9747 194.847 40.9242C194.809 40.8611 194.79 40.7853 194.79 40.6969L194.753 39.8253C194.727 39.6485 194.633 39.6358 194.468 39.7874ZM194.715 36.1875C194.715 35.9728 194.626 35.8717 194.449 35.8844L193.199 35.998C192.618 36.0233 192.1 36.0991 191.645 36.2254C191.191 36.3391 190.805 36.4907 190.489 36.6801C190.174 36.8696 189.934 37.097 189.77 37.3622C189.605 37.6148 189.523 37.9117 189.523 38.2527C189.523 38.8085 189.713 39.2443 190.092 39.56C190.483 39.8632 191.007 40.0148 191.664 40.0148C192.068 40.0148 192.454 39.9453 192.82 39.8064C193.199 39.6548 193.534 39.4653 193.824 39.2379C194.102 38.998 194.317 38.7516 194.468 38.499C194.633 38.2464 194.715 38.0001 194.715 37.7601V36.1875ZM200.017 31.2045V40.6779C200.017 40.8042 199.992 40.8926 199.941 40.9432C199.891 40.9811 199.802 41 199.676 41H198.71C198.596 41 198.52 40.9811 198.482 40.9432C198.444 40.9053 198.425 40.8358 198.425 40.7347V31.2234C198.425 31.0466 198.495 30.9582 198.634 30.9582H199.79C199.941 30.9582 200.017 31.0403 200.017 31.2045ZM206.667 31.2045V40.6779C206.667 40.8042 206.642 40.8926 206.591 40.9432C206.554 40.9811 206.471 41 206.345 41H205.36C205.246 41 205.17 40.9811 205.133 40.9432C205.095 40.9053 205.076 40.8358 205.076 40.7347V31.2234C205.076 31.0466 205.152 30.9582 205.303 30.9582H206.459C206.598 30.9582 206.667 31.0403 206.667 31.2045ZM199.089 36.3391C198.95 36.3391 198.88 36.2696 198.88 36.1307V35.3349C198.88 35.2086 198.943 35.1454 199.07 35.1454H205.871C206.01 35.1454 206.08 35.2086 206.08 35.3349V36.1307C206.08 36.2696 206.01 36.3391 205.871 36.3391H199.089ZM213.101 30.7687C213.758 30.7687 214.333 30.8761 214.825 31.0908C215.331 31.2929 215.76 31.5771 216.114 31.9434C216.48 32.2971 216.783 32.6887 217.023 33.1181C217.099 33.2697 217.068 33.3644 216.929 33.4023L215.887 33.6486C215.798 33.6865 215.716 33.6486 215.64 33.535C215.388 33.1687 215.135 32.8718 214.882 32.6445C214.642 32.4171 214.383 32.2466 214.106 32.1329C213.828 32.0066 213.524 31.9434 213.196 31.9434C212.552 31.9434 211.983 32.1076 211.491 32.436C211.011 32.7518 210.638 33.2129 210.373 33.8192C210.108 34.4255 209.975 35.1454 209.975 35.9791C209.975 36.8254 210.108 37.5517 210.373 38.158C210.651 38.7643 211.03 39.2253 211.51 39.5411C212.002 39.8569 212.577 40.0148 213.234 40.0148C213.84 40.0148 214.364 39.8632 214.807 39.56C215.249 39.2569 215.653 38.8148 216.019 38.2338C216.057 38.1706 216.089 38.139 216.114 38.139C216.152 38.1264 216.202 38.1327 216.265 38.158L217.08 38.4611C217.169 38.499 217.194 38.5811 217.156 38.7074C216.966 39.0358 216.745 39.3516 216.493 39.6548C216.24 39.9579 215.943 40.2232 215.602 40.4505C215.274 40.6779 214.901 40.8611 214.484 41C214.068 41.1263 213.607 41.1895 213.101 41.1895C212.167 41.1895 211.339 40.9747 210.619 40.5453C209.912 40.1032 209.356 39.4969 208.952 38.7264C208.548 37.9432 208.346 37.0401 208.346 36.017C208.346 34.9812 208.548 34.0718 208.952 33.2886C209.369 32.5055 209.931 31.8929 210.638 31.4508C211.358 30.9961 212.179 30.7687 213.101 30.7687ZM222.65 41.1895C221.703 41.1895 220.863 40.9747 220.13 40.5453C219.41 40.1032 218.848 39.4969 218.444 38.7264C218.053 37.9432 217.857 37.0464 217.857 36.0359C217.857 34.9875 218.059 34.0718 218.463 33.2886C218.88 32.4929 219.448 31.874 220.168 31.4319C220.888 30.9898 221.722 30.7687 222.669 30.7687C223.629 30.7687 224.463 30.9961 225.17 31.4508C225.89 31.8929 226.446 32.5118 226.838 33.3076C227.242 34.0907 227.444 34.9939 227.444 36.017C227.444 37.0275 227.242 37.9243 226.838 38.7074C226.433 39.4779 225.871 40.0842 225.151 40.5263C224.444 40.9684 223.61 41.1895 222.65 41.1895ZM222.688 39.9958C223.345 39.9958 223.907 39.8379 224.375 39.5221C224.842 39.1937 225.196 38.7327 225.436 38.139C225.688 37.5327 225.814 36.8128 225.814 35.9791C225.814 35.1454 225.688 34.4318 225.436 33.8381C225.183 33.2318 224.823 32.7645 224.356 32.436C223.888 32.1076 223.326 31.9434 222.669 31.9434C222.025 31.9434 221.463 32.1076 220.983 32.436C220.503 32.7645 220.13 33.2318 219.865 33.8381C219.613 34.4318 219.486 35.1454 219.486 35.9791C219.486 36.8001 219.613 37.5138 219.865 38.1201C220.13 38.7264 220.503 39.1937 220.983 39.5221C221.463 39.8379 222.031 39.9958 222.688 39.9958ZM229.142 41V30.9582H233.424C234.637 30.9582 235.546 31.1792 236.153 31.6213C236.759 32.0634 237.062 32.7076 237.062 33.5539C237.062 34.0844 236.955 34.5328 236.74 34.8991C236.525 35.2528 236.14 35.537 235.584 35.7517C235.534 35.7644 235.508 35.7959 235.508 35.8465C235.508 35.8844 235.534 35.9096 235.584 35.9223C236.14 36.0738 236.576 36.358 236.891 36.7749C237.22 37.1791 237.384 37.6717 237.384 38.2527C237.384 39.1748 237.068 39.8632 236.437 40.3179C235.805 40.7726 234.883 41 233.67 41H229.142ZM233.538 39.9011C234.372 39.9011 234.971 39.7685 235.338 39.5032C235.704 39.2253 235.887 38.7895 235.887 38.1959C235.887 37.5896 235.666 37.1538 235.224 36.8885C234.795 36.6107 234.157 36.4717 233.31 36.4717H230.658V39.9011H233.538ZM233.235 35.4486C233.689 35.4486 234.094 35.3981 234.447 35.297C234.801 35.1833 235.079 35.0002 235.281 34.7476C235.496 34.4949 235.603 34.1413 235.603 33.6865C235.603 33.1434 235.407 32.7455 235.016 32.4929C234.637 32.2403 234.081 32.1139 233.348 32.1139H230.658V35.4486H233.235ZM243.042 41.1895C242.095 41.1895 241.255 40.9747 240.522 40.5453C239.802 40.1032 239.24 39.4969 238.836 38.7264C238.444 37.9432 238.248 37.0464 238.248 36.0359C238.248 34.9875 238.45 34.0718 238.855 33.2886C239.271 32.4929 239.84 31.874 240.56 31.4319C241.28 30.9898 242.113 30.7687 243.061 30.7687C244.021 30.7687 244.854 30.9961 245.562 31.4508C246.282 31.8929 246.838 32.5118 247.229 33.3076C247.633 34.0907 247.835 34.9939 247.835 36.017C247.835 37.0275 247.633 37.9243 247.229 38.7074C246.825 39.4779 246.263 40.0842 245.543 40.5263C244.836 40.9684 244.002 41.1895 243.042 41.1895ZM243.08 39.9958C243.737 39.9958 244.299 39.8379 244.766 39.5221C245.233 39.1937 245.587 38.7327 245.827 38.139C246.08 37.5327 246.206 36.8128 246.206 35.9791C246.206 35.1454 246.08 34.4318 245.827 33.8381C245.574 33.2318 245.214 32.7645 244.747 32.436C244.28 32.1076 243.718 31.9434 243.061 31.9434C242.417 31.9434 241.855 32.1076 241.375 32.436C240.895 32.7645 240.522 33.2318 240.257 33.8381C240.004 34.4318 239.878 35.1454 239.878 35.9791C239.878 36.8001 240.004 37.5138 240.257 38.1201C240.522 38.7264 240.895 39.1937 241.375 39.5221C241.855 39.8379 242.423 39.9958 243.08 39.9958ZM249.704 41C249.591 41 249.534 40.9368 249.534 40.8105V31.1477C249.534 31.0213 249.597 30.9582 249.723 30.9582H255.748C255.887 30.9582 255.957 31.0213 255.957 31.1477V31.9434C255.957 32.0824 255.887 32.1518 255.748 32.1518H251.277C251.176 32.1518 251.125 32.2024 251.125 32.3034V40.8105C251.125 40.9368 251.056 41 250.917 41H249.704ZM261.139 41.1895C260.192 41.1895 259.352 40.9747 258.619 40.5453C257.899 40.1032 257.337 39.4969 256.933 38.7264C256.541 37.9432 256.346 37.0464 256.346 36.0359C256.346 34.9875 256.548 34.0718 256.952 33.2886C257.369 32.4929 257.937 31.874 258.657 31.4319C259.377 30.9898 260.211 30.7687 261.158 30.7687C262.118 30.7687 262.952 30.9961 263.659 31.4508C264.379 31.8929 264.935 32.5118 265.326 33.3076C265.73 34.0907 265.933 34.9939 265.933 36.017C265.933 37.0275 265.73 37.9243 265.326 38.7074C264.922 39.4779 264.36 40.0842 263.64 40.5263C262.933 40.9684 262.099 41.1895 261.139 41.1895ZM261.177 39.9958C261.834 39.9958 262.396 39.8379 262.863 39.5221C263.331 39.1937 263.684 38.7327 263.924 38.139C264.177 37.5327 264.303 36.8128 264.303 35.9791C264.303 35.1454 264.177 34.4318 263.924 33.8381C263.672 33.2318 263.312 32.7645 262.844 32.436C262.377 32.1076 261.815 31.9434 261.158 31.9434C260.514 31.9434 259.952 32.1076 259.472 32.436C258.992 32.7645 258.619 33.2318 258.354 33.8381C258.101 34.4318 257.975 35.1454 257.975 35.9791C257.975 36.8001 258.101 37.5138 258.354 38.1201C258.619 38.7264 258.992 39.1937 259.472 39.5221C259.952 39.8379 260.52 39.9958 261.177 39.9958ZM99.265 64.1895C98.0272 64.1895 96.9535 63.9116 96.0441 63.3558C95.1473 62.8 94.4589 61.9916 93.9789 60.9306C93.4989 59.857 93.2589 58.5559 93.2589 57.0276C93.2589 55.4866 93.5052 54.1729 93.9978 53.0866C94.4904 52.0004 95.1851 51.173 96.082 50.6046C96.9788 50.0362 98.0461 49.752 99.284 49.752C100.522 49.752 101.583 50.0362 102.467 50.6046C103.364 51.173 104.052 51.994 104.532 53.0677C105.025 54.1413 105.271 55.455 105.271 57.0086C105.271 58.537 105.031 59.838 104.551 60.9117C104.071 61.9727 103.376 62.7874 102.467 63.3558C101.57 63.9116 100.503 64.1895 99.265 64.1895ZM99.3029 62.8064C100.667 62.8064 101.684 62.339 102.353 61.4043C103.035 60.4569 103.376 58.998 103.376 57.0276C103.376 55.0192 103.029 53.535 102.334 52.5751C101.652 51.6151 100.636 51.1351 99.284 51.1351C97.9198 51.1351 96.8904 51.6214 96.1956 52.594C95.5009 53.554 95.1536 55.0318 95.1536 57.0276C95.1536 58.9854 95.5009 60.438 96.1956 61.3853C96.8904 62.3327 97.9261 62.8064 99.3029 62.8064ZM110.722 64.1705C110.002 64.1705 109.37 64.0821 108.827 63.9053C108.284 63.7158 107.823 63.4379 107.444 63.0716C107.065 62.7053 106.749 62.2569 106.496 61.7264C106.446 61.5874 106.484 61.4927 106.61 61.4422L107.368 61.158C107.482 61.1201 107.57 61.158 107.633 61.2717C107.974 61.8653 108.372 62.3074 108.827 62.5979C109.294 62.8885 109.894 63.0337 110.627 63.0337C111.473 63.0337 112.117 62.8632 112.559 62.5221C113.014 62.1811 113.242 61.7074 113.242 61.1011C113.242 60.558 113.065 60.1412 112.711 59.8506C112.37 59.5601 111.89 59.4149 111.271 59.4149H109.661V58.3917H111.214C111.707 58.3917 112.124 58.2402 112.465 57.937C112.806 57.6212 112.976 57.1981 112.976 56.6676C112.976 56.1497 112.781 55.7329 112.389 55.4171C112.01 55.1013 111.461 54.9434 110.741 54.9434C110.147 54.9434 109.635 55.0634 109.206 55.3034C108.789 55.5308 108.41 55.935 108.069 56.516C108.019 56.655 107.949 56.7055 107.861 56.6676L106.762 56.3834C106.724 56.3581 106.699 56.3265 106.686 56.2886C106.673 56.2508 106.68 56.1876 106.705 56.0992C107.059 55.3792 107.57 54.8108 108.24 54.394C108.922 53.9771 109.781 53.7687 110.816 53.7687C112.016 53.7687 112.932 54.034 113.564 54.5645C114.208 55.0824 114.524 55.7392 114.511 56.535C114.511 57.0276 114.41 57.4444 114.208 57.7854C114.006 58.1265 113.684 58.4044 113.242 58.6191C113.166 58.657 113.122 58.7012 113.109 58.7517C113.109 58.7896 113.153 58.8212 113.242 58.8465C113.722 59.0107 114.107 59.2886 114.397 59.6801C114.688 60.0591 114.833 60.558 114.833 61.1769C114.833 61.758 114.669 62.2758 114.34 62.7306C114.012 63.1727 113.538 63.5263 112.919 63.7916C112.313 64.0442 111.581 64.1705 110.722 64.1705ZM115.639 66.5199C115.563 66.5199 115.506 66.501 115.468 66.4631C115.431 66.4252 115.412 66.3747 115.412 66.3115V63.0148C115.412 62.8758 115.475 62.8064 115.601 62.8064H122.611C122.687 62.8064 122.725 62.7621 122.725 62.6737V55.2655C122.725 55.1897 122.681 55.1518 122.592 55.1518H119.106C119.018 55.1518 118.974 55.1897 118.974 55.2655L117.685 54.1477C117.685 54.0213 117.748 53.9582 117.875 53.9582H123.994C124.096 53.9582 124.159 53.9708 124.184 53.9961C124.209 54.0213 124.222 54.0782 124.222 54.1666V62.6358C124.222 62.7495 124.272 62.8064 124.373 62.8064H125.378C125.504 62.8064 125.567 62.8758 125.567 63.0148V66.3115C125.567 66.3747 125.548 66.4252 125.51 66.4631C125.485 66.501 125.428 66.5199 125.34 66.5199H124.411C124.234 66.5199 124.146 66.4441 124.146 66.2926V64.1326C124.146 64.0442 124.096 64 123.994 64H116.984C116.883 64 116.833 64.0442 116.833 64.1326V66.2926C116.833 66.4441 116.744 66.5199 116.567 66.5199H115.639ZM116.037 63.5642L115.961 62.8064C116.378 62.8064 116.713 62.5474 116.965 62.0295C117.23 61.5117 117.414 60.7664 117.515 59.7938C117.628 58.8086 117.685 57.6212 117.685 56.2318V54.1477H118.974V56.2697C118.974 57.3812 118.917 58.3981 118.803 59.3201C118.702 60.2422 118.538 61.0254 118.31 61.6695C118.083 62.3137 117.78 62.8 117.401 63.1284C117.022 63.4569 116.567 63.6021 116.037 63.5642ZM130.852 64.1895C129.904 64.1895 129.064 63.9747 128.332 63.5453C127.612 63.1032 127.05 62.4969 126.645 61.7264C126.254 60.9432 126.058 60.0464 126.058 59.0359C126.058 57.9875 126.26 57.0718 126.664 56.2886C127.081 55.4929 127.65 54.874 128.37 54.4319C129.09 53.9898 129.923 53.7687 130.871 53.7687C131.831 53.7687 132.664 53.9961 133.372 54.4508C134.091 54.8929 134.647 55.5118 135.039 56.3076C135.443 57.0907 135.645 57.9939 135.645 59.017C135.645 60.0275 135.443 60.9243 135.039 61.7074C134.635 62.4779 134.073 63.0842 133.353 63.5263C132.645 63.9684 131.812 64.1895 130.852 64.1895ZM130.889 62.9958C131.546 62.9958 132.108 62.8379 132.576 62.5221C133.043 62.1937 133.397 61.7327 133.637 61.139C133.889 60.5327 134.016 59.8128 134.016 58.9791C134.016 58.1454 133.889 57.4318 133.637 56.8381C133.384 56.2318 133.024 55.7645 132.557 55.436C132.089 55.1076 131.527 54.9434 130.871 54.9434C130.226 54.9434 129.664 55.1076 129.184 55.436C128.704 55.7645 128.332 56.2318 128.066 56.8381C127.814 57.4318 127.687 58.1454 127.687 58.9791C127.687 59.8001 127.814 60.5138 128.066 61.1201C128.332 61.7264 128.704 62.1937 129.184 62.5221C129.664 62.8379 130.233 62.9958 130.889 62.9958ZM138.537 53.9582C138.714 53.9582 138.802 54.0529 138.802 54.2424V55.0382C138.802 55.1392 138.821 55.196 138.859 55.2087C138.91 55.2087 138.973 55.1771 139.049 55.1139C139.188 54.9624 139.377 54.7855 139.617 54.5834C139.857 54.3687 140.166 54.1792 140.545 54.015C140.937 53.8508 141.43 53.7687 142.023 53.7687C142.794 53.7687 143.488 53.9582 144.107 54.3371C144.739 54.7034 145.238 55.2592 145.604 56.0044C145.983 56.7497 146.173 57.6907 146.173 58.8275C146.173 59.9643 145.989 60.9306 145.623 61.7264C145.257 62.5221 144.745 63.1348 144.088 63.5642C143.444 63.9811 142.686 64.1895 141.815 64.1895C141.234 64.1895 140.716 64.101 140.261 63.9242C139.819 63.7347 139.44 63.5074 139.124 63.2421C139.011 63.1411 138.929 63.1032 138.878 63.1284C138.84 63.1411 138.821 63.2169 138.821 63.3558V66.8799C138.821 67.0441 138.752 67.1262 138.613 67.1262H137.438C137.299 67.1262 137.23 67.0441 137.23 66.8799V54.2613C137.23 54.1477 137.249 54.0719 137.287 54.034C137.337 53.9835 137.419 53.9582 137.533 53.9582H138.537ZM138.821 61.7832C139.213 62.1622 139.611 62.4653 140.015 62.6927C140.432 62.92 140.893 63.0337 141.398 63.0337C142.004 63.0337 142.541 62.8758 143.008 62.56C143.488 62.2443 143.861 61.7769 144.126 61.158C144.404 60.539 144.543 59.7685 144.543 58.8465C144.543 57.9244 144.404 57.1728 144.126 56.5918C143.848 56.0108 143.476 55.5876 143.008 55.3224C142.554 55.0571 142.049 54.9245 141.493 54.9245C140.975 54.9245 140.514 55.0382 140.11 55.2655C139.705 55.4929 139.39 55.7771 139.162 56.1181C138.935 56.4465 138.821 56.7749 138.821 57.1034V61.7832ZM151.983 64.1895C151.036 64.1895 150.196 63.9747 149.463 63.5453C148.743 63.1032 148.181 62.4969 147.777 61.7264C147.385 60.9432 147.19 60.0464 147.19 59.0359C147.19 57.9875 147.392 57.0718 147.796 56.2886C148.213 55.4929 148.781 54.874 149.501 54.4319C150.221 53.9898 151.055 53.7687 152.002 53.7687C152.962 53.7687 153.796 53.9961 154.503 54.4508C155.223 54.8929 155.779 55.5118 156.17 56.3076C156.575 57.0907 156.777 57.9939 156.777 59.017C156.777 60.0275 156.575 60.9243 156.17 61.7074C155.766 62.4779 155.204 63.0842 154.484 63.5263C153.777 63.9684 152.943 64.1895 151.983 64.1895ZM152.021 62.9958C152.678 62.9958 153.24 62.8379 153.707 62.5221C154.175 62.1937 154.528 61.7327 154.768 61.139C155.021 60.5327 155.147 59.8128 155.147 58.9791C155.147 58.1454 155.021 57.4318 154.768 56.8381C154.516 56.2318 154.156 55.7645 153.688 55.436C153.221 55.1076 152.659 54.9434 152.002 54.9434C151.358 54.9434 150.796 55.1076 150.316 55.436C149.836 55.7645 149.463 56.2318 149.198 56.8381C148.945 57.4318 148.819 58.1454 148.819 58.9791C148.819 59.8001 148.945 60.5138 149.198 61.1201C149.463 61.7264 149.836 62.1937 150.316 62.5221C150.796 62.8379 151.364 62.9958 152.021 62.9958ZM158.475 64V53.9582H162.757C163.97 53.9582 164.879 54.1792 165.485 54.6213C166.092 55.0634 166.395 55.7076 166.395 56.5539C166.395 57.0844 166.287 57.5328 166.073 57.8991C165.858 58.2528 165.473 58.537 164.917 58.7517C164.866 58.7644 164.841 58.7959 164.841 58.8465C164.841 58.8844 164.866 58.9096 164.917 58.9223C165.473 59.0738 165.908 59.358 166.224 59.7749C166.553 60.1791 166.717 60.6717 166.717 61.2527C166.717 62.1748 166.401 62.8632 165.77 63.3179C165.138 63.7726 164.216 64 163.003 64H158.475ZM162.871 62.9011C163.704 62.9011 164.304 62.7685 164.671 62.5032C165.037 62.2253 165.22 61.7895 165.22 61.1959C165.22 60.5896 164.999 60.1538 164.557 59.8885C164.127 59.6107 163.49 59.4717 162.643 59.4717H159.991V62.9011H162.871ZM162.568 58.4486C163.022 58.4486 163.426 58.3981 163.78 58.297C164.134 58.1833 164.412 58.0002 164.614 57.7476C164.829 57.4949 164.936 57.1413 164.936 56.6865C164.936 56.1434 164.74 55.7455 164.349 55.4929C163.97 55.2403 163.414 55.1139 162.681 55.1139H159.991V58.4486H162.568ZM167.24 64C167.126 63.9747 167.076 63.9116 167.089 63.8105L167.202 62.8442C167.215 62.7432 167.272 62.6927 167.373 62.6927C167.815 62.7179 168.181 62.5853 168.472 62.2948C168.775 61.9916 169.015 61.5559 169.192 60.9875C169.381 60.4064 169.514 59.718 169.59 58.9223C169.678 58.1265 169.722 57.2423 169.722 56.2697V53.9582H176.372V64H174.781V55.1139H171.011V56.4971C171.011 57.6339 170.941 58.6886 170.802 59.6612C170.663 60.6212 170.448 61.4422 170.158 62.1243C169.867 62.8064 169.482 63.3179 169.002 63.659C168.522 63.9874 167.935 64.101 167.24 64ZM179.684 59.6043C179.684 60.2233 179.83 60.7917 180.12 61.3096C180.423 61.8148 180.821 62.219 181.314 62.5221C181.819 62.8253 182.381 62.9769 183 62.9769C183.632 62.9769 184.194 62.8506 184.686 62.5979C185.179 62.3327 185.602 61.9348 185.956 61.4043C186.006 61.3538 186.044 61.3285 186.069 61.3285C186.107 61.3159 186.158 61.3222 186.221 61.3474L187.017 61.7453C187.13 61.8085 187.143 61.8969 187.055 62.0106C186.714 62.5158 186.335 62.9327 185.918 63.2611C185.514 63.5769 185.059 63.8105 184.554 63.9621C184.048 64.1137 183.48 64.1895 182.848 64.1895C181.914 64.1895 181.086 63.9747 180.366 63.5453C179.646 63.1158 179.078 62.5158 178.661 61.7453C178.244 60.9748 178.036 60.0843 178.036 59.0738C178.036 57.9749 178.244 57.0339 178.661 56.2508C179.091 55.455 179.665 54.8424 180.385 54.4129C181.118 53.9835 181.933 53.7687 182.83 53.7687C183.752 53.7687 184.554 53.9708 185.236 54.375C185.918 54.7792 186.448 55.3666 186.827 56.1371C187.206 56.9076 187.396 57.836 187.396 58.9223C187.396 59.0107 187.383 59.0991 187.358 59.1875C187.345 59.2759 187.263 59.3201 187.111 59.3201H179.855C179.804 59.3201 179.76 59.3517 179.722 59.4149C179.697 59.4654 179.684 59.5286 179.684 59.6043ZM185.482 58.2781C185.621 58.2781 185.709 58.2654 185.747 58.2402C185.785 58.2023 185.804 58.1265 185.804 58.0128C185.804 57.4697 185.684 56.9644 185.444 56.4971C185.217 56.0171 184.882 55.6318 184.44 55.3413C184.011 55.0508 183.486 54.9055 182.867 54.9055C182.185 54.9055 181.611 55.0697 181.143 55.3981C180.676 55.7139 180.322 56.1308 180.082 56.6486C179.842 57.1665 179.722 57.7097 179.722 58.2781H185.482ZM190.58 54.2045V63.6779C190.58 63.8042 190.555 63.8926 190.504 63.9432C190.453 63.9811 190.365 64 190.239 64H189.272C189.159 64 189.083 63.9811 189.045 63.9432C189.007 63.9053 188.988 63.8358 188.988 63.7347V54.2234C188.988 54.0466 189.058 53.9582 189.197 53.9582H190.352C190.504 53.9582 190.58 54.0403 190.58 54.2045ZM197.23 54.2045V63.6779C197.23 63.8042 197.205 63.8926 197.154 63.9432C197.116 63.9811 197.034 64 196.908 64H195.923C195.809 64 195.733 63.9811 195.695 63.9432C195.658 63.9053 195.639 63.8358 195.639 63.7347V54.2234C195.639 54.0466 195.714 53.9582 195.866 53.9582H197.022C197.161 53.9582 197.23 54.0403 197.23 54.2045ZM189.651 59.3391C189.512 59.3391 189.443 59.2696 189.443 59.1307V58.3349C189.443 58.2086 189.506 58.1454 189.632 58.1454H196.434C196.573 58.1454 196.643 58.2086 196.643 58.3349V59.1307C196.643 59.2696 196.573 59.3391 196.434 59.3391H189.651ZM201.144 54.2045V63.6779C201.144 63.8042 201.119 63.8926 201.068 63.9432C201.031 63.9811 200.942 64 200.803 64H199.894C199.78 64 199.704 63.9811 199.666 63.9432C199.629 63.9053 199.61 63.8358 199.61 63.7347V54.2234C199.61 54.0466 199.679 53.9582 199.818 53.9582H200.917C201.068 53.9582 201.144 54.0403 201.144 54.2045ZM208.041 54.2045V63.6779C208.041 63.8042 208.016 63.8926 207.965 63.9432C207.927 63.9811 207.845 64 207.719 64H206.79C206.677 64 206.601 63.9811 206.563 63.9432C206.525 63.9053 206.506 63.8358 206.506 63.7347V54.2234C206.506 54.0466 206.582 53.9582 206.734 53.9582H207.832C207.971 53.9582 208.041 54.0403 208.041 54.2045ZM206.544 54.034L207.491 54.6971L201.087 63.9242L200.14 63.2611L206.544 54.034ZM216.194 64V60.3622H214.319C213.737 60.3622 213.194 60.2864 212.689 60.1348C212.196 59.9706 211.754 59.7496 211.363 59.4717C210.984 59.1812 210.687 58.8338 210.472 58.4296C210.258 58.0128 210.15 57.5518 210.15 57.0465C210.15 56.0992 210.472 55.3476 211.117 54.7918C211.773 54.2361 212.708 53.9582 213.921 53.9582H217.729V64H216.194ZM210.093 64C209.98 64 209.91 63.9684 209.885 63.9053C209.86 63.8295 209.879 63.7474 209.942 63.659L213.03 59.7559L214.527 60.3622C214.287 60.3496 214.104 60.4254 213.977 60.5896L211.609 63.8105C211.559 63.8863 211.508 63.9368 211.458 63.9621C211.407 63.9874 211.344 64 211.268 64H210.093ZM214.186 59.2822H216.194V55.0571H214.091C213.27 55.0571 212.664 55.2403 212.272 55.6066C211.881 55.9602 211.685 56.4529 211.685 57.0844C211.685 57.6023 211.799 58.0254 212.026 58.3538C212.266 58.6696 212.575 58.9033 212.954 59.0549C213.333 59.2065 213.744 59.2822 214.186 59.2822Z" fill="#162736"/>
</svg>
