<svg width="200" height="51" viewBox="0 0 200 51" fill="none" xmlns="http://www.w3.org/2000/svg">
<path d="M35.0769 46.0357V47.8819H12.9231V46.0357C12.9231 45.0185 13.752 44.1895 14.7692 44.1895H18.4855C18.5834 41.8855 20.0788 39.9618 22.1538 39.2252V17.5791C21.1809 16.9643 20.5292 15.8862 20.5292 14.6492H22.1538H25.8462H27.4708C27.4708 15.8862 26.8191 16.9643 25.8462 17.5791V39.2234C27.9212 39.96 29.4166 41.8837 29.5145 44.1877H33.2308C34.248 44.1895 35.0769 45.0185 35.0769 46.0357ZM48 29.4185C46.6468 33.2289 43.0431 35.9779 38.7692 35.9779C34.4954 35.9779 30.8917 33.2271 29.5385 29.4185H31.6689L37.9052 12.8898C38.1748 12.1698 39.3618 12.1698 39.6332 12.8898L45.8695 29.4185H48ZM43.896 29.4185L38.7692 15.8326L33.6425 29.4203H43.896V29.4185ZM9.23077 10.9772C10.0671 10.9772 10.7483 10.4178 10.9846 9.65908C11.5957 9.42646 12.2215 9.11262 12.864 8.78769C14.2763 8.07508 15.8769 7.26462 17.5385 7.26462C19.1335 7.26462 20.1305 8.00123 20.7009 8.62892C20.6788 8.78769 20.6529 8.94646 20.6529 9.11077C20.6529 10.9588 22.152 12.4578 24 12.4578C25.848 12.4578 27.3471 10.9588 27.3471 9.11077C27.3471 8.94646 27.3212 8.78954 27.2991 8.63077C27.8677 8.00492 28.8646 7.26462 30.4615 7.26462C32.1231 7.26462 33.7237 8.07323 35.1342 8.78585C35.7785 9.11077 36.4043 9.42462 37.0154 9.65723C37.2517 10.416 37.9329 10.9754 38.7692 10.9754C39.7994 10.9754 40.6338 10.1409 40.6338 9.11077C40.6338 8.08062 39.7994 7.24615 38.7692 7.24615C38.2375 7.24615 37.7631 7.47508 37.4234 7.83323C36.9674 7.64123 36.4745 7.39569 35.9668 7.13908C34.3717 6.33231 32.5643 5.41846 30.4615 5.41846C28.6228 5.41846 27.3415 6.11815 26.472 6.87139C26.0825 6.44123 25.584 6.12 25.0172 5.93723C25.7058 5.568 26.1895 4.86462 26.1895 4.032C26.1895 2.82277 24 0 24 0C24 0 21.8105 2.82277 21.8105 4.032C21.8105 4.86646 22.2942 5.568 22.9828 5.93723C22.416 6.11815 21.9175 6.44123 21.528 6.87139C20.6585 6.11815 19.3772 5.41846 17.5385 5.41846C15.4357 5.41846 13.6265 6.33231 12.0314 7.13908C11.5237 7.39754 11.0326 7.64308 10.5766 7.83323C10.2369 7.47692 9.76246 7.24615 9.23077 7.24615C8.20061 7.24615 7.36615 8.08062 7.36615 9.11077C7.36615 10.1409 8.20061 10.9772 9.23077 10.9772ZM9.23077 35.9797C4.95692 35.9797 1.35323 33.2289 0 29.4203H2.13046L8.36677 12.8917C8.63631 12.1717 9.82338 12.1717 10.0948 12.8917L16.3311 29.4203H18.4615C17.1083 33.2289 13.5046 35.9797 9.23077 35.9797ZM14.3575 29.4185L9.23077 15.8326L4.104 29.4203H14.3575V29.4185Z" fill="#057CBF"/>
<path d="M73.348 14.14C72.4333 14.14 71.64 13.9347 70.968 13.524C70.3053 13.1133 69.7967 12.516 69.442 11.732C69.0873 10.9387 68.91 9.97733 68.91 8.848C68.91 7.70933 69.092 6.73867 69.456 5.936C69.82 5.13333 70.3333 4.522 70.996 4.102C71.6587 3.682 72.4473 3.472 73.362 3.472C74.2767 3.472 75.0607 3.682 75.714 4.102C76.3767 4.522 76.8853 5.12867 77.24 5.922C77.604 6.71533 77.786 7.686 77.786 8.834C77.786 9.96333 77.6087 10.9247 77.254 11.718C76.8993 12.502 76.386 13.104 75.714 13.524C75.0513 13.9347 74.2627 14.14 73.348 14.14ZM73.376 13.118C74.384 13.118 75.1353 12.7727 75.63 12.082C76.134 11.382 76.386 10.304 76.386 8.848C76.386 7.364 76.1293 6.26733 75.616 5.558C75.112 4.84867 74.3607 4.494 73.362 4.494C72.354 4.494 71.5933 4.85333 71.08 5.572C70.5667 6.28133 70.31 7.37333 70.31 8.848C70.31 10.2947 70.5667 11.368 71.08 12.068C71.5933 12.768 72.3587 13.118 73.376 13.118ZM83.4794 14.14C82.5647 14.14 81.7714 13.9347 81.0994 13.524C80.4367 13.1133 79.9281 12.516 79.5734 11.732C79.2187 10.9387 79.0414 9.97733 79.0414 8.848C79.0414 7.70933 79.2234 6.73867 79.5874 5.936C79.9514 5.13333 80.4647 4.522 81.1274 4.102C81.7901 3.682 82.5787 3.472 83.4934 3.472C84.4081 3.472 85.1921 3.682 85.8454 4.102C86.5081 4.522 87.0167 5.12867 87.3714 5.922C87.7354 6.71533 87.9174 7.686 87.9174 8.834C87.9174 9.96333 87.7401 10.9247 87.3854 11.718C87.0307 12.502 86.5174 13.104 85.8454 13.524C85.1827 13.9347 84.3941 14.14 83.4794 14.14ZM83.5074 13.118C84.5154 13.118 85.2667 12.7727 85.7614 12.082C86.2654 11.382 86.5174 10.304 86.5174 8.848C86.5174 7.364 86.2607 6.26733 85.7474 5.558C85.2434 4.84867 84.4921 4.494 83.4934 4.494C82.4854 4.494 81.7247 4.85333 81.2114 5.572C80.6981 6.28133 80.4414 7.37333 80.4414 8.848C80.4414 10.2947 80.6981 11.368 81.2114 12.068C81.7247 12.768 82.4901 13.118 83.5074 13.118ZM93.6108 14.14C92.6961 14.14 91.9028 13.9347 91.2308 13.524C90.5681 13.1133 90.0595 12.516 89.7048 11.732C89.3501 10.9387 89.1728 9.97733 89.1728 8.848C89.1728 7.70933 89.3548 6.73867 89.7188 5.936C90.0828 5.13333 90.5961 4.522 91.2588 4.102C91.9215 3.682 92.7101 3.472 93.6248 3.472C94.5395 3.472 95.3235 3.682 95.9768 4.102C96.6395 4.522 97.1481 5.12867 97.5028 5.922C97.8668 6.71533 98.0488 7.686 98.0488 8.834C98.0488 9.96333 97.8715 10.9247 97.5168 11.718C97.1621 12.502 96.6488 13.104 95.9768 13.524C95.3141 13.9347 94.5255 14.14 93.6108 14.14ZM93.6388 13.118C94.6468 13.118 95.3981 12.7727 95.8928 12.082C96.3968 11.382 96.6488 10.304 96.6488 8.848C96.6488 7.364 96.3921 6.26733 95.8788 5.558C95.3748 4.84867 94.6235 4.494 93.6248 4.494C92.6168 4.494 91.8561 4.85333 91.3428 5.572C90.8295 6.28133 90.5728 7.37333 90.5728 8.848C90.5728 10.2947 90.8295 11.368 91.3428 12.068C91.8561 12.768 92.6215 13.118 93.6388 13.118ZM105.266 6.636C105.248 6.70133 105.224 6.75267 105.196 6.79C105.168 6.818 105.112 6.832 105.028 6.832H104.692C104.627 6.832 104.58 6.82267 104.552 6.804C104.534 6.776 104.515 6.72933 104.496 6.664L104.16 3.752C104.151 3.70533 104.16 3.67267 104.188 3.654C104.226 3.626 104.258 3.612 104.286 3.612H105.49C105.584 3.612 105.626 3.65867 105.616 3.752L105.266 6.636ZM102.9 6.636C102.882 6.70133 102.858 6.75267 102.83 6.79C102.802 6.818 102.746 6.832 102.662 6.832H102.326C102.261 6.832 102.214 6.82267 102.186 6.804C102.168 6.776 102.149 6.72933 102.13 6.664L101.794 3.752C101.785 3.70533 101.794 3.67267 101.822 3.654C101.86 3.626 101.892 3.612 101.92 3.612H103.124C103.218 3.612 103.26 3.65867 103.25 3.752L102.9 6.636ZM107.607 14C107.495 14 107.439 13.9347 107.439 13.804V3.808C107.439 3.74267 107.453 3.696 107.481 3.668C107.509 3.63067 107.56 3.612 107.635 3.612H108.559C108.708 3.612 108.783 3.682 108.783 3.822V12.81C108.783 12.894 108.825 12.936 108.909 12.936H113.193C113.277 12.936 113.319 12.8893 113.319 12.796V3.822C113.319 3.682 113.398 3.612 113.557 3.612H114.467C114.542 3.612 114.593 3.63067 114.621 3.668C114.649 3.696 114.663 3.74267 114.663 3.808V13.804C114.663 13.9347 114.612 14 114.509 14H107.607ZM114.985 15.946C114.826 15.946 114.747 15.876 114.747 15.736V14.126C114.747 14.042 114.705 14 114.621 14H113.823L114.663 12.796C114.663 12.8893 114.71 12.936 114.803 12.936H115.769C115.881 12.936 115.937 12.9967 115.937 13.118V15.75C115.937 15.8153 115.923 15.862 115.895 15.89C115.867 15.9273 115.816 15.946 115.741 15.946H114.985ZM122.111 14.14C121.999 14.14 121.943 14.0887 121.943 13.986V12.656C121.943 12.5627 121.901 12.5207 121.817 12.53C120.743 12.6887 119.838 12.6327 119.101 12.362C118.373 12.0913 117.817 11.6293 117.435 10.976C117.052 10.3227 116.861 9.52467 116.861 8.582C116.861 7.97533 116.963 7.41067 117.169 6.888C117.374 6.36533 117.682 5.922 118.093 5.558C118.503 5.194 119.012 4.94667 119.619 4.816C120.235 4.676 120.949 4.69 121.761 4.858C121.882 4.87667 121.943 4.83 121.943 4.718V3.444C121.943 3.332 121.994 3.276 122.097 3.276H123.147C123.259 3.276 123.315 3.32733 123.315 3.43V4.704C123.315 4.82533 123.371 4.87667 123.483 4.858C124.304 4.69 125.023 4.67133 125.639 4.802C126.255 4.93267 126.768 5.18 127.179 5.544C127.589 5.908 127.893 6.356 128.089 6.888C128.294 7.41067 128.397 7.97533 128.397 8.582C128.397 9.52467 128.205 10.3227 127.823 10.976C127.449 11.6293 126.894 12.0913 126.157 12.362C125.419 12.6327 124.514 12.6887 123.441 12.53C123.357 12.5207 123.315 12.5627 123.315 12.656V13.972C123.315 14.084 123.263 14.14 123.161 14.14H122.111ZM121.873 11.578C121.957 11.5687 121.999 11.5033 121.999 11.382V5.95C121.999 5.88467 121.985 5.84267 121.957 5.824C121.929 5.80533 121.887 5.79133 121.831 5.782C121.065 5.60467 120.407 5.614 119.857 5.81C119.315 5.99667 118.9 6.328 118.611 6.804C118.331 7.28 118.191 7.86333 118.191 8.554C118.191 9.31933 118.321 9.95867 118.583 10.472C118.853 10.976 119.259 11.326 119.801 11.522C120.342 11.7087 121.033 11.7273 121.873 11.578ZM123.385 11.578C124.225 11.7273 124.915 11.7087 125.457 11.522C125.998 11.326 126.399 10.976 126.661 10.472C126.931 9.95867 127.067 9.31933 127.067 8.554C127.067 7.86333 126.922 7.28 126.633 6.804C126.343 6.328 125.928 5.99667 125.387 5.81C124.855 5.614 124.201 5.60467 123.427 5.782C123.361 5.79133 123.315 5.80533 123.287 5.824C123.259 5.84267 123.245 5.88467 123.245 5.95V11.382C123.245 11.5033 123.291 11.5687 123.385 11.578ZM134.096 14.14C133.181 14.14 132.388 13.9347 131.716 13.524C131.053 13.1133 130.545 12.516 130.19 11.732C129.835 10.9387 129.658 9.97733 129.658 8.848C129.658 7.70933 129.84 6.73867 130.204 5.936C130.568 5.13333 131.081 4.522 131.744 4.102C132.407 3.682 133.195 3.472 134.11 3.472C135.025 3.472 135.809 3.682 136.462 4.102C137.125 4.522 137.633 5.12867 137.988 5.922C138.352 6.71533 138.534 7.686 138.534 8.834C138.534 9.96333 138.357 10.9247 138.002 11.718C137.647 12.502 137.134 13.104 136.462 13.524C135.799 13.9347 135.011 14.14 134.096 14.14ZM134.124 13.118C135.132 13.118 135.883 12.7727 136.378 12.082C136.882 11.382 137.134 10.304 137.134 8.848C137.134 7.364 136.877 6.26733 136.364 5.558C135.86 4.84867 135.109 4.494 134.11 4.494C133.102 4.494 132.341 4.85333 131.828 5.572C131.315 6.28133 131.058 7.37333 131.058 8.848C131.058 10.2947 131.315 11.368 131.828 12.068C132.341 12.768 133.107 13.118 134.124 13.118ZM143.317 6.636C143.299 6.70133 143.275 6.75267 143.247 6.79C143.219 6.818 143.163 6.832 143.079 6.832H142.743C142.678 6.832 142.631 6.82267 142.603 6.804C142.585 6.776 142.566 6.72933 142.547 6.664L142.211 3.752C142.202 3.70533 142.211 3.67267 142.239 3.654C142.277 3.626 142.309 3.612 142.337 3.612H143.541C143.635 3.612 143.677 3.65867 143.667 3.752L143.317 6.636ZM140.951 6.636C140.933 6.70133 140.909 6.75267 140.881 6.79C140.853 6.818 140.797 6.832 140.713 6.832H140.377C140.312 6.832 140.265 6.82267 140.237 6.804C140.219 6.776 140.2 6.72933 140.181 6.664L139.845 3.752C139.836 3.70533 139.845 3.67267 139.873 3.654C139.911 3.626 139.943 3.612 139.971 3.612H141.175C141.269 3.612 141.311 3.65867 141.301 3.752L140.951 6.636ZM69.61 31C69.498 31 69.442 30.9347 69.442 30.804V20.808C69.442 20.7427 69.456 20.696 69.484 20.668C69.512 20.6307 69.5633 20.612 69.638 20.612H70.562C70.7113 20.612 70.786 20.682 70.786 20.822V29.81C70.786 29.894 70.828 29.936 70.912 29.936H75.196C75.28 29.936 75.322 29.8893 75.322 29.796V20.822C75.322 20.682 75.4013 20.612 75.56 20.612H76.47C76.5447 20.612 76.596 20.6307 76.624 20.668C76.652 20.696 76.666 20.7427 76.666 20.808V30.804C76.666 30.9347 76.6147 31 76.512 31H69.61ZM76.988 32.946C76.8293 32.946 76.75 32.876 76.75 32.736V31.126C76.75 31.042 76.708 31 76.624 31H75.826L76.666 29.796C76.666 29.8893 76.7127 29.936 76.806 29.936H77.772C77.884 29.936 77.94 29.9967 77.94 30.118V32.75C77.94 32.8153 77.926 32.862 77.898 32.89C77.87 32.9273 77.8187 32.946 77.744 32.946H76.988ZM79.8157 27.752C79.8157 28.2093 79.923 28.6293 80.1377 29.012C80.3617 29.3853 80.6557 29.684 81.0197 29.908C81.393 30.132 81.8083 30.244 82.2657 30.244C82.7323 30.244 83.1477 30.1507 83.5117 29.964C83.8757 29.768 84.1883 29.474 84.4497 29.082C84.487 29.0447 84.515 29.026 84.5337 29.026C84.5617 29.0167 84.599 29.0213 84.6457 29.04L85.2337 29.334C85.3177 29.3807 85.327 29.446 85.2617 29.53C85.0097 29.9033 84.7297 30.2113 84.4217 30.454C84.123 30.6873 83.787 30.86 83.4137 30.972C83.0403 31.084 82.6203 31.14 82.1537 31.14C81.463 31.14 80.8517 30.9813 80.3197 30.664C79.7877 30.3467 79.3677 29.9033 79.0597 29.334C78.7517 28.7647 78.5977 28.1067 78.5977 27.36C78.5977 26.548 78.7517 25.8527 79.0597 25.274C79.377 24.686 79.8017 24.2333 80.3337 23.916C80.875 23.5987 81.477 23.44 82.1397 23.44C82.821 23.44 83.4137 23.5893 83.9177 23.888C84.4217 24.1867 84.8137 24.6207 85.0937 25.19C85.3737 25.7593 85.5137 26.4453 85.5137 27.248C85.5137 27.3133 85.5043 27.3787 85.4857 27.444C85.4763 27.5093 85.4157 27.542 85.3037 27.542H79.9417C79.9043 27.542 79.8717 27.5653 79.8437 27.612C79.825 27.6493 79.8157 27.696 79.8157 27.752ZM84.0997 26.772C84.2023 26.772 84.2677 26.7627 84.2957 26.744C84.3237 26.716 84.3377 26.66 84.3377 26.576C84.3377 26.1747 84.249 25.8013 84.0717 25.456C83.9037 25.1013 83.6563 24.8167 83.3297 24.602C83.0123 24.3873 82.625 24.28 82.1677 24.28C81.6637 24.28 81.239 24.4013 80.8937 24.644C80.5483 24.8773 80.287 25.1853 80.1097 25.568C79.9323 25.9507 79.8437 26.352 79.8437 26.772H84.0997ZM87.8664 23.762V30.762C87.8664 30.8553 87.8478 30.9207 87.8104 30.958C87.7731 30.986 87.7078 31 87.6144 31H86.9004C86.8164 31 86.7604 30.986 86.7324 30.958C86.7044 30.93 86.6904 30.8787 86.6904 30.804V23.776C86.6904 23.6453 86.7418 23.58 86.8444 23.58H87.6984C87.8104 23.58 87.8664 23.6407 87.8664 23.762ZM92.7804 23.762V30.762C92.7804 30.8553 92.7618 30.9207 92.7244 30.958C92.6964 30.986 92.6358 31 92.5424 31H91.8144C91.7304 31 91.6744 30.986 91.6464 30.958C91.6184 30.93 91.6044 30.8787 91.6044 30.804V23.776C91.6044 23.6453 91.6604 23.58 91.7724 23.58H92.6264C92.7291 23.58 92.7804 23.6407 92.7804 23.762ZM87.1804 27.556C87.0778 27.556 87.0264 27.5047 87.0264 27.402V26.814C87.0264 26.7207 87.0731 26.674 87.1664 26.674H92.1924C92.2951 26.674 92.3464 26.7207 92.3464 26.814V27.402C92.3464 27.5047 92.2951 27.556 92.1924 27.556H87.1804ZM99.6766 24.462H97.4226C97.3386 24.462 97.2966 24.4993 97.2966 24.574V30.86C97.2966 30.9533 97.25 31 97.1566 31H96.2606C96.1673 31 96.1206 30.9533 96.1206 30.86V24.602C96.1206 24.5087 96.0786 24.462 95.9946 24.462H93.7406C93.638 24.462 93.5866 24.4107 93.5866 24.308V23.72C93.5866 23.6267 93.6333 23.58 93.7266 23.58H99.6766C99.7793 23.58 99.8306 23.622 99.8306 23.706V24.308C99.8306 24.4107 99.7793 24.462 99.6766 24.462ZM101.519 23.58C101.65 23.58 101.715 23.65 101.715 23.79V24.378C101.715 24.4527 101.729 24.4947 101.757 24.504C101.794 24.504 101.841 24.4807 101.897 24.434C102 24.322 102.14 24.1913 102.317 24.042C102.494 23.8833 102.723 23.7433 103.003 23.622C103.292 23.5007 103.656 23.44 104.095 23.44C104.664 23.44 105.178 23.58 105.635 23.86C106.102 24.1307 106.47 24.5413 106.741 25.092C107.021 25.6427 107.161 26.338 107.161 27.178C107.161 28.018 107.026 28.732 106.755 29.32C106.484 29.908 106.106 30.3607 105.621 30.678C105.145 30.986 104.585 31.14 103.941 31.14C103.512 31.14 103.129 31.0747 102.793 30.944C102.466 30.804 102.186 30.636 101.953 30.44C101.869 30.3653 101.808 30.3373 101.771 30.356C101.743 30.3653 101.729 30.4213 101.729 30.524V33.128C101.729 33.2493 101.678 33.31 101.575 33.31H100.707C100.604 33.31 100.553 33.2493 100.553 33.128V23.804C100.553 23.72 100.567 23.664 100.595 23.636C100.632 23.5987 100.693 23.58 100.777 23.58H101.519ZM101.729 29.362C102.018 29.642 102.312 29.866 102.611 30.034C102.919 30.202 103.26 30.286 103.633 30.286C104.081 30.286 104.478 30.1693 104.823 29.936C105.178 29.7027 105.453 29.3573 105.649 28.9C105.854 28.4427 105.957 27.8733 105.957 27.192C105.957 26.5107 105.854 25.9553 105.649 25.526C105.444 25.0967 105.168 24.784 104.823 24.588C104.487 24.392 104.114 24.294 103.703 24.294C103.32 24.294 102.98 24.378 102.681 24.546C102.382 24.714 102.149 24.924 101.981 25.176C101.813 25.4187 101.729 25.6613 101.729 25.904V29.362ZM115.862 31.14C115.75 31.14 115.694 31.0887 115.694 30.986V29.656C115.694 29.5627 115.652 29.5207 115.568 29.53C114.495 29.6887 113.59 29.6327 112.852 29.362C112.124 29.0913 111.569 28.6293 111.186 27.976C110.804 27.3227 110.612 26.5247 110.612 25.582C110.612 24.9753 110.715 24.4107 110.92 23.888C111.126 23.3653 111.434 22.922 111.844 22.558C112.255 22.194 112.764 21.9467 113.37 21.816C113.986 21.676 114.7 21.69 115.512 21.858C115.634 21.8767 115.694 21.83 115.694 21.718V20.444C115.694 20.332 115.746 20.276 115.848 20.276H116.898C117.01 20.276 117.066 20.3273 117.066 20.43V21.704C117.066 21.8253 117.122 21.8767 117.235 21.858C118.056 21.69 118.774 21.6713 119.39 21.802C120.006 21.9327 120.52 22.18 120.931 22.544C121.341 22.908 121.644 23.356 121.84 23.888C122.046 24.4107 122.149 24.9753 122.149 25.582C122.149 26.5247 121.957 27.3227 121.575 27.976C121.201 28.6293 120.646 29.0913 119.908 29.362C119.171 29.6327 118.266 29.6887 117.192 29.53C117.108 29.5207 117.066 29.5627 117.066 29.656V30.972C117.066 31.084 117.015 31.14 116.913 31.14H115.862ZM115.624 28.578C115.708 28.5687 115.75 28.5033 115.75 28.382V22.95C115.75 22.8847 115.736 22.8427 115.708 22.824C115.68 22.8053 115.638 22.7913 115.582 22.782C114.817 22.6047 114.159 22.614 113.608 22.81C113.067 22.9967 112.652 23.328 112.362 23.804C112.082 24.28 111.942 24.8633 111.942 25.554C111.942 26.3193 112.073 26.9587 112.334 27.472C112.605 27.976 113.011 28.326 113.552 28.522C114.094 28.7087 114.784 28.7273 115.624 28.578ZM117.136 28.578C117.976 28.7273 118.667 28.7087 119.208 28.522C119.75 28.326 120.151 27.976 120.413 27.472C120.683 26.9587 120.818 26.3193 120.818 25.554C120.818 24.8633 120.674 24.28 120.384 23.804C120.095 23.328 119.68 22.9967 119.138 22.81C118.606 22.614 117.953 22.6047 117.178 22.782C117.113 22.7913 117.066 22.8053 117.039 22.824C117.01 22.8427 116.996 22.8847 116.996 22.95V28.382C116.996 28.5033 117.043 28.5687 117.136 28.578ZM124.796 23.762V30.762C124.796 30.8553 124.777 30.9207 124.74 30.958C124.712 30.986 124.647 31 124.544 31H123.872C123.788 31 123.732 30.986 123.704 30.958C123.676 30.93 123.662 30.8787 123.662 30.804V23.776C123.662 23.6453 123.713 23.58 123.816 23.58H124.628C124.74 23.58 124.796 23.6407 124.796 23.762ZM129.892 23.762V30.762C129.892 30.8553 129.873 30.9207 129.836 30.958C129.808 30.986 129.747 31 129.654 31H128.968C128.884 31 128.828 30.986 128.8 30.958C128.772 30.93 128.758 30.8787 128.758 30.804V23.776C128.758 23.6453 128.814 23.58 128.926 23.58H129.738C129.841 23.58 129.892 23.6407 129.892 23.762ZM128.786 23.636L129.486 24.126L124.754 30.944L124.054 30.454L128.786 23.636ZM132.837 23.762V30.762C132.837 30.8553 132.818 30.9207 132.781 30.958C132.743 30.986 132.678 31 132.585 31H131.871C131.787 31 131.731 30.986 131.703 30.958C131.675 30.93 131.661 30.8787 131.661 30.804V23.776C131.661 23.6453 131.712 23.58 131.815 23.58H132.669C132.781 23.58 132.837 23.6407 132.837 23.762ZM137.751 23.762V30.762C137.751 30.8553 137.732 30.9207 137.695 30.958C137.667 30.986 137.606 31 137.513 31H136.785C136.701 31 136.645 30.986 136.617 30.958C136.589 30.93 136.575 30.8787 136.575 30.804V23.776C136.575 23.6453 136.631 23.58 136.743 23.58H137.597C137.699 23.58 137.751 23.6407 137.751 23.762ZM132.151 27.556C132.048 27.556 131.997 27.5047 131.997 27.402V26.814C131.997 26.7207 132.043 26.674 132.137 26.674H137.163C137.265 26.674 137.317 26.7207 137.317 26.814V27.402C137.317 27.5047 137.265 27.556 137.163 27.556H132.151ZM143.695 30.104C143.349 30.44 142.971 30.6967 142.561 30.874C142.159 31.0513 141.711 31.14 141.217 31.14C140.489 31.14 139.915 30.9533 139.495 30.58C139.075 30.2067 138.865 29.7167 138.865 29.11C138.865 28.6153 139.005 28.1907 139.285 27.836C139.574 27.472 139.989 27.1873 140.531 26.982C141.081 26.7673 141.758 26.6367 142.561 26.59L143.653 26.506C143.718 26.4967 143.769 26.478 143.807 26.45C143.853 26.422 143.877 26.3707 143.877 26.296V25.918C143.877 25.414 143.723 25.0173 143.415 24.728C143.107 24.4293 142.682 24.28 142.141 24.28C141.739 24.28 141.371 24.3733 141.035 24.56C140.699 24.7467 140.4 25.0267 140.139 25.4C140.111 25.4467 140.083 25.4793 140.055 25.498C140.027 25.5073 139.985 25.5027 139.929 25.484L139.187 25.232C139.149 25.2133 139.126 25.19 139.117 25.162C139.107 25.134 139.121 25.0827 139.159 25.008C139.429 24.5227 139.821 24.14 140.335 23.86C140.848 23.58 141.469 23.44 142.197 23.44C142.822 23.44 143.34 23.538 143.751 23.734C144.171 23.9207 144.488 24.196 144.703 24.56C144.917 24.9147 145.025 25.3393 145.025 25.834V30.79C145.025 30.874 145.006 30.93 144.969 30.958C144.941 30.986 144.894 31 144.829 31H144.115C144.059 31 144.012 30.9813 143.975 30.944C143.947 30.8973 143.933 30.8413 143.933 30.776L143.905 30.132C143.886 30.0013 143.816 29.992 143.695 30.104ZM143.877 27.444C143.877 27.2853 143.811 27.2107 143.681 27.22L142.757 27.304C142.327 27.3227 141.945 27.3787 141.609 27.472C141.273 27.556 140.988 27.668 140.755 27.808C140.521 27.948 140.344 28.116 140.223 28.312C140.101 28.4987 140.041 28.718 140.041 28.97C140.041 29.3807 140.181 29.7027 140.461 29.936C140.75 30.16 141.137 30.272 141.623 30.272C141.921 30.272 142.206 30.2207 142.477 30.118C142.757 30.006 143.004 29.866 143.219 29.698C143.424 29.5207 143.583 29.3387 143.695 29.152C143.816 28.9653 143.877 28.7833 143.877 28.606V27.444ZM147.795 23.762V30.762C147.795 30.8553 147.776 30.9207 147.739 30.958C147.701 30.986 147.636 31 147.543 31H146.829C146.745 31 146.689 30.986 146.661 30.958C146.633 30.93 146.619 30.8787 146.619 30.804V23.776C146.619 23.6453 146.67 23.58 146.773 23.58H147.627C147.739 23.58 147.795 23.6407 147.795 23.762ZM152.709 23.762V30.762C152.709 30.8553 152.69 30.9207 152.653 30.958C152.625 30.986 152.564 31 152.471 31H151.743C151.659 31 151.603 30.986 151.575 30.958C151.547 30.93 151.533 30.8787 151.533 30.804V23.776C151.533 23.6453 151.589 23.58 151.701 23.58H152.555C152.657 23.58 152.709 23.6407 152.709 23.762ZM147.109 27.556C147.006 27.556 146.955 27.5047 146.955 27.402V26.814C146.955 26.7207 147.001 26.674 147.095 26.674H152.121C152.223 26.674 152.275 26.7207 152.275 26.814V27.402C152.275 27.5047 152.223 27.556 152.121 27.556H147.109ZM157.463 23.44C157.948 23.44 158.373 23.5193 158.737 23.678C159.11 23.8273 159.428 24.0373 159.689 24.308C159.96 24.5693 160.184 24.8587 160.361 25.176C160.417 25.288 160.394 25.358 160.291 25.386L159.521 25.568C159.456 25.596 159.395 25.568 159.339 25.484C159.152 25.2133 158.966 24.994 158.779 24.826C158.602 24.658 158.41 24.532 158.205 24.448C158 24.3547 157.776 24.308 157.533 24.308C157.057 24.308 156.637 24.4293 156.273 24.672C155.918 24.9053 155.643 25.246 155.447 25.694C155.251 26.142 155.153 26.674 155.153 27.29C155.153 27.9153 155.251 28.452 155.447 28.9C155.652 29.348 155.932 29.6887 156.287 29.922C156.651 30.1553 157.076 30.272 157.561 30.272C158.009 30.272 158.396 30.16 158.723 29.936C159.05 29.712 159.348 29.3853 159.619 28.956C159.647 28.9093 159.67 28.886 159.689 28.886C159.717 28.8767 159.754 28.8813 159.801 28.9L160.403 29.124C160.468 29.152 160.487 29.2127 160.459 29.306C160.319 29.5487 160.156 29.782 159.969 30.006C159.782 30.23 159.563 30.426 159.311 30.594C159.068 30.762 158.793 30.8973 158.485 31C158.177 31.0933 157.836 31.14 157.463 31.14C156.772 31.14 156.161 30.9813 155.629 30.664C155.106 30.3373 154.696 29.8893 154.397 29.32C154.098 28.7413 153.949 28.074 153.949 27.318C153.949 26.5527 154.098 25.8807 154.397 25.302C154.705 24.7233 155.12 24.2707 155.643 23.944C156.175 23.608 156.782 23.44 157.463 23.44ZM164.519 31.14C163.819 31.14 163.198 30.9813 162.657 30.664C162.125 30.3373 161.709 29.8893 161.411 29.32C161.121 28.7413 160.977 28.0787 160.977 27.332C160.977 26.5573 161.126 25.8807 161.425 25.302C161.733 24.714 162.153 24.2567 162.685 23.93C163.217 23.6033 163.833 23.44 164.533 23.44C165.242 23.44 165.858 23.608 166.381 23.944C166.913 24.2707 167.323 24.728 167.613 25.316C167.911 25.8947 168.061 26.562 168.061 27.318C168.061 28.0647 167.911 28.7273 167.613 29.306C167.314 29.8753 166.899 30.3233 166.367 30.65C165.844 30.9767 165.228 31.14 164.519 31.14ZM164.547 30.258C165.032 30.258 165.447 30.1413 165.793 29.908C166.138 29.6653 166.399 29.3247 166.577 28.886C166.763 28.438 166.857 27.906 166.857 27.29C166.857 26.674 166.763 26.1467 166.577 25.708C166.39 25.26 166.124 24.9147 165.779 24.672C165.433 24.4293 165.018 24.308 164.533 24.308C164.057 24.308 163.641 24.4293 163.287 24.672C162.932 24.9147 162.657 25.26 162.461 25.708C162.274 26.1467 162.181 26.674 162.181 27.29C162.181 27.8967 162.274 28.424 162.461 28.872C162.657 29.32 162.932 29.6653 163.287 29.908C163.641 30.1413 164.061 30.258 164.547 30.258ZM169.316 31V23.58H172.48C173.376 23.58 174.048 23.7433 174.496 24.07C174.944 24.3967 175.168 24.8727 175.168 25.498C175.168 25.89 175.088 26.2213 174.93 26.492C174.771 26.7533 174.486 26.9633 174.076 27.122C174.038 27.1313 174.02 27.1547 174.02 27.192C174.02 27.22 174.038 27.2387 174.076 27.248C174.486 27.36 174.808 27.57 175.042 27.878C175.284 28.1767 175.406 28.5407 175.406 28.97C175.406 29.6513 175.172 30.16 174.706 30.496C174.239 30.832 173.558 31 172.662 31H169.316ZM172.564 30.188C173.18 30.188 173.623 30.09 173.894 29.894C174.164 29.6887 174.3 29.3667 174.3 28.928C174.3 28.48 174.136 28.158 173.81 27.962C173.492 27.7567 173.021 27.654 172.396 27.654H170.436V30.188H172.564ZM172.34 26.898C172.676 26.898 172.974 26.8607 173.236 26.786C173.497 26.702 173.702 26.5667 173.852 26.38C174.01 26.1933 174.09 25.932 174.09 25.596C174.09 25.1947 173.945 24.9007 173.656 24.714C173.376 24.5273 172.965 24.434 172.424 24.434H170.436V26.898H172.34ZM179.586 31.14C178.886 31.14 178.266 30.9813 177.724 30.664C177.192 30.3373 176.777 29.8893 176.478 29.32C176.189 28.7413 176.044 28.0787 176.044 27.332C176.044 26.5573 176.194 25.8807 176.492 25.302C176.8 24.714 177.22 24.2567 177.752 23.93C178.284 23.6033 178.9 23.44 179.6 23.44C180.31 23.44 180.926 23.608 181.448 23.944C181.98 24.2707 182.391 24.728 182.68 25.316C182.979 25.8947 183.128 26.562 183.128 27.318C183.128 28.0647 182.979 28.7273 182.68 29.306C182.382 29.8753 181.966 30.3233 181.434 30.65C180.912 30.9767 180.296 31.14 179.586 31.14ZM179.614 30.258C180.1 30.258 180.515 30.1413 180.86 29.908C181.206 29.6653 181.467 29.3247 181.644 28.886C181.831 28.438 181.924 27.906 181.924 27.29C181.924 26.674 181.831 26.1467 181.644 25.708C181.458 25.26 181.192 24.9147 180.846 24.672C180.501 24.4293 180.086 24.308 179.6 24.308C179.124 24.308 178.709 24.4293 178.354 24.672C178 24.9147 177.724 25.26 177.528 25.708C177.342 26.1467 177.248 26.674 177.248 27.29C177.248 27.8967 177.342 28.424 177.528 28.872C177.724 29.32 178 29.6653 178.354 29.908C178.709 30.1413 179.129 30.258 179.614 30.258ZM184.509 31C184.425 31 184.383 30.9533 184.383 30.86V23.72C184.383 23.6267 184.43 23.58 184.523 23.58H188.975C189.078 23.58 189.129 23.6267 189.129 23.72V24.308C189.129 24.4107 189.078 24.462 188.975 24.462H185.671C185.596 24.462 185.559 24.4993 185.559 24.574V30.86C185.559 30.9533 185.508 31 185.405 31H184.509ZM192.958 31.14C192.258 31.14 191.638 30.9813 191.096 30.664C190.564 30.3373 190.149 29.8893 189.85 29.32C189.561 28.7413 189.416 28.0787 189.416 27.332C189.416 26.5573 189.566 25.8807 189.864 25.302C190.172 24.714 190.592 24.2567 191.124 23.93C191.656 23.6033 192.272 23.44 192.972 23.44C193.682 23.44 194.298 23.608 194.82 23.944C195.352 24.2707 195.763 24.728 196.052 25.316C196.351 25.8947 196.5 26.562 196.5 27.318C196.5 28.0647 196.351 28.7273 196.052 29.306C195.754 29.8753 195.338 30.3233 194.806 30.65C194.284 30.9767 193.668 31.14 192.958 31.14ZM192.986 30.258C193.472 30.258 193.887 30.1413 194.232 29.908C194.578 29.6653 194.839 29.3247 195.016 28.886C195.203 28.438 195.296 27.906 195.296 27.29C195.296 26.674 195.203 26.1467 195.016 25.708C194.83 25.26 194.564 24.9147 194.218 24.672C193.873 24.4293 193.458 24.308 192.972 24.308C192.496 24.308 192.081 24.4293 191.726 24.672C191.372 24.9147 191.096 25.26 190.9 25.708C190.714 26.1467 190.62 26.674 190.62 27.29C190.62 27.8967 190.714 28.424 190.9 28.872C191.096 29.32 191.372 29.6653 191.726 29.908C192.081 30.1413 192.501 30.258 192.986 30.258ZM73.348 48.14C72.4333 48.14 71.64 47.9347 70.968 47.524C70.3053 47.1133 69.7967 46.516 69.442 45.732C69.0873 44.9387 68.91 43.9773 68.91 42.848C68.91 41.7093 69.092 40.7387 69.456 39.936C69.82 39.1333 70.3333 38.522 70.996 38.102C71.6587 37.682 72.4473 37.472 73.362 37.472C74.2767 37.472 75.0607 37.682 75.714 38.102C76.3767 38.522 76.8853 39.1287 77.24 39.922C77.604 40.7153 77.786 41.686 77.786 42.834C77.786 43.9633 77.6087 44.9247 77.254 45.718C76.8993 46.502 76.386 47.104 75.714 47.524C75.0513 47.9347 74.2627 48.14 73.348 48.14ZM73.376 47.118C74.384 47.118 75.1353 46.7727 75.63 46.082C76.134 45.382 76.386 44.304 76.386 42.848C76.386 41.364 76.1293 40.2673 75.616 39.558C75.112 38.8487 74.3607 38.494 73.362 38.494C72.354 38.494 71.5933 38.8533 71.08 39.572C70.5667 40.2813 70.31 41.3733 70.31 42.848C70.31 44.2947 70.5667 45.368 71.08 46.068C71.5933 46.768 72.3587 47.118 73.376 47.118ZM81.8134 48.126C81.2814 48.126 80.8147 48.0607 80.4134 47.93C80.0121 47.79 79.6714 47.5847 79.3914 47.314C79.1114 47.0433 78.8781 46.712 78.6914 46.32C78.6541 46.2173 78.6821 46.1473 78.7754 46.11L79.3354 45.9C79.4194 45.872 79.4847 45.9 79.5314 45.984C79.7834 46.4227 80.0774 46.7493 80.4134 46.964C80.7587 47.1787 81.2021 47.286 81.7434 47.286C82.3687 47.286 82.8447 47.16 83.1714 46.908C83.5074 46.656 83.6754 46.306 83.6754 45.858C83.6754 45.4567 83.5447 45.1487 83.2834 44.934C83.0314 44.7193 82.6767 44.612 82.2194 44.612H81.0294V43.856H82.1774C82.5414 43.856 82.8494 43.744 83.1014 43.52C83.3534 43.2867 83.4794 42.974 83.4794 42.582C83.4794 42.1993 83.3347 41.8913 83.0454 41.658C82.7654 41.4247 82.3594 41.308 81.8274 41.308C81.3887 41.308 81.0107 41.3967 80.6934 41.574C80.3854 41.742 80.1054 42.0407 79.8534 42.47C79.8161 42.5727 79.7647 42.61 79.6994 42.582L78.8874 42.372C78.8594 42.3533 78.8407 42.33 78.8314 42.302C78.8221 42.274 78.8267 42.2273 78.8454 42.162C79.1067 41.63 79.4847 41.21 79.9794 40.902C80.4834 40.594 81.1181 40.44 81.8834 40.44C82.7701 40.44 83.4467 40.636 83.9134 41.028C84.3894 41.4107 84.6227 41.896 84.6134 42.484C84.6134 42.848 84.5387 43.156 84.3894 43.408C84.2401 43.66 84.0021 43.8653 83.6754 44.024C83.6194 44.052 83.5867 44.0847 83.5774 44.122C83.5774 44.15 83.6101 44.1733 83.6754 44.192C84.0301 44.3133 84.3147 44.5187 84.5294 44.808C84.7441 45.088 84.8514 45.4567 84.8514 45.914C84.8514 46.3433 84.7301 46.726 84.4874 47.062C84.2447 47.3887 83.8947 47.65 83.4374 47.846C82.9894 48.0327 82.4481 48.126 81.8134 48.126ZM85.4468 49.862C85.3908 49.862 85.3488 49.848 85.3208 49.82C85.2928 49.792 85.2788 49.7547 85.2788 49.708V47.272C85.2788 47.1693 85.3255 47.118 85.4188 47.118H90.5988C90.6548 47.118 90.6828 47.0853 90.6828 47.02V41.546C90.6828 41.49 90.6502 41.462 90.5848 41.462H88.0088C87.9435 41.462 87.9108 41.49 87.9108 41.546L86.9588 40.72C86.9588 40.6267 87.0055 40.58 87.0988 40.58H91.6208C91.6955 40.58 91.7422 40.5893 91.7608 40.608C91.7795 40.6267 91.7888 40.6687 91.7888 40.734V46.992C91.7888 47.076 91.8262 47.118 91.9008 47.118H92.6428C92.7362 47.118 92.7828 47.1693 92.7828 47.272V49.708C92.7828 49.7547 92.7688 49.792 92.7408 49.82C92.7222 49.848 92.6802 49.862 92.6148 49.862H91.9288C91.7982 49.862 91.7328 49.806 91.7328 49.694V48.098C91.7328 48.0327 91.6955 48 91.6208 48H86.4408C86.3662 48 86.3288 48.0327 86.3288 48.098V49.694C86.3288 49.806 86.2635 49.862 86.1328 49.862H85.4468ZM85.7408 47.678L85.6848 47.118C85.9928 47.118 86.2402 46.9267 86.4268 46.544C86.6228 46.1613 86.7582 45.6107 86.8328 44.892C86.9168 44.164 86.9588 43.2867 86.9588 42.26V40.72H87.9108V42.288C87.9108 43.1093 87.8688 43.8607 87.7848 44.542C87.7102 45.2233 87.5888 45.802 87.4208 46.278C87.2528 46.754 87.0288 47.1133 86.7488 47.356C86.4688 47.5987 86.1328 47.706 85.7408 47.678ZM96.6876 48.14C95.9876 48.14 95.367 47.9813 94.8256 47.664C94.2936 47.3373 93.8783 46.8893 93.5796 46.32C93.2903 45.7413 93.1456 45.0787 93.1456 44.332C93.1456 43.5573 93.295 42.8807 93.5936 42.302C93.9016 41.714 94.3216 41.2567 94.8536 40.93C95.3856 40.6033 96.0016 40.44 96.7016 40.44C97.411 40.44 98.027 40.608 98.5496 40.944C99.0816 41.2707 99.4923 41.728 99.7816 42.316C100.08 42.8947 100.23 43.562 100.23 44.318C100.23 45.0647 100.08 45.7273 99.7816 46.306C99.483 46.8753 99.0676 47.3233 98.5356 47.65C98.013 47.9767 97.397 48.14 96.6876 48.14ZM96.7156 47.258C97.201 47.258 97.6163 47.1413 97.9616 46.908C98.307 46.6653 98.5683 46.3247 98.7456 45.886C98.9323 45.438 99.0256 44.906 99.0256 44.29C99.0256 43.674 98.9323 43.1467 98.7456 42.708C98.559 42.26 98.293 41.9147 97.9476 41.672C97.6023 41.4293 97.187 41.308 96.7016 41.308C96.2256 41.308 95.8103 41.4293 95.4556 41.672C95.101 41.9147 94.8256 42.26 94.6296 42.708C94.443 43.1467 94.3496 43.674 94.3496 44.29C94.3496 44.8967 94.443 45.424 94.6296 45.872C94.8256 46.32 95.101 46.6653 95.4556 46.908C95.8103 47.1413 96.2303 47.258 96.7156 47.258ZM102.366 40.58C102.497 40.58 102.562 40.65 102.562 40.79V41.378C102.562 41.4527 102.576 41.4947 102.604 41.504C102.642 41.504 102.688 41.4807 102.744 41.434C102.847 41.322 102.987 41.1913 103.164 41.042C103.342 40.8833 103.57 40.7433 103.85 40.622C104.14 40.5007 104.504 40.44 104.942 40.44C105.512 40.44 106.025 40.58 106.482 40.86C106.949 41.1307 107.318 41.5413 107.588 42.092C107.868 42.6427 108.008 43.338 108.008 44.178C108.008 45.018 107.873 45.732 107.602 46.32C107.332 46.908 106.954 47.3607 106.468 47.678C105.992 47.986 105.432 48.14 104.788 48.14C104.359 48.14 103.976 48.0747 103.64 47.944C103.314 47.804 103.034 47.636 102.8 47.44C102.716 47.3653 102.656 47.3373 102.618 47.356C102.59 47.3653 102.576 47.4213 102.576 47.524V50.128C102.576 50.2493 102.525 50.31 102.422 50.31H101.554C101.452 50.31 101.4 50.2493 101.4 50.128V40.804C101.4 40.72 101.414 40.664 101.442 40.636C101.48 40.5987 101.54 40.58 101.624 40.58H102.366ZM102.576 46.362C102.866 46.642 103.16 46.866 103.458 47.034C103.766 47.202 104.107 47.286 104.48 47.286C104.928 47.286 105.325 47.1693 105.67 46.936C106.025 46.7027 106.3 46.3573 106.496 45.9C106.702 45.4427 106.804 44.8733 106.804 44.192C106.804 43.5107 106.702 42.9553 106.496 42.526C106.291 42.0967 106.016 41.784 105.67 41.588C105.334 41.392 104.961 41.294 104.55 41.294C104.168 41.294 103.827 41.378 103.528 41.546C103.23 41.714 102.996 41.924 102.828 42.176C102.66 42.4187 102.576 42.6613 102.576 42.904V46.362ZM112.302 48.14C111.602 48.14 110.981 47.9813 110.44 47.664C109.908 47.3373 109.493 46.8893 109.194 46.32C108.905 45.7413 108.76 45.0787 108.76 44.332C108.76 43.5573 108.909 42.8807 109.208 42.302C109.516 41.714 109.936 41.2567 110.468 40.93C111 40.6033 111.616 40.44 112.316 40.44C113.025 40.44 113.641 40.608 114.164 40.944C114.696 41.2707 115.107 41.728 115.396 42.316C115.695 42.8947 115.844 43.562 115.844 44.318C115.844 45.0647 115.695 45.7273 115.396 46.306C115.097 46.8753 114.682 47.3233 114.15 47.65C113.627 47.9767 113.011 48.14 112.302 48.14ZM112.33 47.258C112.815 47.258 113.231 47.1413 113.576 46.908C113.921 46.6653 114.183 46.3247 114.36 45.886C114.547 45.438 114.64 44.906 114.64 44.29C114.64 43.674 114.547 43.1467 114.36 42.708C114.173 42.26 113.907 41.9147 113.562 41.672C113.217 41.4293 112.801 41.308 112.316 41.308C111.84 41.308 111.425 41.4293 111.07 41.672C110.715 41.9147 110.44 42.26 110.244 42.708C110.057 43.1467 109.964 43.674 109.964 44.29C109.964 44.8967 110.057 45.424 110.244 45.872C110.44 46.32 110.715 46.6653 111.07 46.908C111.425 47.1413 111.845 47.258 112.33 47.258ZM117.099 48V40.58H120.263C121.159 40.58 121.831 40.7433 122.279 41.07C122.727 41.3967 122.951 41.8727 122.951 42.498C122.951 42.89 122.872 43.2213 122.713 43.492C122.554 43.7533 122.27 43.9633 121.859 44.122C121.822 44.1313 121.803 44.1547 121.803 44.192C121.803 44.22 121.822 44.2387 121.859 44.248C122.27 44.36 122.592 44.57 122.825 44.878C123.068 45.1767 123.189 45.5407 123.189 45.97C123.189 46.6513 122.956 47.16 122.489 47.496C122.022 47.832 121.341 48 120.445 48H117.099ZM120.347 47.188C120.963 47.188 121.406 47.09 121.677 46.894C121.948 46.6887 122.083 46.3667 122.083 45.928C122.083 45.48 121.92 45.158 121.593 44.962C121.276 44.7567 120.804 44.654 120.179 44.654H118.219V47.188H120.347ZM120.123 43.898C120.459 43.898 120.758 43.8607 121.019 43.786C121.28 43.702 121.486 43.5667 121.635 43.38C121.794 43.1933 121.873 42.932 121.873 42.596C121.873 42.1947 121.728 41.9007 121.439 41.714C121.159 41.5273 120.748 41.434 120.207 41.434H118.219V43.898H120.123ZM123.576 48C123.492 47.9813 123.454 47.9347 123.464 47.86L123.548 47.146C123.557 47.0713 123.599 47.034 123.674 47.034C124 47.0527 124.271 46.9547 124.486 46.74C124.71 46.516 124.887 46.194 125.018 45.774C125.158 45.3447 125.256 44.836 125.312 44.248C125.377 43.66 125.41 43.0067 125.41 42.288V40.58H130.324V48H129.148V41.434H126.362V42.456C126.362 43.296 126.31 44.0753 126.208 44.794C126.105 45.5033 125.946 46.11 125.732 46.614C125.517 47.118 125.232 47.496 124.878 47.748C124.523 47.9907 124.089 48.0747 123.576 48ZM132.771 44.752C132.771 45.2093 132.878 45.6293 133.093 46.012C133.317 46.3853 133.611 46.684 133.975 46.908C134.348 47.132 134.763 47.244 135.221 47.244C135.687 47.244 136.103 47.1507 136.467 46.964C136.831 46.768 137.143 46.474 137.405 46.082C137.442 46.0447 137.47 46.026 137.489 46.026C137.517 46.0167 137.554 46.0213 137.601 46.04L138.189 46.334C138.273 46.3807 138.282 46.446 138.217 46.53C137.965 46.9033 137.685 47.2113 137.377 47.454C137.078 47.6873 136.742 47.86 136.369 47.972C135.995 48.084 135.575 48.14 135.109 48.14C134.418 48.14 133.807 47.9813 133.275 47.664C132.743 47.3467 132.323 46.9033 132.015 46.334C131.707 45.7647 131.553 45.1067 131.553 44.36C131.553 43.548 131.707 42.8527 132.015 42.274C132.332 41.686 132.757 41.2333 133.289 40.916C133.83 40.5987 134.432 40.44 135.095 40.44C135.776 40.44 136.369 40.5893 136.873 40.888C137.377 41.1867 137.769 41.6207 138.049 42.19C138.329 42.7593 138.469 43.4453 138.469 44.248C138.469 44.3133 138.459 44.3787 138.441 44.444C138.431 44.5093 138.371 44.542 138.259 44.542H132.897C132.859 44.542 132.827 44.5653 132.799 44.612C132.78 44.6493 132.771 44.696 132.771 44.752ZM137.055 43.772C137.157 43.772 137.223 43.7627 137.251 43.744C137.279 43.716 137.293 43.66 137.293 43.576C137.293 43.1747 137.204 42.8013 137.027 42.456C136.859 42.1013 136.611 41.8167 136.285 41.602C135.967 41.3873 135.58 41.28 135.123 41.28C134.619 41.28 134.194 41.4013 133.849 41.644C133.503 41.8773 133.242 42.1853 133.065 42.568C132.887 42.9507 132.799 43.352 132.799 43.772H137.055ZM140.821 40.762V47.762C140.821 47.8553 140.803 47.9207 140.765 47.958C140.728 47.986 140.663 48 140.569 48H139.855C139.771 48 139.715 47.986 139.687 47.958C139.659 47.93 139.645 47.8787 139.645 47.804V40.776C139.645 40.6453 139.697 40.58 139.799 40.58H140.653C140.765 40.58 140.821 40.6407 140.821 40.762ZM145.735 40.762V47.762C145.735 47.8553 145.717 47.9207 145.679 47.958C145.651 47.986 145.591 48 145.497 48H144.769C144.685 48 144.629 47.986 144.601 47.958C144.573 47.93 144.559 47.8787 144.559 47.804V40.776C144.559 40.6453 144.615 40.58 144.727 40.58H145.581C145.684 40.58 145.735 40.6407 145.735 40.762ZM140.135 44.556C140.033 44.556 139.981 44.5047 139.981 44.402V43.814C139.981 43.7207 140.028 43.674 140.121 43.674H145.147C145.25 43.674 145.301 43.7207 145.301 43.814V44.402C145.301 44.5047 145.25 44.556 145.147 44.556H140.135ZM148.628 40.762V47.762C148.628 47.8553 148.609 47.9207 148.572 47.958C148.544 47.986 148.478 48 148.376 48H147.704C147.62 48 147.564 47.986 147.536 47.958C147.508 47.93 147.494 47.8787 147.494 47.804V40.776C147.494 40.6453 147.545 40.58 147.648 40.58H148.46C148.572 40.58 148.628 40.6407 148.628 40.762ZM153.724 40.762V47.762C153.724 47.8553 153.705 47.9207 153.668 47.958C153.64 47.986 153.579 48 153.486 48H152.8C152.716 48 152.66 47.986 152.632 47.958C152.604 47.93 152.59 47.8787 152.59 47.804V40.776C152.59 40.6453 152.646 40.58 152.758 40.58H153.57C153.672 40.58 153.724 40.6407 153.724 40.762ZM152.618 40.636L153.318 41.126L148.586 47.944L147.886 47.454L152.618 40.636ZM159.748 48V45.312H158.362C157.933 45.312 157.532 45.256 157.158 45.144C156.794 45.0227 156.468 44.8593 156.178 44.654C155.898 44.4393 155.679 44.1827 155.52 43.884C155.362 43.576 155.282 43.2353 155.282 42.862C155.282 42.162 155.52 41.6067 155.996 41.196C156.482 40.7853 157.172 40.58 158.068 40.58H160.882V48H159.748ZM155.24 48C155.156 48 155.105 47.9767 155.086 47.93C155.068 47.874 155.082 47.8133 155.128 47.748L157.41 44.864L158.516 45.312C158.339 45.3027 158.204 45.3587 158.11 45.48L156.36 47.86C156.323 47.916 156.286 47.9533 156.248 47.972C156.211 47.9907 156.164 48 156.108 48H155.24ZM158.264 44.514H159.748V41.392H158.194C157.588 41.392 157.14 41.5273 156.85 41.798C156.561 42.0593 156.416 42.4233 156.416 42.89C156.416 43.2727 156.5 43.5853 156.668 43.828C156.846 44.0613 157.074 44.234 157.354 44.346C157.634 44.458 157.938 44.514 158.264 44.514Z" fill="#057CBF"/>
</svg>
